<svg xmlns="http://www.w3.org/2000/svg" width="203" height="47.059" viewBox="0 0 203 47.059">
  <g id="add-note" transform="translate(-1116 -544)">
    <rect id="Rectangle_7" data-name="Rectangle 7" width="203" height="47.059" transform="translate(1116 544)" fill="#29b6f6"/>
    <text id="ADD_NOTE" data-name="ADD NOTE" transform="translate(1166.75 573.995)" fill="#fdfefe" font-size="19" font-family="Montserrat-Medium, Montserrat" font-weight="500"><tspan x="0" y="0">ADD NOTE</tspan></text>
    <g id="presentation-S1mzbB0LV" transform="translate(1108.364 532.182)">
      <g id="Group_160" data-name="Group 160" transform="translate(21.636 17.818)">
        <rect id="Rectangle_66" data-name="Rectangle 66" width="1.273" height="1.273" transform="translate(20.473 22.426) rotate(-135)" fill="#fdfefe"/>
        <path id="Path_27" data-name="Path 27" d="M12.109,28.991v.9h.9l6.564-6.564-.9-.9Z" fill="#fdfefe"/>
        <path id="Path_28" data-name="Path 28" d="M26.091,0H.636A.637.637,0,0,0,0,.636V33.727a.636.636,0,0,0,.636.636H26.091a.636.636,0,0,0,.636-.636V.636A.636.636,0,0,0,26.091,0ZM7,29.273H4.455a.636.636,0,1,1,0-1.273H7a.636.636,0,1,1,0,1.273ZM4.455,25.455a.636.636,0,1,1,0-1.273h6.364a.636.636,0,0,1,0,1.273ZM3.818,21a.636.636,0,0,1,.636-.636h7.636a.636.636,0,0,1,0,1.273H4.455A.636.636,0,0,1,3.818,21Zm18.9.977-9,9a.636.636,0,0,1-.45.187h-1.8a.636.636,0,0,1-.636-.636v-1.8a.634.634,0,0,1,.186-.45l9-9a.635.635,0,0,1,.9,0l1.8,1.8a.635.635,0,0,1,0,.9Zm-.45-4.159H4.455a.636.636,0,1,1,0-1.273H22.273a.636.636,0,1,1,0,1.273Zm0-3.818H4.455a.636.636,0,1,1,0-1.273H22.273a.636.636,0,1,1,0,1.273Zm0-3.818H4.455a.636.636,0,1,1,0-1.273H22.273a.636.636,0,1,1,0,1.273Zm0-3.818H4.455a.636.636,0,1,1,0-1.273H22.273a.636.636,0,1,1,0,1.273Z" fill="#fdfefe"/>
      </g>
    </g>
  </g>
</svg>
