<svg xmlns="http://www.w3.org/2000/svg" xmlns:xlink="http://www.w3.org/1999/xlink" width="114.09" height="114.09" viewBox="0 0 114.09 114.09">
  <defs>
    <filter id="Ellipse_20" x="0" y="0" width="114.09" height="114.09" filterUnits="userSpaceOnUse">
      <feOffset dy="3" input="SourceAlpha"/>
      <feGaussianBlur stdDeviation="3" result="blur"/>
      <feFlood flood-opacity="0.161"/>
      <feComposite operator="in" in2="blur"/>
      <feComposite in="SourceGraphic"/>
    </filter>
  </defs>
  <g id="add-to-q" transform="translate(-1366 -274)">
    <g transform="matrix(1, 0, 0, 1, 1366, 274)" filter="url(#Ellipse_20)">
      <circle id="Ellipse_20-2" data-name="Ellipse 20" cx="48.045" cy="48.045" r="48.045" transform="translate(9 6)" fill="#2ecc71"/>
    </g>
    <g id="Group_154" data-name="Group 154" transform="translate(3.546 2.6)">
      <g id="person_location-SJNZAQ2UE" data-name="person location-SJNZAQ2UE" transform="translate(1403.404 304.987)">
        <g id="Group_152" data-name="Group 152" transform="translate(0 0)">
          <path id="Path_24" data-name="Path 24" d="M18.733,6.244a6.244,6.244,0,1,1,6.244,6.244A6.245,6.245,0,0,1,18.733,6.244Zm0,37.246c1.933.134,3.989.22,6.244.22s4.312-.086,6.244-.22V31.222h6.244V18.733a3.121,3.121,0,0,0-3.122-3.122H15.611a3.121,3.121,0,0,0-3.122,3.122V31.222h6.244Zm15.611-5.554v3.147c5.818.617,9.805,1.72,11.635,2.629-2.69,1.339-9.946,3.121-21,3.121S6.666,45.051,3.97,43.71C5.806,42.8,9.793,41.7,15.611,41.081V37.934C6.464,38.863,0,41.094,0,43.71c0,3.452,11.184,6.244,24.977,6.244s24.977-2.793,24.977-6.244C49.955,41.094,43.484,38.863,34.344,37.936Z" fill="#f6f9fc" stroke="#f6f9fc" stroke-width="0.2" fill-rule="evenodd"/>
        </g>
      </g>
      <g id="Group_153" data-name="Group 153" transform="translate(1386.454 296.4)">
        <line id="Line_12" data-name="Line 12" y2="21.816" transform="translate(10.908)" fill="none" stroke="#f6f9fc" stroke-width="3"/>
        <line id="Line_13" data-name="Line 13" y2="21.817" transform="translate(21.817 10.908) rotate(90)" fill="none" stroke="#f6f9fc" stroke-width="3"/>
      </g>
    </g>
  </g>
</svg>
