<svg xmlns="http://www.w3.org/2000/svg" width="86.124" height="86.124" viewBox="0 0 86.124 86.124">
  <g id="archive-icon" transform="translate(-1432 -377)">
    <g id="Ellipse_2" data-name="Ellipse 2" transform="translate(1432 377)" fill="none" stroke="#78909c" stroke-width="2">
      <circle cx="43.062" cy="43.062" r="43.062" stroke="none"/>
      <circle cx="43.062" cy="43.062" r="42.062" fill="none"/>
    </g>
    <g id="garbage_can-SyBZ_xRQE" data-name="garbage can-SyBZ_xRQE" transform="translate(1436.126 378.975)">
      <g id="Group_33" data-name="Group 33" transform="translate(22.874 18.025)">
        <path id="Path_8" data-name="Path 8" d="M30.188,11.555H2.489c-.67,0-.853.293-.853.832V45.682a.871.871,0,0,0,.853.539h27.7c.655,0,1.192-.291,1.192-.834V12.252c0-.541-.537-.7-1.192-.7ZM9.9,40.444a.828.828,0,0,1-.817.834H7.414a.828.828,0,0,1-.815-.834V17.333a.827.827,0,0,1,.815-.834H9.08a.828.828,0,0,1,.817.834s0,23.111,0,23.111Zm8.26,0a.829.829,0,0,1-.817.834H15.674a.829.829,0,0,1-.817-.834V17.333a.828.828,0,0,1,.817-.834H17.34a.829.829,0,0,1,.817.834V40.444Zm8.258,0a.827.827,0,0,1-.813.834H23.936a.828.828,0,0,1-.817-.834V17.333a.827.827,0,0,1,.817-.834H25.6a.826.826,0,0,1,.813.834V40.444ZM13.211,5.778V3.3h6.594V5.778H23.12V3.3A3.305,3.305,0,0,0,19.805,0H13.211A3.305,3.305,0,0,0,9.9,3.3V5.778Zm18.982.834H.824a.813.813,0,0,0-.817.817V9.094a.81.81,0,0,0,.817.813H32.19a.811.811,0,0,0,.817-.813V7.426a.811.811,0,0,0-.815-.815Z" transform="translate(-0.007 0)" fill="#78909c"/>
      </g>
    </g>
  </g>
</svg>
