<svg xmlns="http://www.w3.org/2000/svg" width="35" height="35" viewBox="0 0 35 35">
  <g id="btn-edit" transform="translate(-1288 -426)">
    <circle id="Ellipse_13" data-name="Ellipse 13" cx="17.5" cy="17.5" r="17.5" transform="translate(1288 426)" fill="#29b6f6"/>
    <g id="pen-r1v3vlR7E" transform="translate(1276.058 414.135)">
      <g id="Group_31" data-name="Group 31" transform="translate(20.942 20.865)">
        <path id="Path_7" data-name="Path 7" d="M10.943,2.977.687,13.233a.371.371,0,0,0-.109.263v3.156a.372.372,0,0,0,.372.372H4.105a.371.371,0,0,0,.263-.109L14.624,6.658,10.943,2.977Zm6.049.789L13.836.61a.371.371,0,0,0-.526,0L11.469,2.451l3.682,3.682,1.841-1.841a.372.372,0,0,0,0-.526Z" transform="translate(-0.578 -0.501)" fill="#f6f9fc"/>
      </g>
    </g>
  </g>
</svg>
