<svg xmlns="http://www.w3.org/2000/svg" width="35" height="35" viewBox="0 0 35 35">
  <g id="btn-delete" transform="translate(-1339 -427)">
    <circle id="Ellipse_13" data-name="Ellipse 13" cx="17.5" cy="17.5" r="17.5" transform="translate(1339 427)" fill="#29b6f6"/>
    <g id="garbage_can-SyBZ_xRQE" data-name="garbage can-SyBZ_xRQE" transform="translate(1327.126 416.975)">
      <g id="Group_33" data-name="Group 33" transform="translate(22.874 18.025)">
        <path id="Path_8" data-name="Path 8" d="M12.043,4.608H1c-.267,0-.34.117-.34.332V18.218a.347.347,0,0,0,.34.215H12.043c.261,0,.475-.116.475-.333V4.886c0-.216-.214-.278-.475-.278ZM3.951,16.129a.33.33,0,0,1-.326.333H2.961a.33.33,0,0,1-.325-.333V6.912a.33.33,0,0,1,.325-.333h.664a.33.33,0,0,1,.326.333s0,9.216,0,9.216Zm3.294,0a.331.331,0,0,1-.326.333H6.255a.331.331,0,0,1-.326-.333V6.912a.33.33,0,0,1,.326-.333h.664a.331.331,0,0,1,.326.333v9.216Zm3.293,0a.33.33,0,0,1-.324.333H9.55a.33.33,0,0,1-.326-.333V6.912A.33.33,0,0,1,9.55,6.58h.664a.33.33,0,0,1,.324.333v9.216ZM5.273,2.3v-.99H7.9V2.3H9.224v-.99A1.318,1.318,0,0,0,7.9,0H5.273A1.318,1.318,0,0,0,3.951,1.314V2.3Zm7.57.333H.333a.324.324,0,0,0-.326.326v.664a.323.323,0,0,0,.326.324H12.842a.323.323,0,0,0,.326-.324V2.962a.324.324,0,0,0-.325-.325Z" transform="translate(-0.007)" fill="#f6f9fc"/>
      </g>
    </g>
  </g>
</svg>
