<svg xmlns="http://www.w3.org/2000/svg" width="537.346" height="326" viewBox="0 0 537.346 326">
  <g id="emegrency-contact-image" transform="translate(0 0)">
    <ellipse id="Ellipse_240" data-name="Ellipse 240" cx="195.612" cy="17.6" rx="195.612" ry="17.6" transform="translate(146.122 290.8)" fill="#3f3d56"/>
    <rect id="Rectangle_292" data-name="Rectangle 292" width="212.322" height="143.807" transform="translate(458.444 143.807) rotate(180)" fill="#3f3d56" opacity="0.3"/>
    <rect id="Rectangle_293" data-name="Rectangle 293" width="62.868" height="68.515" transform="translate(382.023 13.176)" fill="#f2f2f2"/>
    <rect id="Rectangle_294" data-name="Rectangle 294" width="60.609" height="4.141" transform="translate(343.247 17.317) rotate(180)" fill="#f2f2f2"/>
    <rect id="Rectangle_295" data-name="Rectangle 295" width="21.458" height="4.141" transform="translate(403.481 96.373) rotate(180)" fill="#f2f2f2"/>
    <rect id="Rectangle_296" data-name="Rectangle 296" width="61.363" height="4.141" transform="translate(444.138 103.902) rotate(180)" fill="#f2f2f2"/>
    <rect id="Rectangle_297" data-name="Rectangle 297" width="87.338" height="4.141" transform="translate(357.553 32.376) rotate(180)" fill="#f2f2f2"/>
    <rect id="Rectangle_298" data-name="Rectangle 298" width="87.338" height="4.141" transform="translate(357.553 44.046) rotate(180)" fill="#f2f2f2"/>
    <rect id="Rectangle_299" data-name="Rectangle 299" width="87.338" height="4.141" transform="translate(357.553 55.716) rotate(180)" fill="#f2f2f2"/>
    <path id="Path_756" data-name="Path 756" d="M842.637,223.6a11.12,11.12,0,0,1,3.044-1.527,77.626,77.626,0,0,1,21.449-4.669c6.378-.452,13.29.085,18.272,4.093a6.283,6.283,0,0,1,1.854,2.159,7.91,7.91,0,0,1,.234,4.4,4.975,4.975,0,0,1-.427,1.657,3.722,3.722,0,0,1-3.754,1.57c-1.433-.153-2.779-.76-4.193-1.041a18.744,18.744,0,0,0-2.648-.27l-8.868-.48c-5.514-.3-11.1-.592-16.511.521a16.446,16.446,0,0,0-4.77,1.644c-1.235.694-2.067,1.689-3.214.408C841.091,229.816,839.977,225.679,842.637,223.6Z" transform="translate(-451.173 -171.3)" fill="#2f2e41"/>
    <path id="Path_757" data-name="Path 757" d="M869.074,235.53s11.928-5.347,16.452.823-2.468,3.7-2.468,3.7l-7.815,2.468-8.637-1.645Z" transform="translate(-463.868 -179.309)" fill="#f2f2f2"/>
    <path id="Path_758" data-name="Path 758" d="M872.741,226.225s1.645,7.815.411,9.871,6.992,4.936,6.992,4.936l7.815-3.29s-2.057-12.75,0-15.218Z" transform="translate(-466.918 -173.911)" fill="#ffb9b9"/>
    <path id="Path_759" data-name="Path 759" d="M872.741,226.225s1.645,7.815.411,9.871,6.992,4.936,6.992,4.936l7.815-3.29s-2.057-12.75,0-15.218Z" transform="translate(-466.918 -173.911)" opacity="0.1"/>
    <path id="Path_760" data-name="Path 760" d="M885.968,202.146a12.349,12.349,0,0,1-12.339,12.339,12.043,12.043,0,0,1-2.192-.2,12.339,12.339,0,1,1,14.531-12.142Z" transform="translate(-461.226 -157.646)" fill="#ffb9b9"/>
    <path id="Path_761" data-name="Path 761" d="M886.278,263.3H846.927l.892-3.874,3.862-16.831,4.465-3.015,0,0,2.1-1.419,1.043-.7s.617.282,1.329.666c.207.117.418.237.629.365,0,0,0,0,0,0a7.366,7.366,0,0,1,.971.674c.056.053.105.1.154.147.783.783,3.068,4.939,6.848,2.812a5.761,5.761,0,0,0,.553-.346,27.376,27.376,0,0,0,2.812-2.232c.794-.727,1.31-1.288,1.732-1.675a2.734,2.734,0,0,1,.64-.474,1.216,1.216,0,0,1,.576-.139c1.235,0,2.88,2.466,2.88,2.466l.049.143,0,.011,5.191,15.585Z" transform="translate(-454.085 -181.232)" fill="#f2f2f2"/>
    <path id="Path_762" data-name="Path 762" d="M839.672,260.743H851.6a29.012,29.012,0,0,0-.215-4.126c-.365-2.752-1.261-5.4-1.826-8.12a34.159,34.159,0,0,1-.719-7.243c0-.335.011-.674.041-1.013a4.636,4.636,0,0,1,.651-2.2c.282-.433.67-.8.971-1.216a2.788,2.788,0,0,0,.275-.433v0a2.485,2.485,0,0,0,.1-.23,1.856,1.856,0,0,0,.113-.561,3.433,3.433,0,0,0-2.274-2.951,8.5,8.5,0,0,0-5.327-.215,25.357,25.357,0,0,0-5.007,2.048c-.538.264-1.073.535-1.589.836a7.889,7.889,0,0,0-1.683,1.28,10.654,10.654,0,0,0-2.293,4.943,10.451,10.451,0,0,0-.433,4.216c0,.045.015.094.023.139.448,2.345,2.36,4.107,3.381,6.268a13.726,13.726,0,0,1,.632,8.162c-.023.139-.049.279-.075.418h3.324Z" transform="translate(-446.83 -178.675)" fill="#2f2e41"/>
    <path id="Path_763" data-name="Path 763" d="M920.864,242.868a93.2,93.2,0,0,0-3.249,15.062h-17q-.666-1.818-1.329-3.64a27.293,27.293,0,0,1-.907-2.8,13.407,13.407,0,0,1-.38-3.373c0-.271.011-.546.034-.817a.011.011,0,0,0,0-.015,13.471,13.471,0,0,1,.983-4.167,15.541,15.541,0,0,1,.866-1.758c.791-1.431,1.747-2.778,2.6-4.179a19.173,19.173,0,0,0,1.382-2.68.014.014,0,0,1,0-.011,9.621,9.621,0,0,0,.779-3.746c-.026-1.66-2.835-4.555.218-4.277,4.167.376,7.748,2.775,11.011,5.508.87.73,1.72,1.487,2.552,2.232,1.287,1.16,2.646,2.424,3.034,4.115a4.386,4.386,0,0,1,.109.821A11.269,11.269,0,0,1,920.864,242.868Z" transform="translate(-479.474 -175.862)" fill="#2f2e41"/>
    <path id="Path_764" data-name="Path 764" d="M878.977,244.906a9.192,9.192,0,0,0-1.93-3.112A7.161,7.161,0,0,0,874.1,240.3a16.125,16.125,0,0,0-4.325-.62c-1.742-.011-3.762.456-4.5,2.033a4.8,4.8,0,0,0,.459,3.986,3.907,3.907,0,0,0,1.219,1.647,6.769,6.769,0,0,0,2.613.661,12.054,12.054,0,0,1,3.862,1.75l3.051,1.844,5.24,3.168c-.138-.083-.089-3.677-.25-4.266A41.437,41.437,0,0,0,878.977,244.906Z" transform="translate(-463.069 -182.441)" fill="#ffb9b9"/>
    <path id="Path_765" data-name="Path 765" d="M881.7,189.369a3.132,3.132,0,0,0-1.358-1.773,7.189,7.189,0,0,0-.287-2.34c-.747-2.209-2.517-2.083-4.188-3.059-.725-.424-.68-.8-1.057-1.494a5.546,5.546,0,0,0-2.137-2.18,7.689,7.689,0,0,0-3.47-1.472c-2.664-.182-4.706,2.324-7.253,3.128-1.122.354-2.328.369-3.456.7a3.18,3.18,0,0,0-2.422,2.3c-.078.538.059,1.089-.019,1.627-.156,1.069-1.094,1.817-1.722,2.7a6.641,6.641,0,0,0-.119,6.8,9.553,9.553,0,0,0,.8,1.252,7.7,7.7,0,0,0,.845,2.861,14.258,14.258,0,0,0,5.014,5.008,11.839,11.839,0,0,1-.3-2.135,1.474,1.474,0,0,1,.091-.708c.222-.464.809-.588,1.257-.842a3.176,3.176,0,0,0,1.317-2.759c.027-1.066-.2-2.134-.087-3.194a1.746,1.746,0,0,1,.6-1.284,2.064,2.064,0,0,1,1.126-.269,12.716,12.716,0,0,0,5.56-1.011,8.24,8.24,0,0,1,1.73-.875c1.424-.371,2.879.627,3.7,1.848s1.23,2.675,1.987,3.937,2.065,2.387,3.529,2.238a.586.586,0,0,0,.437-.194.656.656,0,0,0,.081-.372l.082-5.6A8.458,8.458,0,0,0,881.7,189.369Z" transform="translate(-457.273 -151.3)" fill="#2f2e41"/>
    <path id="Path_766" data-name="Path 766" d="M835.278,262.74q.4,3.3.486,6.629H825.411v-8.7c.053-.211.109-.418.177-.625a22.364,22.364,0,0,1,3.185-5.4c.057-.087.117-.173.173-.26a14.132,14.132,0,0,0,1.287-2.323c.169-.4.44-2.33.727-2.5,1.227-.712,2.225,2.33,2.394,3.008.6,2.413,1.126,4.849,1.521,7.307Q835.107,261.307,835.278,262.74Z" transform="translate(-443.389 -187.301)" fill="#2f2e41"/>
    <path id="Path_767" data-name="Path 767" d="M918.637,267.077H894.871c-.2-.478-.4-.956-.614-1.431a41.822,41.822,0,0,0-5.7-9.347,2.473,2.473,0,0,1-.7-1.4,1.182,1.182,0,0,1,.154-.629,4.106,4.106,0,0,1,2.093-1.389,7.212,7.212,0,0,0,2.176-1.37,4.667,4.667,0,0,0,1.257-1.856,4.07,4.07,0,0,0,.158-.64l.331.433c.267.354.538.7.813,1.054,2.635,3.384,5.53,6.72,9.171,8.726a15.431,15.431,0,0,0,3,1.276.786.786,0,0,0,.632,0,.765.765,0,0,0,.275-.5c.324-1.355.437-2.752.674-4.126a23.5,23.5,0,0,1,2.481-7.145c.674-1.254,2.865-5.835,4.254-2.948q.6,1.248,1.2,2.5c.252.531.508,1.058.764,1.589a9.88,9.88,0,0,1,1.239,5.534Q918.584,261.249,918.637,267.077Z" transform="translate(-474.431 -185.009)" fill="#2f2e41"/>
    <path id="Path_768" data-name="Path 768" d="M843.894,279.706h2.059l-1.167-3.874-1.683-5.583a18.209,18.209,0,0,1-.162,2.827,18.826,18.826,0,0,1-1.641,5.587c-.162.343-.335.689-.474,1.043Z" transform="translate(-451.052 -197.638)" opacity="0.1"/>
    <path id="Path_769" data-name="Path 769" d="M928.471,265.38a4.022,4.022,0,0,0,.2,2.444,24.619,24.619,0,0,1,.9,7.144.26.26,0,0,1-.3.312,3.279,3.279,0,0,1-2.68-.636Z" transform="translate(-493.684 -195.217)" opacity="0.1"/>
    <rect id="Rectangle_304" data-name="Rectangle 304" width="212.322" height="143.807" transform="translate(0 1.48)" fill="#3f3d56" opacity="0.3"/>
    <rect id="Rectangle_305" data-name="Rectangle 305" width="62.868" height="68.515" transform="translate(13.552 14.656)" fill="#f2f2f2"/>
    <rect id="Rectangle_306" data-name="Rectangle 306" width="60.609" height="4.141" transform="translate(115.196 14.656)" fill="#f2f2f2"/>
    <rect id="Rectangle_307" data-name="Rectangle 307" width="21.458" height="4.141" transform="translate(14.305 93.712)" fill="#f2f2f2"/>
    <rect id="Rectangle_308" data-name="Rectangle 308" width="61.363" height="4.141" transform="translate(14.305 101.242)" fill="#f2f2f2"/>
    <rect id="Rectangle_309" data-name="Rectangle 309" width="87.338" height="4.141" transform="translate(100.891 29.715)" fill="#f2f2f2"/>
    <rect id="Rectangle_310" data-name="Rectangle 310" width="87.338" height="4.141" transform="translate(100.891 41.385)" fill="#f2f2f2"/>
    <rect id="Rectangle_311" data-name="Rectangle 311" width="87.338" height="4.141" transform="translate(100.891 53.055)" fill="#f2f2f2"/>
    <path id="Path_770" data-name="Path 770" d="M199.98,268.483h-8.173q-.943-2.535-1.675-5.135a10.258,10.258,0,0,0-2.665-5.432,10.079,10.079,0,0,1-1.148-1.559,7.32,7.32,0,0,1-.723-4.438,11.533,11.533,0,0,1,.211-1.257c.358-1.607.956-3.151,1.457-4.717a1.789,1.789,0,0,1,1.461-1.208,2.9,2.9,0,0,1,1.6.184,1.982,1.982,0,0,1,.32.166,4.941,4.941,0,0,1,1.728,2.643q2.558,6.867,5.112,13.733.5,1.333.994,2.673c.489,1.31.975,2.62,1.389,3.957C199.9,268.223,199.942,268.35,199.98,268.483Z" transform="translate(-125.268 -184.934)" fill="#d0cde1"/>
    <path id="Path_771" data-name="Path 771" d="M131.986,171.082a6.258,6.258,0,0,0-4.289,4.4c-.193.975-.075,1.989-.237,2.97-.376,2.275-2.162,4.012-3.809,5.626s-3.348,3.489-3.468,5.791c-.132,2.521,1.7,4.884,1.381,7.389-.368,2.91-3.441,4.8-4.2,7.629a7.34,7.34,0,0,0,1.137,5.6,16.028,16.028,0,0,0,8.83,6.5,36.783,36.783,0,0,0,11.06,1.441c4.545.048,9.479-.343,12.894-3.342a10.329,10.329,0,0,0,3.429-6.725c.324-3.474-1.126-7.064-.125-10.407.63-2.1,2.208-4.025,1.973-6.209-.23-2.135-2.095-3.648-3.374-5.373a21.839,21.839,0,0,1-2.629-5.387l-2.43-6.415a7.446,7.446,0,0,0-2.067-3.415c-1.993-1.549-5.2-1.245-7.529-.925C136.367,170.526,134.065,170.379,131.986,171.082Z" transform="translate(-91.298 -147.785)" fill="#2f2e41"/>
    <path id="Path_772" data-name="Path 772" d="M149.8,212.829s.238,7.136-.476,7.85,2.854,5.471,2.854,5.471l6.422-.238,3.33-2.617-2.854-3.806s-1.189-6.185-.238-7.612S149.8,212.829,149.8,212.829Z" transform="translate(-107.229 -168.392)" fill="#a0616a"/>
    <path id="Path_773" data-name="Path 773" d="M149.8,212.829s.238,7.136-.476,7.85,2.854,5.471,2.854,5.471l6.422-.238,3.33-2.617-2.854-3.806s-1.189-6.185-.238-7.612S149.8,212.829,149.8,212.829Z" transform="translate(-107.229 -168.392)" opacity="0.1"/>
    <circle id="Ellipse_241" data-name="Ellipse 241" cx="8.563" cy="8.563" r="8.563" transform="translate(37.93 30.046)" fill="#a0616a"/>
    <path id="Path_774" data-name="Path 774" d="M138.936,258.761h6.942c.26-.471.5-.96.787-1.4v0a3.843,3.843,0,0,1,1.265-1.325,4.985,4.985,0,0,0,.937-.561,2.418,2.418,0,0,0,.572-1.069,16.567,16.567,0,0,0,.783-4.615c.011-.527,0-1.062.03-1.589a6.679,6.679,0,0,1,.158-1.223,9.635,9.635,0,0,1,1.028-2.327q1.412-2.569,2.831-5.139a3.592,3.592,0,0,0,.192-1.506,3.712,3.712,0,0,0-.61-1.931c-.132-.237-.275-.474-.425-.7a15.636,15.636,0,0,0-2.018-2.575,16.324,16.324,0,0,0-5.745-3.889,3.334,3.334,0,0,1-.772-.376,3.2,3.2,0,0,1-.708-.847c-.753-1.133-1.671-2.409-3.03-2.338a1.863,1.863,0,0,0-1.438-.1,1.966,1.966,0,0,0-.211.068,13.38,13.38,0,0,0-1.51.787,7.008,7.008,0,0,1-4.066.738,1.377,1.377,0,0,1-.474-.12,2.431,2.431,0,0,1-.437-.354,2.51,2.51,0,0,0-2.5-.4,2.266,2.266,0,0,0-.994.7c-.248.312-.422.689-.7.983a3.867,3.867,0,0,1-2.925.787,27.032,27.032,0,0,0-6.426.591,12.216,12.216,0,0,0-5.06,2.447l0,0c-.2.173-.392.35-.58.538a4.3,4.3,0,0,0-1,1.431c-.286.738-.248,1.57-.508,2.319-.286.84-.922,1.525-1.178,2.368a9.522,9.522,0,0,1-.493,1.927c.015.011.026.023.041.034,1.37,1.2,2.541,2.786,3.915,3.979a7.9,7.9,0,0,1,1.988,2.221,3.669,3.669,0,0,1,.245.6,9.262,9.262,0,0,1,.2,2.191c.173,3.52,2.082,6.712,4.216,9.513.041.056.083.113.128.166Z" transform="translate(-88.054 -175.213)" fill="#d0cde1"/>
    <path id="Path_775" data-name="Path 775" d="M110.538,259.554q-.486,3.371-.979,6.739a29.361,29.361,0,0,1-.67,3.569c-.2.727-.448,1.438-.625,2.165h-9.8a9.392,9.392,0,0,1,.094-1.216,20.1,20.1,0,0,1,1.223-4.22q1.711-4.619,3.418-9.246c.486-1.314.9-2.688,1.438-3.991.094-.241.2-.482.3-.715.568-1.25,2.146-.738,3.313-.55a3.146,3.146,0,0,1,.926.263,2.39,2.39,0,0,1,.87.821c1.107,1.638.866,3.8.58,5.76Q110.583,259.244,110.538,259.554Z" transform="translate(-81.991 -188.478)" fill="#d0cde1"/>
    <path id="Path_776" data-name="Path 776" d="M174.623,289.2c.015.053.177.614.444,1.4h-8.173c4.051-.7,7.729-1.408,7.729-1.408Z" transform="translate(-116.012 -207.058)" fill="#2f2e41"/>
    <ellipse id="Ellipse_242" data-name="Ellipse 242" cx="9.277" cy="4.995" rx="9.277" ry="4.995" transform="translate(37.93 28.618)" fill="#2f2e41"/>
    <rect id="Rectangle_316" data-name="Rectangle 316" width="212.322" height="143.807" transform="translate(136.018 54.42)" fill="#3f3d56"/>
    <ellipse id="Ellipse_243" data-name="Ellipse 243" cx="24.846" cy="2.635" rx="24.846" ry="2.635" transform="translate(292.624 183.169)" opacity="0.1"/>
    <rect id="Rectangle_317" data-name="Rectangle 317" width="62.868" height="68.515" transform="translate(149.57 67.596)" fill="#f2f2f2"/>
    <path id="Path_777" data-name="Path 777" d="M397.389,300.918a.923.923,0,0,0,1.082-.447c.87-1.37-.731-3.137-.385-4.722.278-1.27,1.721-2.024,2.016-3.29.287-1.23-.6-2.617,0-3.73a2.478,2.478,0,0,1,2.614-.949c.978.153,1.906.583,2.894.643a14.194,14.194,0,0,0,3.858-.786c1.287-.287,2.857-.175,3.614.9.972,1.386-.014,3.317.325,4.976.269,1.317,1.372,2.408,1.4,3.753.008.478-1.248.093-1.181.566s-.527.057-.052,0a.94.94,0,0,0,.714-.849c.056-.394.8-.526.789-.924-.02-.933,1.667-.3,1.944-1.195a9.033,9.033,0,0,0-.369-6.3A12.623,12.623,0,0,1,415.571,286c-.248-1.237.142-2.565-.267-3.758-.551-1.608-2.373-2.428-4.065-2.595s-3.411.132-5.093-.114c-1.507-.22-2.966-.873-4.486-.778a7.453,7.453,0,0,0-4.675,2.608,39.285,39.285,0,0,1-3.773,3.967,7.4,7.4,0,0,0-1.21,1.041,4.063,4.063,0,0,0-.6,3.3c.2,1.135.646,2.217.833,3.355.176,1.069.121,2.161.2,3.242a5.7,5.7,0,0,0,.951,3.06,2.888,2.888,0,0,0,2.248,1.174c.3.007.561-.266.869-.2C396.882,300.4,397.048,300.762,397.389,300.918Z" transform="translate(-227.575 -201.864)" fill="#2f2e41"/>
    <path id="Path_778" data-name="Path 778" d="M375.913,386.138c.275-3.768.482-6.584.482-6.584l1.777-4.683,5.7,11.267Z" transform="translate(-219.924 -249.649)" fill="#575a89"/>
    <path id="Path_779" data-name="Path 779" d="M375.913,386.138c.275-3.768.482-6.584.482-6.584l1.777-4.683,5.7,11.267Z" transform="translate(-219.924 -249.649)" opacity="0.1"/>
    <path id="Path_780" data-name="Path 780" d="M402.2,320.34s5.318,13.537,2.256,16.115,17.082-4.351,17.082-4.351l-.483-1.773s-6.607-2.578-3.384-9.992S402.2,320.34,402.2,320.34Z" transform="translate(-232.991 -220.902)" fill="#a0616a"/>
    <path id="Path_781" data-name="Path 781" d="M402.2,320.34s5.318,13.537,2.256,16.115,17.082-4.351,17.082-4.351l-.483-1.773s-6.607-2.578-3.384-9.992S402.2,320.34,402.2,320.34Z" transform="translate(-232.991 -220.902)" opacity="0.1"/>
    <circle id="Ellipse_244" data-name="Ellipse 244" cx="11.281" cy="11.281" r="11.281" transform="translate(165.499 82.355)" fill="#a0616a"/>
    <path id="Path_782" data-name="Path 782" d="M424.565,350.891l-.124,2.462c-.162,3.189-.452,9.163-.742,16.056H379.97a21.68,21.68,0,0,1-2.782-4.981,5.375,5.375,0,0,1-.328-1.6c-.241-4.273,3.588-10.236,6.291-10.8,3.061-.648,8.862-6.769,8.862-6.769a1.38,1.38,0,0,0,.738,1.114v0a3,3,0,0,0,1.517.331c1.89,0,10.2-3.836,12.871-5.09.523-.245.828-.392.828-.392a62.551,62.551,0,0,0,9.509,3.226A10.114,10.114,0,0,1,424.565,350.891Z" transform="translate(-220.39 -232.92)" fill="#575a89"/>
    <path id="Path_783" data-name="Path 783" d="M393.543,298.675a.923.923,0,0,0,1.082-.447c.87-1.37-.731-3.137-.385-4.722.278-1.27,1.721-2.024,2.016-3.29.287-1.23-.6-2.617,0-3.73a2.478,2.478,0,0,1,2.614-.949c.978.153,1.906.583,2.894.643a14.2,14.2,0,0,0,3.858-.786c1.287-.287,2.857-.175,3.614.9.972,1.386-.014,3.317.325,4.976.269,1.317,3.331,2.242,3.609,1.351a9.033,9.033,0,0,0-.369-6.3,12.621,12.621,0,0,1-1.076-2.563c-.248-1.237.142-2.565-.267-3.758-.551-1.608-2.373-2.428-4.065-2.595s-3.411.132-5.093-.114c-1.507-.22-2.966-.873-4.486-.778a7.454,7.454,0,0,0-4.675,2.608,39.285,39.285,0,0,1-3.773,3.967,7.4,7.4,0,0,0-1.21,1.041,4.063,4.063,0,0,0-.6,3.3c.2,1.135.646,2.217.833,3.355.176,1.069.121,2.161.2,3.242a5.7,5.7,0,0,0,.951,3.06,2.888,2.888,0,0,0,2.248,1.174c.3.007.561-.266.869-.2C393.036,298.154,393.2,298.518,393.543,298.675Z" transform="translate(-225.663 -200.749)" fill="#2f2e41"/>
    <path id="Path_784" data-name="Path 784" d="M468.486,378.97H455.724c-.971-7.123-1.773-14.569-1.773-14.569l2.579-1.129,5.24-2.82s.384.911,1,2.462C464.089,366.23,466.479,372.472,468.486,378.97Z" transform="translate(-258.72 -242.481)" opacity="0.1"/>
    <path id="Path_785" data-name="Path 785" d="M466.664,377.217h-14.4c-2.135-7.793-4.239-16.263-4.239-16.263l5.481-4.028,6.445,1.773S463.72,367.677,466.664,377.217Z" transform="translate(-255.772 -240.728)" fill="#575a89"/>
    <rect id="Rectangle_318" data-name="Rectangle 318" width="60.609" height="4.141" transform="translate(251.214 67.596)" fill="#017bff"/>
    <rect id="Rectangle_319" data-name="Rectangle 319" width="21.458" height="4.141" transform="translate(150.323 146.653)" fill="#017bff"/>
    <rect id="Rectangle_320" data-name="Rectangle 320" width="61.363" height="4.141" transform="translate(150.323 154.182)" fill="#017bff"/>
    <rect id="Rectangle_321" data-name="Rectangle 321" width="87.338" height="4.141" transform="translate(236.908 82.655)" fill="#f2f2f2"/>
    <rect id="Rectangle_322" data-name="Rectangle 322" width="87.338" height="4.141" transform="translate(236.908 94.325)" fill="#f2f2f2"/>
    <rect id="Rectangle_323" data-name="Rectangle 323" width="87.338" height="4.141" transform="translate(236.908 105.995)" fill="#f2f2f2"/>
    <path id="Path_786" data-name="Path 786" d="M704.484,429.437l-23.875,23.875-10.035-10.035a3.43,3.43,0,0,0-4.851,0l-.36-.539c-1.34,1.34-.979,4.051.36,5.39l13.02,13.02a2.617,2.617,0,0,0,3.7,0l26.889-26.861c1.34-1.339,1.827-3.795.487-5.134h0C708.48,427.815,705.823,428.1,704.484,429.437Z" transform="translate(-363.403 -276.202)" fill="#57b894"/>
    <path id="Path_787" data-name="Path 787" d="M704.484,429.437l-23.875,23.875-10.035-10.035a3.43,3.43,0,0,0-4.851,0l-.36-.539c-1.34,1.34-.979,4.051.36,5.39l13.02,13.02a2.617,2.617,0,0,0,3.7,0l26.889-26.861c1.34-1.339,1.827-3.795.487-5.134h0C708.48,427.815,705.823,428.1,704.484,429.437Z" transform="translate(-363.403 -276.202)" opacity="0.1"/>
    <path id="Path_788" data-name="Path 788" d="M704.68,427.483,680.8,451.358,670.77,441.323a3.43,3.43,0,0,0-4.851,0h0a3.43,3.43,0,0,0,0,4.851l13.02,13.02a2.617,2.617,0,0,0,3.7,0l26.889-26.861a3.429,3.429,0,0,0,0-4.851h0A3.429,3.429,0,0,0,704.68,427.483Z" transform="translate(-363.599 -275.306)" fill="#57b894"/>
    <path id="Path_789" data-name="Path 789" d="M928.808,671.069c0,26.92-37.523,18.593-83.466,18.593s-82.908,8.327-82.908-18.593,37.518-32.775,83.461-32.775S928.808,644.15,928.808,671.069Z" transform="translate(-412.08 -380.609)" opacity="0.1"/>
    <path id="Path_790" data-name="Path 790" d="M928.808,661.069c0,26.92-37.523,18.593-83.466,18.593s-82.908,8.327-82.908-18.593,37.518-32.775,83.461-32.775S928.808,634.149,928.808,661.069Z" transform="translate(-412.08 -375.637)" fill="#3f3d56"/>
    <path id="Path_791" data-name="Path 791" d="M760.049,525.762l-1.7,1.974s-20.674,1.941-19.834,5.3,24.891-4.475,24.891-4.475Z" transform="translate(-400.176 -324.664)" fill="#ffc1c7"/>
    <path id="Path_792" data-name="Path 792" d="M822.156,522.425s-22.094,7.831-34.12,4.475l5.593,11.187s28.526-.839,33.56-5.873S822.156,522.425,822.156,522.425Z" transform="translate(-424.808 -323.005)" fill="#29b6f6"/>
    <circle id="Ellipse_245" data-name="Ellipse 245" cx="14.822" cy="14.822" r="14.822" transform="translate(367.563 109.786)" fill="#ffc1c7"/>
    <path id="Path_794" data-name="Path 794" d="M828.625,394.629a11.562,11.562,0,0,0,1.92,2.662,24.244,24.244,0,0,0,7.145,5.346,243.468,243.468,0,0,1-25.457,3.785c.9-3.178-.285-6.576-1.882-9.468s-3.631-5.587-4.63-8.736l10.019.269c1.818.049,3.641.1,5.459.014,1.358-.066,3.621-.88,4.889-.581C828.768,388.555,827.454,392.252,828.625,394.629Z" transform="translate(-433.6 -256.105)" fill="#ffc1c7"/>
    <path id="Path_795" data-name="Path 795" d="M810.9,535.519l8.39,10.068s13.983,32.721-16.5,36.077-53.137-2.517-53.137-2.517-12.305-5.873-12.585-1.4-1.4,17.06-8.11,29.365l-5.873,13.424a8.671,8.671,0,0,0-2.237,7.271c.839,4.2-18.738,5.593-18.458,0,0,0,2.8-4.754,2.8-7.551s4.475-9.509,4.475-9.509l8.11-40.272s-.559-20.7,18.458-16.78,46.145-.839,46.145-.839l6.153-21.534Z" transform="translate(-382.226 -327.429)" fill="#2f2e41"/>
    <path id="Path_796" data-name="Path 796" d="M810.9,535.519l8.39,10.068s13.983,32.721-16.5,36.077-53.137-2.517-53.137-2.517-12.305-5.873-12.585-1.4-1.4,17.06-8.11,29.365l-5.873,13.424a8.671,8.671,0,0,0-2.237,7.271c.839,4.2-18.738,5.593-18.458,0,0,0,2.8-4.754,2.8-7.551s4.475-9.509,4.475-9.509l8.11-40.272s-.559-20.7,18.458-16.78,46.145-.839,46.145-.839l6.153-21.534Z" transform="translate(-382.226 -327.429)" opacity="0.1"/>
    <path id="Path_797" data-name="Path 797" d="M753.9,535.966s25.59-9.611,39.853,10.8c0,0,3.636,31.6-10.907,33s-33.56,1.119-38.035-3.636-32.721-18.178-32.721-18.178-14.061-7.172-16.819,2.147-3.038,11.557-3.038,11.557-14.543,10.627-20.416,12.585c0,0-3.915,5.593-6.153,5.593s-15.941,3.076-14.543-7.271l22.653-20.7,22.653-22.094s6.432-9.509,22.933-4.475a341.144,341.144,0,0,0,33.281,8.11Z" transform="translate(-356.693 -328.613)" fill="#2f2e41"/>
    <path id="Path_798" data-name="Path 798" d="M698,721.272s5.314,13.424.839,15.1-13.983.559-13.983.559-11.187-1.4-13.983-1.119-14.263-1.958-12.585-6.432,10.348-3.356,10.348-3.356l7.831-3.636s.839-2.8,2.8-1.678S686.813,726.026,698,721.272Z" transform="translate(-360.221 -421.451)" fill="#cbceda"/>
    <path id="Path_799" data-name="Path 799" d="M647.492,637.028s5.873,13.144-3.636,12.026-16.78-3.076-19.577-3.356c-2.69-.269-10.3-2.867-9.13-8.043a4.6,4.6,0,0,0,.076-1.016c0-.695.944-2.058,8.495-1.848,0,0,5.593,0,7.831-3.915C631.551,630.876,639.94,641.5,647.492,637.028Z" transform="translate(-338.798 -376.92)" fill="#cbceda"/>
    <path id="Path_800" data-name="Path 800" d="M805.834,415.118s20.136-12.585,36.916,0,27.967,69.917,27.967,69.917l-38.874-8.67s-1.678-6.712-3.915-7.831-2.517-5.873-2.517-5.873-12.026-3.636-11.187-17.619S805.834,415.118,805.834,415.118Z" transform="translate(-433.656 -266.878)" fill="#29b6f6"/>
    <path id="Path_801" data-name="Path 801" d="M801.861,421.76H791.514s-6.153,6.992-6.992,24.611l-3.356,13.984s-6.992,16.78-2.8,19.577,12.305,2.517,13.983-3.076S805.5,438.82,805.5,438.82Z" transform="translate(-419.336 -272.96)" fill="#29b6f6"/>
    <path id="Path_802" data-name="Path 802" d="M793.372,334.183a14.983,14.983,0,0,1,15.5,2.541c5.371,4.793,6.455,12.613,7.812,19.682s4.089,14.942,10.752,17.668a28.013,28.013,0,0,1-9.027-.263l10.069,9.023-16.962-5.529c-5.323-1.735-10.914-3.492-16.427-2.512-9.132,1.623-15.49,10.208-24.262,13.224l.975-4.756-5.885-.045a11.526,11.526,0,0,0,3.372-3.95,3.263,3.263,0,0,0-2.251-1.178c-2.453-15.3,6.633-30.427,18.474-40.423,2.329-1.966,4.906-3.855,7.914-4.347s6.52.853,7.566,3.716" transform="translate(-413.812 -228.865)" fill="#2f2e41"/>
    <path id="Path_803" data-name="Path 803" d="M310.2,614.159c0,32.191,20.195,58.24,45.152,58.24" transform="translate(-187.253 -368.61)" fill="#3f3d56"/>
    <path id="Path_804" data-name="Path 804" d="M399.987,671.753c0-32.553,22.536-58.894,50.387-58.894" transform="translate(-231.892 -367.964)" fill="#6c63ff"/>
    <path id="Path_805" data-name="Path 805" d="M342.729,619.963c0,30.578,12.878,55.321,28.793,55.321" transform="translate(-203.427 -371.495)" fill="#6c63ff"/>
    <path id="Path_806" data-name="Path 806" d="M399.987,655.579c0-41.6,26.049-75.253,58.24-75.253" transform="translate(-231.892 -351.79)" fill="#3f3d56"/>
    <path id="Path_807" data-name="Path 807" d="M381.1,727.372s6.4-.2,8.333-1.571,9.85-3.015,10.329-.811,9.623,10.961,2.394,11.019-16.8-1.126-18.724-2.3S381.1,727.372,381.1,727.372Z" transform="translate(-222.501 -423.173)" fill="#a8a8a8"/>
    <path id="Path_808" data-name="Path 808" d="M402.281,738.655c-7.229.058-16.8-1.126-18.724-2.3-1.467-.894-2.051-4.1-2.247-5.579l-.214.008s.406,5.164,2.332,6.338,11.494,2.358,18.724,2.3c2.087-.017,2.808-.759,2.768-1.859C404.631,738.227,403.835,738.642,402.281,738.655Z" transform="translate(-222.501 -426.585)" opacity="0.2"/>
  </g>
</svg>
