<svg xmlns="http://www.w3.org/2000/svg" width="76.884" height="76.883" viewBox="0 0 76.884 76.883">
  <g id="emegency" transform="translate(-1323 -188)">
    <g id="Ellipse_2" data-name="Ellipse 2" transform="translate(1323 188)" fill="none" stroke="#78909c" stroke-width="2">
      <circle cx="38.442" cy="38.442" r="38.442" stroke="none"/>
      <circle cx="38.442" cy="38.442" r="37.442" fill="none"/>
    </g>
    <g id="ldap-r1kmuZ1NN" transform="translate(1331.927 208.532)">
      <g id="Group_76" data-name="Group 76" transform="translate(0 0)">
        <path id="Path_12" data-name="Path 12" d="M53.553,14.018a5.535,5.535,0,1,0-7.477,0,10,10,0,0,0-6.017,7.2,16.59,16.59,0,0,0-5.088-2.7,9.962,9.962,0,1,0-10.168,0,16.587,16.587,0,0,0-5.087,2.7,9.993,9.993,0,0,0-6.017-7.2,5.535,5.535,0,1,0-7.477,0A9.972,9.972,0,0,0,0,23.247a1.107,1.107,0,0,0,1.107,1.107H16.636a16.5,16.5,0,0,0-3.352,9.963,1.107,1.107,0,0,0,1.107,1.107h31a1.106,1.106,0,0,0,1.107-1.107,16.5,16.5,0,0,0-3.352-9.963H58.671a1.106,1.106,0,0,0,1.107-1.107,9.974,9.974,0,0,0-6.225-9.229Z" fill="#78909c" fill-rule="evenodd"/>
      </g>
    </g>
  </g>
</svg>
