<svg xmlns="http://www.w3.org/2000/svg" width="47.249" height="47.249" viewBox="0 0 47.249 47.249">
  <g id="medical-aid" transform="translate(-1211 -244)">
    <g id="Ellipse_2" data-name="Ellipse 2" transform="translate(1211 244)" fill="none" stroke="#f6f9fc" stroke-width="2">
      <circle cx="23.624" cy="23.624" r="23.624" stroke="none"/>
      <circle cx="23.624" cy="23.624" r="22.624" fill="none"/>
    </g>
    <g id="city-HJIIxfJ44" transform="translate(1220.326 253.326)">
      <g id="Group_86" data-name="Group 86" transform="translate(0 0)">
        <path id="Path_13" data-name="Path 13" d="M5.234,15.12H.582A.581.581,0,0,0,0,15.7V28.495a.581.581,0,0,0,.582.582H5.234a.581.581,0,0,0,.582-.582V15.7a.581.581,0,0,0-.582-.581Zm23.261,2.326H23.843a.581.581,0,0,0-.582.582V28.495a.581.581,0,0,0,.582.582h4.652a.581.581,0,0,0,.582-.582V18.027a.581.581,0,0,0-.582-.582ZM21.517,9.3H19.772V4.071a.581.581,0,0,0-.582-.582H15.12V.582a.582.582,0,0,0-1.163,0V3.489H9.886a.582.582,0,0,0-.582.582V9.3H7.56a.582.582,0,0,0-.582.582V28.495a.581.581,0,0,0,.582.582H21.517a.581.581,0,0,0,.581-.582V9.886a.581.581,0,0,0-.581-.582Zm-4.652,15.12H12.212a.582.582,0,0,1,0-1.163h4.652a.582.582,0,0,1,0,1.163Zm0-4.652H12.212a.582.582,0,0,1,0-1.163h4.652a.582.582,0,0,1,0,1.163Zm0-4.652H12.212a.582.582,0,0,1,0-1.163h4.652a.582.582,0,0,1,0,1.163Z" fill="#f6f9fc"/>
      </g>
    </g>
  </g>
</svg>
