<svg xmlns="http://www.w3.org/2000/svg" width="86.124" height="86.124" viewBox="0 0 86.124 86.124">
  <g id="medical-aid-icon" transform="translate(-1211 -244)">
    <g id="Ellipse_2" data-name="Ellipse 2" transform="translate(1211 244)" fill="none" stroke="#78909c" stroke-width="2">
      <circle cx="43.062" cy="43.062" r="43.062" stroke="none"/>
      <circle cx="43.062" cy="43.062" r="42.062" fill="none"/>
    </g>
    <g id="city-HJIIxfJ44" transform="translate(1208.91 241.91)">
      <g id="Group_86" data-name="Group 86" transform="translate(19.09 19.09)">
        <path id="Path_13" data-name="Path 13" d="M9.54,27.56H1.06A1.06,1.06,0,0,0,0,28.62V51.94A1.06,1.06,0,0,0,1.06,53H9.54a1.06,1.06,0,0,0,1.06-1.06V28.62a1.06,1.06,0,0,0-1.06-1.06Zm42.4,4.24H43.46a1.059,1.059,0,0,0-1.06,1.06V51.94A1.059,1.059,0,0,0,43.46,53h8.48A1.059,1.059,0,0,0,53,51.94V32.86a1.059,1.059,0,0,0-1.06-1.06ZM39.22,16.96H36.04V7.42a1.06,1.06,0,0,0-1.06-1.06H27.56V1.06a1.06,1.06,0,0,0-2.12,0v5.3H18.02a1.06,1.06,0,0,0-1.06,1.06v9.54H13.78a1.06,1.06,0,0,0-1.06,1.06V51.94A1.06,1.06,0,0,0,13.78,53H39.22a1.059,1.059,0,0,0,1.06-1.06V18.02a1.06,1.06,0,0,0-1.06-1.06ZM30.74,44.52H22.26a1.06,1.06,0,0,1,0-2.12h8.48a1.06,1.06,0,0,1,0,2.12Zm0-8.48H22.26a1.06,1.06,0,0,1,0-2.12h8.48a1.06,1.06,0,0,1,0,2.12Zm0-8.48H22.26a1.06,1.06,0,0,1,0-2.12h8.48a1.06,1.06,0,0,1,0,2.12Z" fill="#78909c"/>
      </g>
    </g>
  </g>
</svg>
