<svg xmlns="http://www.w3.org/2000/svg" width="46.124" height="46.124" viewBox="0 0 46.124 46.124">
  <g id="medicine-icon" transform="translate(-1432 -184)">
    <g id="Ellipse_2" data-name="Ellipse 2" transform="translate(1432 184)" fill="none" stroke="#78909c" stroke-width="2">
      <circle cx="23.062" cy="23.062" r="23.062" stroke="none"/>
      <circle cx="23.062" cy="23.062" r="22.062" fill="none"/>
    </g>
    <g id="medical-rkYmWXJEV" transform="translate(1447.531 193.104)">
      <g id="Group_98" data-name="Group 98">
        <path id="Path_14" data-name="Path 14" d="M3.58,7.159h8.182a.511.511,0,0,0,.511-.511V.511A.511.511,0,0,0,11.762,0H3.58a.512.512,0,0,0-.511.511V6.648a.512.512,0,0,0,.511.511ZM9.2,2.557a.511.511,0,0,1,1.023,0V4.6A.511.511,0,0,1,9.2,4.6V2.557Zm-2.045,0a.511.511,0,1,1,1.023,0V4.6a.511.511,0,1,1-1.023,0V2.557Zm-2.045,0a.511.511,0,1,1,1.023,0V4.6a.511.511,0,1,1-1.023,0V2.557Zm7.932,7.774c-.2-.117-1.165-.655-1.8-.943V8.693a.511.511,0,0,0-.511-.511H4.6a.512.512,0,0,0-.511.511v.7C2.885,9.917,0,11.438,0,12.784V27.1a.511.511,0,0,0,.511.511H14.83a.511.511,0,0,0,.511-.511V12.784c0-.744-.73-1.523-2.3-2.454Zm-.773,12.681a.511.511,0,0,1-.511.511H3.58a.511.511,0,0,1-.511-.511V14.83a.511.511,0,0,1,.511-.511h8.182a.511.511,0,0,1,.511.511v8.182Z" fill="#78909c"/>
        <path id="Path_15" data-name="Path 15" d="M5.091,26.25H12.25V19.091H5.091V26.25Zm1.534-4.091H8.159V20.625a.511.511,0,1,1,1.023,0v1.534h1.534a.511.511,0,1,1,0,1.023H9.182v1.534a.511.511,0,1,1-1.023,0V23.182H6.625a.511.511,0,1,1,0-1.023Z" transform="translate(-1 -3.75)" fill="#78909c"/>
      </g>
    </g>
  </g>
</svg>
