<svg xmlns="http://www.w3.org/2000/svg" width="32.778" height="32.601" viewBox="0 0 32.778 32.601">
  <g id="mobile-patients" transform="translate(-550.301 -203.301)">
    <g id="checkup" transform="translate(550.301 203.301)">
      <path id="Path_495" data-name="Path 495" d="M20.679,289.344v2.1l-5.135,1.467a4.207,4.207,0,0,0-2.88,2.858l-1.976,6.717H37.5l-.773-2.629-.294-.992-3.394-6.31Z" transform="translate(-9.985 -270.414)" fill="#92e0c0"/>
      <g id="Group_243" data-name="Group 243" transform="translate(10.572 18.93)">
        <path id="Path_496" data-name="Path 496" d="M274.7,325.669l1.976,6.717H272.91l-.789-5.6a3.155,3.155,0,0,0-1.153-2.023l-4.28-3.424,5.135,1.467A4.207,4.207,0,0,1,274.7,325.669Z" transform="translate(-259.731 -319.241)" fill="#48c397"/>
        <path id="Path_497" data-name="Path 497" d="M167.8,295.654a7.857,7.857,0,0,0,5.812-2.569l-.283-.526-12.365-3.214v2.1l-.121.035A7.884,7.884,0,0,0,167.8,295.654Z" transform="translate(-160.848 -289.344)" fill="#48c397"/>
      </g>
      <path id="Path_498" data-name="Path 498" d="M310.369,306.4l7.868,7.868a1.859,1.859,0,0,1,.545,1.315h0a1.859,1.859,0,0,1-1.859,1.859h0a1.857,1.857,0,0,1-1.315-.545l-7.868-7.868-1.052-1.052,2.629-2.629Z" transform="translate(-286.53 -285.363)" fill="#eabd8c"/>
      <rect id="Rectangle_261" data-name="Rectangle 261" width="3.718" height="2.358" transform="translate(26.73 23.922) rotate(135)" fill="#d3a06c"/>
      <path id="Path_499" data-name="Path 499" d="M311.42,307.447l-1.052-1.052-1.052-1.052-2.629,2.629,1.052,1.052,1.052,1.052Z" transform="translate(-286.53 -285.363)" fill="#8c95a4"/>
      <path id="Path_500" data-name="Path 500" d="M90.688,22.49V17.231a7.888,7.888,0,0,1,7.887-7.887h0a7.888,7.888,0,0,1,7.887,7.887V22.49Z" transform="translate(-84.727 -8.818)" fill="#d3a06c"/>
      <path id="Path_501" data-name="Path 501" d="M199.477,9.344c-.266,0-.53.014-.789.04,3.986.4,6.047,3.758,6.047,7.847V22.49h2.629V17.231A7.888,7.888,0,0,0,199.477,9.344Z" transform="translate(-185.629 -8.818)" fill="#b27946"/>
      <g id="Group_244" data-name="Group 244" transform="translate(5.961 6.31)">
        <path id="Path_502" data-name="Path 502" d="M93.843,177.344H92.791a2.1,2.1,0,0,0-2.1,2.1h0a2.1,2.1,0,0,0,2.1,2.1h1.052Z" transform="translate(-90.688 -172.086)" fill="#f9e0a6"/>
        <path id="Path_503" data-name="Path 503" d="M134.256,101.818a5.259,5.259,0,0,0-1.152-3.285l-.951-1.189-.485.4a9.6,9.6,0,0,1-6.145,2.225h-2.835v5.258a5.78,5.78,0,0,0,2.629,4.849l1.577.935,7.362-1.052Z" transform="translate(-120.585 -97.344)" fill="#f9e0a6"/>
      </g>
      <circle id="Ellipse_105" data-name="Ellipse 105" cx="6.836" cy="6.836" r="6.836" transform="translate(10.693 10.516)" fill="#ececec"/>
      <circle id="Ellipse_106" data-name="Ellipse 106" cx="4.732" cy="4.732" r="4.732" transform="translate(12.796 12.62)" fill="#39c3fc"/>
      <path id="Path_504" data-name="Path 504" d="M199.42,261.551a4.732,4.732,0,0,1-4.7-4.207,4.732,4.732,0,1,0,9.4,0A4.732,4.732,0,0,1,199.42,261.551Z" transform="translate(-181.892 -240.518)" fill="#148ce0"/>
      <path id="Path_506" data-name="Path 506" d="M32.079,29.874,25.9,23.691l.943-.943-.744-.744-.943.943-1.02-1.02a7.321,7.321,0,0,0-1.872-8.862V9.757a8.413,8.413,0,1,0-16.826,0v5.258A2.625,2.625,0,0,0,7.9,17.628a6.285,6.285,0,0,0,2.266,3.025V21.98L5.414,23.338a4.711,4.711,0,0,0-3.24,3.215L0,33.945H28.223l-.493-1.676.978.978a2.385,2.385,0,1,0,3.372-3.373ZM24.41,23.691l-1.886,1.886-.823-.823a7.405,7.405,0,0,0,1.886-1.886Zm-.571-5a6.31,6.31,0,1,1-6.31-6.31A6.317,6.317,0,0,1,23.839,18.7ZM13.848,2.4A7.37,7.37,0,0,1,21.21,9.757v2.573a7.322,7.322,0,0,0-1.065-.507,5.8,5.8,0,0,0-1.255-3.31L17.6,6.906l-.9.748a9.088,9.088,0,0,1-5.808,2.1H7.538v2.682a2.611,2.611,0,0,0-1.052.486V9.757A7.37,7.37,0,0,1,13.848,2.4ZM6.487,15.015a1.575,1.575,0,0,1,1.052-1.481v2.007a6.325,6.325,0,0,0,.085.981A1.574,1.574,0,0,1,6.487,15.015Zm2.1.526V10.809H10.9a10.145,10.145,0,0,0,6.482-2.347l.073-.06.616.77a4.748,4.748,0,0,1,.99,2.326,7.355,7.355,0,0,0-8.892,7.2c0,.208.014.413.031.617A5.234,5.234,0,0,1,8.59,15.541ZM26.817,32.893H22.726l-.469-3.746-1.043.13.452,3.616H6.556l.452-3.616-1.043-.13L5.5,32.893H1.4L3.182,26.85a3.662,3.662,0,0,1,2.52-2.5l5.517-1.576v-.3A7.322,7.322,0,0,0,20.761,25.3l1.02,1.02-.943.943.744.744.943-.943L26.2,30.738Zm3.576,0a1.326,1.326,0,0,1-.943-.39l-6.182-6.183,1.886-1.886,6.182,6.183a1.333,1.333,0,0,1-.943,2.276Z" transform="translate(0 -1.344)"/>
      <rect id="Rectangle_262" data-name="Rectangle 262" width="1.052" height="1.052" transform="translate(29.623 29.446)"/>
    </g>
    <line id="Line_34" data-name="Line 34" y2="3.728" transform="translate(567.823 218.338)" fill="none" stroke="#ff4757" stroke-width="1"/>
    <line id="Line_35" data-name="Line 35" y2="3.728" transform="translate(569.688 220.202) rotate(90)" fill="none" stroke="#ff4757" stroke-width="1"/>
  </g>
</svg>
