<svg xmlns="http://www.w3.org/2000/svg" xmlns:xlink="http://www.w3.org/1999/xlink" width="53" height="53" viewBox="0 0 53 53">
  <defs>
    <filter id="Ellipse_13" x="0" y="0" width="53" height="53" filterUnits="userSpaceOnUse">
      <feOffset dy="3" input="SourceAlpha"/>
      <feGaussianBlur stdDeviation="3" result="blur"/>
      <feFlood flood-opacity="0.161"/>
      <feComposite operator="in" in2="blur"/>
      <feComposite in="SourceGraphic"/>
    </filter>
  </defs>
  <g id="mobile-btn-edit" transform="translate(-235 -419)">
    <g id="Group_200" data-name="Group 200">
      <g transform="matrix(1, 0, 0, 1, 235, 419)" filter="url(#Ellipse_13)">
        <circle id="Ellipse_13-2" data-name="Ellipse 13" cx="17.5" cy="17.5" r="17.5" transform="translate(44 6) rotate(90)" fill="#f6f9fc"/>
      </g>
      <circle id="Ellipse_29" data-name="Ellipse 29" cx="16.5" cy="16.5" r="16.5" transform="translate(278 426) rotate(90)" fill="#29b6f6"/>
    </g>
    <g id="pen-r1v3vlR7E" transform="translate(253.477 434)">
      <g id="Group_31" data-name="Group 31">
        <path id="Path_7" data-name="Path 7" d="M10.943,2.977.687,13.233a.371.371,0,0,0-.109.263v3.156a.372.372,0,0,0,.372.372H4.105a.371.371,0,0,0,.263-.109L14.624,6.658,10.943,2.977Zm6.049.789L13.836.61a.371.371,0,0,0-.526,0L11.469,2.451l3.682,3.682,1.841-1.841a.372.372,0,0,0,0-.526Z" transform="translate(-0.578 -0.501)" fill="#f6f9fc"/>
      </g>
    </g>
  </g>
</svg>
