<svg xmlns="http://www.w3.org/2000/svg" width="86.124" height="86.124" viewBox="0 0 86.124 86.124">
  <g id="note-icon" transform="translate(-1432 -184)">
    <g id="Ellipse_2" data-name="Ellipse 2" transform="translate(1432 184)" fill="none" stroke="#78909c" stroke-width="2">
      <circle cx="43.062" cy="43.062" r="43.062" stroke="none"/>
      <circle cx="43.062" cy="43.062" r="42.062" fill="none"/>
    </g>
    <g id="presentation-S1mzbB0LV" transform="translate(1434.364 184.182)">
      <g id="Group_160" data-name="Group 160" transform="translate(21.636 17.818)">
        <rect id="Rectangle_66" data-name="Rectangle 66" width="1.839" height="1.839" transform="translate(29.568 32.389) rotate(-135)" fill="#78909c"/>
        <path id="Path_27" data-name="Path 27" d="M12.109,31.907v1.3h1.3l9.48-9.48-1.3-1.3Z" transform="translate(5.379 9.963)" fill="#78909c"/>
        <path id="Path_28" data-name="Path 28" d="M37.682,0H.919A.919.919,0,0,0,0,.919V48.71a.919.919,0,0,0,.919.919H37.682a.918.918,0,0,0,.919-.919V.919A.919.919,0,0,0,37.682,0ZM10.11,42.277H6.433a.919.919,0,1,1,0-1.838H10.11a.919.919,0,1,1,0,1.838ZM6.433,36.762a.919.919,0,1,1,0-1.838h9.191a.919.919,0,0,1,0,1.838Zm-.919-6.433a.919.919,0,0,1,.919-.919H17.462a.919.919,0,0,1,0,1.838H6.433a.919.919,0,0,1-.919-.919Zm27.3,1.411-13,13a.918.918,0,0,1-.65.269h-2.6a.919.919,0,0,1-.919-.919v-2.6a.915.915,0,0,1,.269-.65l13-13a.918.918,0,0,1,1.3,0l2.6,2.6a.918.918,0,0,1,0,1.3Zm-.65-6.006H6.433a.919.919,0,1,1,0-1.838H32.167a.919.919,0,1,1,0,1.838Zm0-5.514H6.433a.919.919,0,1,1,0-1.838H32.167a.919.919,0,1,1,0,1.838Zm0-5.514H6.433a.919.919,0,1,1,0-1.838H32.167a.919.919,0,1,1,0,1.838Zm0-5.514H6.433a.919.919,0,1,1,0-1.838H32.167a.919.919,0,1,1,0,1.838Z" fill="#78909c"/>
      </g>
    </g>
  </g>
</svg>
