<svg id="patient-medical-aid" xmlns="http://www.w3.org/2000/svg" width="443" height="357.383" viewBox="0 0 443 357.383">
  <path id="Path_734" data-name="Path 734" d="M309.378,51.991c-22.642,5.882-42.613,21.585-62.464,42.186a33.872,33.872,0,0,1-44.377,51.157c-23.317,27.855-48.777,57.3-79.852,81.639-79.12,61.968,83.585,174.982,186.693,174.982s186.693-78.342,186.693-174.982S408.739,26.179,309.378,51.991Z" transform="translate(-101.694 -48)" fill="#29b6f6"/>
  <ellipse id="Ellipse_230" data-name="Ellipse 230" cx="206.251" cy="13.557" rx="206.251" ry="13.557" transform="translate(30.498 330.268)" fill="#29b6f6"/>
  <ellipse id="Ellipse_231" data-name="Ellipse 231" cx="71.121" cy="7.557" rx="71.121" ry="7.557" transform="translate(171.407 335.158)" opacity="0.1"/>
  <path id="Path_735" data-name="Path 735" d="M995.871,750.563c0,13.011-7.734,17.554-17.276,17.554-.221,0-.442,0-.661-.008-.442-.01-.881-.03-1.313-.06-8.612-.609-15.3-5.385-15.3-17.486,0-12.52,16-28.32,17.2-29.492l0,0c.046-.046.07-.068.07-.068S995.871,737.553,995.871,750.563Z" transform="translate(-579.211 -421.847)" fill="#29b6f6"/>
  <path id="Path_736" data-name="Path 736" d="M990.087,766.125l6.319-8.828-6.335,9.8-.016,1.013c-.442-.01-.881-.03-1.313-.06l.681-13.016,0-.1.011-.018.065-1.231-6.35-9.822,6.37,8.9.016.261.514-9.834-5.436-10.149,5.5,8.424.536-20.391v0l-.089,16.078,5.413-6.374-5.435,7.759-.143,8.806,5.055-8.451-5.075,9.747-.079,4.9,7.338-11.763-7.364,13.471Z" transform="translate(-591.333 -421.847)" fill="#3f3d56"/>
  <circle id="Ellipse_232" data-name="Ellipse 232" cx="21.231" cy="21.231" r="21.231" transform="translate(190.707 64.454)" fill="#2f2e41"/>
  <path id="Path_737" data-name="Path 737" d="M586.73,604.285l11.348,45.756,11.347-1.831-11.347-52.345Z" transform="translate(-325.925 -331)" fill="#a0616a"/>
  <path id="Path_738" data-name="Path 738" d="M706.218,758.279s-6.462,2.185-5.611,3.655.852,10.621-2.076,13.916-10.249,13.544-1.83,13.91,16.838-5.125,16.838-5.125v-9.517L715,783.9h1.464v-9.884s3.661-6.223,1.464-9.883-3.628-6.851-6.39-6.537S706.218,758.279,706.218,758.279Z" transform="translate(-430.039 -442.166)" fill="#2f2e41"/>
  <path id="Path_739" data-name="Path 739" d="M483.976,702.1l-1.83,9.884h12.812V702.1Z" transform="translate(-267.829 -390.01)" fill="#a0616a"/>
  <path id="Path_740" data-name="Path 740" d="M562.907,767.384s-3.661-.366-4.759,4.759-10.982,12.446-14.642,13.544-3.661,4.759,1.1,5.491,16.838,1.1,19.767-2.928a35.887,35.887,0,0,1,6.955-6.955l-1.83,10.249h3.294s2.928-9.883,5.857-13.178-5.857-10.981-7.321-10.981Z" transform="translate(-345.662 -447.61)" fill="#2f2e41"/>
  <path id="Path_741" data-name="Path 741" d="M468.383,413.287s-2.562,6.955-6.955,8.053-36.971,8.785-36.971,8.785-28.552.732-19.767,6.955,23.061,0,23.061,0,41.73-5.125,45.024-10.615a73.986,73.986,0,0,0,5.491-11.714Z" transform="translate(-269.074 -250.915)" fill="#a0616a"/>
  <path id="Path_742" data-name="Path 742" d="M558.225,344.113s-20.865,34.043-18.3,34.775,26.356,8.419,27.454,5.491,1.1-16.472,1.1-16.472Z" transform="translate(-345.006 -212.489)" fill="#2f2e41"/>
  <path id="Path_743" data-name="Path 743" d="M558.225,344.113s-20.865,34.043-18.3,34.775,26.356,8.419,27.454,5.491,1.1-16.472,1.1-16.472Z" transform="translate(-345.006 -212.489)" opacity="0.1"/>
  <path id="Path_744" data-name="Path 744" d="M691.811,326l47.221,24.159S765.753,357.11,759.9,362.6s-24.891-4.759-24.891-4.759L682.66,334.049Z" transform="translate(-424.417 -202.425)" fill="#a0616a"/>
  <path id="Path_745" data-name="Path 745" d="M567.37,274.316s9.151,13.91,8.419,17.2c0,0,.732,2.2-.366,3.661s-.732,10.249-.732,10.249l3.661,5.125,4.759-15.74,2.2-16.838s-4.942-6.772-4.21-10.066S567.37,274.316,567.37,274.316Z" transform="translate(-360.374 -169.779)" fill="#a0616a"/>
  <path id="Path_746" data-name="Path 746" d="M601.773,461.05s-20.5,54.908-20.5,79.067-7.687,51.613-1.83,54.176,35.507,2.928,36.239,0-3.661-121.895-5.857-126.653S601.773,461.05,601.773,461.05Z" transform="translate(-365.859 -277.447)" fill="#2f2e41"/>
  <path id="Path_747" data-name="Path 747" d="M601.773,461.05s-20.5,54.908-20.5,79.067-7.687,51.613-1.83,54.176,35.507,2.928,36.239,0-3.661-121.895-5.857-126.653S601.773,461.05,601.773,461.05Z" transform="translate(-365.859 -277.447)" opacity="0.1"/>
  <circle id="Ellipse_233" data-name="Ellipse 233" cx="13.544" cy="13.544" r="13.544" transform="translate(198.211 79.645)" fill="#a0616a"/>
  <path id="Path_748" data-name="Path 748" d="M581.864,311.91l-.98-8.261s-3.046,4.234-3.046,7.529-1.83,15.008,5.857,22.329,9.151,8.785,9.517,10.249,2.2,1.464,2.2,1.464l10.616,42.828s3.294,113.842,8.419,115.306,20.865,0,21.963-1.83-1.83-50.515-1.83-50.515,8.053,43.194,10.981,43.194,4.759-6.223,4.026-6.589-5.125-28.552-6.955-37.337-1.1-83.093-1.1-83.093,5.857-9.517-14.276-28.186c0,0-12.812-37.337-13.544-37.337S598.7,281.527,598.7,281.527s-8.053,0-9.517,4.759S581.864,311.91,581.864,311.91Z" transform="translate(-366.083 -177.723)" fill="#2f2e41"/>
  <path id="Path_749" data-name="Path 749" d="M615.133,284.455l4.393-2.928s18.3,10.981,31.114,11.714,12.446,8.053,7.321,13.178-25.257,22.7-25.99,18.3S615.133,284.455,615.133,284.455Z" transform="translate(-386.906 -177.723)" fill="#2f2e41"/>
  <ellipse id="Ellipse_234" data-name="Ellipse 234" cx="14.642" cy="8.785" rx="14.642" ry="8.785" transform="translate(197.296 71.043)" fill="#2f2e41"/>
  <circle id="Ellipse_235" data-name="Ellipse 235" cx="8.785" cy="8.785" r="8.785" transform="translate(204.617 55.669)" fill="#2f2e41"/>
  <path id="Path_750" data-name="Path 750" d="M553.143,171.317a8.786,8.786,0,0,1,7.87-8.738,8.882,8.882,0,0,0-.915-.048,8.785,8.785,0,0,0,0,17.57,8.882,8.882,0,0,0,.915-.048A8.786,8.786,0,0,1,553.143,171.317Z" transform="translate(-351.454 -111.622)" fill="#2f2e41"/>
  <rect id="Rectangle_290" data-name="Rectangle 290" width="196.24" height="114.604" transform="translate(137.818 184.464) rotate(-9.547)" fill="#3f3d56"/>
  <path id="Path_751" data-name="Path 751" d="M621.155,467.018,492.634,488.4a2.643,2.643,0,0,1-.868-5.215L620.288,461.8a2.644,2.644,0,0,1,.868,5.215Z" transform="translate(-317.149 -277.845)" fill="#29b6f6"/>
  <path id="Path_752" data-name="Path 752" d="M538.436,527.82l-37.253,6.2a.766.766,0,0,1-.251-1.512l37.253-6.2a.766.766,0,0,1,.252,1.512Z" transform="translate(-323.112 -294.754)" fill="#6c63ff" opacity="0.3"/>
  <path id="Path_754" data-name="Path 754" d="M538.436,527.82l-37.253,6.2a.766.766,0,0,1-.251-1.512l37.253-6.2a.766.766,0,0,1,.252,1.512Z" transform="translate(-324.89 -301.421)" fill="#6c63ff" opacity="0.3"/>
  <path id="Path_755" data-name="Path 755" d="M538.436,527.82l-37.253,6.2a.766.766,0,0,1-.251-1.512l37.253-6.2a.766.766,0,0,1,.252,1.512Z" transform="translate(-327.113 -311.2)" fill="#6c63ff" opacity="0.3"/>
  <path id="Path_753" data-name="Path 753" d="M642.625,596.08,514.1,617.46a2.643,2.643,0,1,1-.868-5.215l128.521-21.379a2.643,2.643,0,0,1,.868,5.215Z" transform="translate(-331.298 -360.65)" fill="#f5f6fa"/>
  <circle id="Ellipse_239" data-name="Ellipse 239" cx="24.143" cy="24.143" r="24.143" transform="translate(98.26 47.067)" fill="#29b6f6"/>
</svg>
