<svg xmlns="http://www.w3.org/2000/svg" width="404.687" height="398.416" viewBox="0 0 404.687 398.416">
  <g id="patient-information-image" transform="translate(-1285 -420.584)">
    <circle id="Ellipse_229" data-name="Ellipse 229" cx="177.5" cy="177.5" r="177.5" transform="translate(1285 464)" fill="#29b6f6" opacity="0.3"/>
    <g id="undraw_web_developer_p3e5" transform="translate(1299 420.584)">
      <path id="Path_702" data-name="Path 702" d="M900.847,740.988c-2.536,9.657-11.422,15.692-11.422,15.692s-4.775-9.622-2.239-19.279,11.422-15.692,11.422-15.692S903.383,731.331,900.847,740.988Z" transform="translate(-587.102 -485.959)" fill="#3f3d56"/>
      <path id="Path_703" data-name="Path 703" d="M901.666,755.707c-7.1,7.017-7.9,17.729-7.9,17.729s10.721-.665,17.823-7.682,7.9-17.729,7.9-17.729S908.768,748.689,901.666,755.707Z" transform="translate(-591.767 -502.72)" fill="#29b6f6"/>
      <path id="Path_704" data-name="Path 704" d="M185.751,647.159h13.376l32.962-12.9s23.408-9.554,21.5,8.6-5.255,42.517-5.255,42.517-10.51-4.777-16.242-3.344-1.911-29.141-1.911-29.141-46.816,22.453-51.116,19.586-5.255-22.93-5.255-22.93Z" transform="translate(-133.202 -428.66)" fill="#2f2e41"/>
      <path id="Path_705" data-name="Path 705" d="M185.751,647.159h13.376l32.962-12.9s23.408-9.554,21.5,8.6-5.255,42.517-5.255,42.517-10.51-4.777-16.242-3.344-1.911-29.141-1.911-29.141-46.816,22.453-51.116,19.586-5.255-22.93-5.255-22.93Z" transform="translate(-133.202 -428.66)" opacity="0.1"/>
      <path id="Path_706" data-name="Path 706" d="M243.7,558.82l16.188,23.258,37.739,31.529s34.873,8.121,30.1,13.854-33.918-5.733-33.918-5.733S250.333,590.2,248.9,587.811s-17.2-24.841-17.2-24.841Z" transform="translate(-170.077 -382.21)" fill="#a0616a"/>
      <path id="Path_707" data-name="Path 707" d="M243.7,558.82l16.188,23.258,37.739,31.529s34.873,8.121,30.1,13.854-33.918-5.733-33.918-5.733S250.333,590.2,248.9,587.811s-17.2-24.841-17.2-24.841Z" transform="translate(-170.077 -382.21)" opacity="0.1"/>
      <path id="Path_708" data-name="Path 708" d="M210.625,507.092l10.51,20.542s-2.389,10.032-6.21,10.987S194.861,526.2,194.861,526.2Z" transform="translate(-146.611 -349.263)" fill="#d0cde1"/>
      <path id="Path_709" data-name="Path 709" d="M210.625,507.092l10.51,20.542s-2.389,10.032-6.21,10.987S194.861,526.2,194.861,526.2Z" transform="translate(-146.611 -349.263)" opacity="0.1"/>
      <path id="Path_710" data-name="Path 710" d="M565.976,643.828l3.1,12.806a.8.8,0,0,1-.016.432l-14.083,44.008a.8.8,0,0,1-1.557-.153l-1.948-17.144a.8.8,0,0,1,.034-.338l12.926-39.67a.8.8,0,0,1,1.538.059Z" transform="translate(-373.748 -435.966)" fill="#2f2e41"/>
      <path id="Path_711" data-name="Path 711" d="M504.517,575.493l2.866,10.988-12.421,40.128L492.1,614.188Z" transform="translate(-313.431 -366.549)" fill="#f2f2f2"/>
      <path id="Path_712" data-name="Path 712" d="M415.775,773.8c.478,1.433,49.682-.478,50.16-.955a10.368,10.368,0,0,0,1.051-1.911c.449-.955.86-1.911.86-1.911l-1.911-15.468-48.727-1.729s-1.218,13.109-1.467,19.109A14.338,14.338,0,0,0,415.775,773.8Z" transform="translate(-287.269 -505.141)" fill="#2f2e41"/>
      <path id="Path_713" data-name="Path 713" d="M438.955,689.965l.955,13.376h-21.5V689.965Z" transform="translate(-266.5 -439.459)" opacity="0.1"/>
      <path id="Path_714" data-name="Path 714" d="M376.888,701.761l.128-.025-.606,5.758H364.467v-5.733Z" transform="translate(-232.14 -446.957)" opacity="0.1"/>
      <path id="Path_715" data-name="Path 715" d="M415.775,807.322c.478,1.433,49.682-.478,50.16-.955a10.371,10.371,0,0,0,1.051-1.911H415.741A14.338,14.338,0,0,0,415.775,807.322Z" transform="translate(-287.27 -538.663)" opacity="0.1"/>
      <circle id="Ellipse_224" data-name="Ellipse 224" cx="21.497" cy="21.497" r="21.497" transform="translate(49.682 108.146)" fill="#a0616a"/>
      <path id="Path_716" data-name="Path 716" d="M196.664,449.609s-7.166,12.421-8.6,19.109-21.5-13.376-21.5-13.376l-2.627-6.927s18.87-8.838,17.437-16S196.664,449.609,196.664,449.609Z" transform="translate(-126.917 -300.857)" fill="#a0616a"/>
      <path id="Path_717" data-name="Path 717" d="M224.37,584.722l19.586,25.8,46.816,34.873s33.918,7.166,26.274,12.421-29.618-4.777-29.618-4.777-47.294-25.319-57.326-35.829-28.663-28.185-28.663-28.185Z" transform="translate(-150.801 -398.708)" fill="#a0616a"/>
      <path id="Path_718" data-name="Path 718" d="M117.643,690.024l5.733,9.076,34.213-10.763a26.9,26.9,0,0,1,22.4,2.7c5.971,3.762,9.793,9.733,1.194,18.571-17.2,17.675-28.663,8.121-28.663,8.121s-57.8,27.23-67.358,13.854-10.032-20.064-10.032-20.064S111.91,688.591,117.643,690.024Z" transform="translate(-70.349 -463.882)" fill="#2f2e41"/>
      <path id="Path_719" data-name="Path 719" d="M301.6,774.544s15.287,10.032-2.866,14.809-31.529-1.911-31.529-1.911-15.765,0-15.765-8.121,5.255-9.077,5.255-9.077l16.242,2.389S292.521,767.379,301.6,774.544Z" transform="translate(-182.647 -516.873)" fill="#d0cde1"/>
      <path id="Path_720" data-name="Path 720" d="M225.763,368.878a16.03,16.03,0,0,0,4.5,1.614,4.112,4.112,0,0,0,4.155-1.78,5.588,5.588,0,0,0,.472-2.527c.058-2.623-.132-5.459-1.795-7.489-1.058-1.292-2.6-2.106-3.7-3.367a15.91,15.91,0,0,1-1.869-3.054c-2.13-4-5.283-7.844-9.666-9a20.959,20.959,0,0,0-5.642-.431L201.19,343a19.213,19.213,0,0,0-5.309.571c-3.552,1.074-6.139,4.061-8.508,6.918a43.262,43.262,0,0,0-4.879,6.734,23.628,23.628,0,0,0-2.8,11.577,10.832,10.832,0,0,0,.4,3.063,17,17,0,0,0,1.2,2.645c2.07,4.065,3.3,9.143.968,13.064,4.049-1.654,8.055-3.823,10.726-7.286,1.195-1.549,2.132-3.363,3.724-4.5s4.187-1.236,5.209.433a4.668,4.668,0,0,1,.527,2.187,10.022,10.022,0,0,0,.6,3.69,2.765,2.765,0,0,0,3,1.714c2.08-.586,1.881-3.778,3.483-5.228,1.217-1.1,3.094-.891,4.657-1.391a6.911,6.911,0,0,0,3.966-3.906c.592-1.327.583-4.8,1.7-5.52C221.268,366.865,224.461,368.3,225.763,368.878Z" transform="translate(-136.948 -244.642)" fill="#2f2e41"/>
      <path id="Path_721" data-name="Path 721" d="M97.285,472.226a5.67,5.67,0,0,1,2.951.008c3.067.823,9.941,3,11.415,6.319,1.911,4.3,8.6,10.987,8.6,10.987s9.077,9.077,7.166,15.287-9.077,13.376-9.077,13.376,1.911,29.618-7.643,37.262-13.376,2.389-13.376,9.554S67.7,594.637,61.968,580.783c0,0,2.866-25.8,1.911-34.873C62.937,536.964,64.316,481.151,97.285,472.226Z" transform="translate(-61.968 -326.934)" fill="#d0cde1"/>
      <path id="Path_722" data-name="Path 722" d="M162.317,503.575s29.141,21.5,23.886,30.574c0,0-17.675,8.6-21.5,8.121s-18.631-17.2-22.453-18.631S136.521,496.41,162.317,503.575Z" transform="translate(-111.68 -346.224)" fill="#d0cde1"/>
      <circle id="Ellipse_225" data-name="Ellipse 225" cx="23.6" cy="23.6" r="23.6" transform="translate(157.233 62.614)" fill="#f2f2f2"/>
      <path id="Path_723" data-name="Path 723" d="M864.9,176.88H732.649V149.207H864.9ZM733.232,176.3H864.314V149.79H733.232Z" transform="translate(-489.145 -121.316)" fill="#3f3d56"/>
      <path id="Path_733" data-name="Path 733" d="M0,0H131.665V27.09H0Z" transform="translate(234.474 33.426)" fill="#29b6f6"/>
      <circle id="Ellipse_226" data-name="Ellipse 226" cx="2.039" cy="2.039" r="2.039" transform="translate(149.203 3.495)" fill="#29b6f6"/>
      <circle id="Ellipse_227" data-name="Ellipse 227" cx="2.039" cy="2.039" r="2.039" transform="translate(156.194 3.495)" fill="#29b6f6"/>
      <circle id="Ellipse_228" data-name="Ellipse 228" cx="2.039" cy="2.039" r="2.039" transform="translate(163.185 3.495)" fill="#29b6f6"/>
      <path id="Path_724" data-name="Path 724" d="M707.757,232.016H462.487V72.386h245.27Zm-244.688-.583H707.174V72.969H463.07Z" transform="translate(-317.07 -72.386)" fill="#3f3d56"/>
      <rect id="Rectangle_283" data-name="Rectangle 283" width="244.688" height="0.583" transform="translate(145.708 8.836)" fill="#3f3d56"/>
      <path id="Path_725" data-name="Path 725" d="M476.05,83.465a2.33,2.33,0,1,1,2.33-2.33A2.33,2.33,0,0,1,476.05,83.465Zm0-4.078a1.748,1.748,0,1,0,1.748,1.748,1.748,1.748,0,0,0-1.748-1.748Z" transform="translate(-324.225 -76.474)" fill="#3f3d56"/>
      <path id="Path_726" data-name="Path 726" d="M495.3,83.465a2.33,2.33,0,1,1,2.33-2.33A2.33,2.33,0,0,1,495.3,83.465Zm0-4.078a1.748,1.748,0,1,0,1.748,1.748,1.748,1.748,0,0,0-1.748-1.748Z" transform="translate(-336.489 -76.474)" fill="#3f3d56"/>
      <path id="Path_727" data-name="Path 727" d="M514.561,83.465a2.33,2.33,0,1,1,2.33-2.33,2.33,2.33,0,0,1-2.33,2.33Zm0-4.078a1.748,1.748,0,1,0,1.748,1.748,1.748,1.748,0,0,0-1.748-1.748Z" transform="translate(-348.753 -76.474)" fill="#3f3d56"/>
      <rect id="Rectangle_284" data-name="Rectangle 284" width="0.583" height="150.437" transform="translate(222.239 9.128)" fill="#3f3d56"/>
      <rect id="Rectangle_285" data-name="Rectangle 285" width="42.821" height="5.826" transform="translate(250.058 83.092)" fill="#f2f2f2"/>
      <rect id="Rectangle_286" data-name="Rectangle 286" width="42.821" height="5.826" transform="translate(317.348 83.092)" fill="#f2f2f2"/>
      <path id="Path_728" data-name="Path 728" d="M799.72,298.828h-43.4V292.42h43.4Zm-42.82-.583h42.238V293H756.9Z" transform="translate(-504.22 -212.532)" fill="#3f3d56"/>
      <rect id="Rectangle_287" data-name="Rectangle 287" width="42.821" height="5.826" transform="translate(250.058 128.243)" fill="#f2f2f2"/>
      <path id="Path_729" data-name="Path 729" d="M799.72,423.186h-43.4v-6.408h43.4ZM756.9,422.6h42.238V417.36H756.9Z" transform="translate(-504.22 -291.74)" fill="#3f3d56"/>
      <rect id="Rectangle_288" data-name="Rectangle 288" width="110.109" height="5.826" transform="translate(250.204 105.084)" fill="#f2f2f2"/>
      <path id="Path_730" data-name="Path 730" d="M867.411,361.007H756.718V354.6H867.41ZM757.3,360.425H866.828v-5.243H757.3Z" transform="translate(-504.475 -252.136)" fill="#3f3d56"/>
      <path id="Path_731" data-name="Path 731" d="M985.052,298.828h-43.4V292.42h43.4Zm-42.821-.583h42.238V293H942.233Z" transform="translate(-622.264 -212.532)" fill="#3f3d56"/>
      <path id="Path_732" data-name="Path 732" d="M528.995,273.769a23.963,23.963,0,1,1,23.963-23.963A23.963,23.963,0,0,1,528.995,273.769Zm0-47.2a23.236,23.236,0,1,0,23.237,23.236,23.236,23.236,0,0,0-23.237-23.236Z" transform="translate(-344.169 -170.128)" fill="#3f3d56"/>
      <rect id="Rectangle_289" data-name="Rectangle 289" width="102.749" height="0.726" transform="translate(271.6 270.29)" fill="#3f3d56"/>
    </g>
  </g>
</svg>
