<svg xmlns="http://www.w3.org/2000/svg" width="79" height="79" viewBox="0 0 79 79">
  <g id="patient-icon" transform="translate(-537 -190)">
    <circle id="Ellipse_107" data-name="Ellipse 107" cx="39.5" cy="39.5" r="39.5" transform="translate(537 190)" fill="#29b6f6"/>
    <g id="Group_265" data-name="Group 265">
      <g id="checkup" transform="translate(550.301 203.301)">
        <path id="Path_495" data-name="Path 495" d="M26.766,289.344v3.385L18.5,295.09a6.77,6.77,0,0,0-4.635,4.6l-3.18,10.81H53.845L52.6,306.268l-.474-1.6-5.461-10.154Z" transform="translate(-9.557 -258.88)" fill="#92e0c0"/>
        <g id="Group_243" data-name="Group 243" transform="translate(17.014 30.464)">
          <path id="Path_496" data-name="Path 496" d="M279.587,328.3l3.179,10.81H276.7l-1.27-9a5.078,5.078,0,0,0-1.856-3.255l-6.887-5.51,8.264,2.361A6.77,6.77,0,0,1,279.587,328.3Z" transform="translate(-255.493 -317.959)" fill="#48c397"/>
          <path id="Path_497" data-name="Path 497" d="M172.043,299.5a12.644,12.644,0,0,0,9.354-4.135l-.456-.847-19.9-5.173v3.385l-.195.056A12.688,12.688,0,0,0,172.043,299.5Z" transform="translate(-160.848 -289.344)" fill="#48c397"/>
        </g>
        <path id="Path_498" data-name="Path 498" d="M312.611,307.036,325.274,319.7a2.992,2.992,0,0,1,.877,2.116h0a2.992,2.992,0,0,1-2.992,2.992h0a2.988,2.988,0,0,1-2.116-.877L308.38,311.267l-1.692-1.692,4.231-4.231Z" transform="translate(-274.248 -273.188)" fill="#eabd8c"/>
        <rect id="Rectangle_261" data-name="Rectangle 261" width="5.983" height="3.795" transform="translate(43.016 38.498) rotate(135)" fill="#d3a06c"/>
        <path id="Path_499" data-name="Path 499" d="M314.3,308.729l-1.692-1.692-1.692-1.692-4.231,4.231,1.692,1.692,1.692,1.692Z" transform="translate(-274.248 -273.188)" fill="#8c95a4"/>
        <path id="Path_500" data-name="Path 500" d="M90.688,30.5V22.037A12.693,12.693,0,0,1,103.381,9.344h0a12.693,12.693,0,0,1,12.693,12.693V30.5Z" transform="translate(-81.095 -8.498)" fill="#d3a06c"/>
        <path id="Path_501" data-name="Path 501" d="M199.957,9.344c-.428,0-.852.023-1.269.064,6.414.637,9.731,6.047,9.731,12.629V30.5h4.231V22.037A12.693,12.693,0,0,0,199.957,9.344Z" transform="translate(-177.672 -8.498)" fill="#b27946"/>
        <g id="Group_244" data-name="Group 244" transform="translate(9.593 10.155)">
          <path id="Path_502" data-name="Path 502" d="M95.765,177.344H94.073a3.385,3.385,0,0,0-3.385,3.385h0a3.385,3.385,0,0,0,3.385,3.385h1.692Z" transform="translate(-90.688 -168.882)" fill="#f9e0a6"/>
          <path id="Path_503" data-name="Path 503" d="M141.3,104.544a8.464,8.464,0,0,0-1.854-5.286l-1.531-1.913-.781.651a15.445,15.445,0,0,1-9.889,3.58h-4.562v8.462a9.3,9.3,0,0,0,4.231,7.8l2.539,1.505,11.847-1.692Z" transform="translate(-119.303 -97.344)" fill="#f9e0a6"/>
        </g>
        <circle id="Ellipse_105" data-name="Ellipse 105" cx="11.001" cy="11.001" r="11.001" transform="translate(17.209 16.924)" fill="#ececec"/>
        <circle id="Ellipse_106" data-name="Ellipse 106" cx="7.616" cy="7.616" r="7.616" transform="translate(20.593 20.309)" fill="#39c3fc"/>
        <path id="Path_504" data-name="Path 504" d="M202.3,264.114a7.615,7.615,0,0,1-7.566-6.77,7.616,7.616,0,1,0,15.132,0A7.615,7.615,0,0,1,202.3,264.114Z" transform="translate(-174.095 -230.265)" fill="#148ce0"/>
        <path id="Path_506" data-name="Path 506" d="M51.625,47.258l-9.949-9.95,1.517-1.517-1.2-1.2-1.517,1.517L38.838,34.47a11.781,11.781,0,0,0-3.013-14.262V14.883a13.539,13.539,0,1,0-27.079,0v8.462a4.225,4.225,0,0,0,3.97,4.2,10.115,10.115,0,0,0,3.646,4.867v2.137l-7.65,2.185A7.582,7.582,0,0,0,3.5,41.913L0,53.809H45.419l-.794-2.7L46.2,52.685a3.838,3.838,0,1,0,5.427-5.428Zm-12.342-9.95-3.035,3.035-1.324-1.324a11.917,11.917,0,0,0,3.035-3.035Zm-.919-8.039A10.155,10.155,0,1,1,28.209,19.114,10.166,10.166,0,0,1,38.364,29.269ZM22.286,3.036A11.86,11.86,0,0,1,34.133,14.883v4.141a11.784,11.784,0,0,0-1.714-.816A9.338,9.338,0,0,0,30.4,12.883L28.33,10.3l-1.444,1.2a14.625,14.625,0,0,1-9.346,3.384H12.131V19.2a4.2,4.2,0,0,0-1.692.782v-5.1A11.86,11.86,0,0,1,22.286,3.036ZM10.439,23.345a2.535,2.535,0,0,1,1.692-2.383v3.229a10.178,10.178,0,0,0,.137,1.579A2.534,2.534,0,0,1,10.439,23.345Zm3.385.846V16.576h3.716A16.326,16.326,0,0,0,27.971,12.8l.118-.1.991,1.239a7.641,7.641,0,0,1,1.593,3.743,11.836,11.836,0,0,0-14.31,11.585c0,.335.023.665.05.993A8.423,8.423,0,0,1,13.824,24.192ZM43.157,52.117H36.572l-.754-6.028-1.679.21.727,5.819H10.551l.727-5.819L9.6,46.088l-.754,6.028H2.261l2.86-9.725a5.893,5.893,0,0,1,4.055-4.024l8.878-2.537V35.34A11.783,11.783,0,0,0,33.41,39.9l1.642,1.642-1.517,1.517,1.2,1.2,1.517-1.517,5.912,5.912Zm5.754,0a2.133,2.133,0,0,1-1.517-.628l-9.949-9.95L40.479,38.5l9.949,9.95a2.145,2.145,0,0,1-1.517,3.662Z" transform="translate(0 -1.344)"/>
        <rect id="Rectangle_262" data-name="Rectangle 262" width="1.692" height="1.692" transform="translate(47.672 47.388)"/>
      </g>
      <line id="Line_34" data-name="Line 34" y2="6" transform="translate(578.5 227.5)" fill="none" stroke="#ff4757" stroke-width="1"/>
      <line id="Line_35" data-name="Line 35" y2="6" transform="translate(581.5 230.5) rotate(90)" fill="none" stroke="#ff4757" stroke-width="1"/>
    </g>
  </g>
</svg>
