<svg xmlns="http://www.w3.org/2000/svg" width="79" height="79" viewBox="0 0 79 79">
  <g id="practise-icon" transform="translate(-878 -190)">
    <circle id="Ellipse_107" data-name="Ellipse 107" cx="39.5" cy="39.5" r="39.5" transform="translate(878 190)" fill="#29b6f6"/>
    <g id="health" transform="translate(895 207)">
      <path id="Path_507" data-name="Path 507" d="M59.66,117.434v-5.705A1.728,1.728,0,0,0,57.931,110H40.642a1.728,1.728,0,0,0-1.729,1.729v5.705H29.75v26.452H68.823V117.434Z" transform="translate(-27.178 -100.491)" fill="#e3f2ff"/>
      <path id="Path_508" data-name="Path 508" d="M204.394,376h-6.916a1.728,1.728,0,0,0-1.729,1.729v9.163h10.373v-9.163A1.728,1.728,0,0,0,204.394,376Z" transform="translate(-178.829 -343.497)" fill="#4dbbeb"/>
      <path id="Path_509" data-name="Path 509" d="M206.123,15.187a5.172,5.172,0,0,1-1.32,3.458h0a5.186,5.186,0,0,1-7.732,0h0a5.187,5.187,0,1,1,9.053-3.458Z" transform="translate(-178.829 -9.136)" fill="#ff4757"/>
      <path id="Path_510" data-name="Path 510" d="M246.864,407.729a.864.864,0,1,0-.864-.864A.865.865,0,0,0,246.864,407.729Z" transform="translate(-224.735 -370.904)"/>
      <path id="Path_511" data-name="Path 511" d="M43.4,17.808a.864.864,0,0,0,0-1.729H33.367V11.238a2.6,2.6,0,0,0-2.593-2.593H27.6a6.051,6.051,0,1,0-10.933,0H13.485a2.6,2.6,0,0,0-2.593,2.593v4.841H.864a.864.864,0,1,0,0,1.729h.864V28.181H.864a.864.864,0,1,0,0,1.729h.864V43.4a.864.864,0,0,0,.864.864H41.666a.864.864,0,0,0,.864-.864V29.91H43.4a.864.864,0,0,0,0-1.729h-.864V17.808ZM22.13,1.729a4.323,4.323,0,0,1,3.242,7.182l-.02.022a4.322,4.322,0,0,1-6.443,0l-.02-.022A4.323,4.323,0,0,1,22.13,1.729Zm-9.509,9.509a.865.865,0,0,1,.864-.864H17.9a6.047,6.047,0,0,0,8.466,0h4.411a.865.865,0,0,1,.864.864V42.531H28.181v-8.3a2.6,2.6,0,0,0-2.593-2.593H18.672a2.6,2.6,0,0,0-2.593,2.593v8.3H12.621V11.238Zm-9.163,6.57h7.434V28.181H3.458Zm0,12.1h7.434V42.531H3.458Zm14.35,4.322a.865.865,0,0,1,.864-.864h6.916a.865.865,0,0,1,.864.864v8.3H22.994V39.419a.864.864,0,0,0-1.729,0v3.112H17.808Zm22.994,8.3H33.367V29.91H40.8Zm-7.434-14.35V17.808H40.8V28.181Z"/>
      <path id="Path_512" data-name="Path 512" d="M406.864,227.729h2.248a.864.864,0,0,0,0-1.729h-2.248a.864.864,0,0,0,0,1.729Z" transform="translate(-370.904 -206.464)"/>
      <path id="Path_513" data-name="Path 513" d="M409.112,286h-2.248a.864.864,0,0,0,0,1.729h2.248a.864.864,0,0,0,0-1.729Z" transform="translate(-370.904 -261.277)"/>
      <path id="Path_514" data-name="Path 514" d="M406.864,367.729h2.248a.864.864,0,0,0,0-1.729h-2.248a.864.864,0,0,0,0,1.729Z" transform="translate(-370.904 -334.361)"/>
      <path id="Path_515" data-name="Path 515" d="M409.112,426h-2.248a.864.864,0,0,0,0,1.729h2.248a.864.864,0,0,0,0-1.729Z" transform="translate(-370.904 -389.175)"/>
      <path id="Path_516" data-name="Path 516" d="M63.112,426H60.864a.864.864,0,1,0,0,1.729h2.248a.864.864,0,0,0,0-1.729Z" transform="translate(-54.813 -389.175)"/>
      <path id="Path_517" data-name="Path 517" d="M63.112,366H60.864a.864.864,0,1,0,0,1.729h2.248a.864.864,0,0,0,0-1.729Z" transform="translate(-54.813 -334.361)"/>
      <path id="Path_518" data-name="Path 518" d="M63.112,286H60.864a.864.864,0,1,0,0,1.729h2.248a.864.864,0,0,0,0-1.729Z" transform="translate(-54.813 -261.277)"/>
      <path id="Path_519" data-name="Path 519" d="M60.864,227.729h2.248a.864.864,0,0,0,0-1.729H60.864a.864.864,0,1,0,0,1.729Z" transform="translate(-54.813 -206.464)"/>
      <path id="Path_520" data-name="Path 520" d="M166.864,187.729h1.729a.864.864,0,0,0,0-1.729h-1.729a.864.864,0,0,0,0,1.729Z" transform="translate(-151.65 -169.921)"/>
      <path id="Path_521" data-name="Path 521" d="M226.864,187.729h3.458a.864.864,0,1,0,0-1.729h-3.458a.864.864,0,0,0,0,1.729Z" transform="translate(-206.464 -169.921)"/>
      <path id="Path_522" data-name="Path 522" d="M306.864,187.729h1.729a.864.864,0,0,0,0-1.729h-1.729a.864.864,0,0,0,0,1.729Z" transform="translate(-279.548 -169.921)"/>
      <path id="Path_523" data-name="Path 523" d="M166.864,247.729h1.729a.864.864,0,0,0,0-1.729h-1.729a.864.864,0,0,0,0,1.729Z" transform="translate(-151.65 -224.735)"/>
      <path id="Path_524" data-name="Path 524" d="M226.864,247.729h3.458a.864.864,0,1,0,0-1.729h-3.458a.864.864,0,0,0,0,1.729Z" transform="translate(-206.464 -224.735)"/>
      <path id="Path_525" data-name="Path 525" d="M306.864,247.729h1.729a.864.864,0,0,0,0-1.729h-1.729a.864.864,0,0,0,0,1.729Z" transform="translate(-279.548 -224.735)"/>
      <path id="Path_526" data-name="Path 526" d="M166.864,307.729h1.729a.864.864,0,0,0,0-1.729h-1.729a.864.864,0,0,0,0,1.729Z" transform="translate(-151.65 -279.548)"/>
      <path id="Path_527" data-name="Path 527" d="M226.864,307.729h3.458a.864.864,0,0,0,0-1.729h-3.458a.864.864,0,0,0,0,1.729Z" transform="translate(-206.464 -279.548)"/>
      <path id="Path_528" data-name="Path 528" d="M306.864,307.729h1.729a.864.864,0,0,0,0-1.729h-1.729a.864.864,0,0,0,0,1.729Z" transform="translate(-279.548 -279.548)"/>
      <path id="Path_529" data-name="Path 529" d="M226.864,43.458h.864v.864a.864.864,0,1,0,1.729,0v-.864h.864a.864.864,0,0,0,0-1.729h-.864v-.864a.864.864,0,1,0-1.729,0v.864h-.864a.864.864,0,0,0,0,1.729Z" transform="translate(-206.464 -36.542)"/>
    </g>
  </g>
</svg>
