<svg xmlns="http://www.w3.org/2000/svg" width="79" height="79" viewBox="0 0 79 79">
  <g id="prescription-icon" transform="translate(-1560 -190)">
    <circle id="Ellipse_107" data-name="Ellipse 107" cx="39.5" cy="39.5" r="39.5" transform="translate(1560 190)" fill="#29b6f6"/>
    <g id="magic" transform="translate(1583.001 212.992)">
      <path id="Path_556" data-name="Path 556" d="M260.1,62.99h0l-9.512,8.364h7.684l4.778-5.414h0Z" transform="translate(-234.83 -59.022)" fill="#e3f2ff"/>
      <path id="Path_557" data-name="Path 557" d="M161.487,424.8l-1.431-3.237H149.642l-.01.028-1.419,3.21a1.258,1.258,0,0,0,1.125,1.82h11.024A1.258,1.258,0,0,0,161.487,424.8Z" transform="translate(-138.766 -395.04)" fill="#57555c"/>
      <path id="Path_558" data-name="Path 558" d="M9.765,197.448A1.258,1.258,0,0,1,11,195.983H39.432a1.258,1.258,0,0,1,1.24,1.465l-.2,1.222c-1.193,7.159-7.993,12.407-15.25,12.407s-14.055-5.236-15.25-12.407Z" transform="translate(-9.135 -183.651)" fill="#fec459"/>
      <path id="Path_559" data-name="Path 559" d="M407.128,10.9a3.145,3.145,0,1,1-4.448,0A3.146,3.146,0,0,1,407.128,10.9Z" transform="translate(-376.494 -9.344)" fill="#57555c"/>
      <path id="Path_560" data-name="Path 560" d="M246.628,227.242a.629.629,0,1,0-.629-.629A.629.629,0,0,0,246.628,227.242Z" transform="translate(-230.529 -211.765)"/>
      <path id="Path_561" data-name="Path 561" d="M.229,15.122a15.711,15.711,0,0,0,9.821,11.75L8.893,29.49a1.887,1.887,0,0,0,1.695,2.716H21.611a1.887,1.887,0,0,0,1.695-2.716l-1.158-2.618A15.711,15.711,0,0,0,31.97,15.122l.2-1.221a1.887,1.887,0,0,0-1.861-2.2h-5.46L28.518,7.55a3.774,3.774,0,1,0-3.863-3.864L15.538,11.7H1.886A1.887,1.887,0,0,0,.025,13.9ZM22.174,30.038a.629.629,0,0,1-.563.91H10.587a.629.629,0,0,1-.563-.91c.013-.027-.068.155,1.213-2.741a15.972,15.972,0,0,0,9.723,0C22.237,30.183,22.16,30.011,22.174,30.038ZM26.647,2a2.516,2.516,0,1,1,0,3.558A2.52,2.52,0,0,1,26.647,2Zm-1.74,3.14A3.766,3.766,0,0,0,27.063,7.3L23.175,11.7H17.442Zm-23.5,8.043a.619.619,0,0,1,.479-.222H30.313a.629.629,0,0,1,.62.732l-.088.526H18.615a.626.626,0,1,0,0,1.252H30.622a14.509,14.509,0,0,1-9.528,10.456h0a14.765,14.765,0,0,1-9.992,0A14.5,14.5,0,0,1,1.576,15.477H13.583a.629.629,0,1,0,0-1.258H1.354l-.088-.525A.62.62,0,0,1,1.407,13.184Z" transform="translate(0 0)"/>
      <path id="Path_562" data-name="Path 562" d="M206.628,288.5a.629.629,0,1,0,0,1.258h1.887v1.887a.629.629,0,0,0,1.258,0v-1.887h1.887a.629.629,0,1,0,0-1.258h-1.887v-1.887a.629.629,0,1,0-1.258,0V288.5Z" transform="translate(-193.044 -267.992)"/>
    </g>
  </g>
</svg>
