<svg xmlns="http://www.w3.org/2000/svg" width="67" height="67" viewBox="0 0 67 67">
  <g id="queue-icon" transform="translate(-1120 -597)">
    <circle id="Ellipse_108" data-name="Ellipse 108" cx="33.5" cy="33.5" r="33.5" transform="translate(1120 597)" fill="#29b6f6"/>
    <g id="line_1_" data-name="line (1)" transform="translate(1125.322 612)">
      <path id="Path_994" data-name="Path 994" d="M374.532,227.987v12.327a1.452,1.452,0,0,0,2.9,0V227.987Z" transform="translate(-338.131 -211.289)" fill="#5f6e9b"/>
      <path id="Path_995" data-name="Path 995" d="M422.4,227.987v12.327a1.452,1.452,0,1,0,2.9,0V227.987Z" transform="translate(-382.496 -211.289)" fill="#414b82"/>
      <g id="Group_380" data-name="Group 380" transform="translate(33.429 0)">
        <circle id="Ellipse_303" data-name="Ellipse 303" cx="2.509" cy="2.509" r="2.509" transform="translate(3.655 0)" fill="#ffb69e"/>
        <path id="Path_996" data-name="Path 996" d="M346.286,82.267a2.909,2.909,0,0,0-3.018-2.85H336.9a2.907,2.907,0,0,0-2.94,2.85v1.657h0v7.236a1.21,1.21,0,0,0,1.2,1.216h.006a1.21,1.21,0,0,0,1.21-1.2V82.279a.485.485,0,0,1,.488-.441h.063v9.179h6.411V81.838a.5.5,0,0,1,.3.076.444.444,0,0,1,.227.366v8.892a1.21,1.21,0,0,0,1.21,1.2h.006a1.21,1.21,0,0,0,1.2-1.216Z" transform="translate(-333.955 -73.6)" fill="#ffb69e"/>
      </g>
      <path id="Path_997" data-name="Path 997" d="M343.268,79.416h-1.832a1.339,1.339,0,1,1-2.679,0H336.9a2.907,2.907,0,0,0-2.94,2.85v1.657h0v.719h2.421V82.278a.485.485,0,0,1,.488-.441h.063v9.179h6.411V81.837a.5.5,0,0,1,.3.076.444.444,0,0,1,.227.366v2.363h2.421V82.266A2.909,2.909,0,0,0,343.268,79.416Z" transform="translate(-300.526 -73.599)" fill="#2ecc71"/>
      <path id="Path_998" data-name="Path 998" d="M224.942,253.66v13.716a1.616,1.616,0,0,0,3.232,0V253.66Z" transform="translate(-199.498 -235.081)" fill="#5f6e9b"/>
      <path id="Path_999" data-name="Path 999" d="M278.2,253.66v13.716a1.616,1.616,0,0,0,3.232,0V253.66Z" transform="translate(-248.857 -235.081)" fill="#414b82"/>
      <g id="Group_381" data-name="Group 381" transform="translate(22.138 0)">
        <circle id="Ellipse_304" data-name="Ellipse 304" cx="2.791" cy="2.791" r="2.791" transform="translate(4.067 0)" fill="#80391b"/>
        <path id="Path_1000" data-name="Path 1000" d="M193.512,91.529a3.237,3.237,0,0,0-3.358-3.171h-7.091a3.234,3.234,0,0,0-3.271,3.171v1.843h0v8.05a1.347,1.347,0,0,0,1.34,1.353h.007a1.347,1.347,0,0,0,1.346-1.34V91.542a.54.54,0,0,1,.543-.491h.07v10.212h7.133V91.051a.56.56,0,0,1,.335.084.494.494,0,0,1,.253.407v9.894a1.347,1.347,0,0,0,1.346,1.34h.007a1.347,1.347,0,0,0,1.34-1.353Z" transform="translate(-179.792 -81.886)" fill="#80391b"/>
      </g>
      <path id="Path_1001" data-name="Path 1001" d="M190.155,88.359h-2.038a1.49,1.49,0,0,1-2.981,0h-2.072a3.234,3.234,0,0,0-3.271,3.171v1.843h0v.8h2.693V91.543a.54.54,0,0,1,.543-.491h.07v10.212h7.133V91.052a.559.559,0,0,1,.335.084.494.494,0,0,1,.253.407v2.629h2.693V91.53A3.236,3.236,0,0,0,190.155,88.359Z" transform="translate(-157.655 -81.887)" fill="#017bff"/>
      <path id="Path_1002" data-name="Path 1002" d="M24.84,100.771a3.56,3.56,0,0,0-3.579-3.507h-8a3.56,3.56,0,0,0-3.579,3.507V111.72a1.489,1.489,0,1,0,2.979,0V100.783a.6.6,0,0,1,.6-.541h.054v11.325h7.889V100.243h.053a.6.6,0,0,1,.6.541V111.72a1.489,1.489,0,1,0,2.979,0V100.778S24.84,100.773,24.84,100.771Z" transform="translate(-0.006 -90.14)" fill="#ffb69e"/>
      <path id="Path_1003" data-name="Path 1003" d="M119.981,286.011a1.787,1.787,0,0,1-1.787-1.787V269.938a1.787,1.787,0,0,1,3.575,0v14.286A1.787,1.787,0,0,1,119.981,286.011Z" transform="translate(-100.568 -248.511)" fill="#343e6b"/>
      <path id="Path_1004" data-name="Path 1004" d="M61.074,286.011a1.787,1.787,0,0,1-1.787-1.787V269.938a1.787,1.787,0,0,1,3.575,0v14.286A1.787,1.787,0,0,1,61.074,286.011Z" transform="translate(-45.976 -248.511)" fill="#414b82"/>
      <path id="Path_1005" data-name="Path 1005" d="M24.84,100.771a3.56,3.56,0,0,0-3.579-3.507h-2.5a1.5,1.5,0,0,1-2.991,0h-2.5a3.56,3.56,0,0,0-3.579,3.507V111.72a1.489,1.489,0,1,0,2.979,0V100.783a.6.6,0,0,1,.6-.541h.054v11.325h7.889V100.243h.053a.6.6,0,0,1,.6.541V111.72a1.489,1.489,0,1,0,2.979,0V100.778S24.84,100.773,24.84,100.771Z" transform="translate(-0.006 -90.14)" fill="#252d5c"/>
      <path id="Path_1006" data-name="Path 1006" d="M120.712,100.771a3.56,3.56,0,0,0-3.579-3.507h-2.5a1.523,1.523,0,0,1-1.5,1.426v12.878h3.945V100.243h.053a.6.6,0,0,1,.6.541V111.72a1.489,1.489,0,1,0,2.979,0V100.778S120.712,100.773,120.712,100.771Z" transform="translate(-95.879 -90.14)" fill="#1b224a"/>
      <g id="Group_382" data-name="Group 382" transform="translate(9.678 0)">
        <path id="Path_1007" data-name="Path 1007" d="M9.678,294.113v.038a1.489,1.489,0,0,0,2.979,0v-.038Z" transform="translate(-9.678 -272.572)" fill="#ffb69e"/>
        <path id="Path_1008" data-name="Path 1008" d="M175.92,294.113v.038a1.489,1.489,0,0,0,2.979,0v-.038Z" transform="translate(-163.744 -272.572)" fill="#ffb69e"/>
        <circle id="Ellipse_305" data-name="Ellipse 305" cx="3.087" cy="3.087" r="3.087" transform="translate(4.49 0)" fill="#ffb69e"/>
      </g>
    </g>
  </g>
</svg>
