<svg xmlns="http://www.w3.org/2000/svg" width="196" height="38.627" viewBox="0 0 196 38.627">
  <g id="request-btn" transform="translate(-1553 -145)">
    <path id="Path_26" data-name="Path 26" d="M16.53,0H179.47C188.6,0,196,8.647,196,19.313s-7.4,19.313-16.53,19.313H16.53C7.4,38.627,0,29.98,0,19.313S7.4,0,16.53,0Z" transform="translate(1553 145)" fill="#2ecc71"/>
    <text id="REQUEST_NEXT_PATIENT" data-name="REQUEST NEXT PATIENT" transform="translate(1606 168)" fill="#fdfefe" font-size="10" font-family="Montserrat-Regular, Montserrat"><tspan x="0" y="0">REQUEST NEXT PATIENT</tspan></text>
    <g id="public_folder-HJ7yrNhI4" data-name="public folder-HJ7yrNhI4" transform="translate(1549.875 128.9)">
      <g id="Group_155" data-name="Group 155">
        <path id="Path_25" data-name="Path 25" d="M26.775,2.975h-11.9L11.9,0H2.975A2.984,2.984,0,0,0,0,2.975v17.85A2.984,2.984,0,0,0,2.975,23.8h23.8a2.984,2.984,0,0,0,2.975-2.975V5.95a2.984,2.984,0,0,0-2.975-2.975ZM19.337,7.438a2.975,2.975,0,1,1-2.975,2.975,2.984,2.984,0,0,1,2.975-2.975Zm5.95,11.9h-11.9V17.85c0-1.934,4.016-2.975,5.95-2.975s5.95,1.041,5.95,2.975v1.487Z" transform="translate(20.125 23.1)" fill="#fdfefe" fill-rule="evenodd"/>
      </g>
    </g>
  </g>
</svg>
