<svg xmlns="http://www.w3.org/2000/svg" width="79" height="79" viewBox="0 0 79 79">
  <g id="staff-icon" transform="translate(-1219 -190)">
    <circle id="Ellipse_107" data-name="Ellipse 107" cx="39.5" cy="39.5" r="39.5" transform="translate(1219 190)" fill="#29b6f6"/>
    <g id="Group_263" data-name="Group 263" transform="translate(-5 -0.858)">
      <g id="mask" transform="translate(1251 202.858)">
        <path id="Path_546" data-name="Path 546" d="M33.18,40.836,26.571,39H19.143l-6.609,1.836A6.19,6.19,0,0,0,8,46.8v6.437H37.714V46.8A6.19,6.19,0,0,0,33.18,40.836Z" transform="translate(0 -14.096)" fill="#1e3799" opacity="0.8"/>
        <g id="Group_254" data-name="Group 254" transform="translate(12.952 24.904)">
          <path id="Path_547" data-name="Path 547" d="M16,56h1.238v3.714H16Z" transform="translate(-16 -45.476)" fill="#1e3799"/>
          <path id="Path_548" data-name="Path 548" d="M46,56h1.238v3.714H46Z" transform="translate(-27.429 -45.476)" fill="#1e3799"/>
          <path id="Path_549" data-name="Path 549" d="M28.963,43.952A4.955,4.955,0,0,0,33.9,39.339L32.677,39H25.249l-1.221.339A4.955,4.955,0,0,0,28.963,43.952Z" transform="translate(-19.058 -39)" fill="#1e3799"/>
        </g>
        <path id="Path_550" data-name="Path 550" d="M33.428,32v4.333a3.714,3.714,0,1,1-7.428,0V32Z" transform="translate(-6.857 -11.429)" fill="sienna"/>
        <path id="Path_551" data-name="Path 551" d="M35.055,15.389v4.333a7.944,7.944,0,0,1-15.888,0V15.389A2.889,2.889,0,0,1,22.056,12.5H32.167A2.889,2.889,0,0,1,35.055,15.389Z" transform="translate(-4.254 -4)" fill="sienna"/>
        <path id="Path_552" data-name="Path 552" d="M32.166,4.167h-.1A2.883,2.883,0,0,0,29.277,2H26.388a7.221,7.221,0,0,0-7.222,7.222v6.5l1.444-4.333h8.666a2.883,2.883,0,0,0,2.787-2.167h.388a1.445,1.445,0,0,1,1.41,1.131l1.193,5.369V7.056A2.889,2.889,0,0,0,32.166,4.167Z" transform="translate(-4.254)" fill="#1b2631"/>
        <path id="Path_553" data-name="Path 553" d="M44.833,17.167h.462a1.445,1.445,0,0,1,1.425,1.682l-.241,1.444A1.445,1.445,0,0,1,45.054,21.5h-.221Z" transform="translate(-14.032 -5.778)" fill="sienna"/>
        <path id="Path_554" data-name="Path 554" d="M17.994,17.167h-.462a1.445,1.445,0,0,0-1.425,1.682l.241,1.444A1.445,1.445,0,0,0,17.773,21.5h.221Z" transform="translate(-3.081 -5.778)" fill="sienna"/>
        <path id="Path_555" data-name="Path 555" d="M34.732,17.119h.323V16.5h-.7l-2.4,4.789a27.84,27.84,0,0,1-4.843.472,27.825,27.825,0,0,1-4.842-.472l-2.4-4.789h-.7v.619h.323l2.048,4.1v3.962l-1.656-3.726h-.7v.619h.3L21.541,26.7v.456a1.247,1.247,0,0,0,.765,1.148,12.292,12.292,0,0,0,4.806.883,12.292,12.292,0,0,0,4.806-.883,1.246,1.246,0,0,0,.765-1.148V26.7l2.058-4.631h.3v-.619h-.7l-1.655,3.726V21.216Z" transform="translate(-4.256 -5.524)" fill="#edeff1"/>
      </g>
      <g id="nurse" transform="translate(1185.99 213.703)">
        <g id="Layer_2_3_" transform="translate(53.01)">
          <g id="Group_253" data-name="Group 253" transform="translate(0)">
            <path id="Path_530" data-name="Path 530" d="M241.441,166.369a25.951,25.951,0,0,1,2.729,1.829,26.842,26.842,0,0,1,4.079,1.878c.233.129.476.252.722.372A3.931,3.931,0,0,0,249,169.7c-.085-1.5-.942-.932-1.167-.806a1,1,0,0,1-1.251-.394,4.269,4.269,0,0,0,2.333-3.549c0-1.127-.7-.741-.925-.652-1.121.453-2.2-1.781-.658-3.453.841-.81.415-1.38.163-1.663a7.519,7.519,0,0,0-.9-.854c-.088.168-.157.318-.242.45A12.069,12.069,0,0,1,241.441,166.369Z" transform="translate(-222.391 -142.327)" fill="#1b2631"/>
            <path id="Path_531" data-name="Path 531" d="M171,239.141l-.031-.019c0,.27-.005.576,0,.907l.032,0v-.883Z" transform="translate(-159.039 -214.947)" fill="#664b3a"/>
            <path id="Path_532" data-name="Path 532" d="M98.9,169.493a11.722,11.722,0,0,1,2.9-1.617,12.658,12.658,0,0,1-4.919-6.846,2.83,2.83,0,0,1-.648-1.167,7.875,7.875,0,0,0-.7.7c-.252.283-.678.853.163,1.663,1.545,1.671.463,3.906-.658,3.453-.221-.09-.926-.475-.925.652a4.269,4.269,0,0,0,2.333,3.549,1,1,0,0,1-1.251.394c-.225-.126-1.082-.69-1.167.806a3.875,3.875,0,0,0,.02.657c.186-.093.369-.187.547-.286A26.315,26.315,0,0,1,98.9,169.493Z" transform="translate(-89.879 -143.7)" fill="#1b2631"/>
            <path id="Path_533" data-name="Path 533" d="M204.7,349.107l.014-.029-.013-.019C204.7,349.075,204.7,349.091,204.7,349.107Z" transform="translate(-189.366 -313.769)" fill="#dec8ae"/>
            <path id="Path_534" data-name="Path 534" d="M170.988,248.051c0,.267.013.549.032.841v-.846Z" transform="translate(-159.06 -222.969)" fill="#dec8ae"/>
            <path id="Path_535" data-name="Path 535" d="M204.569,340.7q.023.274.032.57A1.682,1.682,0,0,0,204.569,340.7Z" transform="translate(-189.246 -306.251)" fill="#f7f1e6"/>
            <path id="Path_536" data-name="Path 536" d="M204.922,349.064c0,.01,0,.02,0,.03,0-.01,0-.021,0-.031Z" transform="translate(-189.564 -313.773)" fill="#f7f1e6"/>
            <path id="Path_537" data-name="Path 537" d="M79.591,257.449c-.246-.12-.489-.243-.722-.372a26.839,26.839,0,0,0-4.079-1.878,5.546,5.546,0,0,1,1.907,2.83,5.6,5.6,0,0,0-4.029-1.219,9.14,9.14,0,0,1,1.636,3.6c-1.435,0-3.783,1.042-5.935,4.238l-.009-.012-.014.029c0-.016,0-.032,0-.048-2.146-3.171-4.483-4.2-5.913-4.207a9.137,9.137,0,0,1,1.636-3.6,5.6,5.6,0,0,0-4.029,1.219,5.668,5.668,0,0,1,2-2.908,26.323,26.323,0,0,0-4.306,1.956c-.178.1-.361.193-.547.286-1.922.958-4.173,1.717-4.173,4.432v6.141c0,1.539,1.571,2.689,3.785,2.689H79.8c2.214,0,3.785-1.149,3.785-2.689v-6.141C83.588,259.161,81.471,258.368,79.591,257.449Zm-1.215,9.375a.507.507,0,0,1-.507.507h-.805v.805a.507.507,0,0,1-.507.508h-.339a.507.507,0,0,1-.507-.508v-.805H74.9a.507.507,0,0,1-.507-.507v-.339a.508.508,0,0,1,.507-.507h.806v-.805a.507.507,0,0,1,.507-.507h.339a.507.507,0,0,1,.507.507v.805h.805a.507.507,0,0,1,.507.507Z" transform="translate(-53.01 -229.328)" fill="#f6f9fc"/>
            <path id="Path_538" data-name="Path 538" d="M178.133,239.318a6.437,6.437,0,0,1-6.829-.009v1.729a8.183,8.183,0,0,0,.567,2.656,4.76,4.76,0,0,0,.59,1.025,8.433,8.433,0,0,1,2.206,4.84,1.676,1.676,0,0,1,.032.57c0,.091,0,.183,0,.277h0c.007-2.681.92-3.955,2.242-5.686a4.794,4.794,0,0,0,.617-1.09A11.234,11.234,0,0,0,178.133,239.318Z" transform="translate(-159.345 -215.115)" fill="sienna"/>
            <path id="Path_539" data-name="Path 539" d="M127.261,122.057l.031.019a6.437,6.437,0,0,0,6.829.009c.114-.066.144-.087.261-.161a12.043,12.043,0,0,0,4.917-7.573c-.831,1.293-1.469.828-1.6-1.249a5.757,5.757,0,0,0-2.424-4.132,7.99,7.99,0,0,1,.514,2.182,1.387,1.387,0,0,1-1.652,1.612,14.756,14.756,0,0,1-8.169-3.874,5.476,5.476,0,0,0-2.3,4.266c.035,1.212-.592,2.7-1.328,2.073a11.9,11.9,0,0,0,4.685,6.683A1.691,1.691,0,0,0,127.261,122.057Z" transform="translate(-115.333 -97.881)" fill="sienna"/>
            <path id="Path_540" data-name="Path 540" d="M130.873,248.847q-.008-.3-.032-.57a8.433,8.433,0,0,0-2.206-4.84,4.761,4.761,0,0,1-.59-1.025,8.181,8.181,0,0,1-.567-2.656c-.019-.292,0-.558,0-.824,0-.331,0-.354,0-.623,0-.086,0-.222,0-.3a1.153,1.153,0,0,1-.218-.125,11.459,11.459,0,0,0-2.716,1.743,5.668,5.668,0,0,0-2,2.908,5.6,5.6,0,0,1,4.029-1.219,9.14,9.14,0,0,0-1.636,3.6c1.43,0,3.768,1.036,5.913,4.207l.013.019.009.012c0-.01,0-.02,0-.03C130.877,249.029,130.875,248.937,130.873,248.847Z" transform="translate(-115.519 -213.832)" fill="#fff"/>
            <path id="Path_541" data-name="Path 541" d="M208.355,237.969a11.236,11.236,0,0,1-.571,4.311,4.789,4.789,0,0,1-.617,1.09c-1.321,1.731-2.235,3.005-2.242,5.686,0,.01,0,.021,0,.031,2.152-3.2,4.5-4.235,5.935-4.238a9.136,9.136,0,0,0-1.636-3.6,5.6,5.6,0,0,1,4.029,1.219,5.546,5.546,0,0,0-1.907-2.83,20.564,20.564,0,0,0-2.729-1.829S208.46,237.908,208.355,237.969Z" transform="translate(-189.566 -213.766)" fill="#fff"/>
            <path id="Path_542" data-name="Path 542" d="M112.179,70.891c.736.626,1.363-.86,1.328-2.073a5.476,5.476,0,0,1,2.3-4.266,14.755,14.755,0,0,0,8.169,3.874,1.387,1.387,0,0,0,1.652-1.612,7.987,7.987,0,0,0-.514-2.182,5.758,5.758,0,0,1,2.424,4.132c.131,2.077.77,2.543,1.6,1.249.085-.132.171-.281.259-.449.059-.112.118-.23.178-.358.678-1.448-.174-6.034-2.921-9.033a2.508,2.508,0,0,1-2.338,1.27h-7.133a2.485,2.485,0,0,1-2.559-1.8l-.022-.075c-2.959,2.481-4.052,6.586-3.367,9.236.092.356.186.662.281.923A2.806,2.806,0,0,0,112.179,70.891Z" transform="translate(-105.17 -53.544)" fill="#1b2631"/>
            <path id="Path_543" data-name="Path 543" d="M139,7.9h7.133a2.508,2.508,0,0,0,2.338-1.27,2.705,2.705,0,0,0,.221-.532c.3-1.018,1.015-3.421,1.015-3.421A1.932,1.932,0,0,0,148.027,0H137.109a1.932,1.932,0,0,0-1.682,2.676s.679,2.291.993,3.346l.022.075A2.485,2.485,0,0,0,139,7.9Zm1.577-4.119a.507.507,0,0,1,.507-.507h.806V2.467a.507.507,0,0,1,.507-.507h.339a.507.507,0,0,1,.507.507v.805h.805a.507.507,0,0,1,.507.507v.339a.507.507,0,0,1-.507.507h-.805v.805a.508.508,0,0,1-.507.508H142.4a.508.508,0,0,1-.507-.508V4.626h-.806a.507.507,0,0,1-.507-.507Z" transform="translate(-126.99)" fill="#f7f1e6"/>
            <path id="Path_544" data-name="Path 544" d="M187.926,22.051h.806v.805a.508.508,0,0,0,.507.508h.339a.507.507,0,0,0,.507-.508v-.805h.805a.507.507,0,0,0,.507-.507V21.2a.507.507,0,0,0-.507-.507h-.805v-.805a.507.507,0,0,0-.507-.507h-.339a.507.507,0,0,0-.507.507V20.7h-.806a.507.507,0,0,0-.507.507v.339A.507.507,0,0,0,187.926,22.051Z" transform="translate(-173.83 -17.424)" fill="#ff4757"/>
            <path id="Path_545" data-name="Path 545" d="M268.017,350.844h-.805v-.805a.507.507,0,0,0-.507-.507h-.339a.507.507,0,0,0-.507.507v.805h-.806a.507.507,0,0,0-.507.507v.339a.508.508,0,0,0,.507.507h.806V353a.507.507,0,0,0,.507.508h.339a.507.507,0,0,0,.507-.508V352.2h.805a.507.507,0,0,0,.507-.507v-.339A.507.507,0,0,0,268.017,350.844Z" transform="translate(-243.159 -314.194)" fill="#ff4757"/>
          </g>
        </g>
      </g>
    </g>
  </g>
</svg>
