<svg xmlns="http://www.w3.org/2000/svg" width="40" height="40" viewBox="0 0 40 40">
  <g id="user-icon" transform="translate(-1593 -72)">
    <g id="application-rkCtvyRQN" transform="translate(1581.91 59.91)">
      <g id="Group_6" data-name="Group 6" transform="translate(19.09 19.09)">
        <path id="Path_1" data-name="Path 1" d="M14.136,13a6.5,6.5,0,1,0-6.5-6.5,6.508,6.508,0,0,0,6.5,6.5Z" transform="translate(-1.636 0)" fill="#fdfefe"/>
        <path id="Path_2" data-name="Path 2" d="M20.292,16.172a.5.5,0,0,0-.686.059,9.469,9.469,0,0,1-14.213,0,.5.5,0,0,0-.686-.059A12.444,12.444,0,0,0,0,25.942v2a.5.5,0,0,0,.5.5h24a.5.5,0,0,0,.5-.5v-2a12.444,12.444,0,0,0-4.708-9.77Z" transform="translate(0 -3.442)" fill="#fdfefe"/>
      </g>
    </g>
    <g id="Ellipse_2" data-name="Ellipse 2" transform="translate(1593 72)" fill="none" stroke="#fdfefe" stroke-width="2">
      <circle cx="20" cy="20" r="20" stroke="none"/>
      <circle cx="20" cy="20" r="19" fill="none"/>
    </g>
  </g>
</svg>
