<svg xmlns="http://www.w3.org/2000/svg" width="86.124" height="86.124" viewBox="0 0 86.124 86.124">
  <g id="user-more" transform="translate(-1593 -72)">
    <g id="user-icon-more-details">
      <g id="application-rkCtvyRQN" transform="translate(1610.225 87.072)">
        <g id="Group_6" data-name="Group 6" transform="translate(0 0)">
          <path id="Path_1" data-name="Path 1" d="M21.632,27.99a14,14,0,1,0-14-14,14.011,14.011,0,0,0,14,14Z" transform="translate(5.282 0)" fill="#78909c"/>
          <path id="Path_2" data-name="Path 2" d="M43.692,16.3a1.075,1.075,0,0,0-1.478.127,20.388,20.388,0,0,1-30.6,0,1.075,1.075,0,0,0-1.478-.127A26.793,26.793,0,0,0,0,37.334V41.64a1.076,1.076,0,0,0,1.077,1.077H52.751a1.076,1.076,0,0,0,1.077-1.077V37.334A26.793,26.793,0,0,0,43.692,16.3Z" transform="translate(0 11.11)" fill="#78909c"/>
        </g>
      </g>
      <g id="Ellipse_2" data-name="Ellipse 2" transform="translate(1593 72)" fill="none" stroke="#78909c" stroke-width="2">
        <circle cx="43.062" cy="43.062" r="43.062" stroke="none"/>
        <circle cx="43.062" cy="43.062" r="42.062" fill="none"/>
      </g>
    </g>
  </g>
</svg>
