<svg xmlns="http://www.w3.org/2000/svg" xmlns:xlink="http://www.w3.org/1999/xlink" width="496" height="278.948" viewBox="0 0 496 278.948">
  <defs>
    <filter id="Path_428" x="0" y="193.764" width="496" height="85.184" filterUnits="userSpaceOnUse">
      <feOffset dy="3" input="SourceAlpha"/>
      <feGaussianBlur stdDeviation="3" result="blur"/>
      <feFlood flood-opacity="0.161"/>
      <feComposite operator="in" in2="blur"/>
      <feComposite in="SourceGraphic"/>
    </filter>
    <linearGradient id="linear-gradient" x1="0.5" y1="1" x2="0.5" gradientUnits="objectBoundingBox">
      <stop offset="0" stop-color="gray" stop-opacity="0.251"/>
      <stop offset="0.54" stop-color="gray" stop-opacity="0.122"/>
      <stop offset="1" stop-color="gray" stop-opacity="0.102"/>
    </linearGradient>
    <linearGradient id="linear-gradient-2" x1="0.5" y1="1" x2="0.5" y2="0" xlink:href="#linear-gradient"/>
  </defs>
  <g id="welocme-svg" transform="translate(-627.53 -539.561)">
    <g transform="matrix(1, 0, 0, 1, 627.53, 539.56)" filter="url(#Path_428)">
      <path id="Path_428-2" data-name="Path 428" d="M199.1,0C318.631,0,415.53,12.78,415.53,28.544c0,9.222-71.57-1.034-123.123,4.194C256,36.43,156.963,67.184,107.358,67.184c-119.53,0-169.828-26.693-169.828-42.457S79.571,0,199.1,0Z" transform="translate(71.47 199.76)" fill="#29b6f6"/>
    </g>
    <g id="undraw_medicine_b1ol" transform="translate(704.797 539.561)">
      <ellipse id="Ellipse_68" data-name="Ellipse 68" cx="27.454" cy="4.409" rx="27.454" ry="4.409" transform="translate(75.92 211.595)" fill="#6c63ff" opacity="0.1"/>
      <ellipse id="Ellipse_69" data-name="Ellipse 69" cx="34.258" cy="4.409" rx="34.258" ry="4.409" transform="translate(218.349 211.719)" fill="#6c63ff" opacity="0.1"/>
      <path id="Path_299" data-name="Path 299" d="M59.586,396.83H88.181V435.8h-26.5c-.07.4-.138.8-.211,1.206H88.181v31.432c-.048-.014-.09-.031-.135-.048-.755-.3-1.5-.614-2.254-.952l-.479-.217q-1.127-.532-2.254-1.127c-.262-.138-.524-.282-.783-.428a46.889,46.889,0,0,1-11.236-8.779c-.1-.093-.186-.192-.282-.282-.456-.5-.9-1-1.338-1.51l-.479-.563c-.513-.628-1.009-1.273-1.49-1.927-.07-.1-.138-.192-.211-.282a41.949,41.949,0,0,1-4.846-8.762c-.039-.093-.073-.194-.11-.282q-.58-1.493-1.028-3.015c-.13-.425-.254-.845-.361-1.288-.039-.13-.073-.256-.1-.383C59.189,432.35,59,425.861,59,419.418v-2.254c0-2.606.031-5.229.076-7.849,0-.679.028-1.355.042-2.037q.059-2.595.169-5.19c.017-.482.039-.961.065-1.44a8.156,8.156,0,0,1,.042-.828C59.462,398.816,59.518,397.822,59.586,396.83Z" transform="translate(-55.822 -301.541)" fill="#6c63ff" opacity="0.1"/>
      <path id="Path_300" data-name="Path 300" d="M122.585,192.274H106.9a118.9,118.9,0,0,1,8.343-11.484c2.33-2.863,4.79-5.652,7.342-8.34Z" transform="translate(-90.226 -140.38)" fill="#6c63ff" opacity="0.1"/>
      <path id="Path_301" data-name="Path 301" d="M89.9,247.09v40.983H61.4c0-.118.02-.24.028-.358.025-.324.051-.648.079-.969.031-.378.065-.758.1-1.127s.076-.82.118-1.228.082-.823.13-1.231.09-.817.141-1.223.1-.817.149-1.223c.042-.338.087-.673.132-1.011.065-.476.132-.955.206-1.428a1.316,1.316,0,0,1,.031-.211,97.456,97.456,0,0,1,2.1-10.289,76.1,76.1,0,0,1,3.536-10.425A78.258,78.258,0,0,1,73.47,247.1Z" transform="translate(-57.546 -193.99)" fill="#6c63ff" opacity="0.1"/>
      <path id="Path_302" data-name="Path 302" d="M186.8,153.91v38.977h61.075V153.91Zm0,40.18v33.472c.349.073.7.144,1.04.2.468.09.933.172,1.409.242.09.014.183.028.282.037.186.031.378.056.563.082.471.065.938.118,1.409.161.223.023.448.042.673.059l.544.042h0c.3.023.589.039.879.048.18,0,.361.017.547.023h2.009c.242,0,.485,0,.724-.023h.017a3.8,3.8,0,0,0,.5-.023,1.179,1.179,0,0,0,.141,0,2.914,2.914,0,0,0,.417-.02h.1l.944-.073c.31-.028.623-.065.938-.1l.642-.076a56.191,56.191,0,0,0,7.734-1.645c5.7-1.589,11.27-3.812,16.964-5.441,7.362-2.1,15.5-3.13,22.61-.564V194.09Zm61.075-83.572V58.628a78.515,78.515,0,0,0-19.844,2.327C212.566,64.841,198.69,73.268,186.8,84.031v26.484h3.065v1.2H186.8v40.989h61.075V111.721H202.451v-1.2ZM326.322,92.99a25.3,25.3,0,0,1-11.07-3.218c-6.579-3.578-11.833-9.1-17.705-13.766A81.289,81.289,0,0,0,254.7,58.98v51.537h87.187l.217-.228Zm7.943-1.409,8.421,9.241V89.158a33.413,33.413,0,0,0-8.41,2.412Zm8.421,144.292V194.09H324.741c-.048-.178-.1-.358-.152-.538.053.18.1.361.149.538H254.707v30.217c.665.493,1.321,1.011,1.972,1.538h0c.7.563,1.395,1.158,2.091,1.741l.7.58c.335.282.673.563,1.014.828q1.014.823,2.048,1.623c.341.282.69.535,1.037.8a141.21,141.21,0,0,0,17.364,11.357q2.037,1.127,4.111,2.2c.921.471,1.848.938,2.778,1.392q2.1,1.023,4.226,1.972h0a155.2,155.2,0,0,0,41.135,11.983q4.73.7,9.5,1.1V235.87h.282ZM254.707,111.721v40.986H342.7V111.721Zm0,42.189v38.977H342.7V153.91Zm94.819-64.8v13.011l10.749-11.794q-5.342-.862-10.749-1.231Zm0,64.816v38.963h85.581V153.91Zm85.268,85.043.3-44.877h-85.57v67.78a153.468,153.468,0,0,0,16.539-.2h.1q3.944-.248,7.852-.721h.059a144.6,144.6,0,0,0,40.346-10.766m37.191-89.858c-.321-.758-.656-1.51-1-2.254-.637-1.409-1.31-2.778-2-4.147h-6.677v38.96h16.882c-.008-11.033-2.8-22.3-7.2-32.573ZM441.931,194.1v38.6A55.3,55.3,0,0,0,453.6,216.968a54.094,54.094,0,0,0,5.2-22.87Zm0-51.537V152.71h6.052a109.9,109.9,0,0,0-6.044-10.157Zm-58.04-45.812c-.445-.169-.89-.341-1.338-.507A122.173,122.173,0,0,0,368.1,91.9l-16.448,18.052h0l-.316.335.211.231h58.542A125.214,125.214,0,0,0,383.9,96.74Zm27.91,14.981H350.727l-1.2,1.1v39.873h85.592V133.393a121.939,121.939,0,0,0-23.309-21.672Z" transform="translate(-147.614 -58.624)" fill="#6c63ff" opacity="0.1"/>
      <path id="Path_303" data-name="Path 303" d="M89.9,320.46v20.311H61.4c0-.118.02-.239.028-.358.025-.324.051-.648.079-.969.031-.378.065-.758.1-1.127s.076-.82.118-1.228.082-.823.13-1.231.09-.817.141-1.223.1-.817.149-1.223c.042-.338.087-.673.132-1.011.065-.476.132-.955.206-1.428a1.318,1.318,0,0,1,.031-.211,97.459,97.459,0,0,1,2.1-10.289Z" transform="translate(-57.546 -246.688)" fill="#6c63ff" opacity="0.1"/>
      <path id="Path_304" data-name="Path 304" d="M59.586,396.83H88.181V435.8h-26.5c-.07.4-.138.8-.211,1.206H88.181v31.432c-.048-.014-.09-.031-.135-.048-.755-.3-1.5-.614-2.254-.952l-.479-.217q-1.127-.532-2.254-1.127c-.262-.138-.524-.282-.783-.428a46.889,46.889,0,0,1-11.236-8.779c-.1-.093-.186-.192-.282-.282-.456-.5-.9-1-1.338-1.51l-.479-.563c-.513-.628-1.009-1.273-1.49-1.927-.07-.1-.138-.192-.211-.282a41.949,41.949,0,0,1-4.846-8.762c-.039-.093-.073-.194-.11-.282q-.58-1.493-1.028-3.015c-.13-.425-.254-.845-.361-1.288-.039-.13-.073-.256-.1-.383C59.189,432.35,59,425.861,59,419.418v-2.254c0-2.606.031-5.229.076-7.849,0-.679.028-1.355.042-2.037q.059-2.595.169-5.19c.017-.482.039-.961.065-1.44a8.156,8.156,0,0,1,.042-.828C59.462,398.816,59.518,397.822,59.586,396.83Z" transform="translate(-55.822 -301.541)" fill="#6c63ff" opacity="0.1"/>
      <path id="Path_305" data-name="Path 305" d="M161.06,178.97v35.117h-21.5V178.97h3.065V167.08h12.583v11.89Z" transform="translate(-100.374 -120.004)" fill="#6c63ff" opacity="0.1"/>
      <rect id="Rectangle_198" data-name="Rectangle 198" width="21.497" height="38.974" transform="translate(39.188 95.286)" fill="#6c63ff" opacity="0.1"/>
      <path id="Path_306" data-name="Path 306" d="M186.8,539.44h21.5v32.4a56.1,56.1,0,0,1-7.734,1.643l-.642.079c-.316.037-.628.068-.938.1s-.631.054-.944.073h-.1c-.135,0-.282.017-.414.02h-.144c-.169,0-.338.017-.507.022h0c-.24.014-.479.017-.724.02h-1.995l-.544-.02c-.282,0-.586-.031-.879-.051h0l-.541-.039-.673-.062c-.473-.042-.944-.1-1.409-.161l-.564-.079-.282-.039c-.471-.073-.935-.152-1.409-.242-.347-.059-.69-.132-1.04-.2Z" transform="translate(-147.614 -403.971)" fill="#6c63ff" opacity="0.1"/>
      <rect id="Rectangle_199" data-name="Rectangle 199" width="17.728" height="39.262" transform="translate(177.355 54.819)" fill="#6c63ff" opacity="0.1"/>
      <path id="Path_307" data-name="Path 307" d="M468.573,338.19v38.977H380.58V360.355h46.869v9.918h23.394V338.19Z" transform="translate(-273.488 -242.904)" fill="#6c63ff" opacity="0.1"/>
      <path id="Path_308" data-name="Path 308" d="M516.092,579.857h-.282v25.569q-4.762-.4-9.495-1.1a155.2,155.2,0,0,1-41.152-12.008q-5.672-2.552-11.112-5.573a141.8,141.8,0,0,1-17.367-11.357q-2.074-1.589-4.094-3.251c-.933-.769-1.86-1.558-2.8-2.324-.651-.527-1.307-1.045-1.972-1.541V538.068h70.028c-.048-.18-.1-.361-.146-.538.053.177.1.358.152.538H515.81V579.84C515.906,579.843,516,579.851,516.092,579.857Z" transform="translate(-320.727 -402.599)" fill="#6c63ff" opacity="0.1"/>
      <path id="Path_309" data-name="Path 309" d="M874.772,206.4H863.22v-3.589H868.4V192.12q.673.245,1.341.5v10.188h5.032Z" transform="translate(-633.454 -154.508)" fill="#6c63ff" opacity="0.1"/>
      <path id="Path_310" data-name="Path 310" d="M831.6,288.073h-56.71l.02.014-.025-.014H764.36V248.811h2.981v29.02h13.622V260.645h11.253V247.09h11.552v13.566h11.253v17.187H831.6Z" transform="translate(-562.448 -193.99)" fill="#9c27b0" opacity="0.1"/>
      <path id="Path_311" data-name="Path 311" d="M764.36,396.82V435.8H831.6V396.82Zm85.488,84.857.093-30.851H831.6V437.02H764.36v67.76a153.46,153.46,0,0,0,16.539-.2h.1q3.945-.248,7.852-.721h.059A144.6,144.6,0,0,0,829.252,493.1" transform="translate(-562.448 -301.534)" fill="#9c27b0" opacity="0.1"/>
      <path id="Path_312" data-name="Path 312" d="M1093.553,539.44h15.685a54.263,54.263,0,0,1-5.2,22.867,55.316,55.316,0,0,1-11.664,15.736V553.248h1.183Z" transform="translate(-798.042 -403.971)" fill="#9c27b0" opacity="0.1"/>
      <path id="Path_313" data-name="Path 313" d="M1112.263,452.123H1096.57V419.55h8.492C1109.457,429.82,1112.249,441.09,1112.263,452.123Z" transform="translate(-801.059 -317.86)" fill="#6c63ff" opacity="0.1"/>
      <rect id="Rectangle_200" data-name="Rectangle 200" width="9.498" height="12.31" transform="translate(185.587 65.734)" fill="#6c63ff" opacity="0.1"/>
      <rect id="Rectangle_201" data-name="Rectangle 201" width="9.498" height="2.834" transform="translate(185.587 91.249)" fill="#6c63ff" opacity="0.1"/>
      <rect id="Rectangle_202" data-name="Rectangle 202" width="9.498" height="8.269" transform="translate(185.587 95.286)" fill="#6c63ff" opacity="0.1"/>
      <rect id="Rectangle_203" data-name="Rectangle 203" width="9.498" height="12.31" transform="translate(185.587 116.764)" fill="#6c63ff" opacity="0.1"/>
      <rect id="Rectangle_204" data-name="Rectangle 204" width="9.498" height="12.31" transform="translate(185.587 142.279)" fill="#6c63ff" opacity="0.1"/>
      <path id="Path_314" data-name="Path 314" d="M715.915,663.617a1.56,1.56,0,0,1,.282.017h-.282v2.86H706.42V654.17h9.495Z" transform="translate(-520.833 -486.376)" fill="#6c63ff" opacity="0.1"/>
      <path id="Path_315" data-name="Path 315" d="M715.915,744.71v9.509q-4.761-.4-9.495-1.1V744.71Z" transform="translate(-520.833 -551.406)" fill="#6c63ff" opacity="0.1"/>
      <rect id="Rectangle_205" data-name="Rectangle 205" width="40.704" height="0.904" transform="translate(107.092 133.359)" fill="#6c63ff" opacity="0.1"/>
      <rect id="Rectangle_206" data-name="Rectangle 206" width="40.704" height="3.466" transform="translate(107.092 135.466)" fill="#6c63ff" opacity="0.1"/>
      <rect id="Rectangle_207" data-name="Rectangle 207" width="40.704" height="5.573" transform="translate(107.092 150.292)" fill="#6c63ff" opacity="0.1"/>
      <path id="Path_316" data-name="Path 316" d="M473.542,652.15v5.573H441.7q-2.074-1.583-4.1-3.251c-.933-.769-1.857-1.558-2.8-2.322Z" transform="translate(-325.748 -484.925)" fill="#6c63ff" opacity="0.1"/>
      <path id="Path_317" data-name="Path 317" d="M535.391,712.219v5.567h-3.361q-5.666-2.556-11.109-5.576Z" transform="translate(-387.597 -528.063)" fill="#6c63ff" opacity="0.1"/>
      <rect id="Rectangle_208" data-name="Rectangle 208" width="8.013" height="8.013" transform="translate(218.453 99.064)" fill="#6c63ff" opacity="0.1"/>
      <rect id="Rectangle_209" data-name="Rectangle 209" width="8.013" height="8.013" transform="translate(44.959 61.73)" fill="#6c63ff" opacity="0.1"/>
      <rect id="Rectangle_210" data-name="Rectangle 210" width="8.013" height="8.013" transform="translate(44.959 80.342)" fill="#6c63ff" opacity="0.1"/>
      <rect id="Rectangle_211" data-name="Rectangle 211" width="8.013" height="8.013" transform="translate(44.959 98.955)" fill="#6c63ff" opacity="0.1"/>
      <rect id="Rectangle_212" data-name="Rectangle 212" width="8.013" height="8.013" transform="translate(44.959 117.564)" fill="#6c63ff" opacity="0.1"/>
      <rect id="Rectangle_213" data-name="Rectangle 213" width="8.013" height="8.013" transform="translate(44.959 136.176)" fill="#6c63ff" opacity="0.1"/>
      <rect id="Rectangle_214" data-name="Rectangle 214" width="8.013" height="8.013" transform="translate(44.959 154.789)" fill="#6c63ff" opacity="0.1"/>
      <rect id="Rectangle_215" data-name="Rectangle 215" width="8.013" height="8.013" transform="translate(249.043 99.064)" fill="#6c63ff" opacity="0.1"/>
      <rect id="Rectangle_216" data-name="Rectangle 216" width="8.013" height="8.013" transform="translate(218.453 118.829)" fill="#6c63ff" opacity="0.1"/>
      <rect id="Rectangle_217" data-name="Rectangle 217" width="8.013" height="8.013" transform="translate(249.043 118.829)" fill="#6c63ff" opacity="0.1"/>
      <rect id="Rectangle_218" data-name="Rectangle 218" width="8.013" height="8.013" transform="translate(218.453 138.591)" fill="#6c63ff" opacity="0.1"/>
      <rect id="Rectangle_219" data-name="Rectangle 219" width="8.013" height="8.013" transform="translate(249.043 138.591)" fill="#6c63ff" opacity="0.1"/>
      <rect id="Rectangle_220" data-name="Rectangle 220" width="8.013" height="8.013" transform="translate(218.453 158.355)" fill="#6c63ff" opacity="0.1"/>
      <rect id="Rectangle_221" data-name="Rectangle 221" width="8.013" height="8.013" transform="translate(249.043 158.355)" fill="#6c63ff" opacity="0.1"/>
      <rect id="Rectangle_222" data-name="Rectangle 222" width="8.013" height="8.013" transform="translate(218.453 178.12)" fill="#6c63ff" opacity="0.1"/>
      <rect id="Rectangle_223" data-name="Rectangle 223" width="8.013" height="8.013" transform="translate(249.043 178.12)" fill="#6c63ff" opacity="0.1"/>
      <path id="Path_318" data-name="Path 318" d="M775.83,707.5V702.33h8.01v4.432Z" transform="translate(-557.377 -504.448)" fill="#6c63ff" opacity="0.1"/>
      <path id="Path_319" data-name="Path 319" d="M65.24,357v4.584H92.663V357Zm2.733,4.3H65.736v-4.015H67.99Zm2.73,0H68.449v-4.015H70.7Zm2.725,0H71.174v-4.015h2.254Zm2.73,0H73.907v-4.015h2.254Zm2.727,0H76.631v-4.015h2.254Zm2.73,0H79.361v-4.015h2.254Zm2.73,0H82.091v-4.015h2.254Zm2.727,0H84.819v-4.015h2.254Zm2.727,0H87.546v-4.015H89.8Zm2.727,0H90.273v-4.015h2.254Z" transform="translate(-60.304 -272.933)" fill="#6c63ff" opacity="0.1"/>
      <path id="Path_320" data-name="Path 320" d="M65.24,404.34v4.584H92.663V404.34Zm2.733,4.294H65.736v-4H67.99Zm2.73,0H68.449v-4H70.7Zm2.725,0H71.174v-4h2.254Zm2.73,0H73.907v-4h2.254Zm2.727,0H76.631v-4h2.254Zm2.73,0H79.361v-4h2.254Zm2.73,0H82.091v-4h2.254Zm2.727,0H84.819v-4h2.254Zm2.727,0H87.546v-4H89.8Zm2.727,0H90.273v-4h2.254Z" transform="translate(-60.304 -306.935)" fill="#6c63ff" opacity="0.1"/>
      <path id="Path_321" data-name="Path 321" d="M65.24,451.7v4.592H92.663V451.7Zm2.733,4.294H65.736v-4.006H67.99Zm2.73,0H68.449v-4.006H70.7Zm2.725,0H71.174v-4.006h2.254Zm2.73,0H73.907v-4.006h2.254Zm2.727,0H76.631v-4.006h2.254Zm2.73,0H79.361v-4.006h2.254Zm2.73,0H82.091v-4.006h2.254Zm2.727,0H84.819v-4.006h2.254Zm2.727,0H87.546v-4.006H89.8Zm2.727,0H90.273v-4.006h2.254Z" transform="translate(-60.304 -340.951)" fill="#6c63ff" opacity="0.1"/>
      <path id="Path_322" data-name="Path 322" d="M65.24,499.06v4.578H92.663V499.06Zm2.733,4.294H65.736v-4.009H67.99Zm2.73,0H68.449v-4.009H70.7Zm2.725,0H71.174v-4.009h2.254Zm2.73,0H73.907v-4.009h2.254Zm2.727,0H76.631v-4.009h2.254Zm2.73,0H79.361v-4.009h2.254Zm2.73,0H82.091v-4.009h2.254Zm2.727,0H84.819v-4.009h2.254Zm2.727,0H87.546v-4.009H89.8Zm2.727,0H90.273v-4.009h2.254Z" transform="translate(-60.304 -374.968)" fill="#6c63ff" opacity="0.1"/>
      <path id="Path_323" data-name="Path 323" d="M65.66,546.41c.11.431.234.862.363,1.288v-1h2.254V550.7H67.072c.037.093.073.194.11.282H92.964V546.41Zm5.353,4.294H68.759V546.7h2.254Zm2.725,0H71.484V546.7h2.254Zm2.73,0h-2.26V546.7h2.254Zm2.727,0H76.941V546.7H79.2Zm2.73,0H79.671V546.7h2.254Zm2.73,0H82.4V546.7h2.254Zm2.727,0H85.129V546.7h2.254Zm2.727,0H87.856V546.7H90.11Zm2.727,0H90.583V546.7h2.254Z" transform="translate(-60.605 -408.977)" fill="#6c63ff" opacity="0.1"/>
      <path id="Path_324" data-name="Path 324" d="M88.26,593.77c.07.09.138.192.211.282h1.49v1.924c.161.192.318.383.482.563v-2.5H92.7v4.021h-.913c.09.093.177.192.282.282h17.139V593.77Zm7.159,4.291H93.165v-4h2.254Zm2.73,0H95.9v-4h2.254Zm2.73,0H98.626v-4h2.254Zm2.727,0h-2.254v-4h2.254Zm2.727,0H104.08v-4h2.254Zm2.727,0h-2.254v-4h2.254Z" transform="translate(-76.838 -442.994)" fill="#6c63ff" opacity="0.1"/>
      <path id="Path_325" data-name="Path 325" d="M141.65,641.12c.256.147.518.282.783.428v-.141h2.254v1.268l.479.222v-1.49h2.254v2.437a.7.7,0,0,0,.135.051V641.12Z" transform="translate(-115.185 -477.003)" fill="#6c63ff" opacity="0.1"/>
      <path id="Path_326" data-name="Path 326" d="M367.9,284.977ZM350.54,368.133Zm-18.108-42.31c.053.18.1.361.149.538h0C332.536,326.183,332.489,326,332.432,325.822ZM367.9,284.969ZM197.72,242.78v1.2h12.586v-1.2ZM350.54,368.133Zm-18.108-42.31c.053.18.1.361.149.538h0C332.536,326.183,332.489,326,332.432,325.822ZM367.9,284.969ZM350.54,368.124Zm-18.108-42.3c.053.18.1.361.149.538h0C332.536,326.183,332.489,326,332.432,325.822Z" transform="translate(-155.458 -190.894)" fill="#6c63ff" opacity="0.1"/>
      <path id="Path_327" data-name="Path 327" d="M355.694,280.183s-1.11-.155-1.11-1.772a25.335,25.335,0,0,0-.795-4.638h0c0-.014-.687-5.26-1.637-6.094s-2.169-5.731-2.169-5.731a11.553,11.553,0,0,0-.634-3.229,27.43,27.43,0,0,1-1.848-3.97c-.848-2-4.384-3.381-4.384-3.381s-6.393-3.708-8.2-4.917h0a2.778,2.778,0,0,1-.459-.347c-.316-.414-1.69-.423-1.69-.423a27.7,27.7,0,0,1-.327-2.894,2.2,2.2,0,0,0-.014-.3,9.749,9.749,0,0,0,4.285-5.3c.034-.107.062-.22.093-.327a.916.916,0,0,0,.549-.5,10.336,10.336,0,0,1,.369-1.127,4.245,4.245,0,0,1,1.042-.916,3.945,3.945,0,0,0,1.085-3.209c-.028-.944-.18-1.9-.121-2.834l.017-.237c.017-.141.037-.282.062-.417.138-.7.44-1.358.609-2.051a2.639,2.639,0,0,0-.208-2.071c-.578-.876-1.781-1.051-2.837-1.141-1.2-.1-2.268.031-3.034-.964a10.819,10.819,0,0,0-1.206-1.457c-.158-.147-1.69-1.082-1.69-1.144a6.849,6.849,0,0,0-4.776-.366c-.794.231-1.544.609-2.35.8-1.738.411-3.739-.034-5.215.961a6.13,6.13,0,0,0-1.778,2.333q-.563,1.079-1.144,2.155a13.963,13.963,0,0,0-1.519,3.688,5.851,5.851,0,0,0-.1.862h0v.459a1.518,1.518,0,0,0,.017.282c.017.087.014.116.023.175s.023.192.039.282.051.248.085.372c.014.054.034.1.051.155.028.1.062.189.1.282.02.048.039.1.062.147a2.638,2.638,0,0,0,.144.282c.023.039.039.076.062.113a3.743,3.743,0,0,0,.259.378c.6.752,1.49,1.231,2.147,1.936v.316a9.644,9.644,0,0,0,4.39,7.875c0,.107.014.217.02.324a16.123,16.123,0,0,1-.031,2.51,1.183,1.183,0,0,0-.935-.417,1.348,1.348,0,0,0-.361.031l-.025-.02h0v.025c-.62.152-1.383.8-2.113,2.632,0,0-2.22,2.5-3.911,2.4s-5.97,2.6-5.97,2.6-4.176,2.71-5.071,5.472a38.563,38.563,0,0,1-1.8,4.587l-5.162,10.636h0l-.952,8.438a39.148,39.148,0,0,1,.423,4.325c-.1.572,2.167,5.731,2.167,5.731s7.5,13.183,10.568,13.859l.22-.155a1.8,1.8,0,0,0,.414.155l.631-.445a6.878,6.878,0,0,1-.048,1.488c-.423,1.3.158,9.8.9,11.461s.476,23.5.476,23.5l-.1,1.927a.816.816,0,0,0,.025.169l-.025.456.076.039a5.426,5.426,0,0,1-.076,1.834,20.4,20.4,0,0,0-.372,3.234s-2.11,13.49-1.11,16.2,1.851,5.68,1.851,5.68,1.057,3.381.051,3.959-3.866,1.547-3.277,2.956c.535,1.3,2.567,4.79,2.868,5.3l-.025.268-.414,4.488a5.635,5.635,0,0,0,.476,1.713,2.952,2.952,0,0,0,3.012,1.882c.282-.02.609-.054.924-.1a39.935,39.935,0,0,0,6.846-1.781,2.792,2.792,0,0,1-.535-.442h0a1.547,1.547,0,0,1-.471-1.127c.045-.817-1.485-4.711-1.865-5.669-.059-.138-.09-.217-.09-.217s3.488-3.646,2.908-6.877c0,0-3.86-2.254-2.589-3.491a39.363,39.363,0,0,0,3.542-4.79s.1-13.284,0-15.268a16.428,16.428,0,0,1,.194-4.122c.042-.206.093-.406.147-.6a36.779,36.779,0,0,0,5.308.4c.648,0,1.307,0,1.972-.039q0,.282.025.609c.146,3.291.42,9.061.642,11.205.316,3.074,2.06,11.357,2.06,11.357s-3.327,2.136.58,7.4a7.132,7.132,0,0,1-.259,2.184h0a23.89,23.89,0,0,0-.668,2.75,4.849,4.849,0,0,0,.034,2.516c.634,1.245,4.438,1.144,4.438,1.144h0l.093-.017a5.452,5.452,0,0,1,4.026,1.214c1.445,1.161,6.931.651,9.9.282,1.164-.147,1.941-.282,1.941-.282a1.126,1.126,0,0,0,.039-.406h0c-.031-.73-.6-2.33-4.48-3.759,0,0-3.646-2.451-3.6-4.587h-.5a3.974,3.974,0,0,1,.5,0s-1.428-5.212-.845-5.635-1.164-6.2-1.164-6.2-1-9.692-1.054-10.371a5.917,5.917,0,0,1,.262-1.719l-.262-5.314s-.051-1.767,0-2.341a11.688,11.688,0,0,0-.121-1.49c-.025-.2-.051-.4-.079-.606,1.366-.347,2.254-.668,2.254-.668l-.158-18.5c1.161-2.254,1.375-7.2,1.369-10.706,0-2.254-.1-3.922-.1-3.922l1.586-2.589s.366-3.1-.214-3.778a.65.65,0,0,1,.07-.888,2.953,2.953,0,0,1,.347-.237s-.017-.025-.037-.062a2.793,2.793,0,0,1,.352-.251s-.564-.873-.059-1.243c.473.321.9.563,1.217.761-.023.206-.045.324-.045.324l.135-.282.5.282s2.485-4.95,2.431-5.68,1.69-3.8,1.69-3.8a3.806,3.806,0,0,1,1.164-2.291c.952-.676.738-5.576.738-5.576a12.011,12.011,0,0,1,.9-3.6C356.906,281.589,355.694,280.183,355.694,280.183Zm-47.548-2.172.048,1.181-.485-.78Z" transform="translate(-225.775 -173.21)" fill="url(#linear-gradient)"/>
      <path id="Path_328" data-name="Path 328" d="M470.08,494.828l-.609,2.592s-4.874-2.488-5.753-5.649,1.471-4.361,1.471-4.361l4.542,1.924Z" transform="translate(-346.37 -366.6)" fill="#fff"/>
      <path id="Path_329" data-name="Path 329" d="M470.08,494.828l-.609,2.592s-4.874-2.488-5.753-5.649,1.471-4.361,1.471-4.361l4.542,1.924Z" transform="translate(-346.37 -366.6)" opacity="0.1"/>
      <path id="Path_330" data-name="Path 330" d="M361.6,800.684a35.029,35.029,0,0,1-7.607,1.865,2.894,2.894,0,0,1-2.956-1.871,5.661,5.661,0,0,1-.465-1.7l.4-4.466.214-2.378,6.584-1.71.933,2.851.087.217c.375.952,1.876,4.826,1.831,5.635a1.538,1.538,0,0,0,.462,1.113A2.679,2.679,0,0,0,361.6,800.684Z" transform="translate(-265.243 -584.238)" fill="#fff"/>
      <path id="Path_331" data-name="Path 331" d="M447.412,797.659a1.126,1.126,0,0,1-.039.4s-9.641,1.609-11.614,0a5.223,5.223,0,0,0-4.057-1.189s-3.73.1-4.353-1.127a4.891,4.891,0,0,1-.031-2.5,23.835,23.835,0,0,1,.654-2.736l.149-.118.888-.713,10.391-.307h.079c-.051,2.124,3.527,4.562,3.527,4.562C446.806,795.34,447.367,796.932,447.412,797.659Z" transform="translate(-320.264 -583.483)" fill="#fff"/>
      <path id="Path_332" data-name="Path 332" d="M447.415,807.535a1.148,1.148,0,0,1-.042.4s-9.639,1.609-11.611,0a5.224,5.224,0,0,0-4.054-1.189s-3.733.1-4.353-1.127a4.887,4.887,0,0,1-.034-2.5c1.437.144,3.7.5,4.6,1.355a10.2,10.2,0,0,0,5.029,2.7C438.042,807.242,444.6,807.45,447.415,807.535Z" transform="translate(-320.268 -593.359)" opacity="0.1"/>
      <path id="Path_333" data-name="Path 333" d="M362.79,825.744a35.026,35.026,0,0,1-7.607,1.865,2.887,2.887,0,0,1-2.953-1.874c1.147.386,2.739.792,3.575.42.992-.44,4.508-.724,6.48-.845A2.772,2.772,0,0,0,362.79,825.744Z" transform="translate(-266.435 -609.297)" opacity="0.1"/>
      <path id="Path_334" data-name="Path 334" d="M394.342,309.9c-3.719-1.445-8.5-6.221-7.309-8.452a4.993,4.993,0,0,0,.465-1.792,16.363,16.363,0,0,0,.034-2.536,34.72,34.72,0,0,0-.5-4.125s11.611.262,10.935,1.972a6.393,6.393,0,0,0-.175,2.347c.054.975.194,2.077.341,3.009.2,1.279.406,2.254.406,2.254s-.71.995-1.127,1.048S399.679,311.964,394.342,309.9Z" transform="translate(-291.299 -226.965)" fill="#cf6f80"/>
      <path id="Path_335" data-name="Path 335" d="M359.788,793.488l-.087.1c-3.471-4.2-7.669,1.034-7.669,1.034l-.062-.11.214-2.378,6.584-1.71.933,2.851Z" transform="translate(-266.248 -584.238)" opacity="0.1"/>
      <path id="Path_336" data-name="Path 336" d="M441.523,789.637s-2.536-.054-3.888,1.141-7.889.259-7.607,0a.927.927,0,0,0,.147-.428l.888-.713,10.391-.307C441.492,789.519,441.523,789.637,441.523,789.637Z" transform="translate(-322.307 -583.455)" opacity="0.1"/>
      <path id="Path_337" data-name="Path 337" d="M356.8,659.225a7.836,7.836,0,0,0-.428,1.445,16.541,16.541,0,0,0-.194,4.1c.1,1.972,0,15.189,0,15.189a40.431,40.431,0,0,1-3.471,4.767c-1.242,1.242,2.536,3.474,2.536,3.474.563,3.212-2.851,6.841-2.851,6.841-3.471-4.2-7.669,1.037-7.669,1.037s-2.282-3.944-2.851-5.353,2.229-2.384,3.212-2.956-.048-3.944-.048-3.944-.831-2.956-1.817-5.652,1.088-16.119,1.088-16.119a20.808,20.808,0,0,1,.363-3.215,5.376,5.376,0,0,0,.076-1.826c-.017-.206-.037-.378-.051-.493s-.025-.169-.025-.169l.039-.068,1.409-2.626S357.473,657.571,356.8,659.225Z" transform="translate(-258.937 -486.01)" fill="#78909c"/>
      <path id="Path_338" data-name="Path 338" d="M433.759,698.906s-2.536-.054-3.888,1.127-7.889.259-7.607,0,.259-2.178.259-2.178c-3.835-5.235-.563-7.359-.563-7.359s-1.713-8.241-2.023-11.3c-.217-2.136-.485-7.875-.628-11.152-.062-1.409-.1-2.378-.1-2.378l3.133-.631.4-.082,7.556-1.516s.208,1.409.349,2.561a11.972,11.972,0,0,1,.118,1.485c-.051.563,0,2.327,0,2.327l.256,5.288a6.008,6.008,0,0,0-.256,1.71c.051.673,1.034,10.315,1.034,10.315s1.71,5.753,1.127,6.168S433.759,698.906,433.759,698.906Z" transform="translate(-314.543 -493.034)" fill="#78909c"/>
      <path id="Path_339" data-name="Path 339" d="M398.445,294.972a6.394,6.394,0,0,0-.175,2.347,9.65,9.65,0,0,1-10.261-.192,34.725,34.725,0,0,0-.5-4.128S399.121,293.256,398.445,294.972Z" transform="translate(-291.775 -226.965)" opacity="0.1"/>
      <path id="Path_340" data-name="Path 340" d="M393.107,253.321a9.542,9.542,0,0,1-.473,2.989,9.641,9.641,0,0,1-18.8-2.758v-.231a9.641,9.641,0,1,1,19.281,0Z" transform="translate(-281.949 -191.541)" fill="#cf6f80"/>
      <path id="Path_341" data-name="Path 341" d="M394.342,326.884c-3.719-1.445-8.5-6.221-7.309-8.452a4.993,4.993,0,0,0,.465-1.792l5.091,4.184,3.15,2.584,2.395-6.1c.2,1.279.406,2.254.406,2.254s-.71.995-1.127,1.048S399.679,328.944,394.342,326.884Z" transform="translate(-291.299 -243.944)" opacity="0.1"/>
      <path id="Path_342" data-name="Path 342" d="M351.364,285.6l-4.252,71.423-5.545.363L327.21,315.976l2.355-49.168.5-10.388,6.384,5.243,3.153,2.584,2.465-6.275,4.584,4Z" transform="translate(-235.154 -184.172)" fill="#9c27b0"/>
      <path id="Path_343" data-name="Path 343" d="M364.129,659.282a7.833,7.833,0,0,0-.428,1.445,40.851,40.851,0,0,1-11.625-3.632l-.076-.039.025-.454.014-.237,1.409-2.626S364.805,657.628,364.129,659.282Z" transform="translate(-266.27 -486.067)" opacity="0.1"/>
      <path id="Path_344" data-name="Path 344" d="M422.365,671.814a28.563,28.563,0,0,1-3.116.355c-.062-1.409-.1-2.378-.1-2.378l3.133-.631Z" transform="translate(-314.5 -497.143)" opacity="0.1"/>
      <path id="Path_345" data-name="Path 345" d="M439.606,666.051a21.87,21.87,0,0,1-7.866.741l-.039-1.786,7.556-1.516S439.465,664.885,439.606,666.051Z" transform="translate(-323.514 -493.07)" opacity="0.1"/>
      <path id="Path_346" data-name="Path 346" d="M338.531,416.818c-11.552,1.972-22.131-3.682-22.131-3.682l.1-1.916s.262-21.72-.465-23.385-1.293-10.109-.882-11.405-1.5-20.731-1.5-20.731l-.31-7.889L302,343.214l5.071-10.571a38.141,38.141,0,0,0,1.764-4.564c.882-2.744,4.976-5.441,4.976-5.441s4.2-2.694,5.858-2.592,3.835-2.384,3.835-2.384c1.606-4.094,3.06-2.24,3.06-2.24a3.657,3.657,0,0,1-.079.606c-.564,4.494,9.112,18.694,9.25,18.945h0l.921,22.444.933,28.4Z" transform="translate(-230.357 -242.769)" opacity="0.1"/>
      <path id="Path_347" data-name="Path 347" d="M337.41,416.775c-11.552,1.972-22.134-3.682-22.134-3.682l.1-1.916s.262-21.72-.468-23.385-1.293-10.109-.879-11.405-1.5-20.731-1.5-20.731l-.313-7.889-11.349-4.612,5.071-10.571a38.738,38.738,0,0,0,1.764-4.564c.879-2.744,4.976-5.441,4.976-5.441s4.2-2.693,5.855-2.592,3.835-2.384,3.835-2.384c1.609-4.094,3.381-2.24,3.381-2.24,0,.194-.169.282-.079.606,1.24,4.359,8.8,18.694,8.94,18.945h0l.933,22.444.933,28.4Z" transform="translate(-229.545 -242.726)" fill="#fff"/>
      <path id="Path_348" data-name="Path 348" d="M392.382,337.216c-1.242-.518-7.824-8.033-7.824-8.033v-1.71c-.24-.563-1.662-.22-2.817.175l.5-10.388.564.468C384.033,322.083,392.238,336.965,392.382,337.216Z" transform="translate(-287.63 -244.39)" opacity="0.1"/>
      <path id="Path_349" data-name="Path 349" d="M393.484,335.006c-1.245-.518-7.827-8.033-7.827-8.033v-1.71c-.239-.564-1.662-.22-2.817.175l.5-10.388.564.468C385.139,319.874,393.346,334.758,393.484,335.006Z" transform="translate(-288.421 -242.802)" fill="#fff"/>
      <path id="Path_350" data-name="Path 350" d="M351.494,516.778c.155,0,8.033-.828,8.033-.828s4.77,9.379,4.457,11.662-.879,4.3-2.8,3.944-10.326.282-10.326.282Z" transform="translate(-265.451 -387.099)" opacity="0.1"/>
      <path id="Path_351" data-name="Path 351" d="M350.384,514.568c.155,0,8.033-.828,8.033-.828s4.767,9.382,4.457,11.662-.882,4.3-2.8,3.945-10.326.282-10.326.282Z" transform="translate(-264.654 -385.512)" fill="#fff"/>
      <path id="Path_352" data-name="Path 352" d="M362.088,501.05s7.23,3.885,7.385,5.071-3.68-.518-4.508-.724a10.32,10.32,0,0,0-1.66-.259l-5.525.149Z" transform="translate(-270.421 -376.397)" fill="#cf6f80"/>
      <circle id="Ellipse_70" data-name="Ellipse 70" cx="0.761" cy="0.761" r="0.761" transform="translate(101.973 91.79)" opacity="0.1"/>
      <circle id="Ellipse_71" data-name="Ellipse 71" cx="0.761" cy="0.761" r="0.761" transform="translate(101.973 91.48)" fill="#3f3d56"/>
      <circle id="Ellipse_72" data-name="Ellipse 72" cx="0.761" cy="0.761" r="0.761" transform="translate(103.373 124.72)" opacity="0.1"/>
      <circle id="Ellipse_73" data-name="Ellipse 73" cx="0.761" cy="0.761" r="0.761" transform="translate(103.373 124.408)" fill="#3f3d56"/>
      <circle id="Ellipse_74" data-name="Ellipse 74" cx="0.761" cy="0.761" r="0.761" transform="translate(102.731 108.255)" opacity="0.1"/>
      <circle id="Ellipse_75" data-name="Ellipse 75" cx="0.761" cy="0.761" r="0.761" transform="translate(102.731 107.945)" fill="#3f3d56"/>
      <path id="Path_353" data-name="Path 353" d="M441.094,374.121s.518.778,0,1.141.051,1.242.051,1.242-1.293.758-.724,1.44.208,3.761.208,3.761l-1.555,2.575s.093,1.659.1,3.9c0,3.5-.206,8.419-1.344,10.661l.158,18.4s-5.446,1.989-10,1.383l-.676-29.527s.986-16.744,1.35-19.956a33.44,33.44,0,0,0,.259-5.029,56.191,56.191,0,0,0-.676-7.359s-.564-10.106-.62-12.9c-.025-1.338.045-5.243.124-8.957.087-4.06.186-7.889.186-7.889L426.9,318.87s1.028-.1,1.338.31a2.969,2.969,0,0,0,.451.347h0c1.775,1.2,8.047,4.891,8.047,4.891s3.471,1.381,4.3,3.358a29.275,29.275,0,0,0,1.812,3.944,12.175,12.175,0,0,1,.623,3.212s1.195,4.874,2.127,5.7,1.614,6.077,1.614,6.077l-8.241,6.48s-.724,10.78-.879,11.2S441.094,374.121,441.094,374.121Z" transform="translate(-320.067 -245.538)" fill="#fff"/>
      <path id="Path_354" data-name="Path 354" d="M441.357,373.892s.516.778,0,1.141.048,1.243.048,1.243-1.285.766-.721,1.448.208,3.761.208,3.761l-1.555,2.575s.093,1.66.1,3.9c0,3.5-.206,8.419-1.344,10.661l.155,18.4s-5.455,1.989-10.008,1.383l-.673-29.527s.986-16.744,1.35-19.956a33.124,33.124,0,0,0,.256-5.029,56.534,56.534,0,0,0-.673-7.359s-.564-10.106-.623-12.9c-.025-1.338.048-5.243.124-8.957.087-4.06.186-7.889.186-7.889l-1.358-8.247s1.358,0,1.671.42a2.67,2.67,0,0,0,.451.347h0c1.775,1.2,8.049,4.891,8.049,4.891s3.468,1.381,4.3,3.358a28.805,28.805,0,0,0,1.814,3.944,12.034,12.034,0,0,1,.62,3.212s1.195,4.874,2.127,5.7,1.606,6.066,1.606,6.066l-8.241,6.48s-.724,10.78-.882,11.2S441.357,373.892,441.357,373.892Z" transform="translate(-320.016 -245.309)" fill="#fff"/>
      <path id="Path_355" data-name="Path 355" d="M432.285,330.752l.744,2.169-3.916,3.944c.087-4.057.186-7.889.186-7.889l-1.358-8.247s1.358,0,1.671.42a2.569,2.569,0,0,0,.451.344h0l3.33,9.608Z" transform="translate(-320.814 -246.882)" opacity="0.1"/>
      <path id="Path_356" data-name="Path 356" d="M431.175,328.542l.747,2.169L428,334.656c.087-4.06.186-7.889.186-7.889l-1.361-8.247s1.361,0,1.671.42a2.819,2.819,0,0,0,.451.347h0l3.333,9.6Z" transform="translate(-320.016 -245.295)" fill="#fff"/>
      <path id="Path_357" data-name="Path 357" d="M393.107,253.321a9.54,9.54,0,0,1-.473,2.989.4.4,0,0,1-.3-.076,12.438,12.438,0,0,0-2.857-6.942,7.3,7.3,0,0,0-1.55-1.606,3.032,3.032,0,0,0-2.1-.594c-.845.116-1.592.69-2.446.764-1.127.093-2.136-.687-3.254-.727a3.2,3.2,0,0,0-2.392,1.11,6.562,6.562,0,0,0-1.282,2.378,13.914,13.914,0,0,0-.716,4.1c-.014.789-.09,1.778-.823,2.065a4.209,4.209,0,0,0-1.062-3.215l-.017-.017v-.231a9.641,9.641,0,1,1,19.281,0Z" transform="translate(-281.949 -191.541)" opacity="0.1"/>
      <path id="Path_358" data-name="Path 358" d="M379.954,221.96a6.638,6.638,0,0,0-4.683-.366c-.78.231-1.516.606-2.307.795-1.69.409-3.663-.034-5.114.955a6.115,6.115,0,0,0-1.741,2.319l-1.127,2.147a13.932,13.932,0,0,0-1.49,3.663,4.676,4.676,0,0,0,.718,3.781c.6.758,1.479,1.234,2.127,1.947a4.226,4.226,0,0,1,1.059,3.212c.735-.282.806-1.274.823-2.062a13.913,13.913,0,0,1,.716-4.1,6.539,6.539,0,0,1,1.282-2.378,3.2,3.2,0,0,1,2.392-1.11c1.127.039,2.138.817,3.254.724.845-.07,1.595-.648,2.446-.761a3.02,3.02,0,0,1,2.1.594,7.219,7.219,0,0,1,1.547,1.606,12.405,12.405,0,0,1,2.86,6.942c.318.234.778-.07.935-.431a10.3,10.3,0,0,1,.363-1.127,4.156,4.156,0,0,1,1.02-.907,3.988,3.988,0,0,0,1.065-3.192,15.9,15.9,0,0,1-.039-3.471c.132-.7.431-1.352.594-2.043a2.671,2.671,0,0,0-.2-2.06c-.564-.873-1.75-1.045-2.784-1.127-1.175-.1-2.226.028-2.975-.961a10.787,10.787,0,0,0-1.183-1.448C381.462,222.952,379.954,222.022,379.954,221.96Z" transform="translate(-274.442 -175.487)" fill="#512e4e"/>
      <path id="Path_359" data-name="Path 359" d="M303.637,420.573l-2.944-5.443-.933,8.4a38.929,38.929,0,0,1,.414,4.3c-.1.572,2.124,5.7,2.124,5.7s7.362,13.113,10.368,13.789l10.157-7.258-2.693-3.42s-.933-.363-1.166,0c0,0-5-8.6-5.519-9.227a3.108,3.108,0,0,1-.417-1.865s-.778-.828-.518-1.606-1.5-3.474-1.5-3.474l1.606-1.5Z" transform="translate(-228.748 -314.685)" opacity="0.1"/>
      <path id="Path_360" data-name="Path 360" d="M299.26,412.93l-.778.62-.933,8.4a38.93,38.93,0,0,1,.414,4.3c-.1.572,2.127,5.7,2.127,5.7s7.359,13.113,10.365,13.789l10.16-7.258-2.7-3.42s-.933-.363-1.166,0c0,0-5-8.6-5.519-9.227a3.1,3.1,0,0,1-.414-1.865s-.778-.828-.518-1.606-1.5-3.474-1.5-3.474l1.606-1.5Z" transform="translate(-227.161 -313.105)" fill="#fff"/>
      <path id="Path_361" data-name="Path 361" d="M459.905,516.918c.564.685.209,3.759.209,3.759l-1.555,2.575s.093,1.662.1,3.9l-2.615.817a1.552,1.552,0,0,1-2.014-1.53l.451-14.541,6.1,2.333c-.518.361.051,1.245.051,1.245S459.336,516.233,459.905,516.918Z" transform="translate(-339.551 -384.19)" opacity="0.1"/>
      <path id="Path_362" data-name="Path 362" d="M461.008,515.815c.564.685.208,3.761.208,3.761l-1.555,2.575s.093,1.659.1,3.9l-2.663.831a1.521,1.521,0,0,1-1.972-1.5l.454-14.586,6.1,2.333c-.521.361.048,1.242.048,1.242S460.445,515.133,461.008,515.815Z" transform="translate(-340.341 -383.4)" fill="#fff"/>
      <path id="Path_363" data-name="Path 363" d="M470.73,498.216s-.414,2.646-1.451,2.8-1.5,4.28-2.536,4.133-.349-3.835-.313-4.55-1.127-3.68-.256-4.353,3.626,0,3.626,0Z" transform="translate(-348.043 -372.732)" fill="#cf6f80"/>
      <path id="Path_364" data-name="Path 364" d="M470.224,421.634l1.955-3.944a25.608,25.608,0,0,1,.778,4.612c0,1.606,1.088,1.764,1.088,1.764s1.192,1.409.563,2.434a11.817,11.817,0,0,0-.882,3.578s.206,4.871-.727,5.545a3.774,3.774,0,0,0-1.127,2.282s-1.713,3.057-1.659,3.784-2.384,5.649-2.384,5.649,1.192-6.117-5.753-8.76c0,0-.054-2.076.465-2.646s1.327-.828.82-3.705a33.6,33.6,0,0,1-.147-7,44.108,44.108,0,0,1,1.555-5Z" transform="translate(-345.331 -316.524)" opacity="0.1"/>
      <path id="Path_365" data-name="Path 365" d="M472.571,415.69l1.707.564a25.524,25.524,0,0,1,.78,4.612c0,1.606,1.088,1.764,1.088,1.764s1.192,1.409.564,2.434a11.785,11.785,0,0,0-.879,3.578s.206,4.871-.727,5.545a3.825,3.825,0,0,0-1.141,2.282s-1.71,3.057-1.657,3.784-2.386,5.649-2.386,5.649,1.195-6.117-5.753-8.76c0,0-.051-2.076.468-2.646s1.327-.828.82-3.705a33.6,33.6,0,0,1-.147-7,44.108,44.108,0,0,1,1.555-5Z" transform="translate(-346.832 -315.087)" fill="#fff"/>
      <path id="Path_366" data-name="Path 366" d="M360.15,776.214s2.722-1.71,4.508-.468S360.15,776.214,360.15,776.214Z" transform="translate(-272.123 -573.373)" opacity="0.1"/>
      <path id="Path_367" data-name="Path 367" d="M435.21,759.751a5.51,5.51,0,0,1,4.432,1.868C441.665,763.8,435.21,759.751,435.21,759.751Z" transform="translate(-326.035 -562.199)" opacity="0.1"/>
      <g id="Group_233" data-name="Group 233" transform="translate(88.938 52.032)" opacity="0.1">
        <path id="Path_368" data-name="Path 368" d="M397.414,259.13a4.18,4.18,0,0,0-1.023.91,10.308,10.308,0,0,0-.361,1.127c-.158.366-.617.665-.935.434a12.458,12.458,0,0,0-2.86-6.945,7.218,7.218,0,0,0-1.547-1.606,3.029,3.029,0,0,0-2.1-.595c-.845.116-1.589.69-2.443.761-1.127.1-2.138-.685-3.257-.724a3.19,3.19,0,0,0-2.389,1.113,6.526,6.526,0,0,0-1.282,2.375,13.931,13.931,0,0,0-.716,4.1c-.017.786-.09,1.767-.817,2.06a3.857,3.857,0,0,1,0,.626c.733-.282.806-1.274.823-2.062a13.911,13.911,0,0,1,.716-4.1,6.539,6.539,0,0,1,1.282-2.378,3.2,3.2,0,0,1,2.389-1.11c1.127.039,2.141.817,3.257.724.845-.07,1.595-.648,2.443-.761a3.029,3.029,0,0,1,2.1.594,7.219,7.219,0,0,1,1.547,1.606,12.425,12.425,0,0,1,2.86,6.942c.318.234.778-.07.935-.431a10.913,10.913,0,0,1,.361-1.127,4.168,4.168,0,0,1,1.023-.907,3.988,3.988,0,0,0,1.065-3.192v-.107A3.7,3.7,0,0,1,397.414,259.13Z" transform="translate(-373.652 -249.867)"/>
        <path id="Path_369" data-name="Path 369" d="M366.347,264.632c-.648-.713-1.533-1.189-2.127-1.944a4.125,4.125,0,0,1-.82-2.308,4.339,4.339,0,0,0,.82,2.927c.595.758,1.479,1.234,2.127,1.947a4.226,4.226,0,0,1,1.062,2.513,4.226,4.226,0,0,0-1.062-3.136Z" transform="translate(-363.385 -255.568)"/>
        <path id="Path_370" data-name="Path 370" d="M451.707,243.858c-.166.69-.462,1.347-.6,2.043a6.508,6.508,0,0,0-.087,1.409,5.465,5.465,0,0,1,.087-.8c.135-.7.431-1.352.6-2.043a3.467,3.467,0,0,0,.093-1.166,3.917,3.917,0,0,1-.093.558Z" transform="translate(-426.325 -243.3)"/>
      </g>
      <ellipse id="Ellipse_76" data-name="Ellipse 76" cx="27.454" cy="4.409" rx="27.454" ry="4.409" transform="translate(9.808 205.478)" fill="#6c63ff" opacity="0.1"/>
      <rect id="Rectangle_224" data-name="Rectangle 224" width="1.767" height="39.774" transform="translate(36.379 125.419)" fill="#535461"/>
      <path id="Path_371" data-name="Path 371" d="M161.412,637.629l-.11,1.792-.158,2.536-.065,1.054-.155,2.536-.068,1.054-.158,2.536-1.781,28.758a4.874,4.874,0,0,1-4.863,4.57H144.8a4.871,4.871,0,0,1-4.86-4.57l-1.772-28.778-.158-2.536-.065-1.054-.158-2.536-.065-1.054-.158-2.536-.113-1.792a2.536,2.536,0,0,1,2.536-2.679h18.936a2.519,2.519,0,0,1,2.491,2.7Z" transform="translate(-112.166 -472.557)" fill="#3f3d56"/>
      <path id="Path_372" data-name="Path 372" d="M114.331,592.24l-.158,2.527H90.738l-.158-2.527Z" transform="translate(-65.194 -425.376)" fill="#9d9cb5"/>
      <path id="Path_373" data-name="Path 373" d="M114.676,604.95l-.155,2.53H91.528l-.158-2.53Z" transform="translate(-65.762 -434.505)" fill="#9d9cb5"/>
      <path id="Path_374" data-name="Path 374" d="M115.021,617.68l-.155,2.527H92.318l-.158-2.527Z" transform="translate(-66.329 -443.648)" fill="#9d9cb5"/>
      <path id="Path_375" data-name="Path 375" d="M70.431,536.626c10.287,7.444,14.58,19.086,14.58,19.086s-12.4-.425-22.686-7.869S47.75,528.76,47.75,528.76,60.141,529.183,70.431,536.626Z" transform="translate(-47.742 -396.3)" fill="#2ecc71"/>
      <path id="Path_376" data-name="Path 376" d="M47.72,528.76s12.87,7.142,17,13.056,20.272,13.9,20.272,13.9" transform="translate(-47.72 -396.3)" fill="none" stroke="#535461" stroke-miterlimit="10" stroke-width="2"/>
      <path id="Path_377" data-name="Path 377" d="M120.346,492.543a25.015,25.015,0,0,1,7.94,10.385A22.675,22.675,0,0,1,108,488.26,24.946,24.946,0,0,1,120.346,492.543Z" transform="translate(-91.016 -367.211)" fill="#2ecc71"/>
      <path id="Path_378" data-name="Path 378" d="M108,488.26s7,3.888,9.25,7.106,11.036,7.562,11.036,7.562" transform="translate(-91.016 -367.211)" fill="none" stroke="#535461" stroke-miterlimit="10" stroke-width="2"/>
      <path id="Path_379" data-name="Path 379" d="M188.983,515.478a34.5,34.5,0,0,0-7.793,16.308,31.361,31.361,0,0,0,23.289-25.605A34.533,34.533,0,0,0,188.983,515.478Z" transform="translate(-143.585 -380.082)" fill="#2ecc71"/>
      <path id="Path_380" data-name="Path 380" d="M204.485,506.19s-8.379,7.247-10.509,12.239-12.786,13.363-12.786,13.363" transform="translate(-143.585 -380.089)" fill="none" stroke="#535461" stroke-miterlimit="10" stroke-width="2"/>
      <path id="Path_381" data-name="Path 381" d="M885.706,338.822s-4.652-23.143-2.871-26.022c0,0,.065-2.677-.042-6.089v-.392a8.655,8.655,0,0,0,.978.563,7.911,7.911,0,0,0,5.325.687L887.686,306a2.6,2.6,0,0,1-.764-1.276,2.673,2.673,0,0,1,.3-1.381c1.338-3.381,1.409-7.633-1.169-10.213-2.178-2.169-2.708-4.97-5.071-6.951-1.727-1.451-2.677-3.578-3.573-5.635a31.694,31.694,0,0,1-1.955-5.333c-.338-1.44-.473-2.93-.938-4.336a5.519,5.519,0,0,0-2.7-3.4,10.182,10.182,0,0,1-1.465-.645,6.328,6.328,0,0,1-1.35-1.586c-2.133-2.817-9.275-1.158-12.656-.014a7.12,7.12,0,0,0-2.5,1.386l.031-.051c.025-.042.056-.085.084-.127a4.446,4.446,0,0,0-.947,1.057,25.343,25.343,0,0,0-1.11,2.536c-.5,1-3.254,3.792-2.068,4.917a1,1,0,0,0,.282.18,2.437,2.437,0,0,0,1.409.141l-.051.121a8.236,8.236,0,0,0-.611,3.125A8.457,8.457,0,0,0,859.4,286.9a8.612,8.612,0,0,0,2.612-.4c.02.107.037.214.056.321a.98.98,0,0,0,.02.127h0l-.149.208a.294.294,0,0,0-.025-.037l-4.423,6.182c-.676.476-4.57,3.294-4.79,5.407-.231,2.313-.462,5.021-.462,5.021l-.031.58a1.741,1.741,0,0,1-1.409.38c-1.381-.225-1.381,5.071-1.381,5.071s-.919.845-1.55.113-2.3,1.75-2.3,1.75l-10.453.451h0l-.24.014-.564-1.744a.735.735,0,0,0-.921-.471.852.852,0,0,0-.127.054l-.039.023-.073.051-.037.034a.57.57,0,0,0-.056.059l-.034.039-.017.017h0a.71.71,0,0,0-.1.631l.484,1.5c-2.017.406-4.08,1.55-2.4,4.7l-8.526-1.575,2.758,2.316,14.24,2.939c-.189.338-.065.828.524,1.519,2.536,2.978,7.156,3.787,9.016,4a16.009,16.009,0,0,0,1.828,3.1l-.161,2.967s-4.708,22.613-5.57,23.76a13.4,13.4,0,0,0,1.192-1.569c-1.366,4.646-3.277,11.005-3.778,11.957-.806,1.521-1.552,7.678-.634,8.072a7.726,7.726,0,0,0,2.237-.025v.51l-.051,19.325s.231,11.853-.4,12.983a11.05,11.05,0,0,0-.8,3.5s-2.536,4.674-4.545,6.553a.3.3,0,0,1-.045.039l-.062-.439s-2.415,3.048-7.757,2.877c0,0-3.215,2.091,1.553,2.2s10.856-.169,10.856-.169,4.252-6.48,7.813-5.635v4.911h1.09v-4.99a4.472,4.472,0,0,0,1.941-2.939,3.572,3.572,0,0,0-1.274-3.3,2.114,2.114,0,0,1-.7-1.544l-.039.034a2.958,2.958,0,0,0-.037-.3c-.313-2.536-.7-7.768.679-11.639,1.9-5.308,2.471-12.7,1.09-17.1a39.335,39.335,0,0,1-1.1-4.285c-.034-.183-.065-.358-.093-.521a22.222,22.222,0,0,1,2.8.563c3.2.882,10.194,1.045,16.167,1,.014.163.031.335.051.507a18.455,18.455,0,0,0,.665,3.527c.749,2.254,1.093,12.191,1.093,12.191s.966,8.171.439,11.5c-.282,1.848-.564,3.705-.724,5.57v.037s-1.583,4.508-2.741,6.956c-.028.062-.059.124-.087.183a3.659,3.659,0,0,0-.9.2s-1.553,3.1-3.1,3.612-1.034,2.2,2.468,1.581,8.791-1.127,8.791-1.127l.228-3.161,1.076-1.347-.282,3.153,1.147-.225-.152-3.835,1.761-2.2s2.127-1.893-1.034-5.618v.082c-.034-.054-.065-.11-.1-.163v-.017c-.524-.811-.941-2.324-.178-5.009,1.381-4.852,2.184-9.255,2.184-9.255s3.082-11.8-.623-17.378h.163a9.39,9.39,0,0,1-.8-2.479q-.028-.152-.051-.313a20.33,20.33,0,0,0,7.627-1.724C888.12,371.274,886.8,343.279,885.706,338.822ZM850.9,319.3v.056l-.564.028Zm-1.933.268a.623.623,0,0,0-.254.121,2.5,2.5,0,0,0-.442,1.158l-.879-.2s-.617-.132-1.5-.282l-.42-.423C846.624,319.846,847.824,319.706,848.968,319.565Z" transform="translate(-604.186 -205.914)" fill="url(#linear-gradient-2)"/>
      <path id="Path_382" data-name="Path 382" d="M971.655,742.094l-.335,3.992,1.124-.225-.169-4.33Z" transform="translate(-697.788 -532.604)" fill="#1d2366"/>
      <path id="Path_383" data-name="Path 383" d="M889.642,673.951c-1.355,3.86-.972,9.07-.668,11.6.113.935.217,1.5.217,1.5s-2.026,4.615-2.195,4.79-5.962,3.711-5.962,3.711l-4.049,2.364s-4.108-1.8-2.138-2.42a2.989,2.989,0,0,0,1.062-.724c1.972-1.874,4.449-6.531,4.449-6.531a11.233,11.233,0,0,1,.789-3.488c.62-1.124.395-12.938.395-12.938l.048-19.257v-2.51l7.706.056a17.435,17.435,0,0,0,.333,2.536,38.714,38.714,0,0,0,1.073,4.271C892.06,661.306,891.5,668.662,889.642,673.951Z" transform="translate(-641.422 -483.417)" fill="#ffb0b1"/>
      <path id="Path_384" data-name="Path 384" d="M889.192,777.569s-2.026,4.615-2.195,4.79-5.962,3.711-5.962,3.711l-4.049,2.364s-4.108-1.8-2.138-2.42a2.989,2.989,0,0,0,1.062-.724l.175,1.231,1.35-.056,11.552-10.394C889.087,777,889.192,777.569,889.192,777.569Z" transform="translate(-641.422 -573.931)" opacity="0.1"/>
      <path id="Path_385" data-name="Path 385" d="M870.806,777l-11.616,10.464-1.35.056-.282-1.972s-2.361,3.037-7.607,2.868c0,0-3.15,2.082,1.519,2.195s10.63-.169,10.63-.169,4.164-6.48,7.649-5.635V789.7h1.071v-4.939a4.448,4.448,0,0,0,1.9-2.93,3.589,3.589,0,0,0-1.243-3.291,2.122,2.122,0,0,1-.671-1.541Z" transform="translate(-623.177 -574.599)" fill="#1d2366"/>
      <path id="Path_386" data-name="Path 386" d="M996.878,679.434c-.749,2.677-.341,4.184.172,4.993v.017a9.225,9.225,0,0,1,1.347,3.288l.045.254-5.285,7.706-2.868,1.127s-4.612-1.575-3.77-2.026a4.317,4.317,0,0,0,.918-1.5c1.127-2.437,2.682-6.934,2.682-6.934v-.037c.163-1.857.422-3.708.71-5.55.516-3.316-.431-11.456-.431-11.456s-.338-9.9-1.071-12.149a18.572,18.572,0,0,1-.656-3.5c-.152-1.409-.186-2.57-.186-2.57s3.037-4.226,8.6.338a6.129,6.129,0,0,1,1.164,1.262c3.846,5.471.749,17.525.749,17.525S998.227,674.6,996.878,679.434Z" transform="translate(-721.94 -482.882)" fill="#ffb0b1"/>
      <path id="Path_387" data-name="Path 387" d="M998.471,777.346l-5.286,7.706-2.868,1.127s-4.612-1.575-3.77-2.026a4.318,4.318,0,0,0,.918-1.5,3.645,3.645,0,0,1,2.964,1.843l2.474-.394s3.263-6.413,4-6.8.113-2.927.113-2.927v-.645c.02.023.037.048.059.07v.017a9.227,9.227,0,0,1,1.347,3.288Z" transform="translate(-721.961 -572.243)" opacity="0.1"/>
      <path id="Path_388" data-name="Path 388" d="M980.906,785.074a3.443,3.443,0,0,0-4.108-1.631s-1.519,3.1-3.037,3.6-1.011,2.192,2.42,1.575,8.6-1.127,8.6-1.127l.225-3.153L988.5,779.9s2.079-1.885-1.014-5.6v.645s.62,2.536-.113,2.927-3.984,6.807-3.984,6.807Z" transform="translate(-712.268 -572.66)" fill="#1d2366"/>
      <path id="Path_389" data-name="Path 389" d="M907.854,650.086a17.435,17.435,0,0,0,.332,2.536,35.341,35.341,0,0,0-8.047-.082v-2.51Z" transform="translate(-659.972 -483.402)" opacity="0.1"/>
      <path id="Path_390" data-name="Path 390" d="M1003.87,653.382s-4.508.22-9.884.265c-.152-1.409-.186-2.57-.186-2.57s3.037-4.226,8.6.338a6.123,6.123,0,0,1,1.164,1.262A6.879,6.879,0,0,0,1003.87,653.382Z" transform="translate(-727.244 -482.875)" opacity="0.1"/>
      <path id="Path_391" data-name="Path 391" d="M929.969,527.062s-19.745.955-25.763-.733-11.983-.225-12.882-.617-.169-6.525.62-8.044,5.117-16.877,5.117-16.877l4.164-21.712,4.387-1.209.31-.087,7.644-2.107,5.6-1.547s11.137,43.482,10.182,46.689a8.209,8.209,0,0,0-.163,3.773A9.418,9.418,0,0,0,929.969,527.062Z" transform="translate(-653.343 -357.062)" fill="#29b6f6"/>
      <path id="Path_392" data-name="Path 392" d="M870.709,439s-3.944,4.226-.958,6.582,4.95.225,4.95.225Z" transform="translate(-637.342 -331.83)" fill="#c7daf5"/>
      <path id="Path_393" data-name="Path 393" d="M870.709,439s-3.944,4.226-.958,6.582,4.95.225,4.95.225Z" transform="translate(-637.342 -331.83)" opacity="0.1"/>
      <path id="Path_394" data-name="Path 394" d="M967.6,320.742s-.462.44-1.158,1.088c-.992.927-2.46,2.282-3.761,3.418-1.8,1.569-3.291,2.722-2.758,1.738s.431-2.7.166-4.3c-.02-.107-.037-.214-.056-.318a29.508,29.508,0,0,0-.871-3.482,60.254,60.254,0,0,1,4.525-5.249c.6-.564,1.02-.795,1.045-.4a13.1,13.1,0,0,0,.913,2.925c.014.039.028.076.045.116.327.845.7,1.713,1.02,2.462C967.2,319.885,967.6,320.742,967.6,320.742Z" transform="translate(-702.363 -241.357)" fill="#ffb0b1"/>
      <path id="Path_395" data-name="Path 395" d="M965.688,316.282a8.362,8.362,0,0,1-5.6,6.413,29.308,29.308,0,0,0-.927-3.8s5.486-7.086,5.57-5.652A13.406,13.406,0,0,0,965.688,316.282Z" transform="translate(-702.363 -241.366)" opacity="0.1"/>
      <path id="Path_396" data-name="Path 396" d="M933.619,351.45l.71-1s.471,2.868,2.2,1.6,1.814,9.52,1.814,9.52l-1.857,27.761-13.417-.8.38-13.414,1.519-6.762,3.756-9.83,2.234-3.249Z" transform="translate(-676.442 -268.229)" opacity="0.1"/>
      <path id="Path_397" data-name="Path 397" d="M938.365,362.148l-1.691,25.1-.177,2.66-7.48-.448-.282-.017-5.635-.338.38-13.417L925,368.926l3.756-9.83,2.234-3.249,2.66-3.84.71-1s.471,2.868,2.2,1.6l.037-.025h0C938.286,351.517,938.365,362.148,938.365,362.148Z" transform="translate(-676.463 -268.631)" fill="#29b6f6"/>
      <path id="Path_398" data-name="Path 398" d="M886.187,406.26a2.053,2.053,0,0,1-2.026,1.181c-1.352-.228-1.35,5.071-1.35,5.071s-.9.845-1.519.113-2.254,1.744-2.254,1.744l-10.239.451s4.556,2.082,3.663,8.382c0,0,15.468-.958,15.975-2.42S886.187,406.26,886.187,406.26Z" transform="translate(-637.462 -308.314)" fill="#fff"/>
      <path id="Path_399" data-name="Path 399" d="M886.187,406.26a2.053,2.053,0,0,1-2.026,1.181c-1.352-.228-1.35,5.071-1.35,5.071s-.9.845-1.519.113-2.254,1.744-2.254,1.744l-10.239.451s4.556,2.082,3.663,8.382c0,0,15.468-.958,15.975-2.42S886.187,406.26,886.187,406.26Z" transform="translate(-637.462 -308.314)" opacity="0.03"/>
      <path id="Path_400" data-name="Path 400" d="M777.66,389.76l2.7,2.3,22.219,4.669-2.755-2.812Z" transform="translate(-558.691 -279.944)" fill="#fff"/>
      <path id="Path_401" data-name="Path 401" d="M919.655,350.434a56.818,56.818,0,0,0-2.307,5.967c-.735,2.1-1.35,3.944-1.35,3.944s-1.434,9.337-2.167,11.025-.335,8.269-.335,8.269l-2.73,16.254s-1.237,8.382-3.147,13.389a24.38,24.38,0,0,1-4.049,7.311c.845-1.144,5.452-23.667,5.452-23.667l1.521-28.406s.222-2.7.448-5.007,4.79-5.457,4.79-5.457l4.4-6.258C920.624,348.392,920.328,349.423,919.655,350.434Z" transform="translate(-662.436 -266.325)" fill="#fff"/>
      <path id="Path_402" data-name="Path 402" d="M893.9,470.836s-6.48-.282-9.619-4.052,7.255-1.5,7.255-1.5l2.7.62Z" transform="translate(-648.16 -350.22)" fill="#ffb0b1"/>
      <path id="Path_403" data-name="Path 403" d="M966.827,436.286a8.211,8.211,0,0,0-.164,3.773,53.7,53.7,0,0,1-14.631-1.409,32.864,32.864,0,0,1-5.119,3.206l-2.023-25.076c-1.293-3.381-1.8-21.094-1.8-21.094s.116-.927.282-2.316a.265.265,0,0,1,.014-.1c.5-3.88,1.5-11.163,1.995-12.146.676-1.352-2.079-4.95-2.079-4.95l1.254-10.692.152-1.29c2.643-1.181,4.669-4.95,4.669-4.95l1.555-2.724h0c1.69-1.085,1.778,9.546,1.778,9.546l-1.69,25.1,5.6-1.547S967.782,433.08,966.827,436.286Z" transform="translate(-690.821 -272.527)" opacity="0.1"/>
      <path id="Path_404" data-name="Path 404" d="M974.944,420.9c-7.706,3.826-21.711.282-21.711.282a32.863,32.863,0,0,1-5.119,3.206l-2.026-25.076c-1.29-3.381-1.8-21.094-1.8-21.094s1.629-13.217,2.3-14.566a2.17,2.17,0,0,0-.132-1.612,20.393,20.393,0,0,1-1.234-9.436l.541-4.6.149-1.288c2.646-1.183,4.671-4.953,4.671-4.953L952,339.3l2.592-4.547,1.228-2.153.208.189,1.592,1.443,1.69,1.409c2.206,1.86,6.018,5.133,7.985,7.137,1.73,1.764,2.277,8.624,2.434,13.789.1,3.4.042,6.066.042,6.066-1.744,2.871,2.818,25.921,2.818,25.921C973.651,393.007,974.944,420.9,974.944,420.9Z" transform="translate(-691.683 -255.408)" fill="#fff"/>
      <path id="Path_405" data-name="Path 405" d="M940.144,363.927s-5.288,10.067-4.674,13.893,2.361,8.157,1.519,9.168a3.113,3.113,0,0,1-2.476,1.237,8.14,8.14,0,0,0-3.1,1.8c0,.169-2.082.169-3.945.958a24.558,24.558,0,0,1-4.612,1.237s-5.353-.169-5.852.338-1.011,3.542.056,5.962,2.254,4.226,3.15,4.556,6.582-1.575,11.194-2.026,9.619-4.105,9.619-4.105,5.514-1.972,6.48-5.288-1.181-21.542-1.181-21.542S944.7,361.619,940.144,363.927Z" transform="translate(-671.675 -277.623)" opacity="0.03"/>
      <path id="Path_406" data-name="Path 406" d="M937.765,360.929S932.476,371,933.1,374.822s2.361,8.157,1.516,9.171a3.1,3.1,0,0,1-2.474,1.237,8.142,8.142,0,0,0-3.1,1.8c0,.169-2.082.169-3.944.955a24.8,24.8,0,0,1-4.612,1.237s-5.353-.169-5.849.338-1.014,3.544.056,5.962,2.254,4.226,3.15,4.556,6.582-1.575,11.194-2.023,9.619-4.108,9.619-4.108,5.511-1.972,6.466-5.286-1.181-21.545-1.181-21.545S942.321,358.624,937.765,360.929Z" transform="translate(-669.972 -275.47)" opacity="0.03"/>
      <path id="Path_407" data-name="Path 407" d="M939.568,362.137s-5.288,10.07-4.669,13.893,2.361,8.157,1.519,9.168a3.1,3.1,0,0,1-2.477,1.24,8.178,8.178,0,0,0-3.1,1.8c0,.166-2.079.169-3.945.958a24.613,24.613,0,0,1-4.612,1.237s-5.353-.169-5.852.338-1.011,3.544.056,5.962,2.254,4.226,3.15,4.556,6.582-1.575,11.194-2.026,9.619-4.105,9.619-4.105,5.514-1.972,6.48-5.288-1.167-21.542-1.167-21.542S944.121,359.843,939.568,362.137Z" transform="translate(-671.265 -276.34)" fill="#fff"/>
      <path id="Path_408" data-name="Path 408" d="M991.773,458.359s-4.226-.845-2.755.563,1.462,2.643,3.263,2.586S991.773,458.359,991.773,458.359Z" transform="translate(-723.586 -345.554)" opacity="0.1"/>
      <path id="Path_409" data-name="Path 409" d="M1023.668,566.58s-1.91,1.293,1.744,4.274S1023.668,566.58,1023.668,566.58Z" transform="translate(-748.338 -423.464)" opacity="0.1"/>
      <path id="Path_410" data-name="Path 410" d="M1011.791,604.31c0,.169-.676,6.2,1.854,7.706S1011.791,604.31,1011.791,604.31Z" transform="translate(-740.107 -450.564)" opacity="0.1"/>
      <path id="Path_411" data-name="Path 411" d="M857.178,436.59c-2.04.07-6.446.693-4.161,4.956,2.02,3.773,5.415,1.251,7.326-.662a7.2,7.2,0,0,0-3.164-4.294Z" transform="translate(-625.666 -330.099)" fill="#ffb0b1"/>
      <path id="Path_412" data-name="Path 412" d="M881.39,451Z" transform="translate(-646.505 -340.449)" fill="#ffb0b1"/>
      <path id="Path_413" data-name="Path 413" d="M880.74,451.487l.085-.087Z" transform="translate(-646.038 -340.736)" fill="#ffb0b1"/>
      <path id="Path_414" data-name="Path 414" d="M963.081,336.236c-2.164,1.479-3.978,2.727-4.333,2.987-.969.718-2.818,4.936-4.009,7.089-.949,1.733-4.035,2.178-5.2,2.288l.149-1.288c2.646-1.183,4.671-4.953,4.671-4.953l5.229-9.168,1.8,1.637Z" transform="translate(-695.454 -255.831)" opacity="0.1"/>
      <path id="Path_415" data-name="Path 415" d="M963.081,335.636c-2.164,1.479-3.978,2.727-4.333,2.989-.969.716-2.818,4.933-4.009,7.086-.949,1.733-4.035,2.178-5.2,2.288l.149-1.288c2.646-1.183,4.671-4.953,4.671-4.953l5.229-9.168,1.8,1.631S962.066,334.779,963.081,335.636Z" transform="translate(-695.454 -255.4)" fill="#dce7ff"/>
      <path id="Path_416" data-name="Path 416" d="M940.21,296.619a8.357,8.357,0,1,1-7.1-8.261A8.342,8.342,0,0,1,940.21,296.619Z" transform="translate(-676.748 -223.562)" fill="#ffb0b1"/>
      <path id="Path_417" data-name="Path 417" d="M956.341,324.723a7.427,7.427,0,0,1-2.7-2.9,7.629,7.629,0,0,0-1.586-2.663,7.045,7.045,0,0,0-2.592-1,7.6,7.6,0,0,1-5.542-6.669c-.045-1.454.409-2.9.2-4.345a4.813,4.813,0,0,0-.941-2.24,7.721,7.721,0,0,0-.814-.876c-.394-.372-.809-.733-1.169-1.127a4.376,4.376,0,0,1-.592-.8,3.861,3.861,0,0,1-.324-.747c-.563-1.724-.051-3.77-.671-5.514l-.034-.1a1.794,1.794,0,0,0-1.372-1.288c-.662-.048-1.228.5-1.859.747-1.321.513-2.747-.361-3.849-1.251s-2.344-1.907-3.744-1.71a12.094,12.094,0,0,0-2.513,1.09,3.526,3.526,0,0,1-.594.172,8.354,8.354,0,0,1,16.108,3.113,8.267,8.267,0,0,1-.183,1.744c.014.039.028.076.045.116.327.845.7,1.713,1.02,2.462l1.592,1.443,1.691,1.409c2.206,1.86,6.018,5.133,7.985,7.137C955.636,312.7,956.177,319.558,956.341,324.723Z" transform="translate(-678.295 -223.562)" opacity="0.1"/>
      <path id="Path_418" data-name="Path 418" d="M921.515,271.841c.4-.82.6-1.738,1.085-2.516a6,6,0,0,1,3.209-2.285c3.311-1.141,10.306-2.8,12.4,0a6.1,6.1,0,0,0,1.321,1.578,9.8,9.8,0,0,0,1.434.645,5.481,5.481,0,0,1,2.637,3.381c.454,1.392.589,2.885.921,4.319a31.76,31.76,0,0,0,1.916,5.317c.876,2.046,1.806,4.167,3.5,5.612,2.307,1.972,2.817,4.764,4.959,6.928,2.536,2.57,2.454,6.81,1.147,10.177a2.794,2.794,0,0,0-.3,1.375,2.7,2.7,0,0,0,.747,1.274l1.386,1.564a7.8,7.8,0,0,1-8.517-3.928,7.618,7.618,0,0,0-1.589-2.663,7.026,7.026,0,0,0-2.589-1,7.609,7.609,0,0,1-5.542-6.675c-.045-1.451.409-2.9.2-4.339a4.791,4.791,0,0,0-.944-2.254c-.775-1.011-1.944-1.69-2.575-2.818-1.068-1.885-.256-4.333-1.026-6.356a1.8,1.8,0,0,0-1.372-1.288c-.662-.048-1.228.5-1.862.747-1.319.513-2.744-.358-3.846-1.251s-2.344-1.907-3.747-1.707a11.781,11.781,0,0,0-2.51,1.09c-.631.242-1.91.459-2.462-.073C918.325,275.625,921.027,272.844,921.515,271.841Z" transform="translate(-673.664 -207.215)" fill="#591d4b"/>
      <path id="Path_419" data-name="Path 419" d="M949.983,311.339a7.622,7.622,0,0,0-1.589-2.66,7.025,7.025,0,0,0-2.592-1,7.609,7.609,0,0,1-5.542-6.672c-.045-1.451.408-2.9.206-4.342a4.818,4.818,0,0,0-.944-2.24c-.778-1.012-1.947-1.691-2.575-2.818-1.068-1.882-.256-4.33-1.028-6.356a1.8,1.8,0,0,0-1.369-1.288c-.659-.051-1.231.5-1.862.749-1.319.513-2.747-.361-3.846-1.251s-2.347-1.907-3.747-1.71a12.006,12.006,0,0,0-2.51,1.09c-.631.242-1.913.462-2.465-.07-1.161-1.127,1.541-3.9,2.026-4.9a26.974,26.974,0,0,1,1.088-2.516c.025-.042.054-.085.082-.127a4.471,4.471,0,0,0-.927,1.054A27.375,27.375,0,0,0,921.3,278.8c-.487,1-3.189,3.781-2.026,4.9.563.535,1.831.316,2.462.073a11.6,11.6,0,0,1,2.51-1.09c1.409-.2,2.648.817,3.747,1.707s2.536,1.764,3.849,1.251c.631-.245,1.183-.8,1.86-.747a1.794,1.794,0,0,1,1.372,1.288c.769,2.023-.042,4.471,1.026,6.356.631,1.107,1.8,1.8,2.575,2.818a4.79,4.79,0,0,1,.944,2.254c.206,1.437-.248,2.888-.2,4.339a7.6,7.6,0,0,0,5.542,6.675,7.067,7.067,0,0,1,2.589,1,7.451,7.451,0,0,1,1.589,2.663,7.8,7.8,0,0,0,8.517,3.928l-.654-.738A7.879,7.879,0,0,1,949.983,311.339Z" transform="translate(-673.509 -214.202)" opacity="0.1"/>
      <path id="Path_420" data-name="Path 420" d="M950.162,350.963a56.832,56.832,0,0,0-2.308,5.967c-.826-.321-1.575-2.37-1.575-2.37l4.4-6.26C951.132,348.92,950.836,349.948,950.162,350.963Z" transform="translate(-693.112 -266.684)" opacity="0.1"/>
      <path id="Path_421" data-name="Path 421" d="M950.762,350.37a56.831,56.831,0,0,0-2.308,5.967c-.826-.318-1.575-2.37-1.575-2.37l4.4-6.258C951.732,348.327,951.436,349.358,950.762,350.37Z" transform="translate(-693.543 -266.26)" fill="#dce7ff"/>
      <path id="Path_422" data-name="Path 422" d="M863.532,437.3l-2.44-7.695a.718.718,0,0,1,.468-.9h0a.721.721,0,0,1,.9.468l2.44,7.686-.242,1.609Z" transform="translate(-631.902 -324.412)" fill="#be8b87"/>
      <path id="Path_423" data-name="Path 423" d="M861.619,428.963h0a.721.721,0,0,1,.9.468l2.44,7.686-.183,1.206.177.186.242-1.609-2.454-7.686a.721.721,0,0,0-.9-.468h0a.721.721,0,0,0-.375.282A.979.979,0,0,1,861.619,428.963Z" transform="translate(-632.197 -324.441)" fill="#fff" opacity="0.1"/>
      <path id="Path_424" data-name="Path 424" d="M822.6,399.574l1.369-.434-.2,1.319-.042.29-.4-.417Z" transform="translate(-590.969 -286.681)" fill="#efc8c4"/>
      <path id="Path_425" data-name="Path 425" d="M872.42,461.764a.282.282,0,0,1,.087-.073.124.124,0,0,1,.132,0,.355.355,0,0,1,.048.076.242.242,0,0,0,.175.116l-.042.282Z" transform="translate(-640.062 -348.114)" fill="#727a9c"/>
      <path id="Path_426" data-name="Path 426" d="M861.13,441.7s4.894-.028,3.742,2.054a4.4,4.4,0,0,1-2.953,2.333Z" transform="translate(-631.953 -333.769)" fill="#ffb0b1"/>
      <path id="Path_427" data-name="Path 427" d="M588.972,110.05h-.211a24.1,24.1,0,0,0-20.12,11.014,24.1,24.1,0,0,0-20.12-11.014h-.211a23.949,23.949,0,0,0-23.72,23.934c0,7.835,3.432,18.953,10.123,28.1,12.749,17.432,33.928,32.683,33.928,32.683s21.179-15.248,33.925-32.683c6.694-9.148,10.123-20.266,10.123-28.1A23.949,23.949,0,0,0,588.972,110.05Zm-3.023,53.377a4.747,4.747,0,0,1-4.415-3.049h-5.026a1.589,1.589,0,0,1-1.5-1.082l-1.544-4.652-4.885,17.071a1.581,1.581,0,0,1-1.516,1.141h-.1a1.561,1.561,0,0,1-1.465-1.307l-5.035-30.282-3.68,17.919a1.569,1.569,0,0,1-1.524,1.192h-7.08a1.575,1.575,0,1,1,0-3.147h5.841l5.212-24.092a1.581,1.581,0,0,1,3.1.13l5.142,30.891,4.378-15.274a1.55,1.55,0,0,1,1.474-1.127h.031a1.572,1.572,0,0,1,1.493,1.082l2.792,8.4h3.826a4.722,4.722,0,1,1,4.485,6.2Z" transform="translate(-390.233 -95.561)" fill="#29b6f6"/>
    </g>
  </g>
</svg>
