<svg id="account-mobile-bg" xmlns="http://www.w3.org/2000/svg" width="375" height="592" viewBox="0 0 375 592">
  <rect id="Rectangle_242" data-name="Rectangle 242" width="375" height="592" fill="#29b6f6"/>
  <g id="account-mobile-bg-2" data-name="account-mobile-bg">
    <path id="clouds_1_" data-name="clouds (1)" d="M131.129,195.082a25.23,25.23,0,0,0,5.709-49.805,46.216,46.216,0,0,0-86.678-21.9,19.694,19.694,0,0,0-27.332,15.5,28.377,28.377,0,0,0,5.549,56.206Z" transform="translate(13.098 101.158)" fill="#fdfefe"/>
    <g id="clouds" transform="translate(0 -55.36)">
      <path id="Path_437" data-name="Path 437" d="M66.649,98.312H79.124a36.648,36.648,0,0,1,22.183-17.726,12.853,12.853,0,0,0-15.721-7.37c.007-.2.015-.39.015-.586a17.27,17.27,0,0,0-34.112-3.821,10.366,10.366,0,0,0-11.806,3.936,12.992,12.992,0,1,0-3.267,25.567H57.185" transform="translate(-15.787 0)" fill="#9fdef7"/>
      <path id="Path_438" data-name="Path 438" d="M121.814,138.982a36.571,36.571,0,0,0-62.386,16.88,21.94,21.94,0,0,0-25,8.334A27.513,27.513,0,1,0,27.51,218.34H57.842a17.038,17.038,0,0,1,22.123-16.135c-.007-.258-.019-.516-.019-.777a22.9,22.9,0,0,1,45.235-5.067,13.738,13.738,0,0,1,15.654,5.219,17.246,17.246,0,0,1,19.1,7.81,27.2,27.2,0,0,0-28.3-44.195c.013-.412.031-.825.031-1.24a36.408,36.408,0,0,0-4.189-17.011" transform="translate(0 -48.533)" fill="#beeafc"/>
      <path id="Path_439" data-name="Path 439" d="M29.168,237.634q-.823-.05-1.658-.051a27.511,27.511,0,0,0,0,55.021H57.842a16.952,16.952,0,0,1,2.108-8.1A85.375,85.375,0,0,1,29.168,237.634Z" transform="translate(0 -122.798)" fill="#aee4ff"/>
      <path id="Path_440" data-name="Path 440" d="M42.4,121.107A85.274,85.274,0,0,1,46.315,95.5a10.367,10.367,0,0,0-6.631,4.3,12.992,12.992,0,1,0-3.267,25.567h6.091Q42.4,123.246,42.4,121.107Z" transform="translate(-15.787 -27.049)" fill="#83d4ed"/>
      <path id="Path_441" data-name="Path 441" d="M264.691,304.487a17.244,17.244,0,0,0-4.332.55,13.738,13.738,0,0,0-15.654-5.219,22.9,22.9,0,0,0-45.235,5.067c0,.261.011.519.019.777a17.029,17.029,0,1,0-5.1,33.278h70.3a17.226,17.226,0,1,0,0-34.453Z" transform="translate(-119.524 -152.719)" fill="#e4f2f9"/>
      <path id="Path_442" data-name="Path 442" d="M212.548,301.849a42.439,42.439,0,0,1,3.648-17.265,22.908,22.908,0,0,0-16.728,22.054c0,.261.011.519.019.777a17.029,17.029,0,1,0-5.1,33.278h43.267A42.592,42.592,0,0,1,212.548,301.849Z" transform="translate(-119.522 -154.472)" fill="#d7edf9"/>
    </g>
    <g id="Group_239" data-name="Group 239" transform="matrix(1, 0.017, -0.017, 1, -1440.767, -133.913)">
      <path id="Path_474" data-name="Path 474" d="M1404.027,337.5s-6.129-38.725,3.064-52,22.473-1.106,28.091-8.114,0-87.407,0-87.407h39.327" transform="translate(335.037 46.096)" fill="none" stroke="#f6f9fc" stroke-width="5"/>
      <circle id="Ellipse_91" data-name="Ellipse 91" cx="12.5" cy="12.5" r="12.5" transform="translate(1728.5 380)" fill="#f6f9fc"/>
      <circle id="Ellipse_92" data-name="Ellipse 92" cx="13" cy="13" r="13" transform="translate(1793.5 221)" fill="#f6f9fc"/>
    </g>
  </g>
</svg>
