<svg xmlns="http://www.w3.org/2000/svg" xmlns:xlink="http://www.w3.org/1999/xlink" width="1852" height="1259.668" viewBox="0 0 1852 1259.668">
  <defs>
    <radialGradient id="radial-gradient" cx="0.092" cy="0.976" r="1.499" gradientTransform="matrix(0.624, -0.308, 0.086, 0.407, -0.05, 0.607)" gradientUnits="objectBoundingBox">
      <stop offset="0" stop-color="#9c27b0"/>
      <stop offset="1" stop-color="#29b6f6"/>
    </radialGradient>
    <radialGradient id="radial-gradient-2" cx="0.092" cy="0.976" r="2.138" gradientTransform="matrix(0.437, -0.308, 0.042, 0.286, 0.01, 0.726)" xlink:href="#radial-gradient"/>
    <filter id="Back-ground" x="0" y="336.946" width="1852" height="922.722" filterUnits="userSpaceOnUse">
      <feOffset dy="11" input="SourceAlpha"/>
      <feGaussianBlur stdDeviation="22" result="blur"/>
      <feFlood flood-opacity="0.161"/>
      <feComposite operator="in" in2="blur"/>
      <feComposite in="SourceGraphic"/>
    </filter>
    <radialGradient id="radial-gradient-3" cx="0.092" cy="0.976" r="1.055" gradientTransform="matrix(0.886, -0.308, 0.174, 0.579, -0.16, 0.44)" xlink:href="#radial-gradient"/>
    <filter id="Back-ground-2" x="0" y="0" width="1342.94" height="1259.668" filterUnits="userSpaceOnUse">
      <feOffset dy="11" input="SourceAlpha"/>
      <feGaussianBlur stdDeviation="22" result="blur-2"/>
      <feFlood flood-opacity="0.161"/>
      <feComposite operator="in" in2="blur-2"/>
      <feComposite in="SourceGraphic"/>
    </filter>
  </defs>
  <g id="back-ground-header" transform="translate(-34 -45.034)">
    <path id="Back-ground-3" data-name="Back-ground" d="M0,0H1720V505.964L0,1127.7Z" transform="translate(100 100)" fill="url(#radial-gradient)"/>
    <g transform="matrix(1, 0, 0, 1, 34, 45.03)" filter="url(#Back-ground)">
      <path id="Back-ground-4" data-name="Back-ground" d="M539.121,354.816l671.82-17.836L1720,393.916,0,1127.7Z" transform="translate(66 54.97)" opacity="0.07" fill="url(#radial-gradient-2)"/>
    </g>
    <g transform="matrix(1, 0, 0, 1, 34, 45.03)" filter="url(#Back-ground-2)">
      <path id="Back-ground-5" data-name="Back-ground" d="M539.121,354.816l671.82-17.836L.034.034,0,1127.7Z" transform="translate(66 54.97)" opacity="0.3" fill="url(#radial-gradient-3)"/>
    </g>
  </g>
</svg>
