<svg xmlns="http://www.w3.org/2000/svg" width="909.326" height="1073.593" viewBox="0 0 909.326 1073.593">
  <g id="forgot-password-bg" transform="translate(-1001 -6)">
    <path id="Rectangle_228" data-name="Rectangle 228" d="M0,0H698a15,15,0,0,1,15,15V1053.75a15,15,0,0,1-15,15H0a0,0,0,0,1,0,0V0A0,0,0,0,1,0,0Z" transform="translate(1197 6)" fill="#29b6f6"/>
    <g id="clouds" transform="translate(1001 86.64)">
      <path id="Path_437" data-name="Path 437" d="M116.612,147.961h26.9a79.009,79.009,0,0,1,47.825-38.217,27.71,27.71,0,0,0-33.894-15.889c.014-.42.032-.84.032-1.264a37.232,37.232,0,0,0-73.542-8.238,22.348,22.348,0,0,0-25.452,8.485,28.01,28.01,0,1,0-7.044,55.12H96.208" transform="translate(-6.956 0)" fill="#9fdef7"/>
      <path id="Path_438" data-name="Path 438" d="M262.62,152.394a78.843,78.843,0,0,0-134.5,36.392,47.3,47.3,0,0,0-53.9,17.968A59.316,59.316,0,1,0,59.309,323.481H124.7A36.732,36.732,0,0,1,172.4,288.7c-.016-.555-.041-1.112-.041-1.675A49.373,49.373,0,0,1,269.879,276.1a29.617,29.617,0,0,1,33.748,11.253,37.181,37.181,0,0,1,41.185,16.838,58.642,58.642,0,0,0-61.019-95.28c.029-.888.068-1.778.068-2.674a78.493,78.493,0,0,0-9.031-36.674" transform="translate(0 -21.385)" fill="#beeafc"/>
      <path id="Path_439" data-name="Path 439" d="M62.884,237.693q-1.774-.108-3.574-.11a59.31,59.31,0,0,0,0,118.62H124.7a36.546,36.546,0,0,1,4.545-17.452A184.062,184.062,0,0,1,62.884,237.693Z" transform="translate(0 -54.108)" fill="#aee4ff"/>
      <path id="Path_440" data-name="Path 440" d="M64.336,150.708A183.843,183.843,0,0,1,72.772,95.5a22.35,22.35,0,0,0-14.3,9.26,28.01,28.01,0,1,0-7.044,55.12H64.565Q64.341,155.32,64.336,150.708Z" transform="translate(-6.956 -11.918)" fill="#83d4ed"/>
      <path id="Path_441" data-name="Path 441" d="M365.632,330.5a37.178,37.178,0,0,0-9.34,1.187,29.618,29.618,0,0,0-33.748-11.253,49.373,49.373,0,0,0-97.523,10.925c0,.562.025,1.119.041,1.675a36.713,36.713,0,1,0-10.991,71.744H365.634a37.139,37.139,0,1,0,0-74.277Z" transform="translate(-52.666 -67.292)" fill="#e4f2f9"/>
      <path id="Path_442" data-name="Path 442" d="M253.22,321.8a91.494,91.494,0,0,1,7.864-37.221A49.387,49.387,0,0,0,225.02,332.13c0,.562.025,1.119.041,1.675a36.713,36.713,0,1,0-10.991,71.744h93.281A91.825,91.825,0,0,1,253.22,321.8Z" transform="translate(-52.665 -68.065)" fill="#d7edf9"/>
    </g>
    <path id="clouds_1_" data-name="clouds (1)" d="M373.384,371.689A71.84,71.84,0,0,0,389.64,229.871a131.6,131.6,0,0,0-246.814-62.363A56.078,56.078,0,0,0,65,211.645,80.8,80.8,0,0,0,80.8,371.689Z" transform="translate(1465.098 707.904)" fill="#fdfefe"/>
    <g id="Group_239" data-name="Group 239">
      <path id="Path_474" data-name="Path 474" d="M1406.006,596.334s-12.191-106.67,6.1-143.242,44.7-3.048,55.875-22.35,0-240.768,0-240.768H1546.2" transform="translate(344 61)" fill="none" stroke="#f6f9fc" stroke-width="5"/>
      <circle id="Ellipse_91" data-name="Ellipse 91" cx="25.5" cy="25.5" r="25.5" transform="translate(1728 650)" fill="#f6f9fc"/>
      <circle id="Ellipse_92" data-name="Ellipse 92" cx="25.5" cy="25.5" r="25.5" transform="translate(1859 221)" fill="#f6f9fc"/>
    </g>
    <g id="undraw_unlock_24mb" transform="translate(1272.282 443)">
      <path id="Path_994" data-name="Path 994" d="M549.81,637.4q-35.187-5.154-67.679-8.885L490.7,614.65c-2.887-.853-15.575,7.049-15.575,7.049l11.244-40.3c-14.523,1.4-21.913,42.564-21.913,42.564l-16.226-14,7.853,15.7c-66.3-6.843-123.554-9.532-171.714-9.842l7.331-11.863C288.81,603.1,276.122,611,276.122,611l11.244-40.3c-14.523,1.4-21.913,42.564-21.913,42.564l-16.224-14,8.318,16.625c-40.374.489-73.3,2.644-98.712,5.157,7.416-18.5,32.6-36.01,32.6-36.01-19.233,4.7-29.323,12.678-34.6,20.135a276.452,276.452,0,0,1,22.452-112.18s-39.764,72.24-34.7,120.877l.605,8.635c-33.7,3.884-50.647,8.009-50.647,8.009Z" transform="translate(-94.554 -309.864)" fill="#3f3d56"/>
      <path id="Path_995" data-name="Path 995" d="M455.418,99.477V391.393A13.123,13.123,0,0,1,442.3,404.5H323.79a13.1,13.1,0,0,1-13.119-13.11V99.477a13.118,13.118,0,0,1,13.12-13.119h17.734v2.274a10.8,10.8,0,0,0,10.8,10.8H412.6a10.714,10.714,0,0,0,6.4-2.108,10.036,10.036,0,0,0,1.063-.892,10.771,10.771,0,0,0,3.333-7.8V86.358h18.9a13.115,13.115,0,0,1,13.119,13.119Z" transform="translate(-213.343 -86.358)" fill="#3f3d56"/>
      <circle id="Ellipse_303" data-name="Ellipse 303" cx="3.152" cy="3.152" r="3.152" transform="translate(127.19 45.485)" fill="#f2f2f2"/>
      <path id="Path_996" data-name="Path 996" d="M552.284,108.738a10.051,10.051,0,0,1-1.063.892,56.405,56.405,0,0,0,36.415,27.107v-1.405A55.077,55.077,0,0,1,552.284,108.738Z" transform="translate(-345.562 -98.659)" fill="#29b6f6"/>
      <path id="Path_997" data-name="Path 997" d="M491.968,115.4h-1.477a81.814,81.814,0,0,0,63.765,50.912v-1.4A80.41,80.41,0,0,1,491.968,115.4Z" transform="translate(-312.181 -102.32)" fill="#29b6f6"/>
      <path id="Path_998" data-name="Path 998" d="M431.614,115.4h-1.423a107.872,107.872,0,0,0,90.921,77.064v-1.374A106.5,106.5,0,0,1,431.614,115.4Z" transform="translate(-279.037 -102.32)" fill="#29b6f6"/>
      <path id="Path_999" data-name="Path 999" d="M264.227,158.821h-.821V158h-.16v.821h-.821v.16h.821v.821h.16v-.821h.821Z" transform="translate(-144.243 -86.845)" fill="#f2f2f2"/>
      <path id="Path_1000" data-name="Path 1000" d="M387.227,67.821h-.821V67h-.16v.821h-.821v.16h.821V68.8h.16v-.821h.821Z" transform="translate(-211.85 -36.827)" fill="#f2f2f2"/>
      <path id="Path_1001" data-name="Path 1001" d="M282.227,230.821h-.821V230h-.16v.821h-.821v.16h.821v.821h.16v-.821h.821Z" transform="translate(-154.136 -126.42)" fill="#f2f2f2"/>
      <path id="Path_1002" data-name="Path 1002" d="M366.227,177.821h-.821V177h-.16v.821h-.821v.16h.821v.821h.16v-.821h.821Z" transform="translate(-200.307 -97.288)" fill="#f2f2f2"/>
      <path id="Path_1003" data-name="Path 1003" d="M486.227,210.821h-.821V210h-.16v.821h-.821v.16h.821v.821h.16v-.821h.821Z" transform="translate(-266.265 -115.427)" fill="#f2f2f2"/>
      <circle id="Ellipse_304" data-name="Ellipse 304" cx="1.801" cy="1.801" r="1.801" transform="translate(208.703 54.492)" fill="#ff6584"/>
      <path id="Path_1004" data-name="Path 1004" d="M417.433,305.158l-1.022.158c.32,2.045.572,4.134.757,6.2l1.031-.09C418.014,309.333,417.758,307.225,417.433,305.158Z" transform="translate(-271.463 -206.622)" fill="#e6e6e6"/>
      <path id="Path_1005" data-name="Path 1005" d="M411.262,277.818l-.991.3c.6,1.982,1.135,4.013,1.59,6.035l1.013-.23C412.41,281.88,411.865,279.827,411.262,277.818Z" transform="translate(-268.088 -191.594)" fill="#e6e6e6"/>
      <path id="Path_1006" data-name="Path 1006" d="M401.412,251.6l-.941.432c.865,1.887,1.675,3.823,2.409,5.76l.968-.365C403.106,255.466,402.29,253.5,401.412,251.6Z" transform="translate(-262.702 -177.182)" fill="#e6e6e6"/>
      <path id="Path_1007" data-name="Path 1007" d="M388.095,227.018l-.874.554c1.112,1.747,2.18,3.558,3.17,5.373l.91-.5C390.3,230.612,389.221,228.783,388.095,227.018Z" transform="translate(-255.419 -163.672)" fill="#e6e6e6"/>
      <path id="Path_1008" data-name="Path 1008" d="M371.539,204.488l-.788.671c1.342,1.576,2.648,3.225,3.882,4.891l.829-.617C374.219,207.749,372.9,206.082,371.539,204.488Z" transform="translate(-246.366 -151.288)" fill="#e6e6e6"/>
      <path id="Path_1009" data-name="Path 1009" d="M352.08,184.428l-.689.77c1.549,1.383,3.067,2.837,4.513,4.319l.743-.725C355.183,187.292,353.647,185.824,352.08,184.428Z" transform="translate(-235.725 -140.262)" fill="#e6e6e6"/>
      <path id="Path_1010" data-name="Path 1010" d="M330.092,167.208l-.581.856c1.72,1.157,3.423,2.391,5.057,3.666l.639-.815C333.551,169.626,331.83,168.379,330.092,167.208Z" transform="translate(-223.698 -130.797)" fill="#e6e6e6"/>
      <path id="Path_1011" data-name="Path 1011" d="M310.671,155.248v1.171c1.076.563,2.144,1.153,3.188,1.756l.518-.9Q312.553,156.225,310.671,155.248Z" transform="translate(-213.343 -124.223)" fill="#e6e6e6"/>
      <path id="Path_1012" data-name="Path 1012" d="M418.161,517.432c.168-1.007.322-2.035.457-3.056l1.027.136c-.137,1.032-.292,2.071-.462,3.09Z" transform="translate(-272.425 -321.618)" fill="#e6e6e6"/>
      <path id="Path_1013" data-name="Path 1013" d="M411.752,540.787l.99.308c.621-2,1.183-4.051,1.67-6.094l-1.008-.239C412.92,536.784,412.369,538.808,411.752,540.787Z" transform="translate(-268.902 -332.824)" fill="#e6e6e6"/>
      <path id="Path_1014" data-name="Path 1014" d="M401.71,566.968l.94.44c.893-1.895,1.73-3.848,2.488-5.8l-.966-.377C403.422,563.162,402.594,565.094,401.71,566.968Z" transform="translate(-263.383 -347.371)" fill="#e6e6e6"/>
      <path id="Path_1015" data-name="Path 1015" d="M388.2,591.674l.868.564c1.145-1.756,2.244-3.577,3.267-5.408l-.9-.507C390.422,588.134,389.332,589.934,388.2,591.674Z" transform="translate(-255.956 -361.164)" fill="#e6e6e6"/>
      <path id="Path_1016" data-name="Path 1016" d="M371.482,614.42l.785.68c1.378-1.589,2.713-3.242,3.979-4.913l-.829-.62C374.169,611.219,372.847,612.852,371.482,614.42Z" transform="translate(-246.768 -373.94)" fill="#e6e6e6"/>
      <path id="Path_1017" data-name="Path 1017" d="M351.907,634.771l.682.779c1.584-1.381,3.132-2.839,4.612-4.32l-.732-.734C355.005,631.962,353.47,633.4,351.907,634.771Z" transform="translate(-236.008 -385.444)" fill="#e6e6e6"/>
      <path id="Path_1018" data-name="Path 1018" d="M329.855,652.369l.572.866c1.749-1.155,3.485-2.385,5.151-3.653l-.626-.827C333.3,650.013,331.587,651.23,329.855,652.369Z" transform="translate(-223.888 -395.48)" fill="#e6e6e6"/>
      <path id="Path_1019" data-name="Path 1019" d="M314.494,664.914c-1.252.707-2.531,1.392-3.823,2.04v-1.162c1.117-.567,2.225-1.166,3.31-1.774Z" transform="translate(-213.343 -403.869)" fill="#e6e6e6"/>
      <path id="Path_1020" data-name="Path 1020" d="M418.836,333.441l1.035-.019c.019,1.045.02,2.1,0,3.124l-1.035-.016C418.856,335.514,418.854,334.475,418.836,333.441Z" transform="translate(-272.796 -222.157)" fill="#e6e6e6"/>
      <path id="Path_1021" data-name="Path 1021" d="M226.216,301.632H332.143a29.723,29.723,0,0,1,29.723,29.723v3.934H255.939a29.723,29.723,0,0,1-29.723-29.723v-3.934Z" transform="translate(-124.34 -165.792)" fill="#fff"/>
      <path id="Path_1022" data-name="Path 1022" d="M472.4,651.705c-.1-.169-2.54-4.238-3.385-12.687-.775-7.752-.277-20.818,6.5-39.044,12.838-34.529-2.958-62.388-3.12-62.666l.779-.452A69.156,69.156,0,0,1,479.7,555.34a80.64,80.64,0,0,1-3.34,44.948c-12.816,34.47-3.288,50.787-3.19,50.948Z" transform="translate(-300.229 -333.975)" fill="#f2f2f2"/>
      <circle id="Ellipse_305" data-name="Ellipse 305" cx="5.855" cy="5.855" r="5.855" transform="translate(161.301 189.597)" fill="#2ecc71"/>
      <circle id="Ellipse_306" data-name="Ellipse 306" cx="5.855" cy="5.855" r="5.855" transform="translate(179.766 211.214)" fill="#f2f2f2"/>
      <circle id="Ellipse_307" data-name="Ellipse 307" cx="5.855" cy="5.855" r="5.855" transform="translate(167.156 225.625)" fill="#2ecc71"/>
      <circle id="Ellipse_308" data-name="Ellipse 308" cx="5.855" cy="5.855" r="5.855" transform="translate(182.468 237.784)" fill="#2ecc71"/>
      <circle id="Ellipse_309" data-name="Ellipse 309" cx="5.855" cy="5.855" r="5.855" transform="translate(162.652 256.699)" fill="#f2f2f2"/>
      <path id="Path_1023" data-name="Path 1023" d="M483.581,761.578s-5.854-14.411,11.709-25.219Z" transform="translate(-307.868 -443.631)" fill="#f2f2f2"/>
      <path id="Path_1024" data-name="Path 1024" d="M440.314,773.232s-2.664-15.325-23.287-15.194Z" transform="translate(-271.802 -455.547)" fill="#f2f2f2"/>
      <circle id="Ellipse_310" data-name="Ellipse 310" cx="36.028" cy="36.028" r="36.028" transform="translate(109.176 116.64)" fill="#6c63ff" opacity="0.2"/>
      <circle id="Ellipse_311" data-name="Ellipse 311" cx="25.372" cy="25.372" r="25.372" transform="translate(119.832 127.297)" fill="#6c63ff" opacity="0.2"/>
      <circle id="Ellipse_312" data-name="Ellipse 312" cx="16.745" cy="16.745" r="16.745" transform="translate(128.459 135.923)" fill="#29b6f6"/>
      <path id="Path_1025" data-name="Path 1025" d="M416.309,413.621a3.045,3.045,0,1,0-4.968,2.359l-1.121,7.849h6.089l-1.121-7.849a3.038,3.038,0,0,0,1.121-2.359Z" transform="translate(-268.06 -264.564)" fill="#fff"/>
      <path id="Path_1026" data-name="Path 1026" d="M713.73,136.745s-10.044-9-23.551,7.966-34.633,25.282-39.482,31.863c0,0,20.087-8.312,27.014-11.775s6.58-2.771,6.58-2.771-9.351,6.58-11.083,13.161-.346,12.122-3.463,18.7,59.57,4.5,59.57,4.5,6.234-10.736,4.5-21.819S733.124,138.13,713.73,136.745Z" transform="translate(-400.239 -112.741)" fill="#2f2e41"/>
      <path id="Path_1027" data-name="Path 1027" d="M731.736,202.56s2.184,15.288-7.176,18.72-5.928,8.112-5.928,8.112l14.04,6.864,14.976-4.68,4.992-7.488s-8.112-1.872-5.928-7.488,2.808-7.488,2.808-7.488Z" transform="translate(-437.242 -150.229)" fill="#ffb9b9"/>
      <path id="Path_1028" data-name="Path 1028" d="M731.736,202.56s2.184,15.288-7.176,18.72-5.928,8.112-5.928,8.112l14.04,6.864,14.976-4.68,4.992-7.488s-8.112-1.872-5.928-7.488,2.808-7.488,2.808-7.488Z" transform="translate(-437.242 -150.229)" opacity="0.1"/>
      <path id="Path_1029" data-name="Path 1029" d="M820.158,299.551s-2.184,28.7-1.56,29.952,0,44.616,0,44.616,4.368,23.4-1.248,24.648-4.368-26.208-4.368-26.208l-5.616-36.192.624-35.88Z" transform="translate(-486.352 -203.54)" fill="#ffb9b9"/>
      <path id="Path_1030" data-name="Path 1030" d="M820.158,299.551s-2.184,28.7-1.56,29.952,0,44.616,0,44.616,4.368,23.4-1.248,24.648-4.368-26.208-4.368-26.208l-5.616-36.192.624-35.88Z" transform="translate(-486.352 -203.54)" opacity="0.1"/>
      <path id="Path_1031" data-name="Path 1031" d="M688.482,491.454s-10.3,39-9.984,58.031,4.368,45.552,4.368,45.552.624,11.544-.312,12.792,4.68,6.552,4.68,6.552l5.928-3.432,2.184-2.5v-2.184s-3.432-10.608-.624-19.032,4.368-29.64,1.56-36.192l19.344-57.408Z" transform="translate(-415.516 -309.019)" fill="#ffb9b9"/>
      <path id="Path_1032" data-name="Path 1032" d="M674.353,749.123s-3.744-4.68-6.24-3.12-6.552,12.168-6.552,12.168-14.04,13.416-4.056,14.04,14.352-2.808,15.6-5.3,12.792-9.048,12.792-9.048-1.248-11.856-3.12-12.168-4.68,4.68-4.68,4.68Z" transform="translate(-402.01 -448.753)" fill="#2f2e41"/>
      <path id="Path_1033" data-name="Path 1033" d="M770.859,485.572V524.26a119.623,119.623,0,0,0,.936,14.04c.936,6.864-5.3,58.032-5.3,58.032l.624,9.048,7.8-.624.936-7.8,11.232-34.32s3.744-20.9,1.872-28.7,9.672-57.719,9.672-57.719Z" transform="translate(-463.885 -300.642)" fill="#ffb9b9"/>
      <path id="Path_1034" data-name="Path 1034" d="M761.525,753.811l2.311-.5s1.745-3.866,3.929-2.93a23.556,23.556,0,0,1,4.343,2.6l.961,1.766a37.291,37.291,0,0,0,4.992,7.8c2.808,3.12,5.928,9.984,1.248,10.608s-10.92.936-12.792-.624-.624-4.056-2.5-4.68-3.432-2.5-3.12-3.12S761.525,753.811,761.525,753.811Z" transform="translate(-460.79 -451.257)" fill="#2f2e41"/>
      <circle id="Ellipse_313" data-name="Ellipse 313" cx="13.866" cy="13.866" r="13.866" transform="translate(293.108 35.345)" fill="#ffb9b9"/>
      <path id="Path_1035" data-name="Path 1035" d="M718,247.914l4.121-1.439s-1.625,2.687,7.111,4.247,17.783,2.112,21.839-3c0,0,1.56-.744,3.744,1.44s3.432,1.56,3.432,1.56l-1.56,8.112-3.12,14.976-4.056,11.232-11.544-2.5-12.48-9.048L720.8,261.33V250.1Z" transform="translate(-437.23 -174.367)" fill="#6c63ff"/>
      <path id="Path_1036" data-name="Path 1036" d="M737.02,253.7l3.12-2.184s10.608,1.872,11.232,6.864l-8.112,15.6a17.76,17.76,0,0,1-.312,13.416c-3.12,7.176-2.808,8.736-2.808,8.736l-2.184,9.36-39.624,3.12a28.069,28.069,0,0,0-2.184-4.368c-.624-.624-.624-2.808,0-2.808s0-.936-.624-1.872-.936-1.248,0-2.5-1.56-12.48-1.56-12.48V272.419l-10.608-14.04s3.744-5.616,5.616-6.24,10.777-3.085,10.777-3.085l2.015,2.967,2.808,22.582,4.056,13.728,17.078-2.9,6.634-11.138,4.368-13.1Z" transform="translate(-418.19 -175.784)" fill="#6c63ff"/>
      <path id="Path_1037" data-name="Path 1037" d="M819.312,265.6l2.5,1.872s2.184,17.472,1.56,18.72-11.544,2.5-11.856,1.872S819.312,265.6,819.312,265.6Z" transform="translate(-488.626 -184.881)" fill="#6c63ff"/>
      <path id="Path_1038" data-name="Path 1038" d="M704.246,244.683l3.12,20.592s-2.808,30.576-2.184,36.816l.624,1.872s-1.248-.624-1.56.624a29.181,29.181,0,0,0,0,5.3s-1.872,1.872-2.5,12.168-8.112,34.944-5.3,35.88,19.656,5.616,28.7,4.68,41.5-11.856,41.184-14.664-15.912-42.432-15.912-42.432-2.808-4.68-2.808-5.3,3.744-3.12,2.808-5.616-5.928-28.7-5.928-28.7l3.432-18.72-4.68-1.248-3.432,18.1s-13.416,6.552-27.456.624l-3.12-21.216Z" transform="translate(-425.04 -172.695)" fill="#2f2e41"/>
      <path id="Path_1039" data-name="Path 1039" d="M747.864,165.919s23.088,15.912,29.328,8.736-10.92-13.416-10.92-13.416l-14.352-1.56Z" transform="translate(-453.647 -126.659)" fill="#2f2e41"/>
      <path id="Path_1040" data-name="Path 1040" d="M602.09,522.627a12.172,12.172,0,1,0-3.818-4.739L566.429,544.4l-4.24-5.032-1.9,1.274-2.12-2.516,1.742-1.468-2.12-2.516-2.71,2.283,1.3,1.548-2.9,2.446-1.3-1.548-4.258,3.587,1.957,2.323,1.548-1.3,2.12,2.516-1.935,1.631,3.914,4.645-4.645,3.914L555.6,561.8Zm7.95-17.785a8.053,8.053,0,1,1-8.709,7.338A8.053,8.053,0,0,1,610.04,504.842Z" transform="translate(-343.745 -314.097)" fill="#2ecc71"/>
      <path id="Path_1041" data-name="Path 1041" d="M678.436,307.864s2.184,28.7,1.56,29.952,0,44.616,0,44.616-4.368,23.4,1.248,24.648,4.368-26.208,4.368-26.208l5.616-36.192L690.6,308.8Z" transform="translate(-415.453 -208.109)" fill="#ffb9b9"/>
      <path id="Path_1042" data-name="Path 1042" d="M681.406,267.682l-2.5.936s-4.68,19.656-3.432,19.656,16.224,1.872,16.224,1.248-2.808-15.912-2.808-15.912Z" transform="translate(-413.743 -186.023)" fill="#6c63ff"/>
    </g>
  </g>
</svg>
