<svg xmlns="http://www.w3.org/2000/svg" width="77" height="77" viewBox="0 0 77 77">
  <g id="h1" transform="translate(-381 -1490)">
    <circle id="Ellipse_364" data-name="Ellipse 364" cx="38.5" cy="38.5" r="38.5" transform="translate(381 1490)" fill="#29b6f6" opacity="0.2"/>
    <g id="support" transform="translate(401.999 1489.538)">
      <g id="Group_410" data-name="Group 410" transform="translate(0.672 24.134)">
        <path id="Path_1502" data-name="Path 1502" d="M222.337,81.007h5.886l-2.707,3.323h0Z" transform="translate(-208.067 -77.812)" fill="#fcc69d"/>
        <path id="Path_1503" data-name="Path 1503" d="M222.7,35.154l-.446-.479a3.8,3.8,0,0,0-2.781-1.211H214.2v.881a2.38,2.38,0,0,0,2.391,2.38l4.42-.009Z" transform="translate(-200.475 -33.464)" fill="#fcc69d"/>
        <path id="Path_1504" data-name="Path 1504" d="M251.8,295.323h0a5.6,5.6,0,0,0,3.912,1.176l.213-.017,3.687,3.687,9-7.763-5.106-5.083Z" transform="translate(-235.546 -270.262)" fill="#fcc69d"/>
        <path id="Path_1505" data-name="Path 1505" d="M17.079,67.443,10,74.52,21.42,79.867l6.024-6.046h0a9.806,9.806,0,0,0,6.579-2.866l6.521-6.521a1.861,1.861,0,0,0,0-2.632h0a1.861,1.861,0,0,0-2.632,0l-.826.826L38.815,60.9a1.861,1.861,0,0,0,0-2.632h0a1.861,1.861,0,0,0-2.632,0L34.454,60l2.387-2.387a1.861,1.861,0,0,0,0-2.632h0a1.861,1.861,0,0,0-2.632,0l-2.387,2.387,3.045-3.045a1.861,1.861,0,0,0,0-2.632h0a1.861,1.861,0,0,0-2.632,0l-4.785,4.785" transform="translate(-10.002 -49.956)" fill="#fcc69d"/>
        <path id="Path_1506" data-name="Path 1506" d="M85.162,221.73l-1.816-1.816a1.861,1.861,0,0,0-2.632,0h0a1.861,1.861,0,0,0,0,2.632l1.816,1.816a1.861,1.861,0,0,0,2.632,0h0A1.861,1.861,0,0,0,85.162,221.73Z" transform="translate(-75.454 -206.875)" fill="#fcc69d"/>
        <path id="Path_1507" data-name="Path 1507" d="M111.785,170.039l-2.719-2.719a1.861,1.861,0,0,0-2.632,0h0a1.861,1.861,0,0,0,0,2.632l2.719,2.719a1.861,1.861,0,0,0,2.632,0h0A1.861,1.861,0,0,0,111.785,170.039Z" transform="translate(-99.445 -157.815)" fill="#fcc69d"/>
        <path id="Path_1508" data-name="Path 1508" d="M141.813,121.748l-3.377-3.377a1.861,1.861,0,0,0-2.632,0h0a1.861,1.861,0,0,0,0,2.632l3.377,3.377a1.861,1.861,0,0,0,2.632,0h0A1.861,1.861,0,0,0,141.813,121.748Z" transform="translate(-126.841 -112.157)" fill="#fcc69d"/>
        <path id="Path_1509" data-name="Path 1509" d="M171.838,73.459,167.8,69.424a1.861,1.861,0,0,0-2.632,0h0a1.861,1.861,0,0,0,0,2.632l4.035,4.035a1.861,1.861,0,0,0,2.632,0h0A1.861,1.861,0,0,0,171.838,73.459Z" transform="translate(-154.235 -66.499)" fill="#fcc69d"/>
      </g>
      <path id="Path_1510" data-name="Path 1510" d="M470.373,330.573l-1.64-1.627a.672.672,0,1,0-.947.954l1.64,1.627a.672.672,0,0,0,.947-.955Z" transform="translate(-436.163 -284.772)"/>
      <path id="Path_1511" data-name="Path 1511" d="M442.873,304.149h0a.672.672,0,1,0,.952,0A.672.672,0,0,0,442.872,304.151Z" transform="translate(-412.925 -261.64)"/>
      <path id="Path_1512" data-name="Path 1512" d="M21.522,49.879a.673.673,0,0,0-.53-.195l-.213.017a4.907,4.907,0,0,1-2.8-.611l.432-.434a10.444,10.444,0,0,0,6.761-3.049l6.521-6.521a2.531,2.531,0,0,0-1.222-4.258A2.534,2.534,0,0,0,28.6,31.266a2.529,2.529,0,0,0-1.973-3.288,2.534,2.534,0,0,0-3.615-3.021l-.065-.07a4.486,4.486,0,0,0-3.273-1.425H14.395a.672.672,0,0,0-.672.672v.881a3.055,3.055,0,0,0,.174,1.019A2.533,2.533,0,0,0,10.52,29.17a2.533,2.533,0,0,0-1.976,3.288A2.533,2.533,0,0,0,6.679,36.02a2.533,2.533,0,0,0-1.222,4.26L6.8,41.621l-6.6,6.6a.672.672,0,1,0,.951.951l6.666-6.666a2.532,2.532,0,0,0,3.781-2.3l.1,0a2.531,2.531,0,0,0,2.533-2.532c0-.034,0-.068,0-.1l.1,0a2.531,2.531,0,0,0,2.533-2.532c0-.034,0-.068,0-.1l.1,0A2.532,2.532,0,0,0,18.918,30.8l4.462-4.462a1.189,1.189,0,1,1,1.681,1.681l-.658.658-2.387,2.387a.672.672,0,1,0,.951.951l2.387-2.387a1.189,1.189,0,1,1,1.681,1.681l-.658.658L24.648,33.7a.672.672,0,1,0,.951.951l1.729-1.729A1.189,1.189,0,1,1,29.008,34.6l-.9.9-.826.826a.672.672,0,1,0,.951.951l.827-.827a1.189,1.189,0,0,1,1.68,1.682l-6.521,6.521a9.106,9.106,0,0,1-6.128,2.669.672.672,0,0,0-.452.2l-6.024,6.046a.672.672,0,1,0,.952.949L17,50.073a6.248,6.248,0,0,0,3.795.976l3.468,3.468a.672.672,0,0,0,.951-.951ZM15.067,24.806h4.606a3.137,3.137,0,0,1,2.289,1l.027.029-4.013,4.013L16.13,28a3.075,3.075,0,0,0,.644.068h.015l1.845-.009a.672.672,0,0,0,0-1.344h0l-1.845.009h-.008a1.707,1.707,0,0,1-1.707-1.707v-.209ZM9.9,41.146a1.188,1.188,0,0,1-1.681,0L6.408,39.329a1.189,1.189,0,1,1,1.681-1.681L9.9,39.465A1.19,1.19,0,0,1,9.9,41.146Zm2.98-3.472a1.189,1.189,0,0,1-2.029.84L9.039,36.7l-.9-.9a1.189,1.189,0,1,1,1.681-1.681l2.719,2.719h0A1.181,1.181,0,0,1,12.885,37.673Zm2.632-2.632a1.189,1.189,0,0,1-2.029.84L10.11,32.505a1.189,1.189,0,0,1,1.68-1.681l1.539,1.539L15.168,34.2h0A1.181,1.181,0,0,1,15.516,35.042ZM17.8,33.251a1.19,1.19,0,0,1-1.681,0l-3.377-3.377h0l-.657-.657a1.189,1.189,0,0,1,1.681-1.681L17.8,31.57a1.189,1.189,0,0,1,0,1.681Z" transform="translate(0)"/>
    </g>
  </g>
</svg>
