<svg xmlns="http://www.w3.org/2000/svg" width="77" height="77" viewBox="0 0 77 77">
  <g id="h2" transform="translate(-734 -1490)">
    <circle id="Ellipse_364" data-name="Ellipse 364" cx="38.5" cy="38.5" r="38.5" transform="translate(734 1490)" fill="#29b6f6" opacity="0.2"/>
    <g id="group" transform="translate(756 1513.5)">
      <path id="Path_1513" data-name="Path 1513" d="M331.907,307.368H320.3v-5.131a2.753,2.753,0,0,1,2.753-2.753h6.1a2.753,2.753,0,0,1,2.753,2.753Zm0,0" transform="translate(-300.108 -280.14)" fill="#eb5777"/>
      <path id="Path_1514" data-name="Path 1514" d="M399.5,271a.938.938,0,0,1-.938-.938V267.43h1.876v2.632A.938.938,0,0,1,399.5,271Zm0,0" transform="translate(-373.437 -250.105)" fill="#e39f6e"/>
      <path id="Path_1515" data-name="Path 1515" d="M329.151,94.984h9.928l.262-1.277a5.335,5.335,0,1,0-10.452,0Zm0,0" transform="translate(-308.055 -81.33)" fill="#ba6f3c"/>
      <path id="Path_1516" data-name="Path 1516" d="M463.425,198.349a1.263,1.263,0,1,1-1.263-1.263A1.263,1.263,0,0,1,463.425,198.349Zm0,0" transform="translate(-431.847 -184.196)" fill="#e39f6e"/>
      <path id="Path_1517" data-name="Path 1517" d="M328.425,198.349a1.263,1.263,0,0,1-2.527,0,1.222,1.222,0,0,1,.039-.309,1.263,1.263,0,0,1,2.455.021,1.25,1.25,0,0,1,.033.288Zm0,0" transform="translate(-305.356 -184.196)" fill="#e39f6e"/>
      <path id="Path_1518" data-name="Path 1518" d="M328.966,198.062a2.433,2.433,0,0,1-2.455-.021,1.263,1.263,0,0,1,2.455.021Zm0,0" transform="translate(-305.931 -184.196)" fill="#d88852"/>
      <path id="Path_1519" data-name="Path 1519" d="M350.359,161.07l.433,3.467.164,1.315a3.405,3.405,0,0,0,6.758,0l.6-4.782Zm0,0" transform="translate(-328.275 -150.45)" fill="#f8c298"/>
      <path id="Path_1520" data-name="Path 1520" d="M352.08,158.487a2.443,2.443,0,0,1-1.748,2.339l-.464-3.717h1.785a2.427,2.427,0,0,1,.427,1.378Zm0,0" transform="translate(-327.815 -146.739)" fill="#e39f6e"/>
      <path id="Path_1521" data-name="Path 1521" d="M338.574,149.314a4.752,4.752,0,0,0,3.13.9.256.256,0,0,0,.263-.257v-.339a5.306,5.306,0,0,0,2.589.6.256.256,0,0,0,.263-.257v-.192a6.047,6.047,0,0,0,2.734.451.257.257,0,0,0,.26-.257v-1.246a.3.3,0,0,0-.3-.3h-8.048A.9.9,0,0,0,338.574,149.314Zm0,0" transform="translate(-317.233 -138.595)" fill="#ba6f3c"/>
      <path id="Path_1522" data-name="Path 1522" d="M19.11,307.368H7.5v-5.131a2.753,2.753,0,0,1,2.753-2.753h6.1a2.753,2.753,0,0,1,2.753,2.753Zm0,0" transform="translate(-7.027 -280.14)" fill="#4fceb7"/>
      <path id="Path_1523" data-name="Path 1523" d="M86.7,271a.938.938,0,0,1-.938-.938V267.43h1.877v2.632A.938.938,0,0,1,86.7,271Zm0,0" transform="translate(-80.355 -250.105)" fill="#e39f6e"/>
      <path id="Path_1524" data-name="Path 1524" d="M16.357,94.984h9.928l.262-1.277a5.335,5.335,0,1,0-10.452,0Zm0,0" transform="translate(-14.977 -81.33)" fill="#ba6f3c"/>
      <path id="Path_1525" data-name="Path 1525" d="M150.632,198.349a1.263,1.263,0,0,1-2.527,0,1.221,1.221,0,0,1,.039-.309,1.263,1.263,0,0,1,2.454.022,1.243,1.243,0,0,1,.033.287Zm0,0" transform="translate(-138.77 -184.196)" fill="#e39f6e"/>
      <path id="Path_1526" data-name="Path 1526" d="M151.173,198.062a2.435,2.435,0,0,1-2.454-.022,1.263,1.263,0,0,1,2.454.022Zm0,0" transform="translate(-139.345 -184.195)" fill="#d88852"/>
      <path id="Path_1527" data-name="Path 1527" d="M15.632,198.349a1.263,1.263,0,1,1-1.263-1.263A1.263,1.263,0,0,1,15.632,198.349Zm0,0" transform="translate(-12.279 -184.196)" fill="#e39f6e"/>
      <path id="Path_1528" data-name="Path 1528" d="M37.566,161.07l.6,4.782a3.405,3.405,0,0,0,6.758,0l.166-1.327.431-3.455Zm0,0" transform="translate(-35.198 -150.45)" fill="#f8c298"/>
      <path id="Path_1529" data-name="Path 1529" d="M130.07,161.07a2.437,2.437,0,0,0,1.43,3.455l.431-3.455Zm0,0" transform="translate(-121.612 -150.45)" fill="#e39f6e"/>
      <path id="Path_1530" data-name="Path 1530" d="M25.777,149.314a4.752,4.752,0,0,0,3.13.9.256.256,0,0,0,.263-.257v-.339a5.306,5.306,0,0,0,2.589.6.256.256,0,0,0,.263-.257v-.192a6.049,6.049,0,0,0,2.734.451.257.257,0,0,0,.26-.257v-1.246a.3.3,0,0,0-.3-.3H26.673a.9.9,0,0,0-.9.9Zm0,0" transform="translate(-24.152 -138.595)" fill="#ba6f3c"/>
      <path id="Path_1531" data-name="Path 1531" d="M150,297.812h-15.29v-6.757a3.625,3.625,0,0,1,3.625-3.625h8.04A3.625,3.625,0,0,1,150,291.056Zm0,0" transform="translate(-126.216 -268.845)" fill="#a9d2f7"/>
      <path id="Path_1532" data-name="Path 1532" d="M181.559,289.2v1.569h.952l-.537,1.849,1.666,2.233V287.43Zm0,0" transform="translate(-170.115 -268.846)" fill="#5f9eeb"/>
      <path id="Path_1533" data-name="Path 1533" d="M302.253,289.2v1.569H301.3l.537,1.849-1.666,2.233V287.43Zm0,0" transform="translate(-281.251 -268.846)" fill="#5f9eeb"/>
      <path id="Path_1534" data-name="Path 1534" d="M214.582,287.43h5.395v10.382h-5.395Zm0,0" transform="translate(-201.057 -268.845)" fill="#627687"/>
      <path id="Path_1535" data-name="Path 1535" d="M305.033,291.055v6.757H303.8v-6.757a3.626,3.626,0,0,0-3.625-3.625h1.236a3.625,3.625,0,0,1,3.625,3.625Zm0,0" transform="translate(-281.252 -268.845)" fill="#7fb7ea"/>
      <path id="Path_1536" data-name="Path 1536" d="M239.009,249.917a1.236,1.236,0,0,1-1.236-1.236v-3.466h2.471v3.466A1.236,1.236,0,0,1,239.009,249.917Zm0,0" transform="translate(-222.786 -229.29)" fill="#f8c298"/>
      <path id="Path_1537" data-name="Path 1537" d="M146.371,18.114h13.075l.345-1.682a7.025,7.025,0,1,0-13.764,0Zm0,0" transform="translate(-136.686 -7.024)" fill="#ffcf64"/>
      <path id="Path_1538" data-name="Path 1538" d="M323.2,154.238a1.664,1.664,0,1,1-1.664-1.664A1.664,1.664,0,0,1,323.2,154.238Zm0,0" transform="translate(-299.713 -142.49)" fill="#f8c298"/>
      <path id="Path_1539" data-name="Path 1539" d="M145.418,154.238a1.664,1.664,0,1,1-1.664-1.664A1.664,1.664,0,0,1,145.418,154.238Zm0,0" transform="translate(-133.134 -142.49)" fill="#f8c298"/>
      <path id="Path_1540" data-name="Path 1540" d="M178.4,105.386l.514,4.113a4.484,4.484,0,0,0,8.9,0l.514-4.113a2.06,2.06,0,0,0-2.044-2.315H180.44A2.06,2.06,0,0,0,178.4,105.386Zm0,0" transform="translate(-167.136 -96.106)" fill="#ffd6c0"/>
      <path id="Path_1541" data-name="Path 1541" d="M167.539,91.9v2.227a.387.387,0,0,0,.391.388,9.359,9.359,0,0,0,5.312-1.579,9.358,9.358,0,0,0,5.312,1.579.387.387,0,0,0,.391-.388V91.9Zm0,0" transform="translate(-156.979 -85.638)" fill="#ffcf64"/>
      <path id="Path_1542" data-name="Path 1542" d="M29.046,18.872H27.471v-.281a3.888,3.888,0,0,0,2.374-2.766,1.735,1.735,0,0,0,1.79-2.8l.114-.557a5.748,5.748,0,0,0-.942-4.511.473.473,0,1,0-.773.545,4.81,4.81,0,0,1,.788,3.776l-.041.2a1.731,1.731,0,0,0-.467-.065h-.027l.047-.375a.472.472,0,0,0-.19-.9,5.911,5.911,0,0,1-2.317-.38.458.458,0,0,0-.473-.016.47.47,0,0,0-.241.389,4.827,4.827,0,0,1-2.12-.508.473.473,0,0,0-.732.4v.114q-.2-.011-.4-.031a2.138,2.138,0,0,0-.461-.8l.165-.806a7.514,7.514,0,0,0,.1-2.432,4.874,4.874,0,0,1,5.013.135.473.473,0,1,0,.511-.8,5.823,5.823,0,0,0-5.71-.311A7.5,7.5,0,0,0,11.7,2.019a.473.473,0,1,0,.572.753A6.554,6.554,0,0,1,22.642,9.313l-.088.427a2.122,2.122,0,0,0-.729-.128q-.1,0-.206.01l.035-.278a.859.859,0,0,0,.783-.857v-1.1a.473.473,0,1,0-.945,0V8.4a8.852,8.852,0,0,1-4.945-1.483.473.473,0,0,0-.569,0A8.852,8.852,0,0,1,11.033,8.4V7.387a.473.473,0,1,0-.945,0v1.1a.86.86,0,0,0,.7.846v0l.035.283q-.1-.01-.206-.01a2.127,2.127,0,0,0-.729.128L9.8,9.313a6.476,6.476,0,0,1,1.119-5.169.473.473,0,1,0-.764-.556,7.487,7.487,0,0,0-1.2,2.529,5.809,5.809,0,0,0-8.3,6.355l.114.557a1.734,1.734,0,0,0,1.79,2.8,3.889,3.889,0,0,0,2.374,2.767v.281H3.226A3.229,3.229,0,0,0,0,22.1v5.131a.473.473,0,0,0,.945,0V22.1a2.283,2.283,0,0,1,2.28-2.28H4.933v.139a1.411,1.411,0,0,0,2.822,0v-.139H8.792a4.076,4.076,0,0,0-.774,2.393v6.757a.473.473,0,1,0,.945,0V22.21a3.156,3.156,0,0,1,3.153-3.153h.125l-1.1.941a.472.472,0,0,0-.166.36v1.569a.473.473,0,0,0,.473.473h.323l-.361,1.244a.473.473,0,0,0,.075.415l1.572,2.107v2.8a.473.473,0,0,0,.945,0V19.058h.516v.333a1.708,1.708,0,0,0,3.417,0v-.333h.516v9.909a.473.473,0,0,0,.945,0v-2.8l1.572-2.107a.472.472,0,0,0,.075-.415L20.679,22.4H21a.473.473,0,0,0,.473-.473V20.358a.473.473,0,0,0-.166-.36l-1.1-.939a3.156,3.156,0,0,1,3.1,3.151v1.773a.473.473,0,0,0,.945,0V22.21a4.076,4.076,0,0,0-.774-2.393h1.169v.139a1.411,1.411,0,0,0,2.822,0v-.139h1.576a2.283,2.283,0,0,1,2.28,2.28v5.131a.473.473,0,0,0,.945,0V22.1a3.229,3.229,0,0,0-3.225-3.226Zm1.268-5.509a.791.791,0,1,1-.333,1.507l.186-1.493a.807.807,0,0,1,.146-.014Zm-5.858-1.27h.019a.733.733,0,0,0,.641-.378,7.136,7.136,0,0,0,2.19.377.739.739,0,0,0,.531-.206.759.759,0,0,0,.076-.086,7.7,7.7,0,0,0,1.468.249l-.411,3.295a2.932,2.932,0,0,1-5.819,0l-.221-1.767a2.14,2.14,0,0,0,1.009-1.512q.254.021.517.028Zm-3.438,2q.031-.117.055-.236a.785.785,0,0,1,.045-.09,2.132,2.132,0,0,0,.708.121c.064,0,.126,0,.188-.009l.124.994a.79.79,0,0,1-1.124-.717c0-.021,0-.042,0-.063Zm.808-3.533a1.191,1.191,0,0,1,0,2.382,1.179,1.179,0,0,1-.6-.163L21.5,10.6a1.186,1.186,0,0,1,.329-.047ZM16.263,7.876a9.553,9.553,0,0,0,4.443,1.43l-.5,4.028a4.011,4.011,0,0,1-7.961,0l-.5-4.021a9.6,9.6,0,0,0,4.522-1.436Zm-5.872,6a2.118,2.118,0,0,0,.9-.1.791.791,0,0,1-1.027,1.1Zm.558-3.269.272,2.173a1.176,1.176,0,0,1-.6.163,1.191,1.191,0,1,1,.329-2.336ZM2.577,8.232a4.868,4.868,0,0,1,6.2-1.141,7.537,7.537,0,0,0,.1,2.412l.165.806a2.143,2.143,0,0,0-.4.631,2.536,2.536,0,0,1-.531-.175.458.458,0,0,0-.473-.016.47.47,0,0,0-.241.389,4.833,4.833,0,0,1-2.121-.508.473.473,0,0,0-.732.4v.114a5.633,5.633,0,0,1-2.109-.465A.473.473,0,0,0,2,11.513l.113.905H2.09a1.731,1.731,0,0,0-.467.064l-.041-.2a4.843,4.843,0,0,1,1-4.05ZM1.3,14.154a.792.792,0,0,1,.791-.791.8.8,0,0,1,.146.014l.187,1.494A.79.79,0,0,1,1.3,14.154Zm2.136,1.19L3,11.867a8,8,0,0,0,1.74.226H4.76a.733.733,0,0,0,.641-.378,7.134,7.134,0,0,0,2.19.377.738.738,0,0,0,.531-.206A.753.753,0,0,0,8.2,11.8c.086.025.182.05.291.075a2.138,2.138,0,0,0,.99,1.678l-.224,1.791a2.932,2.932,0,0,1-5.819,0Zm2.91,5.079a.466.466,0,0,1-.466-.466V18.829a3.881,3.881,0,0,0,.466.029,3.831,3.831,0,0,0,.466-.029v1.128A.466.466,0,0,1,6.344,20.422Zm6.035,3.26.471-1.623a.473.473,0,0,0-.454-.6h-.48v-.878l1.136-.968v4.976Zm-.263-5.57a4.074,4.074,0,0,0-2.4.783,3.281,3.281,0,0,0-.381-.023H7.755v-.281a3.888,3.888,0,0,0,2.374-2.767,1.725,1.725,0,0,0,1.786-.539,4.984,4.984,0,0,0,2.6,2.2v.624Zm4.107,2.041a.764.764,0,0,1-.763-.763V17.733a4.876,4.876,0,0,0,1.526,0V19.39A.764.764,0,0,1,16.223,20.153Zm4.306,1.3h-.48a.473.473,0,0,0-.454.6l.471,1.623-.674.9V19.609l1.136.968Zm2.412-2.582a3.278,3.278,0,0,0-.381.023,4.074,4.074,0,0,0-2.4-.783H17.931v-.624a4.982,4.982,0,0,0,2.584-2.176,1.727,1.727,0,0,0,1.76.512,3.888,3.888,0,0,0,2.374,2.767v.281Zm3.119,1.55a.466.466,0,0,1-.466-.466V18.829a3.878,3.878,0,0,0,.466.029,3.834,3.834,0,0,0,.466-.029v1.128A.466.466,0,0,1,26.06,20.422Zm0,0"/>
      <path id="Path_1543" data-name="Path 1543" d="M376.517,205.787l.006.2a.473.473,0,0,0,.472.46h.013a.473.473,0,0,0,.46-.486l-.005-.2a.473.473,0,1,0-.945.026Zm0,0" transform="translate(-352.785 -191.893)"/>
      <path id="Path_1544" data-name="Path 1544" d="M435.76,206.446h.013a.473.473,0,0,0,.46-.486l-.005-.2a.473.473,0,1,0-.945.026l.005.2A.473.473,0,0,0,435.76,206.446Zm0,0" transform="translate(-407.846 -191.892)"/>
      <path id="Path_1545" data-name="Path 1545" d="M388.172,228.253a1.862,1.862,0,0,0,3.018,0,.473.473,0,0,0-.766-.554.916.916,0,0,1-1.486,0,.473.473,0,0,0-.766.554Zm0,0" transform="translate(-363.62 -212.695)"/>
      <path id="Path_1546" data-name="Path 1546" d="M461.9,348.883a.473.473,0,0,0-.473.473v4.3a.473.473,0,0,0,.945,0v-4.3A.473.473,0,0,0,461.9,348.883Zm0,0" transform="translate(-432.342 -326.425)"/>
      <path id="Path_1547" data-name="Path 1547" d="M64.675,205.961l-.006-.2a.473.473,0,1,0-.945.026l.005.2a.473.473,0,0,0,.472.46h.013A.473.473,0,0,0,64.675,205.961Zm0,0" transform="translate(-59.707 -191.892)"/>
      <path id="Path_1548" data-name="Path 1548" d="M122.963,206.446h.013a.473.473,0,0,0,.46-.486l-.005-.2a.473.473,0,1,0-.945.026l.006.2A.473.473,0,0,0,122.963,206.446Zm0,0" transform="translate(-114.765 -191.892)"/>
      <path id="Path_1549" data-name="Path 1549" d="M78.392,228.253a.473.473,0,0,0-.766-.554.916.916,0,0,1-1.486,0,.473.473,0,1,0-.766.554,1.862,1.862,0,0,0,3.018,0Zm0,0" transform="translate(-70.539 -212.695)"/>
      <path id="Path_1550" data-name="Path 1550" d="M36.047,348.883a.473.473,0,0,0-.473.473v4.3a.473.473,0,0,0,.945,0v-4.3A.473.473,0,0,0,36.047,348.883Zm0,0" transform="translate(-33.332 -326.425)"/>
      <path id="Path_1551" data-name="Path 1551" d="M370.266,397.57a.473.473,0,0,0-.473.473v2.967a.473.473,0,1,0,.945,0v-2.967A.473.473,0,0,0,370.266,397.57Zm0,0" transform="translate(-346.484 -372.043)"/>
      <path id="Path_1552" data-name="Path 1552" d="M211.606,166.983h.013a.473.473,0,0,0,.46-.486l-.007-.264a.473.473,0,1,0-.945.026l.007.264A.473.473,0,0,0,211.606,166.983Zm0,0" transform="translate(-197.818 -154.857)"/>
      <path id="Path_1553" data-name="Path 1553" d="M288.993,166.983h.013a.473.473,0,0,0,.459-.486l-.007-.264a.473.473,0,1,0-.945.026l.007.264A.473.473,0,0,0,288.993,166.983Zm0,0" transform="translate(-270.327 -154.857)"/>
      <path id="Path_1554" data-name="Path 1554" d="M228.31,196.715a2.31,2.31,0,0,0,1.866-.954.473.473,0,0,0-.766-.554,1.356,1.356,0,0,1-2.2,0,.473.473,0,0,0-.766.554A2.31,2.31,0,0,0,228.31,196.715Zm0,0" transform="translate(-212.087 -182.251)"/>
      <path id="Path_1555" data-name="Path 1555" d="M174.532,385.328a.473.473,0,0,0-.473.473v3.739a.473.473,0,0,0,.945,0V385.8A.473.473,0,0,0,174.532,385.328Zm0,0" transform="translate(-163.088 -360.573)"/>
      <path id="Path_1556" data-name="Path 1556" d="M323.414,385.328a.473.473,0,0,0-.473.473v3.739a.473.473,0,0,0,.945,0V385.8A.473.473,0,0,0,323.414,385.328Zm0,0" transform="translate(-302.586 -360.573)"/>
    </g>
  </g>
</svg>
