<svg id="home-bg-mobile" xmlns="http://www.w3.org/2000/svg" xmlns:xlink="http://www.w3.org/1999/xlink" width="375" height="530.994" viewBox="0 0 375 530.994">
  <defs>
    <linearGradient id="linear-gradient" x1="0.5" y1="1" x2="0.5" gradientUnits="objectBoundingBox">
      <stop offset="0" stop-color="gray" stop-opacity="0.251"/>
      <stop offset="0.54" stop-color="gray" stop-opacity="0.122"/>
      <stop offset="1" stop-color="gray" stop-opacity="0.102"/>
    </linearGradient>
    <linearGradient id="linear-gradient-2" x1="0.5" y1="1" x2="0.5" y2="0" xlink:href="#linear-gradient"/>
  </defs>
  <path id="Path_1572" data-name="Path 1572" d="M0,0H375V217.293L0,527.221Z" fill="#29b6f6"/>
  <g id="undraw_doctors_hwty" transform="translate(142.51 374.996)">
    <path id="Path_1269" data-name="Path 1269" d="M90.65,356.76H109v25.008h-17c-.043.259-.087.515-.136.774H109v20.165a.258.258,0,0,1-.085-.033q-.723-.287-1.446-.609c-.1-.047-.2-.1-.309-.141q-.723-.342-1.446-.723c-.168-.089-.336-.181-.5-.275A30.089,30.089,0,0,1,98,395.311c-.063-.06-.121-.125-.181-.181-.293-.318-.58-.64-.859-.969-.1-.121-.206-.244-.309-.362-.329-.4-.647-.817-.955-1.235-.047-.063-.09-.125-.136-.181a26.706,26.706,0,0,1-3.11-5.622c-.025-.06-.049-.125-.072-.181-.249-.633-.475-1.275-.671-1.929-.083-.273-.165-.542-.233-.826-.025-.081-.045-.164-.067-.246a49.9,49.9,0,0,1-1.134-12.308v-1.446q.022-2.536.06-5.067.014-.651.027-1.307.038-1.661.108-3.33c.011-.307.025-.617.042-.922q.011-.266.027-.532Q90.583,357.707,90.65,356.76Z" transform="translate(-76.432 -295.615)" fill="#6c63ff" opacity="0.1"/>
    <path id="Path_1270" data-name="Path 1270" d="M148.244,145.117H138.18a76.606,76.606,0,0,1,5.353-7.365c1.5-1.837,3.073-3.627,4.711-5.351Z" transform="translate(-115.681 -111.817)" fill="#017bff" opacity="0.1"/>
    <path id="Path_1271" data-name="Path 1271" d="M110.978,207v26.3H92.69c0-.076.011-.154.018-.23.016-.208.033-.414.051-.622.018-.242.042-.484.065-.723s.047-.528.076-.79.052-.528.081-.79.058-.524.09-.785.061-.524.1-.785c.027-.215.054-.432.085-.649.042-.306.085-.611.13-.915a.871.871,0,0,1,.022-.137,63.083,63.083,0,0,1,1.345-6.6,48.884,48.884,0,0,1,2.269-6.689A50.233,50.233,0,0,1,100.433,207Z" transform="translate(-78.415 -172.93)" fill="#017bff" opacity="0.1"/>
    <path id="Path_1272" data-name="Path 1272" d="M218.09,79.7v25.008h39.187V79.7Zm0,25.782v21.478c.224.045.445.09.667.128.3.058.6.11.9.155l.181.025c.119.02.24.036.362.051.3.043.6.076.9.1.141.014.287.025.43.038l.349.025h0c.19.014.378.025.566.033.116,0,.231.009.349.013s.181,0,.275,0h1.005c.155,0,.311,0,.465-.014h.009a2.767,2.767,0,0,0,.324-.013.791.791,0,0,0,.092,0,2.178,2.178,0,0,0,.268-.011.381.381,0,0,1,.061,0c.2-.013.4-.029.607-.047s.4-.04.6-.061l.41-.051a36,36,0,0,0,4.963-1.056c3.657-1.02,7.232-2.446,10.887-3.489,4.722-1.347,9.943-2.01,14.506-.371V105.487ZM257.277,51.86V18.566a50.355,50.355,0,0,0-12.731,1.491c-9.923,2.493-18.834,7.9-26.456,14.806V51.858h1.972v.772H218.09v26.3h39.187V52.63H228.131v-.774Zm50.346-11.247a16.223,16.223,0,0,1-7.1-2.065c-4.22-2.294-7.593-5.841-11.361-8.831a52.163,52.163,0,0,0-27.5-10.927V51.86H317.6l.139-.146Zm5.1-.9,5.4,5.932V38.149a21.634,21.634,0,0,0-5.4,1.553Zm5.4,92.588V105.487H306.6c-.029-.114-.061-.23-.1-.345.034.116.065.231.1.345H261.661v19.388c.427.316.848.651,1.266.987h0q.676.553,1.343,1.119l.448.371c.215.181.434.362.651.533q.653.526,1.314,1.041.331.26.665.512a90.768,90.768,0,0,0,11.144,7.288c.871.486,1.752.955,2.638,1.412q.884.456,1.781.893,1.345.656,2.712,1.266h0a99.541,99.541,0,0,0,26.395,7.687q3.034.447,6.094.705V132.294h.181ZM261.661,52.63v26.3h56.462V52.63Zm0,27.071v25.012h56.462V79.7Zm60.844-41.588v8.37l6.9-7.57Q325.973,38.348,322.505,38.113Zm0,41.592v25.008h54.914V79.7Zm54.721,54.576.193-28.794H322.505v43.492a98.945,98.945,0,0,0,10.612-.128h.062q2.531-.163,5.039-.463h.038a92.652,92.652,0,0,0,25.894-6.917m23.864-57.658q-.313-.723-.642-1.446c-.409-.9-.839-1.783-1.284-2.659H381.8v25.006h10.831a54.115,54.115,0,0,0-4.621-20.9Zm-6.21,21.675v24.768a35.442,35.442,0,0,0,7.485-10.1,34.746,34.746,0,0,0,3.339-14.674Zm0-33.07v6.508h3.883a70.71,70.71,0,0,0-3.883-6.508Zm-37.242-29.4c-.286-.11-.573-.221-.861-.325a78.13,78.13,0,0,0-9.274-2.788L323.872,51.489h0l-.206.222.136.146h37.564a80.253,80.253,0,0,0-16.8-8.837Zm17.907,9.609H323.276l-.77.7v25.6h54.914v-12.4a78.188,78.188,0,0,0-14.951-13.9Z" transform="translate(-181.144 -18.56)" fill="#017bff" opacity="0.1"/>
    <path id="Path_1273" data-name="Path 1273" d="M110.978,280.39v13.033H92.69c0-.076.011-.154.018-.23.016-.208.033-.414.051-.622.018-.242.042-.484.065-.723s.047-.528.076-.79.052-.528.081-.79.058-.524.09-.785.061-.524.1-.785c.027-.215.054-.432.085-.649.042-.306.085-.611.13-.915a.871.871,0,0,1,.022-.137,63.08,63.08,0,0,1,1.345-6.6Z" transform="translate(-78.415 -233.052)" fill="#017bff" opacity="0.1"/>
    <path id="Path_1274" data-name="Path 1274" d="M90.65,356.76H109v25.008h-17c-.043.259-.087.515-.136.774H109v20.165a.258.258,0,0,1-.085-.033q-.723-.287-1.446-.609c-.1-.047-.2-.1-.309-.141q-.723-.342-1.446-.723c-.168-.089-.336-.181-.5-.275A30.089,30.089,0,0,1,98,395.311c-.063-.06-.121-.125-.181-.181-.293-.318-.58-.64-.859-.969-.1-.121-.206-.244-.309-.362-.329-.4-.647-.817-.955-1.235-.047-.063-.09-.125-.136-.181a26.706,26.706,0,0,1-3.11-5.622c-.025-.06-.049-.125-.072-.181-.249-.633-.475-1.275-.671-1.929-.083-.273-.165-.542-.233-.826-.025-.081-.045-.164-.067-.246a49.9,49.9,0,0,1-1.134-12.308v-1.446q.022-2.536.06-5.067.014-.651.027-1.307.038-1.661.108-3.33c.011-.307.025-.617.042-.922q.011-.266.027-.532Q90.583,357.707,90.65,356.76Z" transform="translate(-76.432 -295.615)" fill="#017bff" opacity="0.1"/>
    <path id="Path_1275" data-name="Path 1275" d="M215.926,174.709v22.533h-13.8V174.709H204.1V167.08h8.074v7.629Z" transform="translate(-165.186 -136.872)" fill="#017bff" opacity="0.1"/>
    <rect id="Rectangle_434" data-name="Rectangle 434" width="13.794" height="25.008" transform="translate(36.944 61.143)" fill="#017bff" opacity="0.1"/>
    <path id="Path_1276" data-name="Path 1276" d="M218.09,499.37h13.794v20.791a35.73,35.73,0,0,1-4.963,1.054c-.137.02-.273.036-.41.051-.2.023-.4.045-.6.063l-.606.049h-.061l-.268.015h-.092c-.108,0-.215.013-.324.014h-.009c-.155,0-.309.011-.465.015H222.8a2.833,2.833,0,0,1-.351-.015q-.278-.011-.564-.033h0l-.349-.025c-.145-.011-.289-.025-.432-.04q-.456-.04-.9-.1l-.362-.051-.181-.025c-.3-.045-.6-.1-.9-.154-.224-.04-.445-.085-.667-.132Z" transform="translate(-181.144 -412.443)" fill="#017bff" opacity="0.1"/>
    <rect id="Rectangle_435" data-name="Rectangle 435" width="11.375" height="25.193" transform="translate(125.602 35.177)" fill="#6c63ff" opacity="0.1"/>
    <path id="Path_1277" data-name="Path 1277" d="M499.612,338.19V363.2H443.15V352.413h30.074v6.364h15.011V338.19Z" transform="translate(-362.633 -277.047)" fill="#6c63ff" opacity="0.1"/>
    <path id="Path_1278" data-name="Path 1278" d="M515.741,524.621a1.02,1.02,0,0,1-.181-.011v16.406q-3.057-.251-6.093-.7a99.672,99.672,0,0,1-26.406-7.683q-3.639-1.642-7.13-3.578a91.1,91.1,0,0,1-11.142-7.288q-1.334-1.02-2.629-2.084c-.6-.5-1.191-1-1.8-1.491-.416-.338-.837-.673-1.266-.991V497.805h44.936c-.033-.116-.061-.23-.094-.345.034.116.067.23.1.345h11.523v26.8C515.621,524.611,515.681,524.616,515.741,524.621Z" transform="translate(-378.583 -410.878)" fill="#6c63ff" opacity="0.1"/>
    <path id="Path_1279" data-name="Path 1279" d="M901.922,161.214H894.51v-2.3h3.321V152.05q.432.159.86.325v6.535h3.229Z" transform="translate(-735.276 -127.914)" fill="#6c63ff" opacity="0.1"/>
    <path id="Path_1280" data-name="Path 1280" d="M838.795,233.3H795.65V208.108h1.913v18.621H806.3V215.7h7.222V207h7.412v8.707h7.219v11.028H838.8Z" transform="translate(-654.289 -172.93)" fill="#6c63ff" opacity="0.1"/>
    <path id="Path_1281" data-name="Path 1281" d="M795.65,356.76v25.008H838.8V356.76ZM850.5,411.2l.061-19.8H838.8v-8.859H795.65v43.485a98.937,98.937,0,0,0,10.612-.128h.062q2.531-.163,5.039-.463h.038a92.652,92.652,0,0,0,25.894-6.917" transform="translate(-654.289 -295.615)" fill="#6c63ff" opacity="0.1"/>
    <path id="Path_1282" data-name="Path 1282" d="M1124.409,499.37h10.064a34.76,34.76,0,0,1-3.339,14.673,35.422,35.422,0,0,1-7.484,10.1V508.23h.759Z" transform="translate(-922.991 -412.443)" fill="#6c63ff" opacity="0.1"/>
    <path id="Path_1283" data-name="Path 1283" d="M1137.922,400.381H1127.85v-20.9h5.451A54.116,54.116,0,0,1,1137.922,400.381Z" transform="translate(-926.432 -314.228)" fill="#6c63ff" opacity="0.1"/>
    <rect id="Rectangle_436" data-name="Rectangle 436" width="6.094" height="7.899" transform="translate(130.884 42.18)" fill="#6c63ff" opacity="0.1"/>
    <rect id="Rectangle_437" data-name="Rectangle 437" width="6.094" height="1.819" transform="translate(130.884 58.552)" fill="#6c63ff" opacity="0.1"/>
    <rect id="Rectangle_438" data-name="Rectangle 438" width="6.094" height="5.306" transform="translate(130.884 61.143)" fill="#6c63ff" opacity="0.1"/>
    <rect id="Rectangle_439" data-name="Rectangle 439" width="6.094" height="7.899" transform="translate(130.884 74.924)" fill="#6c63ff" opacity="0.1"/>
    <rect id="Rectangle_440" data-name="Rectangle 440" width="6.094" height="7.899" transform="translate(130.884 91.296)" fill="#6c63ff" opacity="0.1"/>
    <path id="Path_1284" data-name="Path 1284" d="M743.794,620.162a.875.875,0,0,1,.181.013,1.02,1.02,0,0,1-.181-.011V622H737.7v-7.9h6.094Z" transform="translate(-606.816 -506.431)" fill="#6c63ff" opacity="0.1"/>
    <path id="Path_1285" data-name="Path 1285" d="M743.794,704.65v6.1q-3.059-.251-6.094-.7v-5.4Z" transform="translate(-606.816 -580.611)" fill="#6c63ff" opacity="0.1"/>
    <rect id="Rectangle_441" data-name="Rectangle 441" width="26.118" height="0.58" transform="translate(80.517 85.573)" fill="#6c63ff" opacity="0.1"/>
    <rect id="Rectangle_442" data-name="Rectangle 442" width="26.118" height="2.224" transform="translate(80.517 86.925)" fill="#6c63ff" opacity="0.1"/>
    <rect id="Rectangle_443" data-name="Rectangle 443" width="26.118" height="3.576" transform="translate(80.517 96.438)" fill="#6c63ff" opacity="0.1"/>
    <path id="Path_1286" data-name="Path 1286" d="M490.953,612.08v3.576H470.524q-1.334-1.016-2.629-2.086c-.6-.494-1.193-1-1.8-1.49Z" transform="translate(-384.317 -504.777)" fill="#6c63ff" opacity="0.1"/>
    <path id="Path_1287" data-name="Path 1287" d="M561.487,672.17v3.585H559.33q-3.639-1.642-7.13-3.578Z" transform="translate(-454.852 -554.003)" fill="#6c63ff" opacity="0.1"/>
    <rect id="Rectangle_444" data-name="Rectangle 444" width="5.142" height="5.142" transform="translate(151.973 63.567)" fill="#6c63ff" opacity="0.1"/>
    <rect id="Rectangle_445" data-name="Rectangle 445" width="5.142" height="5.142" transform="translate(40.648 39.611)" fill="#6c63ff" opacity="0.1"/>
    <rect id="Rectangle_446" data-name="Rectangle 446" width="5.142" height="5.142" transform="translate(40.648 51.554)" fill="#6c63ff" opacity="0.1"/>
    <rect id="Rectangle_447" data-name="Rectangle 447" width="5.142" height="5.142" transform="translate(40.648 63.497)" fill="#6c63ff" opacity="0.1"/>
    <rect id="Rectangle_448" data-name="Rectangle 448" width="5.142" height="5.142" transform="translate(40.648 75.438)" fill="#6c63ff" opacity="0.1"/>
    <rect id="Rectangle_449" data-name="Rectangle 449" width="5.142" height="5.142" transform="translate(40.648 87.381)" fill="#6c63ff" opacity="0.1"/>
    <rect id="Rectangle_450" data-name="Rectangle 450" width="5.142" height="5.142" transform="translate(40.648 99.323)" fill="#6c63ff" opacity="0.1"/>
    <rect id="Rectangle_451" data-name="Rectangle 451" width="5.142" height="5.142" transform="translate(171.601 63.567)" fill="#6c63ff" opacity="0.1"/>
    <rect id="Rectangle_452" data-name="Rectangle 452" width="5.142" height="5.142" transform="translate(151.973 76.25)" fill="#6c63ff" opacity="0.1"/>
    <rect id="Rectangle_453" data-name="Rectangle 453" width="5.142" height="5.142" transform="translate(171.601 76.25)" fill="#6c63ff" opacity="0.1"/>
    <rect id="Rectangle_454" data-name="Rectangle 454" width="5.142" height="5.142" transform="translate(151.973 88.93)" fill="#6c63ff" opacity="0.1"/>
    <rect id="Rectangle_455" data-name="Rectangle 455" width="5.142" height="5.142" transform="translate(171.601 88.93)" fill="#6c63ff" opacity="0.1"/>
    <rect id="Rectangle_456" data-name="Rectangle 456" width="5.142" height="5.142" transform="translate(151.973 101.612)" fill="#6c63ff" opacity="0.1"/>
    <rect id="Rectangle_457" data-name="Rectangle 457" width="5.142" height="5.142" transform="translate(171.601 101.612)" fill="#6c63ff" opacity="0.1"/>
    <rect id="Rectangle_458" data-name="Rectangle 458" width="5.142" height="5.142" transform="translate(151.973 114.294)" fill="#6c63ff" opacity="0.1"/>
    <rect id="Rectangle_459" data-name="Rectangle 459" width="5.142" height="5.142" transform="translate(171.601 114.294)" fill="#6c63ff" opacity="0.1"/>
    <path id="Path_1288" data-name="Path 1288" d="M838.4,705.646V702.33h5.14v2.844Z" transform="translate(-686.427 -575.355)" fill="#6c63ff" opacity="0.1"/>
    <path id="Path_1289" data-name="Path 1289" d="M96.53,316.91v2.941h17.594V316.91Zm1.752,2.757H96.836V317.1h1.446Zm1.752,0H98.587V317.1h1.446Zm1.748,0h-1.446V317.1h1.446Zm1.752,0h-1.446V317.1h1.446Zm1.75,0h-1.446V317.1h1.446Zm1.752,0h-1.446V317.1h1.446Zm1.752,0h-1.446V317.1h1.446Zm1.75,0h-1.446V317.1h1.446Zm1.75,0h-1.446V317.1h1.446Zm1.752,0h-1.446V317.1h1.446Z" transform="translate(-81.561 -262.97)" fill="#6c63ff" opacity="0.1"/>
    <path id="Path_1290" data-name="Path 1290" d="M96.53,364.27v2.941h17.594V364.27Zm1.752,2.757H96.836v-2.571h1.446Zm1.752,0H98.587v-2.571h1.446Zm1.748,0h-1.446v-2.571h1.446Zm1.752,0h-1.446v-2.571h1.446Zm1.75,0h-1.446v-2.571h1.446Zm1.752,0h-1.446v-2.571h1.446Zm1.752,0h-1.446v-2.571h1.446Zm1.75,0h-1.446v-2.571h1.446Zm1.75,0h-1.446v-2.571h1.446Zm1.752,0h-1.446v-2.571h1.446Z" transform="translate(-81.561 -301.768)" fill="#6c63ff" opacity="0.1"/>
    <path id="Path_1291" data-name="Path 1291" d="M96.53,411.64v2.94h17.594v-2.94Zm1.752,2.753H96.836v-2.571h1.446Zm1.752,0H98.587v-2.571h1.446Zm1.748,0h-1.446v-2.571h1.446Zm1.752,0h-1.446v-2.571h1.446Zm1.75,0h-1.446v-2.571h1.446Zm1.752,0h-1.446v-2.571h1.446Zm1.752,0h-1.446v-2.571h1.446Zm1.75,0h-1.446v-2.571h1.446Zm1.75,0h-1.446v-2.571h1.446Zm1.752,0h-1.446v-2.571h1.446Z" transform="translate(-81.561 -340.574)" fill="#6c63ff" opacity="0.1"/>
    <path id="Path_1292" data-name="Path 1292" d="M96.53,459v2.94h17.594V459Zm1.752,2.755H96.836v-2.574h1.446Zm1.752,0H98.587v-2.574h1.446Zm1.748,0h-1.446v-2.574h1.446Zm1.752,0h-1.446v-2.574h1.446Zm1.75,0h-1.446v-2.574h1.446Zm1.752,0h-1.446v-2.574h1.446Zm1.752,0h-1.446v-2.574h1.446Zm1.75,0h-1.446v-2.574h1.446Zm1.75,0h-1.446v-2.574h1.446Zm1.752,0h-1.446v-2.574h1.446Z" transform="translate(-81.561 -379.372)" fill="#6c63ff" opacity="0.1"/>
    <path id="Path_1293" data-name="Path 1293" d="M97,506.34c.069.278.15.553.233.826v-.64H98.68V509.1H97.9c.022.061.045.125.07.181h16.542V506.34Zm3.435,2.755H98.989v-2.569h1.446Zm1.748,0h-1.446v-2.569h1.446Zm1.752,0h-1.446v-2.569h1.446Zm1.75,0h-1.446v-2.569h1.446Zm1.752,0h-1.446v-2.569h1.446Zm1.752,0h-1.446v-2.569h1.446Zm1.75,0h-1.446v-2.569h1.446Zm1.75,0h-1.446v-2.569h1.446Zm1.752,0h-1.446v-2.569h1.446Z" transform="translate(-81.946 -418.153)" fill="#017bff" opacity="0.1"/>
    <path id="Path_1294" data-name="Path 1294" d="M119.54,553.7c.047.058.09.123.136.181h.956v1.235l.309.362v-1.6h1.446v2.592h-.595c.058.06.114.123.181.181h11V553.7Zm4.6,2.766H122.7v-2.582h1.446Zm1.752,0h-1.446v-2.582h1.446Zm1.752,0H126.2v-2.582h1.446Zm1.75,0H127.95v-2.582H129.4Zm1.75,0H129.7v-2.582h1.446Zm1.752,0h-1.446v-2.582H132.9Z" transform="translate(-100.411 -456.951)" fill="#6c63ff" opacity="0.1"/>
    <path id="Path_1295" data-name="Path 1295" d="M172.93,601.06c.166.094.334.181.5.273v-.09h1.446v.815c.1.045.2.094.307.141v-.956h1.446v1.566a.591.591,0,0,0,.085.031V601.06Z" transform="translate(-144.149 -495.749)" fill="#6c63ff" opacity="0.1"/>
    <path id="Path_1296" data-name="Path 1296" d="M338.2,229.795Zm-11.136,53.359ZM315.44,256.005c.034.116.065.231.1.345h0C315.508,256.237,315.476,256.121,315.44,256.005ZM338.2,229.795ZM229,202.724v.77h8.076v-.774Zm98.061,80.43ZM315.44,256.005c.034.116.065.231.1.345h0C315.508,256.237,315.476,256.121,315.44,256.005ZM338.2,229.795Zm-11.136,53.359ZM315.44,256.005c.034.116.065.231.1.345h0C315.508,256.237,315.476,256.121,315.44,256.005Z" transform="translate(-190.082 -169.424)" fill="#6c63ff" opacity="0.1"/>
    <ellipse id="Ellipse_341" data-name="Ellipse 341" cx="17.616" cy="2.829" rx="17.616" ry="2.829" transform="translate(141.775 150.34)" fill="#6c63ff" opacity="0.1"/>
    <ellipse id="Ellipse_342" data-name="Ellipse 342" cx="17.616" cy="2.829" rx="17.616" ry="2.829" transform="translate(62.326 147.51)" fill="#6c63ff" opacity="0.1"/>
    <path id="Path_1297" data-name="Path 1297" d="M425.762,305.328a.1.1,0,0,0-.027-.047c-.269-.266-3.7-5.123-3.7-5.123s-.181-.542-.474-1.247a1.24,1.24,0,0,0,.208-.407,1.4,1.4,0,0,0,.034-.19c0-.02.014-.036.02-.056a1.373,1.373,0,0,0-.018-.745,1.288,1.288,0,0,1-.074.181,3.021,3.021,0,0,0-.271-.6c-.456-.785-1.106-1.446-1.586-2.211a5.982,5.982,0,0,1-.815-3.97c0,.071,0,.143,0,.213a6.183,6.183,0,0,1,.108-.814,5.642,5.642,0,0,1,.3-.893c.43-.985,1.126-1.844,1.549-2.833a5.37,5.37,0,0,0,.322-1.036,5.8,5.8,0,0,0,.161-1.817,2.89,2.89,0,0,1-.045.432,5.884,5.884,0,0,0-1.661-3.918,9.779,9.779,0,0,0-5.626-2.365,5.154,5.154,0,0,1-2.368-.9,4.117,4.117,0,0,0-2.7-.515,4.449,4.449,0,0,0-2.746,1.358c-.964,1.059-1.381,2.56-2.506,3.453a11.124,11.124,0,0,1-2.339,1.164,3.132,3.132,0,0,0-1.8,1.7v.029l-.011.029c-.264.936.246,1.889.512,2.824a11.442,11.442,0,0,1,.309,2.988c.02,1.222.038,2.446.018,3.67-.009.481-.025.967-.062,1.446a7.58,7.58,0,0,0-1.242.5,24.6,24.6,0,0,0-1.92,1.9l-2.963,11.321.04.045-.04.154.15-.034a15.255,15.255,0,0,0,3.025,2.542l.127,2.22a3.946,3.946,0,0,0,2.2,3.148c.047.772.193,3.907-.484,5.149a5.785,5.785,0,0,0-.64,2.943,10.01,10.01,0,0,1-.033,2.875,4.7,4.7,0,0,0-.034,2.018h0v.595c0,2,.023,8.43,0,9.157-.034.859,0,13.559,0,13.559s-.168,6.347-.707,8.067-.4,7.412-.4,7.412-.338,6.781.857,8.119c0,.06-.011.121-.013.181v.085c-.014.515.085,1.063.528,1.231a7.564,7.564,0,0,1,2.325,1.687,4.219,4.219,0,0,0,3.254.842,24.492,24.492,0,0,1,3.234-.148h0s.676-.123.457-.964h0a7.529,7.529,0,0,0-1.045-1.86c.069.018.136.033.2.045l.065.013h.051a.675.675,0,0,0,.083,0h.036a.61.61,0,0,0,.1,0h0a4.537,4.537,0,0,1,2.448,1.266A3.31,3.31,0,0,0,412.3,380.2a15.415,15.415,0,0,0,2.692-.17,9.912,9.912,0,0,0,1.508-.275c.239-.09.289-.38.221-.705h0a1.835,1.835,0,0,0-.626-1.056,5.077,5.077,0,0,1-.965-1.2l-.076-.121c.5-.481,1.416-2.054,1.692-2.379.336-.4-.542-14.875-.542-14.875v-7.259l1.347-6.87.942-3.636.808-5.489s1.414-6.411.978-7.04h0c0-.013-.362-6.613-.741-8.2a17.978,17.978,0,0,1-.025-3.845.759.759,0,0,0,.181-.792,1.644,1.644,0,0,0-.1-.269v-.083a12.448,12.448,0,0,1,2.435-.828c1.347-.264,1.011-.958,1.011-.958s.3-.595.5-.958a20.888,20.888,0,0,0,0-3.835c-.013-.107-.1-.7-.192-1.365.432-.307.994-.689,1.607-1.05C426.12,306.246,425.858,305.518,425.762,305.328Zm-17.573,45.835s-1.011,2.578-.606,3.238-.067,3.11-.067,3.11l-.338,3.636s-.942,6.743-.606,8.329a56.408,56.408,0,0,1,.392,6.508h0a.455.455,0,0,0-.067.033l-.045.023c.156-.609.09-1.842-.682-4.323l-.065-10.245s-.119-11.834.815-13.158a9.959,9.959,0,0,0,1.266-3.571s-.2,3.242-.334,4.1A6.758,6.758,0,0,0,408.189,351.163Zm-1.882,25.466c-.009.022-.02.043-.027.063l-.051-.065A.533.533,0,0,0,406.307,376.628Z" transform="translate(-325.539 -229.801)" fill="url(#linear-gradient)"/>
    <path id="Path_1298" data-name="Path 1298" d="M471.382,835.095a17.949,17.949,0,0,1-4.147.447,3.217,3.217,0,0,1-2.139-1.021,4.394,4.394,0,0,0-2.419-1.266,1.628,1.628,0,0,1-.542-.076,6.688,6.688,0,0,1-.9-.347,1.678,1.678,0,0,1,.02-.687,1.1,1.1,0,0,1,.04-.134,1.2,1.2,0,0,1,.607-.676l.065-.031a1.836,1.836,0,0,1,.39-.119c1.421-.273,7.284.275,7.284.275s.165.295.391.66a5.045,5.045,0,0,0,.955,1.211,1.853,1.853,0,0,1,.616,1.063C471.668,834.713,471.617,835.006,471.382,835.095Z" transform="translate(-380.307 -684.207)" fill="#fff"/>
    <path id="Path_1299" data-name="Path 1299" d="M471.392,837.39a17.936,17.936,0,0,1-4.145.447,3.234,3.234,0,0,1-2.141-1.021,4.407,4.407,0,0,0-2.417-1.266,4.187,4.187,0,0,1-1.446-.423,1.5,1.5,0,0,1,.3-1.217l.9.642s2.419.75,2.867,1.446a2.912,2.912,0,0,0,2.446,1.155,22.888,22.888,0,0,0,3.858-.457C471.678,837.009,471.629,837.3,471.392,837.39Z" transform="translate(-380.317 -686.503)" opacity="0.1"/>
    <path id="Path_1300" data-name="Path 1300" d="M427.8,836.313a24.07,24.07,0,0,0-3.193.15,4.11,4.11,0,0,1-3.22-.848,7.544,7.544,0,0,0-2.294-1.7c-.439-.17-.542-.723-.522-1.24v-.085a5.062,5.062,0,0,1,.145-.971l7.034-.15.609.826.094.126.371.5s.168.221.389.542a7.718,7.718,0,0,1,1.032,1.873h0C428.466,836.19,427.8,836.313,427.8,836.313Z" transform="translate(-345.378 -684.504)" fill="#fff"/>
    <path id="Path_1301" data-name="Path 1301" d="M427.8,841.794a24.09,24.09,0,0,0-3.193.15,4.105,4.105,0,0,1-3.218-.848,7.332,7.332,0,0,0-2.3-1.7c-.439-.17-.542-.723-.522-1.24a4.014,4.014,0,0,1,1.972.94,4.277,4.277,0,0,0,2.893,1.945c1.114.06,3.825-.139,4.82-.219C428.468,841.671,427.8,841.794,427.8,841.794Z" transform="translate(-345.378 -689.984)" opacity="0.1"/>
    <path id="Path_1302" data-name="Path 1302" d="M426.931,831.607c-.081.6-.333.767-.513.8a.347.347,0,0,1-.134,0,.444.444,0,0,1-.07-.011s-6.317,1.4-7.593.266a.889.889,0,0,1-.09-.094,5.066,5.066,0,0,1,.145-.971l7.034-.15.609.826a1.2,1.2,0,0,1,.607-.676Z" transform="translate(-345.347 -684.487)" opacity="0.1"/>
    <path id="Path_1303" data-name="Path 1303" d="M473.43,832.038c-.141.156-.259.244-.333.213-.333-.134-3.059-.6-3.925-.2s-3.8.065-3.8.065,0-.347-.016-.9a1.839,1.839,0,0,1,.391-.119c1.421-.273,7.284.275,7.284.275S473.206,831.673,473.43,832.038Z" transform="translate(-383.711 -684.134)" opacity="0.1"/>
    <path id="Path_1304" data-name="Path 1304" d="M435.262,568.238l-.8,5.521-.929,3.659-1.331,6.917v7.322s.864,14.568.531,14.966-1.6,2.663-1.929,2.531-3.059-.6-3.925-.2-3.8.067-3.8.067a69.982,69.982,0,0,0-.4-7.25c-.333-1.6.6-8.381.6-8.381l.333-3.657s.466-2.462.067-3.128.6-3.254.6-3.254a6.81,6.81,0,0,1-.331-2.33c.134-.864.331-4.124.331-4.124a10.168,10.168,0,0,1-1.255,3.592c-.924,1.329-.806,13.237-.806,13.237l.065,10.3c1.665,5.456,0,4.923,0,4.923s-6.317,1.4-7.593.266-.911-8.255-.911-8.255-.132-5.72.4-7.448.7-8.116.7-8.116-.034-12.773,0-13.635c.025-.723,0-7.2,0-9.22v-.6l.763-1.895,9.039-1.132h4.324s6.508,1.529,7.181,2.189a.15.15,0,0,1,.036.04C436.659,561.787,435.262,568.238,435.262,568.238Z" transform="translate(-341.417 -461.227)" fill="#017bff"/>
    <path id="Path_1305" data-name="Path 1305" d="M472.11,770.88s1.989,4.789,2.927,5.122S472.11,770.88,472.11,770.88Z" transform="translate(-389.241 -634.868)" opacity="0.1"/>
    <path id="Path_1306" data-name="Path 1306" d="M476.18,809.88s6.714.333,6.648,1.065S476.18,809.88,476.18,809.88Z" transform="translate(-392.575 -666.817)" opacity="0.1"/>
    <path id="Path_1307" data-name="Path 1307" d="M426.49,799.29c.266.251,5.122.723,4.722,1.182s-4.323,1.352-4.323,1.352Z" transform="translate(-351.868 -658.142)" opacity="0.1"/>
    <path id="Path_1308" data-name="Path 1308" d="M422.08,753.59a61.066,61.066,0,0,0,1.266,6.651,10.337,10.337,0,0,0,2.46.531Z" transform="translate(-348.256 -620.704)" opacity="0.1"/>
    <path id="Path_1309" data-name="Path 1309" d="M430.574,279.467c-.953,1.065-1.365,2.574-2.475,3.475a10.974,10.974,0,0,1-2.312,1.17,3.073,3.073,0,0,0-1.8,1.766c-.26.94.242,1.9.506,2.84a11.757,11.757,0,0,1,.306,3.007c.018,1.231.038,2.462.016,3.693a10.684,10.684,0,0,1-1.209,5.55c3.675,1.17,7.584,1.329,11.438,1.479a11.54,11.54,0,0,0,2.222-.056,19.07,19.07,0,0,0,1.893-.479,14.514,14.514,0,0,1,3.771-.483,6.331,6.331,0,0,0,1.656-.11,1.634,1.634,0,0,0,1.2-1.05,1.951,1.951,0,0,0-.306-1.425c-.448-.788-1.085-1.446-1.566-2.224a6.111,6.111,0,0,1-.392-5.494c.427-.993,1.114-1.857,1.533-2.851a6.013,6.013,0,0,0-1.211-6.378,9.578,9.578,0,0,0-5.556-2.379,5.046,5.046,0,0,1-2.339-.9,4,4,0,0,0-2.665-.517A4.35,4.35,0,0,0,430.574,279.467Z" transform="translate(-349.509 -231.142)" fill="#3f3d56"/>
    <g id="Group_400" data-name="Group 400" transform="translate(74.173 54.266)" opacity="0.1">
      <path id="Path_1310" data-name="Path 1310" d="M531.906,323.385a6.015,6.015,0,0,0-.461,2.761,5.909,5.909,0,0,1,.461-1.96c.425-.993,1.112-1.857,1.531-2.851a5.768,5.768,0,0,0,.421-2.625,5.622,5.622,0,0,1-.421,1.826C533.017,321.53,532.33,322.393,531.906,323.385Z" transform="translate(-512.01 -318.71)"/>
      <path id="Path_1311" data-name="Path 1311" d="M426.516,326.575c.011.709.022,1.419.023,2.128q0-1.464-.023-2.925a11.731,11.731,0,0,0-.306-3.008,14.9,14.9,0,0,1-.542-1.869,6.267,6.267,0,0,0,.542,2.668A11.678,11.678,0,0,1,426.516,326.575Z" transform="translate(-425.341 -320.504)"/>
      <path id="Path_1312" data-name="Path 1312" d="M444.979,396.429a6.114,6.114,0,0,1-1.654.11,14.5,14.5,0,0,0-3.769.474,19.194,19.194,0,0,1-1.893.477,11.421,11.421,0,0,1-2.224.058,44.713,44.713,0,0,1-11.068-1.369,6.133,6.133,0,0,1-.362.687c3.675,1.168,7.584,1.329,11.437,1.479a11.423,11.423,0,0,0,2.224-.058,18.692,18.692,0,0,0,1.886-.475,14.5,14.5,0,0,1,3.762-.479,6.243,6.243,0,0,0,1.654-.112,1.635,1.635,0,0,0,1.195-1.049,1.435,1.435,0,0,0-.018-.752A1.688,1.688,0,0,1,444.979,396.429Z" transform="translate(-424.01 -381.552)"/>
    </g>
    <path id="Path_1313" data-name="Path 1313" d="M454.311,340.948c-.134.3-.7,2.893-.832,3.158s-.864,4.52-.931,4.758-4.814-1-4.814-1l-2.858-2.4-2.938-2.923s-.087-2.638,2.077-3.484a3.3,3.3,0,0,1,.452-.141c2.625-.631,2.361-8.613,2.361-8.613l5.387,2.327a55.811,55.811,0,0,0-.964,5.556c.009.3.246.49.555.6a4.388,4.388,0,0,0,1.472.159S454.445,340.649,454.311,340.948Z" transform="translate(-364.523 -273.947)" fill="#fbbebe"/>
    <path id="Path_1314" data-name="Path 1314" d="M531.478,435.728l.765.2s.566.861-.765,1.661a23.058,23.058,0,0,0-2.428,1.7l-3.932,1.2-.758-2.377,3.659-2.777Z" transform="translate(-432.045 -359.981)" fill="#29b6f6"/>
    <path id="Path_1315" data-name="Path 1315" d="M531.478,435.728l.765.2s.566.861-.765,1.661a23.058,23.058,0,0,0-2.428,1.7l-3.932,1.2-.758-2.377,3.659-2.777Z" transform="translate(-432.045 -359.8)" opacity="0.1"/>
    <path id="Path_1316" data-name="Path 1316" d="M398.069,448.272l-1.529,1.5s2.759,3.193,4.881,3.392,3.491-2.428,3.491-2.428l-1.837-2.893Z" transform="translate(-327.333 -370.229)" fill="#29b6f6"/>
    <path id="Path_1317" data-name="Path 1317" d="M398.069,448.272l-1.529,1.5s2.759,3.193,4.881,3.392,3.491-2.428,3.491-2.428l-1.837-2.893Z" transform="translate(-327.514 -369.868)" opacity="0.1"/>
    <circle id="Ellipse_343" data-name="Ellipse 343" cx="5.321" cy="5.321" r="5.321" transform="translate(79.944 50.938)" opacity="0.1"/>
    <circle id="Ellipse_344" data-name="Ellipse 344" cx="5.321" cy="5.321" r="5.321" transform="translate(79.944 50.538)" fill="#fbbebe"/>
    <path id="Path_1318" data-name="Path 1318" d="M441.419,561.778a17.179,17.179,0,0,0-3.56.8c-1.989.662-17.573.011-17.789,0v-.6l.763-1.895,9.039-1.132H434.2s6.508,1.529,7.181,2.189C441.4,561.537,441.419,561.778,441.419,561.778Z" transform="translate(-346.609 -461.252)" opacity="0.1"/>
    <path id="Path_1319" data-name="Path 1319" d="M454.311,379.4c-.134.3-.7,2.893-.832,3.158s-.864,4.52-.931,4.758-4.814-1-4.814-1l-2.858-2.4L441.938,381s-.087-2.638,2.077-3.484l5.373,6.177,2.419-6.445a4.388,4.388,0,0,0,1.472.159S454.445,379.1,454.311,379.4Z" transform="translate(-364.523 -312.401)" opacity="0.1"/>
    <path id="Path_1320" data-name="Path 1320" d="M425.428,382.641l-5.5-6.328a2.305,2.305,0,0,0-2.182-.161c-1.231.533-2.761.965-3.16,1.231a24.654,24.654,0,0,0-1.9,1.911l4.458,11.663-1.963,7.682s.3,3.925-.465,5.355a5.878,5.878,0,0,0-.633,2.959,10.278,10.278,0,0,1-.033,2.893,4.818,4.818,0,0,0-.034,2.028s15.8.665,17.793,0a17.027,17.027,0,0,1,3.56-.8s-.362-6.653-.723-8.249.3-7.682.3-7.682l-.432-6.519,2.593-6.689s-1.4-4.288-2.869-4.72a28.433,28.433,0,0,1-3.225-.931,11.308,11.308,0,0,0-2.229-.566l-.873.293Z" transform="translate(-340.563 -311.148)" fill="#29b6f6"/>
    <rect id="Rectangle_460" data-name="Rectangle 460" width="12.662" height="19.377" rx="2.94" transform="translate(80.436 76.436) rotate(3.89)" opacity="0.1"/>
    <rect id="Rectangle_461" data-name="Rectangle 461" width="12.662" height="19.377" rx="2.94" transform="translate(80.834 76.039) rotate(3.89)" fill="#3f3d56"/>
    <rect id="Rectangle_462" data-name="Rectangle 462" width="11.032" height="16.672" transform="translate(81.549 77.546) rotate(3.89)" fill="#fff"/>
    <rect id="Rectangle_463" data-name="Rectangle 463" width="9.013" height="2.512" transform="translate(82.577 81.911) rotate(4.004)" opacity="0.1"/>
    <rect id="Rectangle_464" data-name="Rectangle 464" width="1.43" height="1.309" transform="translate(89.816 92.401) rotate(3.89)" opacity="0.1"/>
    <rect id="Rectangle_465" data-name="Rectangle 465" width="7.32" height="1.309" transform="translate(82.532 88.849) rotate(3.89)" opacity="0.1"/>
    <rect id="Rectangle_466" data-name="Rectangle 466" width="7.622" height="2.012" transform="translate(83.589 77.155) rotate(3.89)" fill="#3f3d56"/>
    <rect id="Rectangle_467" data-name="Rectangle 467" width="7.622" height="2.012" transform="translate(83.589 77.155) rotate(3.89)" opacity="0.1"/>
    <path id="Path_1321" data-name="Path 1321" d="M474.771,572.56s-.067,9.846-2.661,15.5c0,0,3.128-7.45,3.128-7.748s1.728-3.426,1.266-4.357S474.771,572.56,474.771,572.56Z" transform="translate(-389.241 -472.401)" opacity="0.1"/>
    <path id="Path_1322" data-name="Path 1322" d="M458.616,294.8a3.7,3.7,0,0,1,.6-2.479,3.054,3.054,0,0,0,2.361,3.218.4.4,0,0,1-.114-.437,13.394,13.394,0,0,0,1.074,1.285,1.427,1.427,0,0,0,1.542.327c.671-.362.678-1.314.5-2.056a9.654,9.654,0,0,0-2.222-4.243,2.94,2.94,0,0,0-2.332-1.186,5.737,5.737,0,0,0-3.014.472,8.01,8.01,0,0,0-1.446,1.011l-2.531,2.065a2.4,2.4,0,0,0-.615.647,1.771,1.771,0,0,0-.192.678,3.654,3.654,0,0,0,1.7,3.448,2.7,2.7,0,0,1,1.614-2.531.7.7,0,0,1,.251.522l.533-.951a1.047,1.047,0,0,1,.362-.428.944.944,0,0,1,1.02.287,1.82,1.82,0,0,0,.929.613l.014-1.416" transform="translate(-372.945 -240.275)" opacity="0.1"/>
    <path id="Path_1323" data-name="Path 1323" d="M458.649,293.7a3.7,3.7,0,0,1,.6-2.48,3.055,3.055,0,0,0,2.363,3.218A.4.4,0,0,1,461.5,294a13.61,13.61,0,0,0,1.074,1.285,1.42,1.42,0,0,0,1.542.325c.671-.362.678-1.314.5-2.054a9.654,9.654,0,0,0-2.222-4.243,3.557,3.557,0,0,0-1.242-.965,3.616,3.616,0,0,0-1.085-.221,5.736,5.736,0,0,0-3.014.47,8.111,8.111,0,0,0-1.446,1.012l-2.531,2.065a2.378,2.378,0,0,0-.615.647,1.762,1.762,0,0,0-.192.678,3.652,3.652,0,0,0,1.7,3.446,2.7,2.7,0,0,1,1.614-2.531.707.707,0,0,1,.251.522l.531-.947a1.036,1.036,0,0,1,.362-.428.944.944,0,0,1,1.02.287,1.832,1.832,0,0,0,.929.613l.014-1.417" transform="translate(-372.978 -239.373)" fill="#3f3d56"/>
    <path id="Path_1324" data-name="Path 1324" d="M428.771,458.093c-.465-.235-8.148.964-8.148.964a43.978,43.978,0,0,0-4.324-.864,3.879,3.879,0,0,1-3.254-3.493l-.334-5.986,1.032-.9,4.422,2.893a14.287,14.287,0,0,1,0,1.727,2.433,2.433,0,0,0-.148.542.181.181,0,0,0,.148.163c.3.076,4.389.738,4.389.738s9.479-.649,11.842,2.544a2.4,2.4,0,0,1,.418.788C435.4,459.386,429.192,458.3,428.771,458.093Z" transform="translate(-340.579 -370.205)" fill="#fbbebe"/>
    <path id="Path_1325" data-name="Path 1325" d="M458.226,480.662c-.362.161-.586.277-.586.277a22.033,22.033,0,0,1-5.3-.79,12.442,12.442,0,0,0-4.221-.568s-7.94-1.367-6.709-3.151a.181.181,0,0,0,.148.163c.3.076,4.389.738,4.389.738s9.479-.649,11.842,2.544A2.4,2.4,0,0,1,458.226,480.662Z" transform="translate(-363.987 -393.65)" opacity="0.1"/>
    <path id="Path_1326" data-name="Path 1326" d="M461.55,441.58s.466,3.292.5,3.56a21.31,21.31,0,0,1,0,3.858c-.2.367-.5.964-.5.964s.333.7-1,.965a13.656,13.656,0,0,0-2.893,1.063,21.68,21.68,0,0,1-5.288-.8,12.2,12.2,0,0,0-4.223-.566s-10.079-1.73-5.754-3.842a6.655,6.655,0,0,1,7.383.748l4.822-.3s1.8-1.1,2.3-1a1.846,1.846,0,0,0,1.031-.166l.034-3.493Z" transform="translate(-364.013 -365.101)" fill="#fbbebe"/>
    <path id="Path_1327" data-name="Path 1327" d="M400.371,396.651l-.965-.051-2.925,11.39s3.158-.8,4.52,0a10.967,10.967,0,0,0,3.858.964l-.931-9.079Z" transform="translate(-327.284 -328.253)" opacity="0.1"/>
    <path id="Path_1328" data-name="Path 1328" d="M400.371,395.541l-.965-.051-2.925,11.39s3.158-.8,4.52,0a10.967,10.967,0,0,0,3.858.964l-.931-9.079Z" transform="translate(-327.284 -327.343)" fill="#29b6f6"/>
    <path id="Path_1329" data-name="Path 1329" d="M530.705,409.57l1.329.3s3.393,4.881,3.659,5.154-1.265,1.266-1.9,1.266-3.724.362-4.623,1.2-.524-3.368-.524-3.464,1.115-2.748,1.115-2.748Z" transform="translate(-435.496 -338.878)" opacity="0.1"/>
    <path id="Path_1330" data-name="Path 1330" d="M530.705,408.47l1.329.3s3.393,4.89,3.659,5.156-1.265,1.266-1.9,1.266-3.724.362-4.623,1.2-.524-3.368-.524-3.464,1.123-2.757,1.123-2.757Z" transform="translate(-435.496 -337.977)" fill="#29b6f6"/>
    <g id="Group_401" data-name="Group 401" transform="translate(79.28 51.449)" opacity="0.1">
      <path id="Path_1331" data-name="Path 1331" d="M459.241,303.546a2.665,2.665,0,0,1,.009-.416,3.7,3.7,0,0,0-.557,1.365v.5c0,.293,0,.588-.009.88h-.025v.136a.721.721,0,0,0-.009-.139,1.923,1.923,0,0,1-.889-.6c-.269-.242-.691-.474-1.02-.287a1.035,1.035,0,0,0-.362.428l-.537.947a.7.7,0,0,0-.251-.521,2.7,2.7,0,0,0-1.614,2.531,3.674,3.674,0,0,1-1.716-2.88,3.655,3.655,0,0,0,1.716,3.278,2.7,2.7,0,0,1,1.614-2.531.707.707,0,0,1,.251.522l.532-.947a1.035,1.035,0,0,1,.362-.428.944.944,0,0,1,1.02.287,1.832,1.832,0,0,0,.929.613q0-.694.014-1.385A3.682,3.682,0,0,1,459.241,303.546Z" transform="translate(-452.256 -303.13)"/>
      <path id="Path_1332" data-name="Path 1332" d="M487.492,311.6c.009-.123.023-.246.042-.362l.02-.5A3.656,3.656,0,0,0,487.492,311.6Z" transform="translate(-481.118 -309.364)"/>
      <path id="Path_1333" data-name="Path 1333" d="M505.888,320.131a1.423,1.423,0,0,1-1.542-.325,13.381,13.381,0,0,1-1.074-1.285.4.4,0,0,0,.114.438.426.426,0,0,1-.1-.027,11.943,11.943,0,0,0,1.065,1.266,1.435,1.435,0,0,0,1.542.325,1.477,1.477,0,0,0,.591-1.484A1.255,1.255,0,0,1,505.888,320.131Z" transform="translate(-494.03 -315.738)"/>
      <path id="Path_1334" data-name="Path 1334" d="M493.132,308.6a3.073,3.073,0,0,1-2.253-2.686,3.054,3.054,0,0,0,2.368,3.115A.4.4,0,0,1,493.132,308.6Z" transform="translate(-483.891 -305.407)"/>
    </g>
    <path id="Path_1335" data-name="Path 1335" d="M809.027,303.937s-.712-.1-.712-1.135a16.29,16.29,0,0,0-.51-2.976h0s-.441-3.375-1.05-3.91-1.392-3.677-1.392-3.677a7.414,7.414,0,0,0-.407-2.072,17.6,17.6,0,0,1-1.186-2.547c-.544-1.282-2.808-2.16-2.808-2.16s-4.1-2.379-5.265-3.155h0a1.792,1.792,0,0,1-.3-.224c-.2-.264-1.085-.269-1.085-.269a17.844,17.844,0,0,1-.21-1.858v-.2a6.255,6.255,0,0,0,2.75-3.4c.022-.069.04-.139.06-.21a.588.588,0,0,0,.362-.318,6.37,6.37,0,0,1,.237-.723,2.679,2.679,0,0,1,.669-.586,2.535,2.535,0,0,0,.7-2.059c-.018-.607-.116-1.219-.078-1.821a.719.719,0,0,1,.011-.152c.011-.089.024-.181.04-.268.089-.448.282-.871.391-1.316a1.693,1.693,0,0,0-.134-1.329,2.274,2.274,0,0,0-1.821-.723c-.768-.065-1.446.018-1.947-.62a6.815,6.815,0,0,0-.774-.933c-.1-.094-1.085-.7-1.085-.734a4.395,4.395,0,0,0-3.073-.237c-.512.148-.991.391-1.51.512-1.114.264-2.4-.022-3.345.616a3.947,3.947,0,0,0-1.141,1.5q-.362.691-.734,1.383a8.9,8.9,0,0,0-.974,2.367,4.02,4.02,0,0,0-.067.555h0v.287a.99.99,0,0,0,.011.181,1.028,1.028,0,0,0,.013.112c.013.038.016.123.027.181s.033.161.054.239a.367.367,0,0,0,.033.1c.011.034.04.121.063.181s.025.063.04.094a1.7,1.7,0,0,0,.092.181c.015.023.025.047.04.07a2.045,2.045,0,0,0,.166.242c.385.483.956.79,1.378,1.242v.2a6.188,6.188,0,0,0,2.835,5.044c0,.069.009.139.013.21a10.322,10.322,0,0,1-.02,1.609.763.763,0,0,0-.6-.268.86.86,0,0,0-.231.02l-.016-.013h0v.016c-.4.1-.888.512-1.356,1.689,0,0-1.425,1.605-2.509,1.539s-3.831,1.672-3.831,1.672-2.679,1.737-3.254,3.509a24.533,24.533,0,0,1-1.155,2.943l-3.321,6.819h0l-.609,5.424a25.078,25.078,0,0,1,.271,2.775,26.629,26.629,0,0,0,1.39,3.677s4.814,8.457,6.781,8.891l.141-.1a1.23,1.23,0,0,0,.266.1l.4-.284a4.231,4.231,0,0,1-.033.953,25.218,25.218,0,0,0,.577,7.354c.474,1.068.306,15.079.306,15.079l-.067,1.235a.525.525,0,0,0,.016.108l-.016.293.049.025a3.493,3.493,0,0,1-.049,1.179,13.073,13.073,0,0,0-.239,2.074s-1.356,8.656-.712,10.4,1.188,3.645,1.188,3.645.678,2.169.033,2.531-2.473,1-2.1,1.905c.344.835,1.647,3.073,1.84,3.4l-.016.181-.266,2.88a3.616,3.616,0,0,0,.306,1.1,1.89,1.89,0,0,0,1.933,1.208c.181-.013.389-.033.593-.06a25.691,25.691,0,0,0,4.391-1.144,1.731,1.731,0,0,1-.342-.284h0a.992.992,0,0,1-.3-.723,21.043,21.043,0,0,0-1.2-3.639l-.056-.137s2.238-2.341,1.866-4.413c0,0-2.477-1.446-1.661-2.242a25.4,25.4,0,0,0,2.272-3.073s.067-8.524,0-9.8a10.558,10.558,0,0,1,.125-2.647c.027-.13.06-.258.094-.387a23.089,23.089,0,0,0,3.41.259q.625,0,1.266-.025,0,.181.016.39c.094,2.112.269,5.816.412,7.192.2,1.971,1.322,7.288,1.322,7.288s-2.135,1.369.372,4.747a4.583,4.583,0,0,1-.166,1.4h0a15.3,15.3,0,0,0-.428,1.766,3.1,3.1,0,0,0,.022,1.613c.407.8,2.847.734,2.847.734h0a.384.384,0,0,1,.06-.009,3.484,3.484,0,0,1,2.583.777c.927.745,4.446.419,6.353.181.747-.1,1.246-.181,1.246-.181a.732.732,0,0,0,.025-.26h0c-.02-.468-.387-1.5-2.875-2.412,0,0-2.339-1.573-2.307-2.943h-.322c.17-.005.289-.005.289-.005s-.917-3.343-.542-3.616-.747-3.977-.747-3.977-.642-6.219-.678-6.653a3.826,3.826,0,0,1,.17-1.1l-.17-3.411s-.033-1.134,0-1.5a7.056,7.056,0,0,0-.076-.956c-.016-.127-.033-.259-.051-.389.877-.222,1.446-.427,1.446-.427l-.1-11.869c.745-1.446.882-4.621.879-6.87,0-1.446-.065-2.517-.065-2.517l1.018-1.661s.235-1.989-.137-2.424a.417.417,0,0,1,.045-.569,1.893,1.893,0,0,1,.226-.159.29.29,0,0,1-.024-.04,1.8,1.8,0,0,1,.226-.161s-.362-.56-.038-.8c.3.206.575.371.781.488-.014.132-.029.208-.029.208l.087-.181.32.181a24.219,24.219,0,0,0,1.56-3.643,10.663,10.663,0,0,1,1.085-2.441,2.445,2.445,0,0,1,.747-1.472c.611-.434.474-3.578.474-3.578a7.689,7.689,0,0,1,.577-2.305C809.8,304.845,809.027,303.937,809.027,303.937Zm-30.51-1.394.031.758-.311-.5Z" transform="translate(-633.686 -219.751)" fill="url(#linear-gradient-2)"/>
    <path id="Path_1336" data-name="Path 1336" d="M942.51,538.088l-.391,1.663s-3.128-1.6-3.69-3.625a2.3,2.3,0,0,1,.942-2.8l2.916,1.233Z" transform="translate(-771.153 -440.264)" fill="#fff"/>
    <path id="Path_1337" data-name="Path 1337" d="M942.51,538.088l-.391,1.663s-3.128-1.6-3.69-3.625a2.3,2.3,0,0,1,.942-2.8l2.916,1.233Z" transform="translate(-771.153 -440.264)" opacity="0.1"/>
    <path id="Path_1338" data-name="Path 1338" d="M832.408,842.957a22.471,22.471,0,0,1-4.881,1.2,1.857,1.857,0,0,1-1.9-1.2,3.67,3.67,0,0,1-.3-1.085l.262-2.865.137-1.524,4.225-1.1.6,1.831.056.137a21.4,21.4,0,0,1,1.175,3.616.992.992,0,0,0,.295.723,1.679,1.679,0,0,0,.329.269Z" transform="translate(-678.603 -688.526)" fill="#fff"/>
    <path id="Path_1339" data-name="Path 1339" d="M914.913,840.6a.723.723,0,0,1-.025.26s-6.187,1.031-7.452,0a3.35,3.35,0,0,0-2.6-.765s-2.394.065-2.793-.723a3.132,3.132,0,0,1-.02-1.6,15.36,15.36,0,0,1,.419-1.757l.1-.076.57-.457,6.667-.2h.051c-.033,1.363,2.262,2.927,2.262,2.927C914.533,839.111,914.893,840.132,914.913,840.6Z" transform="translate(-741.359 -687.625)" fill="#fff"/>
    <path id="Path_1340" data-name="Path 1340" d="M914.91,851.863a.746.746,0,0,1-.027.26s-6.187,1.03-7.45,0a3.35,3.35,0,0,0-2.6-.765s-2.4.065-2.795-.723a3.159,3.159,0,0,1-.02-1.605,5.943,5.943,0,0,1,2.949.871,6.578,6.578,0,0,0,3.225,1.73C908.9,851.675,913.116,851.809,914.91,851.863Z" transform="translate(-741.354 -698.889)" opacity="0.1"/>
    <path id="Path_1341" data-name="Path 1341" d="M833.768,871.507a22.476,22.476,0,0,1-4.881,1.2,1.857,1.857,0,0,1-1.9-1.2,3.952,3.952,0,0,0,2.3.269,20.336,20.336,0,0,1,4.158-.542A1.645,1.645,0,0,0,833.768,871.507Z" transform="translate(-679.963 -717.076)" opacity="0.1"/>
    <path id="Path_1342" data-name="Path 1342" d="M866.427,349.709c-2.386-.927-5.456-3.992-4.69-5.424a3.24,3.24,0,0,0,.3-1.15,10.494,10.494,0,0,0,.022-1.627,22.338,22.338,0,0,0-.32-2.649s7.45.168,7.016,1.266a4.071,4.071,0,0,0-.112,1.506c.036.624.125,1.334.219,1.933.128.819.26,1.446.26,1.446s-.457.638-.723.673S869.851,351.038,866.427,349.709Z" transform="translate(-708.33 -280.951)" fill="#cf6f80"/>
    <path id="Path_1343" data-name="Path 1343" d="M831.757,838.3l-.056.062c-2.227-2.694-4.921.665-4.921.665l-.04-.072.137-1.524,4.225-1.1.6,1.831Z" transform="translate(-679.758 -688.485)" opacity="0.1"/>
    <path id="Path_1344" data-name="Path 1344" d="M912.17,835.437a4.286,4.286,0,0,0-2.495.734c-.868.766-5.062.164-4.881,0a.625.625,0,0,0,.094-.277l.57-.457,6.667-.2C912.151,835.366,912.17,835.437,912.17,835.437Z" transform="translate(-743.697 -687.592)" opacity="0.1"/>
    <path id="Path_1345" data-name="Path 1345" d="M826.182,703.141a5.068,5.068,0,0,0-.275.927,10.614,10.614,0,0,0-.125,2.632c.067,1.266,0,9.746,0,9.746a25.807,25.807,0,0,1-2.229,3.059c-.8.8,1.627,2.229,1.627,2.229.362,2.063-1.83,4.391-1.83,4.391-2.227-2.694-4.921.664-4.921.664s-1.464-2.531-1.83-3.435,1.43-1.528,2.061-1.9-.033-2.531-.033-2.531-.531-1.9-1.164-3.627.7-10.341.7-10.341a13.368,13.368,0,0,1,.233-2.065,3.5,3.5,0,0,0,.049-1.172c-.011-.132-.023-.24-.032-.316s-.016-.108-.016-.108l.025-.043.9-1.685S826.616,702.079,826.182,703.141Z" transform="translate(-671.412 -576.45)" fill="#017bff"/>
    <path id="Path_1346" data-name="Path 1346" d="M903.316,732.148a4.316,4.316,0,0,0-2.495.723c-.868.757-5.062.166-4.881,0s.165-1.4.165-1.4c-2.461-3.361-.362-4.724-.362-4.724s-1.1-5.288-1.3-7.25c-.139-1.369-.311-5.062-.4-7.154-.04-.9-.063-1.528-.063-1.528l1.992-.4.258-.051,4.849-.974s.134.9.224,1.643a7.235,7.235,0,0,1,.074.953c-.031.362,0,1.5,0,1.5l.166,3.392a3.907,3.907,0,0,0-.166,1.1c.034.434.665,6.619.665,6.619s1.1,3.692.723,3.957S903.316,732.148,903.316,732.148Z" transform="translate(-734.842 -584.502)" fill="#017bff"/>
    <path id="Path_1347" data-name="Path 1347" d="M869.3,340.156a4.073,4.073,0,0,0-.112,1.506,6.192,6.192,0,0,1-6.584-.123,22.351,22.351,0,0,0-.32-2.649S869.73,339.058,869.3,340.156Z" transform="translate(-708.873 -280.976)" opacity="0.1"/>
    <path id="Path_1348" data-name="Path 1348" d="M860.949,295.777a6.185,6.185,0,1,1-12.369.148v-.148a6.187,6.187,0,1,1,12.373,0Z" transform="translate(-697.65 -240.589)" fill="#cf6f80"/>
    <path id="Path_1349" data-name="Path 1349" d="M866.427,369.083c-2.386-.927-5.456-3.992-4.69-5.424a3.24,3.24,0,0,0,.3-1.15L865.3,365.2l2.021,1.658,1.537-3.91c.128.819.26,1.446.26,1.446s-.457.638-.723.673S869.851,370.412,866.427,369.083Z" transform="translate(-708.33 -300.326)" opacity="0.1"/>
    <path id="Path_1350" data-name="Path 1350" d="M848.761,361.126l-2.728,45.83-3.558.233-9.215-26.574,1.511-31.549.32-6.666,4.1,3.364,2.021,1.658,1.582-4.026,2.941,2.564Z" transform="translate(-682.216 -280.496)" fill="#29b6f6"/>
    <path id="Path_1351" data-name="Path 1351" d="M834.52,703.206a5.077,5.077,0,0,0-.275.927,26.215,26.215,0,0,1-7.466-2.33l-.049-.025.016-.291v-.152l.9-1.685S834.954,702.145,834.52,703.206Z" transform="translate(-679.75 -576.515)" opacity="0.1"/>
    <path id="Path_1352" data-name="Path 1352" d="M895.983,716.773a18.327,18.327,0,0,1-2,.229c-.04-.9-.063-1.528-.063-1.528l2-.4Z" transform="translate(-734.793 -589.147)" opacity="0.1"/>
    <path id="Path_1353" data-name="Path 1353" d="M911.543,711.043a14.038,14.038,0,0,1-5.048.475l-.025-1.144,4.849-.974S911.447,710.3,911.543,711.043Z" transform="translate(-745.074 -584.502)" opacity="0.1"/>
    <path id="Path_1354" data-name="Path 1354" d="M800.186,426.222c-7.412,1.266-14.2-2.363-14.2-2.363l.065-1.229s.168-13.937-.3-15.005a25.332,25.332,0,0,1-.566-7.306c.264-.826-.964-13.3-.964-13.3l-.2-5.062L776.74,379l3.254-6.785a24.52,24.52,0,0,0,1.132-2.929c.566-1.763,3.193-3.493,3.193-3.493s2.694-1.728,3.759-1.663,2.46-1.529,2.46-1.529c1.031-2.627,1.963-1.446,1.963-1.446a2.323,2.323,0,0,1-.051.389c-.362,2.884,5.847,12,5.935,12.158h0l.6,14.4.6,18.225Z" transform="translate(-638.798 -298.996)" opacity="0.1"/>
    <path id="Path_1355" data-name="Path 1355" d="M799.062,426.222c-7.412,1.266-14.2-2.363-14.2-2.363l.067-1.229s.166-13.937-.3-15.005a25.336,25.336,0,0,1-.564-7.318c.266-.833-.969-13.3-.969-13.3l-.2-5.062-7.282-2.959,3.254-6.785A24.9,24.9,0,0,0,780,369.278c.566-1.757,3.2-3.489,3.2-3.489s2.694-1.728,3.757-1.663,2.466-1.528,2.466-1.528c1.032-2.627,2.169-1.446,2.169-1.446,0,.127-.108.181-.051.389.8,2.8,5.648,12,5.736,12.158h0l.6,14.4.586,18.234Z" transform="translate(-637.872 -298.996)" fill="#fff"/>
    <path id="Path_1356" data-name="Path 1356" d="M863.338,375.975c-.8-.333-5.021-5.154-5.021-5.154v-1.1c-.154-.362-1.068-.141-1.808.112l.318-6.666.362.3C857.98,366.265,863.252,375.814,863.338,375.975Z" transform="translate(-704.146 -300.866)" opacity="0.1"/>
    <path id="Path_1357" data-name="Path 1357" d="M864.44,373.8c-.8-.334-5.022-5.154-5.022-5.154v-1.1c-.154-.362-1.067-.141-1.808.112l.313-6.658.362.3C859.082,364.09,864.352,373.637,864.44,373.8Z" transform="translate(-705.047 -299.089)" fill="#fff"/>
    <path id="Path_1358" data-name="Path 1358" d="M826.037,562.391c.1,0,5.154-.531,5.154-.531s3.061,6.02,2.86,7.483-.564,2.761-1.8,2.531a54.644,54.644,0,0,0-6.626.181Z" transform="translate(-678.849 -463.636)" opacity="0.1"/>
    <path id="Path_1359" data-name="Path 1359" d="M824.927,560.182c.1,0,5.156-.531,5.156-.531s3.059,6.029,2.86,7.476-.566,2.761-1.8,2.531a54.689,54.689,0,0,0-6.628.181Z" transform="translate(-677.94 -461.825)" fill="#fff"/>
    <path id="Path_1360" data-name="Path 1360" d="M835.314,547s4.639,2.495,4.738,3.254-2.361-.333-2.893-.466a6.9,6.9,0,0,0-1.065-.166l-3.545.1Z" transform="translate(-684.518 -451.462)" fill="#cf6f80"/>
    <circle id="Ellipse_345" data-name="Ellipse 345" cx="0.488" cy="0.488" r="0.488" transform="translate(157.408 74.443)" opacity="0.1"/>
    <circle id="Ellipse_346" data-name="Ellipse 346" cx="0.488" cy="0.488" r="0.488" transform="translate(157.408 74.245)" fill="#3f3d56"/>
    <circle id="Ellipse_347" data-name="Ellipse 347" cx="0.488" cy="0.488" r="0.488" transform="translate(158.306 95.574)" opacity="0.1"/>
    <circle id="Ellipse_348" data-name="Ellipse 348" cx="0.488" cy="0.488" r="0.488" transform="translate(158.306 95.373)" fill="#3f3d56"/>
    <circle id="Ellipse_349" data-name="Ellipse 349" cx="0.488" cy="0.488" r="0.488" transform="translate(157.896 85.009)" opacity="0.1"/>
    <circle id="Ellipse_350" data-name="Ellipse 350" cx="0.488" cy="0.488" r="0.488" transform="translate(157.896 84.81)" fill="#3f3d56"/>
    <path id="Path_1361" data-name="Path 1361" d="M910.761,400.252s.333.5,0,.723.033.8.033.8-.83.485-.465.924.134,2.412.134,2.412l-1,1.661s.06,1.065.063,2.5c0,2.245-.132,5.4-.862,6.841l.1,11.807a16.037,16.037,0,0,1-6.42.888l-.434-18.946s.633-10.744.866-12.805a21.464,21.464,0,0,0,.166-3.227,36.007,36.007,0,0,0-.434-4.72s-.362-6.487-.4-8.282c-.016-.859.029-3.364.079-5.747.056-2.605.119-5.062.119-5.062l-.66-5.223s.66-.065.859.2a1.9,1.9,0,0,0,.289.222h0c1.141.77,5.165,3.138,5.165,3.138s2.227.886,2.761,2.155a18.788,18.788,0,0,0,1.162,2.531,7.811,7.811,0,0,1,.4,2.061s.767,3.128,1.365,3.657,1.029,3.892,1.029,3.892l-5.288,4.158s-.465,6.917-.564,7.184S910.761,400.252,910.761,400.252Z" transform="translate(-741.125 -302.194)" fill="#fff"/>
    <path id="Path_1362" data-name="Path 1362" d="M910.938,399.965s.331.5,0,.723.031.8.031.8-.83.484-.465.924.134,2.412.134,2.412l-.994,1.661s.06,1.065.065,2.5c0,2.245-.132,5.4-.862,6.841l.1,11.807a16.037,16.037,0,0,1-6.42.888l-.432-18.947s.631-10.744.866-12.805a21.248,21.248,0,0,0,.165-3.227,36.227,36.227,0,0,0-.432-4.72s-.362-6.487-.4-8.282c-.016-.859.029-3.364.079-5.747.056-2.605.119-5.062.119-5.062l-.871-5.293s.871,0,1.072.269a1.718,1.718,0,0,0,.289.222h0c1.139.77,5.163,3.138,5.163,3.138s2.222.886,2.764,2.155a20.026,20.026,0,0,0,1.162,2.531,7.814,7.814,0,0,1,.4,2.061s.766,3.128,1.365,3.657,1.031,3.892,1.031,3.892l-5.288,4.158s-.465,6.917-.566,7.184S910.938,399.965,910.938,399.965Z" transform="translate(-741.101 -301.907)" fill="#fff"/>
    <path id="Path_1363" data-name="Path 1363" d="M905.5,373.071l.479,1.392-2.515,2.531c.056-2.605.119-5.062.119-5.062l-.871-5.292s.871,0,1.072.269a1.715,1.715,0,0,0,.289.222h0l2.137,6.163Z" transform="translate(-741.994 -303.709)" opacity="0.1"/>
    <path id="Path_1364" data-name="Path 1364" d="M904.368,370.844l.479,1.39-2.513,2.531c.054-2.605.119-5.062.119-5.062l-.873-5.293s.873,0,1.072.269a1.807,1.807,0,0,0,.289.222h0l2.15,6.168Z" transform="translate(-741.068 -301.882)" fill="#fff"/>
    <path id="Path_1365" data-name="Path 1365" d="M860.949,295.776a6.166,6.166,0,0,1-.3,1.918.257.257,0,0,1-.2-.047,8,8,0,0,0-1.833-4.456,4.719,4.719,0,0,0-.994-1.03,1.947,1.947,0,0,0-1.349-.381c-.542.074-1.021.443-1.569.49-.723.06-1.37-.441-2.088-.465a2.047,2.047,0,0,0-1.535.712,4.187,4.187,0,0,0-.823,1.524,8.926,8.926,0,0,0-.459,2.632c-.009.506-.058,1.141-.528,1.325a2.694,2.694,0,0,0-.682-2.061l-.011-.013v-.148a6.187,6.187,0,1,1,12.373,0Z" transform="translate(-697.65 -240.589)" opacity="0.1"/>
    <path id="Path_1366" data-name="Path 1366" d="M848.8,267.644a4.259,4.259,0,0,0-3-.235c-.5.148-.973.389-1.481.51-1.085.262-2.35-.022-3.281.613a3.917,3.917,0,0,0-1.117,1.49L839.2,271.4a8.941,8.941,0,0,0-.956,2.35,3.006,3.006,0,0,0,.461,2.428c.381.485.949.79,1.365,1.247a2.712,2.712,0,0,1,.68,2.066c.47-.181.517-.819.528-1.325a8.94,8.94,0,0,1,.459-2.632,4.188,4.188,0,0,1,.823-1.524,2.048,2.048,0,0,1,1.535-.714c.723.025,1.372.526,2.088.465.542-.045,1.023-.414,1.569-.488a1.938,1.938,0,0,1,1.349.381,4.634,4.634,0,0,1,.993,1.03,7.966,7.966,0,0,1,1.835,4.456c.2.148.5-.047.6-.278a6.6,6.6,0,0,1,.233-.723,2.673,2.673,0,0,1,.654-.584,2.559,2.559,0,0,0,.683-2.048,10.2,10.2,0,0,1-.025-2.227c.085-.447.277-.868.381-1.311a1.714,1.714,0,0,0-.13-1.322,2.232,2.232,0,0,0-1.786-.723c-.754-.065-1.428.018-1.909-.616a7.063,7.063,0,0,0-.759-.929C849.768,268.281,848.8,267.684,848.8,267.644Z" transform="translate(-689.121 -222.279)" fill="#512e4e"/>
    <path id="Path_1367" data-name="Path 1367" d="M777.016,464.541l-1.887-3.491-.6,5.387a24.979,24.979,0,0,1,.266,2.761,26.542,26.542,0,0,0,1.363,3.657s4.724,8.416,6.653,8.848l6.508-4.657-1.728-2.195s-.6-.233-.749,0c0,0-3.211-5.521-3.542-5.919a2.012,2.012,0,0,1-.268-1.2s-.5-.532-.333-1.031-.954-2.227-.954-2.227l1.03-.964Z" transform="translate(-636.987 -381.051)" opacity="0.1"/>
    <path id="Path_1368" data-name="Path 1368" d="M773.417,458.84l-.5.4-.6,5.387a24.964,24.964,0,0,1,.266,2.761,26.531,26.531,0,0,0,1.365,3.657s4.722,8.416,6.651,8.848l6.519-4.657-1.73-2.195s-.6-.233-.748,0c0,0-3.209-5.521-3.542-5.919a1.991,1.991,0,0,1-.266-1.2s-.5-.531-.333-1.03-.965-2.227-.965-2.227l1.031-.964Z" transform="translate(-635.177 -379.24)" fill="#fff"/>
    <path id="Path_1369" data-name="Path 1369" d="M932.561,561.038c.362.439.134,2.414.134,2.414l-1,1.651s.06,1.067.063,2.506l-1.678.524a1,1,0,0,1-1.294-.983l.291-9.329,3.914,1.5c-.333.231.032.8.032.8S932.2,560.6,932.561,561.038Z" transform="translate(-763.357 -460.326)" opacity="0.1"/>
    <path id="Path_1370" data-name="Path 1370" d="M933.677,559.93c.362.438.134,2.412.134,2.412l-.994,1.652s.06,1.065.065,2.5l-1.708.533a.974.974,0,0,1-1.266-.96l.291-9.361,3.912,1.5c-.334.231.031.8.031.8S933.312,559.49,933.677,559.93Z" transform="translate(-764.274 -459.417)" fill="#fff"/>
    <path id="Path_1371" data-name="Path 1371" d="M943.748,543.3s-.266,1.7-.931,1.8-.964,2.746-1.627,2.654-.224-2.462-.2-2.922-.723-2.361-.166-2.793,2.328,0,2.328,0Z" transform="translate(-773.047 -447.242)" fill="#cf6f80"/>
    <path id="Path_1372" data-name="Path 1372" d="M942,466.131l1.253-2.531a16.376,16.376,0,0,1,.5,2.96c0,1.03.7,1.132.7,1.132s.765.9.362,1.564a7.568,7.568,0,0,0-.564,2.294s.132,3.126-.466,3.558a2.455,2.455,0,0,0-.732,1.464A10.613,10.613,0,0,0,941.986,479a24.113,24.113,0,0,1-1.529,3.625s.765-3.925-3.692-5.621c0,0-.034-1.331.3-1.7s.852-.542.526-2.379a21.56,21.56,0,0,1-.094-4.494,28.261,28.261,0,0,1,1-3.2Z" transform="translate(-769.892 -383.14)" opacity="0.1"/>
    <path id="Path_1373" data-name="Path 1373" d="M944.4,461.6l1.1.362a16.38,16.38,0,0,1,.5,2.959c0,1.031.7,1.132.7,1.132s.765.9.362,1.564a7.585,7.585,0,0,0-.566,2.294s.134,3.126-.465,3.558a2.422,2.422,0,0,0-.723,1.464,10.607,10.607,0,0,0-1.063,2.428,24.106,24.106,0,0,1-1.531,3.625s.765-3.925-3.692-5.621c0,0-.033-1.331.3-1.7s.852-.542.526-2.379a21.565,21.565,0,0,1-.094-4.494,28.259,28.259,0,0,1,1-3.2Z" transform="translate(-771.736 -381.501)" fill="#fff"/>
    <path id="Path_1374" data-name="Path 1374" d="M834.92,821.794s1.746-1.1,2.893-.3S834.92,821.794,834.92,821.794Z" transform="translate(-686.459 -676.094)" opacity="0.1"/>
    <path id="Path_1375" data-name="Path 1375" d="M910,805.656a3.535,3.535,0,0,1,2.844,1.2C914.142,808.252,910,805.656,910,805.656Z" transform="translate(-747.966 -663.349)" opacity="0.1"/>
    <g id="Group_402" data-name="Group 402" transform="translate(149.045 48.942)" opacity="0.1">
      <path id="Path_1376" data-name="Path 1376" d="M865.112,302.645c-.222.193-.508.329-.656.584a6.742,6.742,0,0,0-.231.723c-.1.233-.4.427-.6.278a7.992,7.992,0,0,0-1.833-4.456,4.622,4.622,0,0,0-.993-1.029,1.943,1.943,0,0,0-1.35-.383c-.542.074-1.02.443-1.567.49-.723.06-1.372-.441-2.09-.465a2.039,2.039,0,0,0-1.533.712,4.187,4.187,0,0,0-.823,1.524,8.94,8.94,0,0,0-.459,2.632c-.011.5-.058,1.134-.524,1.322a2.5,2.5,0,0,1,0,.4c.472-.181.519-.819.53-1.325a8.942,8.942,0,0,1,.459-2.632,4.187,4.187,0,0,1,.823-1.524,2.047,2.047,0,0,1,1.533-.714c.723.025,1.374.526,2.09.465.542-.045,1.023-.414,1.567-.488a1.943,1.943,0,0,1,1.35.381,4.634,4.634,0,0,1,.993,1.03,7.976,7.976,0,0,1,1.833,4.456c.206.148.5-.047.6-.278a7.01,7.01,0,0,1,.231-.723,2.682,2.682,0,0,1,.656-.584A2.559,2.559,0,0,0,865.8,301v-.069A2.377,2.377,0,0,1,865.112,302.645Z" transform="translate(-849.866 -296.71)"/>
      <path id="Path_1377" data-name="Path 1377" d="M840.054,309.028c-.414-.457-.982-.765-1.363-1.249a2.623,2.623,0,0,1-.526-1.479,2.786,2.786,0,0,0,.526,1.878c.381.485.949.79,1.363,1.247a2.712,2.712,0,0,1,.683,1.613A2.712,2.712,0,0,0,840.054,309.028Z" transform="translate(-838.155 -303.219)"/>
      <path id="Path_1378" data-name="Path 1378" d="M926.227,289.609c-.107.443-.3.864-.383,1.311a4.183,4.183,0,0,0-.056.915,3.519,3.519,0,0,1,.056-.515c.087-.447.277-.868.383-1.311a2.272,2.272,0,0,0,.06-.748A2.521,2.521,0,0,1,926.227,289.609Z" transform="translate(-909.941 -289.26)"/>
    </g>
    <ellipse id="Ellipse_351" data-name="Ellipse 351" cx="17.616" cy="2.829" rx="17.616" ry="2.829" transform="translate(6.781 146.003)" fill="#6c63ff" opacity="0.1"/>
    <rect id="Rectangle_468" data-name="Rectangle 468" width="1.134" height="25.522" transform="translate(23.831 94.63)" fill="#535461"/>
    <path id="Path_1379" data-name="Path 1379" d="M121.511,674.882l-.072,1.15-.1,1.627-.042.676-.1,1.627-.043.676-.1,1.627-1.144,18.453a3.124,3.124,0,0,1-3.119,2.932h-5.942a3.122,3.122,0,0,1-3.119-2.945l-1.144-18.453-.1-1.627-.042-.676-.1-1.627-.042-.676-.1-1.627-.072-1.15a1.627,1.627,0,0,1,1.616-1.719H119.9a1.627,1.627,0,0,1,1.614,1.732Z" transform="translate(-89.422 -554.806)" fill="#3f3d56"/>
    <path id="Path_1380" data-name="Path 1380" d="M105.82,670.52l-.1,1.623H90.681l-.1-1.623Z" transform="translate(-73.803 -549.296)" fill="#9d9cb5"/>
    <path id="Path_1381" data-name="Path 1381" d="M106.325,683.24l-.1,1.623H91.471l-.1-1.623Z" transform="translate(-74.45 -559.716)" fill="#9d9cb5"/>
    <path id="Path_1382" data-name="Path 1382" d="M106.829,695.97l-.1,1.622H92.261l-.1-1.622Z" transform="translate(-75.097 -570.145)" fill="#9d9cb5"/>
    <path id="Path_1383" data-name="Path 1383" d="M31,572.044a29.427,29.427,0,0,1,9.352,12.247A29.425,29.425,0,0,1,25.8,579.241,29.449,29.449,0,0,1,16.44,567,29.413,29.413,0,0,1,31,572.044Z" transform="translate(-15.95 -467.847)" fill="#29b6f6"/>
    <path id="Path_1384" data-name="Path 1384" d="M16.44,567s8.257,4.583,10.905,8.378,13,8.916,13,8.916" transform="translate(-15.95 -467.847)" fill="none" stroke="#535461" stroke-miterlimit="10" stroke-width="2"/>
    <path id="Path_1385" data-name="Path 1385" d="M84.624,529.228a16.006,16.006,0,0,1,5.091,6.664A14.545,14.545,0,0,1,76.7,526.48,16.006,16.006,0,0,1,84.624,529.228Z" transform="translate(-65.316 -434.652)" fill="#29b6f6"/>
    <path id="Path_1386" data-name="Path 1386" d="M76.7,526.48s4.494,2.495,5.937,4.559,7.078,4.852,7.078,4.852" transform="translate(-65.316 -434.652)" fill="none" stroke="#535461" stroke-miterlimit="10" stroke-width="2"/>
    <path id="Path_1387" data-name="Path 1387" d="M154.911,550.366a22.14,22.14,0,0,0-5,10.464,20.123,20.123,0,0,0,14.944-16.43A22.158,22.158,0,0,0,154.911,550.366Z" transform="translate(-125.29 -449.332)" fill="#29b6f6"/>
    <path id="Path_1388" data-name="Path 1388" d="M164.857,544.41s-5.377,4.65-6.743,7.853-8.2,8.575-8.2,8.575" transform="translate(-125.29 -449.341)" fill="none" stroke="#535461" stroke-miterlimit="10" stroke-width="2"/>
  </g>
</svg>
