<svg xmlns="http://www.w3.org/2000/svg" xmlns:xlink="http://www.w3.org/1999/xlink" width="1900" height="1078.898" viewBox="0 0 1900 1078.898">
  <defs>
    <linearGradient id="linear-gradient" x1="0.5" y1="1" x2="0.5" gradientUnits="objectBoundingBox">
      <stop offset="0" stop-color="gray" stop-opacity="0.251"/>
      <stop offset="0.54" stop-color="gray" stop-opacity="0.122"/>
      <stop offset="1" stop-color="gray" stop-opacity="0.102"/>
    </linearGradient>
    <linearGradient id="linear-gradient-2" x1="0.5" y1="1" x2="0.5" y2="0" xlink:href="#linear-gradient"/>
  </defs>
  <g id="home-bg" transform="translate(-10 -6)">
    <path id="Path_1501" data-name="Path 1501" d="M0,0H1900L740.245,1078.9H0Z" transform="translate(10 6)" fill="#29b6f6"/>
    <g id="undraw_doctors_hwty" transform="translate(1243.51 530.996)">
      <path id="Path_1269" data-name="Path 1269" d="M91.324,356.76h50.931v69.425H95.048c-.12.718-.241,1.43-.376,2.148h47.583v55.98a.716.716,0,0,1-.236-.09q-2.008-.8-4.015-1.691c-.286-.13-.567-.266-.858-.392q-2.008-.949-4.015-2.008c-.467-.246-.934-.5-1.39-.763a83.53,83.53,0,0,1-20.025-15.588c-.176-.166-.336-.346-.5-.5-.813-.883-1.611-1.777-2.384-2.69-.291-.336-.572-.678-.858-1-.913-1.114-1.8-2.269-2.65-3.428-.13-.176-.251-.346-.376-.5a74.138,74.138,0,0,1-8.632-15.608c-.07-.166-.135-.346-.2-.5-.693-1.757-1.32-3.538-1.862-5.355-.231-.758-.457-1.506-.647-2.294-.07-.226-.125-.457-.186-.683C90.6,420.1,90.27,408.544,90.27,397.046v-4.015q.06-7.041.166-14.068.04-1.807.075-3.629.105-4.612.3-9.245c.03-.853.07-1.711.115-2.56q.03-.738.075-1.476Q91.138,359.39,91.324,356.76Z" transform="translate(-52.726 -187.022)" fill="#6c63ff" opacity="0.1"/>
      <path id="Path_1270" data-name="Path 1270" d="M166.12,167.7H138.18a212.672,212.672,0,0,1,14.861-20.447c4.156-5.1,8.532-10.068,13.079-14.856Z" transform="translate(-76.591 -75.264)" fill="#017bff" opacity="0.1"/>
      <path id="Path_1271" data-name="Path 1271" d="M143.46,207v73.014H92.69c0-.211.03-.427.05-.637.045-.577.09-1.149.141-1.726.05-.673.115-1.345.181-2.008s.131-1.466.211-2.193.146-1.466.226-2.193.161-1.455.251-2.178.171-1.455.271-2.178c.075-.6.151-1.2.236-1.8.115-.848.236-1.7.361-2.54a2.417,2.417,0,0,1,.06-.381,175.121,175.121,0,0,1,3.734-18.329,135.709,135.709,0,0,1,6.3-18.57A139.458,139.458,0,0,1,114.186,207Z" transform="translate(-53.932 -112.424)" fill="#017bff" opacity="0.1"/>
      <path id="Path_1272" data-name="Path 1272" d="M218.09,188.3v69.425H326.878V188.3Zm0,71.573v59.623c.622.125,1.235.251,1.852.356.828.161,1.661.306,2.509.432l.5.07c.331.055.668.1,1,.141.838.12,1.676.211,2.509.291.391.04.8.07,1.194.105l.969.07h0c.527.04,1.049.07,1.571.09.321,0,.642.025.969.035s.5,0,.763,0h2.79c.432,0,.863,0,1.29-.04h.025a7.683,7.683,0,0,0,.9-.035,2.2,2.2,0,0,0,.256,0,6.045,6.045,0,0,0,.743-.03,1.055,1.055,0,0,1,.171,0c.557-.035,1.119-.08,1.686-.13s1.1-.11,1.671-.171l1.139-.141a99.943,99.943,0,0,0,13.777-2.931c10.153-2.831,20.075-6.79,30.223-9.686,13.109-3.739,27.6-5.581,40.271-1.029V259.871ZM326.878,111V18.572a139.789,139.789,0,0,0-35.342,4.141c-27.548,6.921-52.286,21.932-73.445,41.1v47.177h5.476v2.143H218.09V186.15H326.878V113.136H245.964v-2.148ZM466.642,79.776a45.036,45.036,0,0,1-19.724-5.731c-11.714-6.369-21.079-16.216-31.538-24.517a144.807,144.807,0,0,0-76.331-30.334V111H494.335l.386-.407Zm14.148-2.509,15,16.467v-20.8c-5.049.637-9.445,2.118-15,4.311Zm15,257.033V259.871H463.8c-.08-.316-.171-.637-.271-.959.1.321.181.642.266.959H339.048v53.822c1.184.878,2.354,1.807,3.513,2.74h0q1.877,1.536,3.729,3.107l1.245,1.029c.6.5,1.2,1,1.807,1.481q1.812,1.46,3.649,2.891.918.723,1.847,1.42a251.989,251.989,0,0,0,30.936,20.231c2.419,1.35,4.863,2.65,7.322,3.92q2.454,1.265,4.943,2.479,3.734,1.822,7.528,3.513h0a276.334,276.334,0,0,0,73.275,21.34q8.422,1.24,16.918,1.957V334.29h.5ZM339.048,113.136V186.15H495.791V113.136Zm0,75.152v69.435H495.791V188.3ZM507.956,72.835V96.072L527.1,75.058Q517.582,73.487,507.956,72.835Zm0,115.463v69.425H660.4V188.3ZM659.866,339.806l.537-79.935H507.956V380.608a274.681,274.681,0,0,0,29.46-.356h.171q7.026-.452,13.987-1.285h.105a257.211,257.211,0,0,0,71.884-19.2M689.813,199.7q-.868-2.008-1.782-4.015c-1.134-2.509-2.329-4.949-3.563-7.383H672.573v69.42h30.068c-.025-19.664-5-39.739-12.828-58.022Zm-17.24,60.171v68.758A98.39,98.39,0,0,0,693.351,300.6a96.457,96.457,0,0,0,9.27-40.738Zm0-91.8v18.068h10.78a196.3,196.3,0,0,0-10.78-18.068ZM569.186,86.461c-.793-.306-1.591-.612-2.389-.9a216.893,216.893,0,0,0-25.746-7.739l-29.3,32.15h0l-.572.617.376.407H615.836a222.789,222.789,0,0,0-46.65-24.532ZM618.9,113.136h-108.8l-2.138,1.952V186.15H660.4V151.721A217.06,217.06,0,0,0,618.9,113.136Z" transform="translate(-116.396 -18.56)" fill="#017bff" opacity="0.1"/>
      <path id="Path_1273" data-name="Path 1273" d="M143.46,280.39v36.181H92.69c0-.211.03-.427.05-.637.045-.577.09-1.149.141-1.726.05-.673.115-1.345.181-2.008s.131-1.465.211-2.193.146-1.465.226-2.193.161-1.455.251-2.178.171-1.455.271-2.178c.075-.6.151-1.2.236-1.8.115-.848.236-1.7.361-2.54a2.416,2.416,0,0,1,.06-.381,175.12,175.12,0,0,1,3.734-18.329Z" transform="translate(-53.932 -148.981)" fill="#017bff" opacity="0.1"/>
      <path id="Path_1274" data-name="Path 1274" d="M91.324,356.76h50.931v69.425H95.048c-.12.718-.241,1.43-.376,2.148h47.583v55.98a.716.716,0,0,1-.236-.09q-2.008-.8-4.015-1.691c-.286-.13-.567-.266-.858-.392q-2.008-.949-4.015-2.008c-.467-.246-.934-.5-1.39-.763a83.53,83.53,0,0,1-20.025-15.588c-.176-.166-.336-.346-.5-.5-.813-.883-1.611-1.777-2.384-2.69-.291-.336-.572-.678-.858-1-.913-1.114-1.8-2.269-2.65-3.428-.13-.176-.251-.346-.376-.5a74.138,74.138,0,0,1-8.632-15.608c-.07-.166-.135-.346-.2-.5-.693-1.757-1.32-3.538-1.862-5.355-.231-.758-.457-1.506-.647-2.294-.07-.226-.125-.457-.186-.683C90.6,420.1,90.27,408.544,90.27,397.046v-4.015q.06-7.041.166-14.068.04-1.807.075-3.629.105-4.612.3-9.245c.03-.853.07-1.711.115-2.56q.03-.738.075-1.476Q91.138,359.39,91.324,356.76Z" transform="translate(-52.726 -187.022)" fill="#017bff" opacity="0.1"/>
      <path id="Path_1275" data-name="Path 1275" d="M240.429,188.259v62.554h-38.3V188.259h5.46V167.08H230v21.179Z" transform="translate(-100.441 -83.224)" fill="#017bff" opacity="0.1"/>
      <rect id="Rectangle_434" data-name="Rectangle 434" width="38.294" height="69.425" transform="translate(101.689 169.733)" fill="#017bff" opacity="0.1"/>
      <path id="Path_1276" data-name="Path 1276" d="M218.09,499.37h38.294v57.716a99.193,99.193,0,0,1-13.777,2.926c-.381.055-.758.1-1.139.141-.562.065-1.119.125-1.676.176l-1.681.135h-.171l-.743.04h-.256c-.3,0-.6.035-.9.04h-.025c-.432,0-.858.03-1.29.04h-3.553a7.9,7.9,0,0,1-.974-.04q-.773-.03-1.566-.09h0l-.969-.07c-.4-.03-.8-.07-1.2-.11q-1.265-.11-2.509-.286l-1-.141-.5-.07c-.838-.125-1.671-.266-2.509-.427-.622-.11-1.235-.236-1.852-.366Z" transform="translate(-116.396 -258.059)" fill="#017bff" opacity="0.1"/>
      <rect id="Rectangle_435" data-name="Rectangle 435" width="31.578" height="69.937" transform="translate(347.812 97.648)" fill="#6c63ff" opacity="0.1"/>
      <path id="Path_1277" data-name="Path 1277" d="M599.893,338.19v69.43H443.15V377.673h83.488v17.666h41.671V338.19Z" transform="translate(-220.497 -168.457)" fill="#6c63ff" opacity="0.1"/>
      <path id="Path_1278" data-name="Path 1278" d="M616.339,572.863a2.838,2.838,0,0,1-.5-.03v45.546q-8.487-.7-16.913-1.952a276.7,276.7,0,0,1-73.3-21.33q-10.1-4.557-19.794-9.932a252.907,252.907,0,0,1-30.931-20.231q-3.7-2.831-7.3-5.787c-1.661-1.375-3.307-2.78-4.984-4.141-1.154-.938-2.324-1.867-3.513-2.75V498.419H583.848c-.09-.321-.171-.637-.261-.959.1.321.186.637.266.959h31.99v74.409C616.008,572.833,616.174,572.848,616.339,572.863Z" transform="translate(-236.447 -257.108)" fill="#6c63ff" opacity="0.1"/>
      <path id="Path_1279" data-name="Path 1279" d="M915.087,177.49H894.51V171.1h9.22V152.05q1.2.442,2.389.9V171.1h8.964Z" transform="translate(-453.333 -85.052)" fill="#6c63ff" opacity="0.1"/>
      <path id="Path_1280" data-name="Path 1280" d="M915.424,280.014H814.4a.066.066,0,0,0,.03,0H795.65V210.077h5.31V261.77h24.261V231.156h20.05V207h20.577v24.171h20.04v30.615h29.541Z" transform="translate(-404.089 -112.424)" fill="#6c63ff" opacity="0.1"/>
      <path id="Path_1281" data-name="Path 1281" d="M795.65,356.76v69.425H915.429V356.76ZM947.926,507.9l.171-54.956H915.429V428.353H795.65V549.071a274.681,274.681,0,0,0,29.46-.356h.171q7.026-.452,13.987-1.285h.105a257.212,257.212,0,0,0,71.884-19.2" transform="translate(-404.089 -187.022)" fill="#6c63ff" opacity="0.1"/>
      <path id="Path_1282" data-name="Path 1282" d="M1125.758,499.37h27.94a96.506,96.506,0,0,1-9.27,40.733,98.341,98.341,0,0,1-20.778,28.03V523.967h2.108Z" transform="translate(-567.472 -258.059)" fill="#6c63ff" opacity="0.1"/>
      <path id="Path_1283" data-name="Path 1283" d="M1155.81,437.5h-27.96V379.48h15.132C1150.806,397.763,1155.785,417.839,1155.81,437.5Z" transform="translate(-569.565 -198.34)" fill="#6c63ff" opacity="0.1"/>
      <rect id="Rectangle_436" data-name="Rectangle 436" width="16.918" height="21.927" transform="translate(362.477 117.09)" fill="#6c63ff" opacity="0.1"/>
      <rect id="Rectangle_437" data-name="Rectangle 437" width="16.918" height="5.049" transform="translate(362.477 162.541)" fill="#6c63ff" opacity="0.1"/>
      <rect id="Rectangle_438" data-name="Rectangle 438" width="16.918" height="14.73" transform="translate(362.477 169.733)" fill="#6c63ff" opacity="0.1"/>
      <rect id="Rectangle_439" data-name="Rectangle 439" width="16.918" height="21.927" transform="translate(362.477 207.991)" fill="#6c63ff" opacity="0.1"/>
      <rect id="Rectangle_440" data-name="Rectangle 440" width="16.918" height="21.927" transform="translate(362.477 253.441)" fill="#6c63ff" opacity="0.1"/>
      <path id="Path_1284" data-name="Path 1284" d="M754.618,630.928a2.436,2.436,0,0,1,.5.035,2.838,2.838,0,0,1-.5-.03v5.094H737.7V614.1h16.918Z" transform="translate(-375.223 -315.208)" fill="#6c63ff" opacity="0.1"/>
      <path id="Path_1285" data-name="Path 1285" d="M754.618,704.65v16.933q-8.492-.7-16.918-1.952V704.65Z" transform="translate(-375.223 -360.313)" fill="#6c63ff" opacity="0.1"/>
      <rect id="Rectangle_441" data-name="Rectangle 441" width="72.507" height="1.611" transform="translate(222.653 237.552)" fill="#6c63ff" opacity="0.1"/>
      <rect id="Rectangle_442" data-name="Rectangle 442" width="72.507" height="6.173" transform="translate(222.653 241.306)" fill="#6c63ff" opacity="0.1"/>
      <rect id="Rectangle_443" data-name="Rectangle 443" width="72.507" height="9.927" transform="translate(222.653 267.715)" fill="#6c63ff" opacity="0.1"/>
      <path id="Path_1286" data-name="Path 1286" d="M535.094,612.08v9.927H478.381q-3.7-2.821-7.3-5.792c-1.666-1.37-3.312-2.775-4.984-4.135Z" transform="translate(-239.934 -314.202)" fill="#6c63ff" opacity="0.1"/>
      <path id="Path_1287" data-name="Path 1287" d="M577.982,672.17v9.952h-5.987q-10.1-4.557-19.794-9.932Z" transform="translate(-282.822 -344.134)" fill="#6c63ff" opacity="0.1"/>
      <rect id="Rectangle_444" data-name="Rectangle 444" width="14.273" height="14.273" transform="translate(421.021 176.463)" fill="#6c63ff" opacity="0.1"/>
      <rect id="Rectangle_445" data-name="Rectangle 445" width="14.273" height="14.273" transform="translate(111.973 109.959)" fill="#6c63ff" opacity="0.1"/>
      <rect id="Rectangle_446" data-name="Rectangle 446" width="14.273" height="14.273" transform="translate(111.973 143.113)" fill="#6c63ff" opacity="0.1"/>
      <rect id="Rectangle_447" data-name="Rectangle 447" width="14.273" height="14.273" transform="translate(111.973 176.267)" fill="#6c63ff" opacity="0.1"/>
      <rect id="Rectangle_448" data-name="Rectangle 448" width="14.273" height="14.273" transform="translate(111.973 209.416)" fill="#6c63ff" opacity="0.1"/>
      <rect id="Rectangle_449" data-name="Rectangle 449" width="14.273" height="14.273" transform="translate(111.973 242.571)" fill="#6c63ff" opacity="0.1"/>
      <rect id="Rectangle_450" data-name="Rectangle 450" width="14.273" height="14.273" transform="translate(111.973 275.725)" fill="#6c63ff" opacity="0.1"/>
      <rect id="Rectangle_451" data-name="Rectangle 451" width="14.273" height="14.273" transform="translate(475.51 176.463)" fill="#6c63ff" opacity="0.1"/>
      <rect id="Rectangle_452" data-name="Rectangle 452" width="14.273" height="14.273" transform="translate(421.021 211.67)" fill="#6c63ff" opacity="0.1"/>
      <rect id="Rectangle_453" data-name="Rectangle 453" width="14.273" height="14.273" transform="translate(475.51 211.67)" fill="#6c63ff" opacity="0.1"/>
      <rect id="Rectangle_454" data-name="Rectangle 454" width="14.273" height="14.273" transform="translate(421.021 246.872)" fill="#6c63ff" opacity="0.1"/>
      <rect id="Rectangle_455" data-name="Rectangle 455" width="14.273" height="14.273" transform="translate(475.51 246.872)" fill="#6c63ff" opacity="0.1"/>
      <rect id="Rectangle_456" data-name="Rectangle 456" width="14.273" height="14.273" transform="translate(421.021 282.079)" fill="#6c63ff" opacity="0.1"/>
      <rect id="Rectangle_457" data-name="Rectangle 457" width="14.273" height="14.273" transform="translate(475.51 282.079)" fill="#6c63ff" opacity="0.1"/>
      <rect id="Rectangle_458" data-name="Rectangle 458" width="14.273" height="14.273" transform="translate(421.021 317.286)" fill="#6c63ff" opacity="0.1"/>
      <rect id="Rectangle_459" data-name="Rectangle 459" width="14.273" height="14.273" transform="translate(475.51 317.286)" fill="#6c63ff" opacity="0.1"/>
      <path id="Path_1288" data-name="Path 1288" d="M838.4,711.535v-9.2h14.268v7.895Z" transform="translate(-417.379 -349.842)" fill="#6c63ff" opacity="0.1"/>
      <path id="Path_1289" data-name="Path 1289" d="M96.53,316.91v8.166h48.843V316.91Zm4.863,7.654H97.378v-7.137h4.015Zm4.863,0h-4.015v-7.137h4.015Zm4.853,0h-4.015v-7.137h4.015Zm4.863,0h-4.015v-7.137h4.015Zm4.858,0h-4.015v-7.137h4.015Zm4.863,0h-4.015v-7.137h4.015Zm4.863,0h-4.015v-7.137h4.015Zm4.858,0H131.4v-7.137h4.015Zm4.858,0h-4.015v-7.137h4.015Zm4.863,0h-4.015v-7.137h4.015Z" transform="translate(-55.844 -167.172)" fill="#6c63ff" opacity="0.1"/>
      <path id="Path_1290" data-name="Path 1290" d="M96.53,364.27v8.166h48.843V364.27Zm4.863,7.654H97.378v-7.137h4.015Zm4.863,0h-4.015v-7.137h4.015Zm4.853,0h-4.015v-7.137h4.015Zm4.863,0h-4.015v-7.137h4.015Zm4.858,0h-4.015v-7.137h4.015Zm4.863,0h-4.015v-7.137h4.015Zm4.863,0h-4.015v-7.137h4.015Zm4.858,0H131.4v-7.137h4.015Zm4.858,0h-4.015v-7.137h4.015Zm4.863,0h-4.015v-7.137h4.015Z" transform="translate(-55.844 -190.763)" fill="#6c63ff" opacity="0.1"/>
      <path id="Path_1291" data-name="Path 1291" d="M96.53,411.64V419.8h48.843V411.64Zm4.863,7.644H97.378v-7.137h4.015Zm4.863,0h-4.015v-7.137h4.015Zm4.853,0h-4.015v-7.137h4.015Zm4.863,0h-4.015v-7.137h4.015Zm4.858,0h-4.015v-7.137h4.015Zm4.863,0h-4.015v-7.137h4.015Zm4.863,0h-4.015v-7.137h4.015Zm4.858,0H131.4v-7.137h4.015Zm4.858,0h-4.015v-7.137h4.015Zm4.863,0h-4.015v-7.137h4.015Z" transform="translate(-55.844 -214.359)" fill="#6c63ff" opacity="0.1"/>
      <path id="Path_1292" data-name="Path 1292" d="M96.53,459v8.161h48.843V459Zm4.863,7.649H97.378V459.5h4.015Zm4.863,0h-4.015V459.5h4.015Zm4.853,0h-4.015V459.5h4.015Zm4.863,0h-4.015V459.5h4.015Zm4.858,0h-4.015V459.5h4.015Zm4.863,0h-4.015V459.5h4.015Zm4.863,0h-4.015V459.5h4.015Zm4.858,0H131.4V459.5h4.015Zm4.858,0h-4.015V459.5h4.015Zm4.863,0h-4.015V459.5h4.015Z" transform="translate(-55.844 -237.95)" fill="#6c63ff" opacity="0.1"/>
      <path id="Path_1293" data-name="Path 1293" d="M97,506.34c.191.773.417,1.536.647,2.294v-1.777h4.015v7.132H99.509c.06.171.125.346.2.5h45.922V506.34Zm9.536,7.649h-4.015v-7.132h4.015Zm4.853,0h-4.015v-7.132h4.015Zm4.863,0h-4.015v-7.132h4.015Zm4.858,0H117.1v-7.132h4.015Zm4.863,0h-4.015v-7.132h4.015Zm4.863,0h-4.015v-7.132h4.015Zm4.858,0H131.68v-7.132H135.7Zm4.858,0h-4.015v-7.132h4.015Zm4.863,0H141.4v-7.132h4.015Z" transform="translate(-56.078 -261.531)" fill="#017bff" opacity="0.1"/>
      <path id="Path_1294" data-name="Path 1294" d="M119.54,553.7c.131.161.251.341.376.5h2.655v3.428l.858,1v-4.452h4.015v7.2h-1.651c.161.166.316.341.5.5h30.529V553.7Zm12.778,7.679H128.3v-7.167h4.015Zm4.863,0h-4.015v-7.167h4.015Zm4.863,0h-4.015v-7.167h4.015Zm4.858,0h-4.015v-7.167H146.9Zm4.858,0h-4.015v-7.167h4.015Zm4.863,0h-4.015v-7.167h4.015Z" transform="translate(-67.306 -285.122)" fill="#6c63ff" opacity="0.1"/>
      <path id="Path_1295" data-name="Path 1295" d="M172.93,601.06c.462.261.928.5,1.4.758v-.251h4.015v2.263c.291.125.567.261.853.391v-2.655h4.015v4.346a1.635,1.635,0,0,0,.236.085V601.06Z" transform="translate(-93.901 -308.713)" fill="#6c63ff" opacity="0.1"/>
      <path id="Path_1296" data-name="Path 1296" d="M532.136,277.882ZM501.22,426.012Zm-32.256-75.367c.1.321.181.642.266.959h0C469.155,351.287,469.065,350.966,468.964,350.644Zm63.172-72.763ZM229,202.73v2.138h22.419V202.72ZM501.225,426.012Zm-32.261-75.367c.1.321.181.642.266.959h0C469.155,351.287,469.065,350.966,468.964,350.644Zm63.172-72.763ZM501.22,426.012Zm-32.256-75.367c.1.321.181.642.266.959h0C469.155,351.287,469.065,350.966,468.964,350.644Z" transform="translate(-121.83 -110.292)" fill="#6c63ff" opacity="0.1"/>
      <ellipse id="Ellipse_341" data-name="Ellipse 341" cx="48.903" cy="7.854" rx="48.903" ry="7.854" transform="translate(392.71 417.351)" fill="#6c63ff" opacity="0.1"/>
      <ellipse id="Ellipse_342" data-name="Ellipse 342" cx="48.903" cy="7.854" rx="48.903" ry="7.854" transform="translate(172.153 409.496)" fill="#6c63ff" opacity="0.1"/>
      <path id="Path_1297" data-name="Path 1297" d="M481.552,356.667a.266.266,0,0,0-.075-.13c-.748-.738-10.284-14.223-10.284-14.223s-.5-1.506-1.315-3.463a3.442,3.442,0,0,0,.577-1.129,3.877,3.877,0,0,0,.1-.527c0-.055.04-.1.055-.156a3.81,3.81,0,0,0-.05-2.068,3.574,3.574,0,0,1-.206.5,8.393,8.393,0,0,0-.753-1.676c-1.265-2.178-3.072-4.015-4.4-6.138a16.607,16.607,0,0,1-2.264-11.021c0,.2,0,.4,0,.592a17.175,17.175,0,0,1,.3-2.258,15.67,15.67,0,0,1,.838-2.479c1.194-2.735,3.127-5.119,4.3-7.864a14.9,14.9,0,0,0,.893-2.876,16.111,16.111,0,0,0,.447-5.044,8.033,8.033,0,0,1-.125,1.2,16.336,16.336,0,0,0-4.612-10.876c-4.1-4.12-9.987-5.721-15.619-6.565a14.308,14.308,0,0,1-6.575-2.509,11.43,11.43,0,0,0-7.488-1.43,12.351,12.351,0,0,0-7.624,3.769c-2.675,2.941-3.834,7.107-6.956,9.586-1.892,1.506-4.291,2.208-6.494,3.232s-4.286,2.509-4.994,4.708v.08l-.03.08c-.733,2.6.683,5.245,1.42,7.839a31.763,31.763,0,0,1,.858,8.3c.055,3.393.105,6.79.05,10.188-.025,1.335-.07,2.685-.171,4.015a21.036,21.036,0,0,0-3.448,1.385,68.274,68.274,0,0,0-5.33,5.275l-8.226,31.428.11.125-.11.427.417-.1a42.348,42.348,0,0,0,8.4,7.056l.351,6.163s.422,6.183,6.108,8.738c.13,2.143.537,10.846-1.345,14.294a16.06,16.06,0,0,0-1.777,8.171s.657,5.23-.09,7.98a13.049,13.049,0,0,0-.1,5.6h0v1.651c0,5.566.065,23.4,0,25.42-.1,2.384,0,37.641,0,37.641s-.467,17.621-1.962,22.394-1.119,20.577-1.119,20.577-.939,18.826,2.379,22.539c0,.166-.03.336-.035.5v.236c-.04,1.43.236,2.951,1.466,3.418a21,21,0,0,1,6.454,4.682c.627.828,4.276,2.891,9.034,2.339a68.005,68.005,0,0,1,8.979-.411h0s1.877-.341,1.27-2.675h0a20.9,20.9,0,0,0-2.9-5.164c.191.05.376.09.552.125l.181.035h.141a1.892,1.892,0,0,0,.231,0h.1a1.715,1.715,0,0,0,.281,0h0c1.26-.12,5.957,2.068,6.8,3.513s3.794,2.544,6.023,2.821a42.791,42.791,0,0,0,7.473-.472,27.515,27.515,0,0,0,4.186-.763c.663-.251.8-1.054.612-1.957h0a5.094,5.094,0,0,0-1.737-2.931,14.1,14.1,0,0,1-2.68-3.342l-.211-.336c1.4-1.335,3.93-5.7,4.7-6.6.934-1.1-1.506-41.295-1.506-41.295V486.659l3.739-19.071,2.615-10.093,2.243-15.237s3.925-17.8,2.715-19.543h0c0-.035-1-18.359-2.058-22.76-.457-1.962-.341-6.379-.07-10.675a2.108,2.108,0,0,0,.5-2.2,4.568,4.568,0,0,0-.291-.748V386.1a34.559,34.559,0,0,1,6.76-2.3c3.739-.733,2.805-2.66,2.805-2.66s.843-1.651,1.4-2.66.1-9.912,0-10.645c-.035-.3-.266-1.932-.532-3.789,1.2-.853,2.76-1.912,4.462-2.916C482.546,359.216,481.818,357.194,481.552,356.667ZM432.769,483.909s-2.806,7.157-1.681,8.989-.186,8.632-.186,8.632l-.939,10.093s-2.615,18.72-1.681,23.122c.733,3.453,1,13.767,1.089,18.068h0a1.265,1.265,0,0,0-.186.09l-.125.065c.432-1.691.251-5.114-1.892-12l-.181-28.442s-.331-32.853,2.263-36.527,3.513-9.912,3.513-9.912-.562,9-.928,11.383S432.769,483.909,432.769,483.909ZM427.544,554.6c-.025.06-.055.12-.075.176l-.141-.181A1.481,1.481,0,0,0,427.544,554.6Z" transform="translate(-204.194 -147.004)" fill="url(#linear-gradient)"/>
      <path id="Path_1298" data-name="Path 1298" d="M489.458,842.176a49.828,49.828,0,0,1-11.513,1.24c-2.2-.266-5.109-1.38-5.937-2.836s-5.471-3.654-6.715-3.513a4.516,4.516,0,0,1-1.506-.211,18.54,18.54,0,0,1-2.509-.964,4.658,4.658,0,0,1,.055-1.907,3.054,3.054,0,0,1,.11-.371,3.317,3.317,0,0,1,1.686-1.877l.181-.085a5.1,5.1,0,0,1,1.084-.331c3.945-.758,20.221.763,20.221.763s.457.818,1.084,1.832a14.008,14.008,0,0,0,2.65,3.363,5.144,5.144,0,0,1,1.711,2.951C490.251,841.117,490.111,841.93,489.458,842.176Z" transform="translate(-237.496 -423.304)" fill="#fff"/>
      <path id="Path_1299" data-name="Path 1299" d="M489.464,843.571a49.79,49.79,0,0,1-11.508,1.24c-2.2-.266-5.109-1.385-5.942-2.836s-5.465-3.654-6.71-3.513-4.015-1.174-4.015-1.174a4.16,4.16,0,0,1,.823-3.378l2.509,1.782s6.715,2.083,7.96,4.015,3.513,3.011,6.79,3.207c2.449.161,8.075-.793,10.71-1.27C490.257,842.512,490.122,843.325,489.464,843.571Z" transform="translate(-237.502 -424.7)" opacity="0.1"/>
      <path id="Path_1300" data-name="Path 1300" d="M444.195,844.915a66.808,66.808,0,0,0-8.863.417c-4.713.552-8.311-1.506-8.938-2.354a20.943,20.943,0,0,0-6.369-4.718c-1.22-.472-1.506-2.008-1.45-3.443v-.236a14.057,14.057,0,0,1,.4-2.7l19.528-.417,1.691,2.294.261.351,1.029,1.4s.467.612,1.079,1.506a21.424,21.424,0,0,1,2.866,5.2h0C446.047,844.574,444.195,844.915,444.195,844.915Z" transform="translate(-216.257 -423.484)" fill="#fff"/>
      <path id="Path_1301" data-name="Path 1301" d="M444.195,848.248a66.828,66.828,0,0,0-8.863.417c-4.708.552-8.311-1.506-8.933-2.354a20.353,20.353,0,0,0-6.374-4.708c-1.22-.472-1.506-2.007-1.45-3.443,1.4.326,4.326,1.159,5.476,2.61,1.506,1.937,4.2,5.194,8.03,5.4,3.092.166,10.62-.386,13.38-.607C446.052,847.907,444.195,848.248,444.195,848.248Z" transform="translate(-216.257 -426.817)" opacity="0.1"/>
      <path id="Path_1302" data-name="Path 1302" d="M441.852,831.887c-.226,1.676-.923,2.128-1.425,2.228a.967.967,0,0,1-.371,0,1.233,1.233,0,0,1-.2-.03s-17.536,3.875-21.079.738a2.464,2.464,0,0,1-.251-.261,14.058,14.058,0,0,1,.4-2.7l19.528-.417,1.691,2.294a3.317,3.317,0,0,1,1.686-1.877Z" transform="translate(-216.239 -423.474)" opacity="0.1"/>
      <path id="Path_1303" data-name="Path 1303" d="M487.764,833.85c-.391.432-.718.678-.923.592-.923-.371-8.492-1.661-10.9-.552s-10.539.181-10.539.181,0-.964-.045-2.509a5.1,5.1,0,0,1,1.084-.331c3.945-.758,20.221.763,20.221.763S487.142,832.836,487.764,833.85Z" transform="translate(-239.566 -423.259)" opacity="0.1"/>
      <path id="Path_1304" data-name="Path 1304" d="M473.5,584.787l-2.218,15.327-2.58,10.158-3.694,19.2V649.8s2.4,40.442,1.476,41.546-4.432,7.393-5.355,7.026-8.492-1.661-10.9-.557-10.54.186-10.54.186-.186-15.694-1.109-20.125,1.661-23.267,1.661-23.267l.923-10.153s1.295-6.836.186-8.683,1.661-9.034,1.661-9.034-1.29-4.07-.918-6.469.918-11.448.918-11.448-.918,6.284-3.483,9.972-2.238,36.748-2.238,36.748l.181,28.607c4.622,15.147,0,13.666,0,13.666s-17.536,3.88-21.079.738-2.529-22.916-2.529-22.916-.366-15.88,1.109-20.677,1.942-22.529,1.942-22.529-.1-35.458,0-37.852c.07-2.008,0-19.98,0-25.6v-1.661l2.118-5.26,25.094-3.142h12.005S474.2,563.166,476.07,565a.415.415,0,0,1,.1.11C477.38,566.88,473.5,584.787,473.5,584.787Z" transform="translate(-213.849 -287.722)" fill="#017bff"/>
      <path id="Path_1305" data-name="Path 1305" d="M472.11,770.88s5.521,13.295,8.125,14.218S472.11,770.88,472.11,770.88Z" transform="translate(-242.928 -393.303)" opacity="0.1"/>
      <path id="Path_1306" data-name="Path 1306" d="M476.18,809.88s18.64.923,18.454,2.956S476.18,809.88,476.18,809.88Z" transform="translate(-244.955 -412.73)" opacity="0.1"/>
      <path id="Path_1307" data-name="Path 1307" d="M426.49,799.29c.738.7,14.218,2.007,13.109,3.282s-12,3.754-12,3.754Z" transform="translate(-220.204 -407.455)" opacity="0.1"/>
      <path id="Path_1308" data-name="Path 1308" d="M422.08,753.59c0,.552,2.77,17.726,3.513,18.464s6.831,1.476,6.831,1.476Z" transform="translate(-218.007 -384.691)" opacity="0.1"/>
      <path id="Path_1309" data-name="Path 1309" d="M442.942,281.969c-2.645,2.956-3.789,7.147-6.871,9.646-1.872,1.506-4.241,2.223-6.419,3.247s-4.336,2.585-4.984,4.9c-.723,2.61.673,5.275,1.405,7.885a32.64,32.64,0,0,1,.848,8.346c.05,3.418.105,6.836.045,10.253-.09,5.325-.532,10.9-3.358,15.408,10.2,3.247,21.054,3.689,31.754,4.105a32.038,32.038,0,0,0,6.168-.156,52.934,52.934,0,0,0,5.255-1.33,40.289,40.289,0,0,1,10.469-1.34,17.577,17.577,0,0,0,4.6-.306,4.536,4.536,0,0,0,3.317-2.916,5.417,5.417,0,0,0-.848-3.955c-1.245-2.188-3.011-4.015-4.346-6.173a16.964,16.964,0,0,1-1.089-15.252c1.184-2.755,3.092-5.154,4.256-7.915a16.693,16.693,0,0,0-3.363-17.706c-4.05-4.146-9.862-5.752-15.423-6.6a14.007,14.007,0,0,1-6.494-2.509,11.116,11.116,0,0,0-7.4-1.435A12.076,12.076,0,0,0,442.942,281.969Z" transform="translate(-218.769 -147.819)" fill="#3f3d56"/>
      <g id="Group_400" data-name="Group 400" transform="translate(205.042 150.641)" opacity="0.1">
        <path id="Path_1310" data-name="Path 1310" d="M532.75,331.689a16.7,16.7,0,0,0-1.28,7.664,16.408,16.408,0,0,1,1.28-5.44c1.179-2.755,3.087-5.154,4.251-7.915a16.014,16.014,0,0,0,1.169-7.287A15.609,15.609,0,0,1,537,323.779C535.837,326.539,533.929,328.933,532.75,331.689Z" transform="translate(-477.518 -318.71)"/>
        <path id="Path_1311" data-name="Path 1311" d="M428.081,336.654c.03,1.967.06,3.94.065,5.907q0-4.065-.065-8.12a32.568,32.568,0,0,0-.848-8.351,41.37,41.37,0,0,1-1.506-5.189c-.447,2.459.823,4.954,1.506,7.408A32.418,32.418,0,0,1,428.081,336.654Z" transform="translate(-424.819 -319.801)"/>
        <path id="Path_1312" data-name="Path 1312" d="M482.223,398.221a16.973,16.973,0,0,1-4.592.306,40.261,40.261,0,0,0-10.464,1.315,53.294,53.294,0,0,1-5.255,1.325,31.705,31.705,0,0,1-6.173.161c-10.339-.407-20.823-.843-30.725-3.8a17.032,17.032,0,0,1-1,1.907c10.2,3.242,21.054,3.689,31.749,4.105a31.71,31.71,0,0,0,6.173-.161,51.9,51.9,0,0,0,5.235-1.32,40.262,40.262,0,0,1,10.444-1.33,17.33,17.33,0,0,0,4.592-.311,4.54,4.54,0,0,0,3.317-2.911,3.985,3.985,0,0,0-.05-2.088A4.685,4.685,0,0,1,482.223,398.221Z" transform="translate(-424.01 -356.921)"/>
      </g>
      <path id="Path_1313" data-name="Path 1313" d="M476.287,359.841c-.371.833-1.937,8.03-2.309,8.768s-2.4,12.547-2.585,13.21-13.365-2.77-13.365-2.77l-7.935-6.65-8.156-8.115s-.241-7.322,5.767-9.671a9.17,9.17,0,0,1,1.255-.391c7.287-1.752,6.555-23.91,6.555-23.91l14.956,6.459S467.7,349.7,467.8,352.192c.025.838.683,1.36,1.541,1.676a12.18,12.18,0,0,0,4.085.442S476.659,359.013,476.287,359.841Z" transform="translate(-227.898 -173.847)" fill="#fbbebe"/>
      <path id="Path_1314" data-name="Path 1314" d="M544.119,436.434l2.123.557s1.571,2.389-2.123,4.612a63.981,63.981,0,0,0-6.74,4.713l-10.916,3.322-2.1-6.6,10.158-7.709Z" transform="translate(-268.955 -226.16)" fill="#29b6f6"/>
      <path id="Path_1315" data-name="Path 1315" d="M544.119,436.434l2.123.557s1.571,2.389-2.123,4.612a63.981,63.981,0,0,0-6.74,4.713l-10.916,3.322-2.1-6.6,10.158-7.709Z" transform="translate(-268.955 -225.658)" opacity="0.1"/>
      <path id="Path_1316" data-name="Path 1316" d="M400.786,449.04,396.54,453.2s7.659,8.863,13.551,9.415,9.691-6.74,9.691-6.74l-5.1-8.03Z" transform="translate(-205.285 -232.391)" fill="#29b6f6"/>
      <path id="Path_1317" data-name="Path 1317" d="M400.786,449.04,396.54,453.2s7.659,8.863,13.551,9.415,9.691-6.74,9.691-6.74l-5.1-8.03Z" transform="translate(-205.787 -231.387)" opacity="0.1"/>
      <circle id="Ellipse_343" data-name="Ellipse 343" cx="14.77" cy="14.77" r="14.77" transform="translate(221.062 141.402)" opacity="0.1"/>
      <circle id="Ellipse_344" data-name="Ellipse 344" cx="14.77" cy="14.77" r="14.77" transform="translate(221.062 140.292)" fill="#fbbebe"/>
      <path id="Path_1318" data-name="Path 1318" d="M479.337,566.8a47.681,47.681,0,0,0-9.882,2.213c-5.521,1.837-48.783.03-49.385,0v-1.661l2.118-5.26,25.094-3.142h12.005s18.068,4.246,19.935,6.078C479.3,566.132,479.337,566.8,479.337,566.8Z" transform="translate(-217.006 -287.737)" opacity="0.1"/>
      <path id="Path_1319" data-name="Path 1319" d="M476.287,383.222c-.371.833-1.937,8.03-2.309,8.768s-2.4,12.547-2.585,13.21-13.365-2.77-13.365-2.77l-7.935-6.65-8.156-8.115s-.241-7.322,5.767-9.671l14.916,17.149,6.715-17.892a12.179,12.179,0,0,0,4.085.442S476.659,382.394,476.287,383.222Z" transform="translate(-227.898 -197.229)" opacity="0.1"/>
      <path id="Path_1320" data-name="Path 1320" d="M448.053,394.932l-15.267-17.566a6.4,6.4,0,0,0-6.058-.447c-3.418,1.481-7.664,2.68-8.773,3.418a68.445,68.445,0,0,0-5.265,5.3l12.376,32.376-5.45,21.325s.833,10.9-1.29,14.866a16.316,16.316,0,0,0-1.757,8.216s.647,5.265-.09,8.03a13.375,13.375,0,0,0-.1,5.631s43.859,1.847,49.4,0a47.264,47.264,0,0,1,9.882-2.213s-1-18.469-2.008-22.9.833-21.325.833-21.325l-1.2-18.1,7.2-18.57s-3.9-11.9-7.965-13.1c0,0-7.383-1.757-8.954-2.585s-6.188-1.571-6.188-1.571l-2.424.813Z" transform="translate(-213.33 -196.467)" fill="#29b6f6"/>
      <rect id="Rectangle_460" data-name="Rectangle 460" width="35.152" height="53.792" rx="2.94" transform="translate(222.426 212.188) rotate(3.89)" opacity="0.1"/>
      <rect id="Rectangle_461" data-name="Rectangle 461" width="35.152" height="53.792" rx="2.94" transform="translate(223.533 211.086) rotate(3.89)" fill="#3f3d56"/>
      <rect id="Rectangle_462" data-name="Rectangle 462" width="30.625" height="46.283" transform="translate(225.517 215.269) rotate(3.89)" fill="#fff"/>
      <rect id="Rectangle_463" data-name="Rectangle 463" width="25.02" height="6.973" transform="translate(228.372 227.385) rotate(4.004)" opacity="0.1"/>
      <rect id="Rectangle_464" data-name="Rectangle 464" width="3.97" height="3.634" transform="translate(248.468 256.507) rotate(3.89)" opacity="0.1"/>
      <rect id="Rectangle_465" data-name="Rectangle 465" width="20.321" height="3.634" transform="translate(228.247 246.648) rotate(3.89)" opacity="0.1"/>
      <rect id="Rectangle_466" data-name="Rectangle 466" width="21.159" height="5.586" transform="translate(231.179 214.185) rotate(3.89)" fill="#3f3d56"/>
      <rect id="Rectangle_467" data-name="Rectangle 467" width="21.159" height="5.586" transform="translate(231.179 214.185) rotate(3.89)" opacity="0.1"/>
      <path id="Path_1321" data-name="Path 1321" d="M479.5,572.56s-.186,27.332-7.388,43.026c0,0,8.682-20.682,8.682-21.511s4.8-9.511,3.513-12.1S479.5,572.56,479.5,572.56Z" transform="translate(-242.928 -294.516)" opacity="0.1"/>
      <path id="Path_1322" data-name="Path 1322" d="M469.981,304.742a10.274,10.274,0,0,1,1.671-6.881,8.477,8.477,0,0,0,6.555,8.934,1.109,1.109,0,0,1-.316-1.215,37.168,37.168,0,0,0,2.981,3.568c1.164,1.024,2.911,1.636,4.281.908,1.862-1,1.882-3.649,1.4-5.706a26.8,26.8,0,0,0-6.168-11.779,8.161,8.161,0,0,0-6.474-3.292,15.927,15.927,0,0,0-8.366,1.31,22.237,22.237,0,0,0-4.015,2.805l-7.026,5.732a6.67,6.67,0,0,0-1.706,1.8,4.919,4.919,0,0,0-.532,1.882,10.143,10.143,0,0,0,4.728,9.571,7.483,7.483,0,0,1,4.482-7.026,1.947,1.947,0,0,1,.7,1.45l1.481-2.64a2.906,2.906,0,0,1,1-1.189c.913-.5,2.053.09,2.831.8s1.536,1.591,2.58,1.7l.04-3.93" transform="translate(-233.019 -153.373)" opacity="0.1"/>
      <path id="Path_1323" data-name="Path 1323" d="M470,303.641a10.278,10.278,0,0,1,1.671-6.886,8.482,8.482,0,0,0,6.56,8.933,1.1,1.1,0,0,1-.316-1.21,37.782,37.782,0,0,0,2.981,3.568c1.164,1.029,2.911,1.636,4.281.9,1.862-1,1.882-3.649,1.4-5.7a26.8,26.8,0,0,0-6.168-11.779,9.872,9.872,0,0,0-3.448-2.68,10.037,10.037,0,0,0-3.011-.612,15.923,15.923,0,0,0-8.366,1.3,22.511,22.511,0,0,0-4.015,2.811l-7.026,5.731a6.6,6.6,0,0,0-1.706,1.8,4.893,4.893,0,0,0-.532,1.882,10.138,10.138,0,0,0,4.728,9.566,7.493,7.493,0,0,1,4.482-7.026,1.962,1.962,0,0,1,.7,1.45l1.476-2.63a2.876,2.876,0,0,1,1-1.189c.913-.5,2.053.09,2.831.8s1.536,1.586,2.58,1.7l.04-3.935" transform="translate(-233.039 -152.825)" fill="#3f3d56"/>
      <path id="Path_1324" data-name="Path 1324" d="M457.3,476.357c-1.29-.652-22.62,2.675-22.62,2.675a122.068,122.068,0,0,0-12.005-2.4c-8.492-1.4-9.034-9.7-9.034-9.7l-.928-16.617,2.866-2.509,12.276,8.03a39.656,39.656,0,0,1,0,4.793,6.758,6.758,0,0,0-.412,1.506.5.5,0,0,0,.412.452c.833.211,12.186,2.048,12.186,2.048s26.314-1.8,32.873,7.061a6.664,6.664,0,0,1,1.159,2.188C475.7,479.945,458.466,476.934,457.3,476.357Z" transform="translate(-213.34 -232.376)" fill="#fbbebe"/>
      <path id="Path_1325" data-name="Path 1325" d="M488.318,488.179c-1,.447-1.626.768-1.626.768s-9.415-.276-14.705-2.193a34.54,34.54,0,0,0-11.719-1.576s-22.043-3.794-18.625-8.748a.5.5,0,0,0,.412.452c.833.211,12.186,2.048,12.186,2.048s26.314-1.8,32.873,7.061A6.664,6.664,0,0,1,488.318,488.179Z" transform="translate(-227.572 -246.632)" opacity="0.1"/>
      <path id="Path_1326" data-name="Path 1326" d="M497.488,441.58s1.295,9.139,1.385,9.882.557,9.691,0,10.71-1.385,2.675-1.385,2.675.923,1.937-2.77,2.68a37.912,37.912,0,0,0-8.03,2.951s-9.42-.276-14.68-2.213a33.877,33.877,0,0,0-11.724-1.571s-27.98-4.8-15.975-10.665,20.5,2.078,20.5,2.078l13.385-.828s4.989-3.051,6.374-2.77a5.125,5.125,0,0,0,2.861-.462l.1-9.7Z" transform="translate(-227.589 -229.273)" fill="#fbbebe"/>
      <path id="Path_1327" data-name="Path 1327" d="M407.28,396.741l-2.68-.141-8.12,31.618s8.768-2.218,12.547,0,10.71,2.675,10.71,2.675l-2.585-25.2Z" transform="translate(-205.255 -206.867)" opacity="0.1"/>
      <path id="Path_1328" data-name="Path 1328" d="M407.28,395.631l-2.68-.141-8.12,31.619s8.768-2.218,12.547,0,10.71,2.675,10.71,2.675l-2.585-25.2Z" transform="translate(-205.255 -206.314)" fill="#29b6f6"/>
      <path id="Path_1329" data-name="Path 1329" d="M534.493,409.57l3.689.833s9.42,13.551,10.158,14.309-3.513,3.513-5.265,3.513-10.339,1-12.833,3.322-1.455-9.35-1.455-9.616,3.1-7.629,3.1-7.629Z" transform="translate(-271.053 -213.328)" opacity="0.1"/>
      <path id="Path_1330" data-name="Path 1330" d="M534.493,408.47l3.689.828s9.42,13.576,10.158,14.314-3.513,3.513-5.265,3.513-10.339,1-12.833,3.322-1.455-9.35-1.455-9.616,3.117-7.654,3.117-7.654Z" transform="translate(-271.053 -212.78)" fill="#29b6f6"/>
      <g id="Group_401" data-name="Group 401" transform="translate(219.218 142.822)" opacity="0.1">
        <path id="Path_1331" data-name="Path 1331" d="M471.646,304.284a7.4,7.4,0,0,1,.025-1.154,10.275,10.275,0,0,0-1.546,3.789v1.4c0,.813,0,1.631-.025,2.444h-.07v.376a2,2,0,0,0-.025-.386,5.338,5.338,0,0,1-2.469-1.676c-.748-.673-1.917-1.315-2.831-.8a2.875,2.875,0,0,0-1,1.189l-1.491,2.63a1.942,1.942,0,0,0-.7-1.445,7.483,7.483,0,0,0-4.482,7.026,10.2,10.2,0,0,1-4.763-7.995,10.148,10.148,0,0,0,4.763,9.1,7.493,7.493,0,0,1,4.482-7.026,1.962,1.962,0,0,1,.7,1.45l1.476-2.63a2.876,2.876,0,0,1,1-1.189c.913-.5,2.053.09,2.831.8s1.536,1.586,2.58,1.7q0-1.927.04-3.844A10.223,10.223,0,0,1,471.646,304.284Z" transform="translate(-452.256 -303.13)"/>
        <path id="Path_1332" data-name="Path 1332" d="M487.5,313.129c.025-.341.065-.683.115-1l.055-1.385A10.156,10.156,0,0,0,487.5,313.129Z" transform="translate(-469.806 -306.921)"/>
        <path id="Path_1333" data-name="Path 1333" d="M510.577,322.992c-1.37.733-3.117.12-4.281-.9a37.163,37.163,0,0,1-2.981-3.568,1.109,1.109,0,0,0,.316,1.215,1.184,1.184,0,0,1-.291-.075,33.161,33.161,0,0,0,2.956,3.513c1.154,1,2.911,1.636,4.281.9s1.762-2.449,1.641-4.12A3.484,3.484,0,0,1,510.577,322.992Z" transform="translate(-477.656 -310.796)"/>
        <path id="Path_1334" data-name="Path 1334" d="M497.145,313.368a8.532,8.532,0,0,1-6.253-7.458,8.477,8.477,0,0,0,6.575,8.647A1.1,1.1,0,0,1,497.145,313.368Z" transform="translate(-471.492 -304.515)"/>
      </g>
      <path id="Path_1335" data-name="Path 1335" d="M877.456,374.6s-1.977-.276-1.977-3.152a45.22,45.22,0,0,0-1.415-8.261h0s-1.225-9.37-2.916-10.856-3.865-10.208-3.865-10.208-.371-4.733-1.129-5.752a48.863,48.863,0,0,1-3.292-7.072c-1.511-3.558-7.794-6-7.794-6s-11.388-6.6-14.615-8.758h0a4.985,4.985,0,0,1-.823-.622c-.562-.733-3.011-.748-3.011-.748a49.578,49.578,0,0,1-.582-5.159v-.542a17.365,17.365,0,0,0,7.634-9.445c.06-.191.11-.386.166-.582a1.631,1.631,0,0,0,1-.883,17.717,17.717,0,0,1,.657-2.008,7.441,7.441,0,0,1,1.857-1.626c1.6-1.36,2.008-3.644,1.932-5.716-.05-1.686-.321-3.383-.216-5.054a1.99,1.99,0,0,1,.03-.422c.03-.246.065-.5.11-.743.246-1.245.783-2.419,1.084-3.654a4.7,4.7,0,0,0-.371-3.689c-1.029-1.561-3.172-1.872-5.054-2.008-2.133-.181-4.015.05-5.405-1.721a18.925,18.925,0,0,0-2.148-2.59c-.281-.261-3.011-1.932-3.011-2.038a12.2,12.2,0,0,0-8.532-.657c-1.42.412-2.75,1.084-4.191,1.42-3.092.733-6.655-.06-9.285,1.711a10.958,10.958,0,0,0-3.167,4.156q-1,1.917-2.038,3.839a24.705,24.705,0,0,0-2.705,6.57,11.137,11.137,0,0,0-.186,1.541h0v.8a2.755,2.755,0,0,0,.03.5,2.864,2.864,0,0,0,.035.311c.035.105.045.341.075.5s.09.447.151.662a1.018,1.018,0,0,0,.09.281c.03.1.11.336.176.5s.07.176.11.261a4.7,4.7,0,0,0,.256.5c.04.065.07.13.11.2a5.677,5.677,0,0,0,.462.673c1.069,1.34,2.655,2.193,3.824,3.448v.562a17.18,17.18,0,0,0,7.87,14c0,.191.025.386.035.582a28.638,28.638,0,0,1-.055,4.467,2.118,2.118,0,0,0-1.666-.743,2.388,2.388,0,0,0-.642.055l-.045-.035h0v.045c-1.1.271-2.464,1.42-3.764,4.688,0,0-3.955,4.457-6.966,4.271s-10.635,4.642-10.635,4.642-7.438,4.823-9.034,9.742a68.085,68.085,0,0,1-3.207,8.171l-9.219,18.931h0L770.5,376.945s.938,6.68.753,7.7,3.859,10.208,3.859,10.208,13.365,23.478,18.826,24.682l.391-.271a3.416,3.416,0,0,0,.738.271l1.124-.788a11.746,11.746,0,0,1-.09,2.645c-.748,2.324.286,17.45,1.6,20.417s.848,41.862.848,41.862l-.186,3.428a1.455,1.455,0,0,0,.045.3l-.045.813.135.07a9.7,9.7,0,0,1-.135,3.272,36.28,36.28,0,0,0-.662,5.757s-3.764,24.03-1.977,28.858,3.3,10.118,3.3,10.118,1.882,6.023.09,7.026-6.866,2.785-5.832,5.29c.954,2.319,4.572,8.532,5.109,9.44l-.045.5-.738,7.995a10.038,10.038,0,0,0,.848,3.051,5.247,5.247,0,0,0,5.365,3.353c.5-.035,1.079-.09,1.646-.166a71.321,71.321,0,0,0,12.191-3.177,4.807,4.807,0,0,1-.949-.788h0a2.755,2.755,0,0,1-.838-2.007c.08-1.461-2.645-8.391-3.328-10.1l-.156-.381s6.213-6.5,5.179-12.251c0,0-6.876-4.015-4.612-6.223s6.309-8.532,6.309-8.532.186-23.664,0-27.192a29.309,29.309,0,0,1,.346-7.348c.075-.361.166-.718.261-1.074a64.115,64.115,0,0,0,9.465.718q1.736,0,3.513-.07,0,.5.045,1.084c.261,5.862.748,16.146,1.144,19.965.562,5.471,3.669,20.231,3.669,20.231s-5.927,3.8,1.034,13.179c0,0,0,3.393-.462,3.89h0a42.475,42.475,0,0,0-1.189,4.9c-.291,1.762-.412,3.553.06,4.477,1.129,2.218,7.9,2.038,7.9,2.038h0a1.061,1.061,0,0,1,.166-.025,9.671,9.671,0,0,1,7.172,2.158c2.575,2.068,12.341,1.164,17.636.5,2.073-.266,3.458-.5,3.458-.5a2.032,2.032,0,0,0,.07-.723h0c-.055-1.3-1.074-4.151-7.98-6.7,0,0-6.494-4.366-6.4-8.171h-.893c.472-.015.8-.015.8-.015s-2.545-9.28-1.506-10.038-2.073-11.041-2.073-11.041-1.782-17.265-1.882-18.469a10.611,10.611,0,0,1,.472-3.061l-.472-9.47s-.09-3.147,0-4.171a19.624,19.624,0,0,0-.211-2.655c-.045-.351-.09-.718-.141-1.079,2.434-.617,4.015-1.184,4.015-1.184L857,456.533c2.068-4.015,2.449-12.828,2.439-19.071,0-4.015-.181-6.986-.181-6.986l2.826-4.612s.652-5.521-.381-6.73a1.159,1.159,0,0,1,.125-1.581,5.247,5.247,0,0,1,.627-.442.787.787,0,0,1-.065-.11,4.991,4.991,0,0,1,.627-.447s-1-1.556-.105-2.213c.843.572,1.6,1.029,2.168,1.355-.04.366-.08.577-.08.577l.241-.5.888.5s4.427-8.818,4.331-10.113,3.011-6.775,3.011-6.775.376-2.881,2.073-4.085,1.315-9.932,1.315-9.932.472-4.547,1.6-6.4S877.456,374.6,877.456,374.6Zm-84.7-3.869.085,2.1c-.5-.808-.863-1.385-.863-1.385Z" transform="translate(-391.562 -140.893)" fill="url(#linear-gradient-2)"/>
      <path id="Path_1336" data-name="Path 1336" d="M949.981,546.539l-1.084,4.617s-8.683-4.442-10.243-10.063,2.615-7.764,2.615-7.764l8.1,3.423Z" transform="translate(-475.148 -274.975)" fill="#fff"/>
      <path id="Path_1337" data-name="Path 1337" d="M949.981,546.539l-1.084,4.617s-8.683-4.442-10.243-10.063,2.615-7.764,2.615-7.764l8.1,3.423Z" transform="translate(-475.148 -274.975)" opacity="0.1"/>
      <path id="Path_1338" data-name="Path 1338" d="M844.979,854.638s-8.03,2.951-13.551,3.322a5.156,5.156,0,0,1-5.265-3.332,10.187,10.187,0,0,1-.833-3.011l.728-7.955.381-4.231,11.729-3.051,1.661,5.084.156.381c.662,1.7,3.342,8.6,3.262,10.038a2.755,2.755,0,0,0,.818,2.007,4.661,4.661,0,0,0,.913.748Z" transform="translate(-418.874 -425.93)" fill="#fff"/>
      <path id="Path_1339" data-name="Path 1339" d="M937.963,850.045a2.007,2.007,0,0,1-.07.723s-17.174,2.861-20.687,0A9.3,9.3,0,0,0,910,848.645s-6.645.181-7.754-2.008c-.462-.918-.341-2.7-.055-4.452a42.662,42.662,0,0,1,1.164-4.878l.266-.211,1.581-1.27,18.509-.547h.14c-.09,3.784,6.279,8.126,6.279,8.126C936.909,845.915,937.907,848.75,937.963,850.045Z" transform="translate(-457.032 -425.382)" fill="#fff"/>
      <path id="Path_1340" data-name="Path 1340" d="M937.965,856.894a2.069,2.069,0,0,1-.075.723s-17.174,2.861-20.683,0a9.3,9.3,0,0,0-7.212-2.123s-6.65.181-7.759-2.008c-.457-.918-.341-2.7-.055-4.457,2.56.256,6.6.893,8.186,2.419,2.4,2.309,6.464,4.617,8.953,4.8C921.287,856.372,932.986,856.744,937.965,856.894Z" transform="translate(-457.029 -432.231)" opacity="0.1"/>
      <path id="Path_1341" data-name="Path 1341" d="M845.806,872s-8.03,2.951-13.551,3.322a5.156,5.156,0,0,1-5.265-3.332c2.048.688,4.883,1.405,6.374.748,1.767-.788,8.03-1.29,11.543-1.506A4.559,4.559,0,0,0,845.806,872Z" transform="translate(-419.7 -443.29)" opacity="0.1"/>
      <path id="Path_1342" data-name="Path 1342" d="M874.969,368.978c-6.625-2.575-15.147-11.082-13.019-15.056a9,9,0,0,0,.828-3.192,29.139,29.139,0,0,0,.06-4.517,62.037,62.037,0,0,0-.888-7.353s20.682.467,19.478,3.513a11.3,11.3,0,0,0-.311,4.181c.1,1.731.346,3.7.607,5.365.356,2.273.723,4.015.723,4.015s-1.27,1.772-2.008,1.867S884.474,372.667,874.969,368.978Z" transform="translate(-436.949 -178.106)" fill="#cf6f80"/>
      <path id="Path_1343" data-name="Path 1343" d="M840.667,841.8l-.156.171c-6.183-7.478-13.661,1.847-13.661,1.847l-.11-.2.381-4.231,11.729-3.051,1.661,5.084Z" transform="translate(-419.576 -425.905)" opacity="0.1"/>
      <path id="Path_1344" data-name="Path 1344" d="M925.281,835.787s-4.517-.09-6.926,2.038-14.053.457-13.551,0a1.736,1.736,0,0,0,.261-.768l1.581-1.27,18.509-.547C925.226,835.591,925.281,835.787,925.281,835.787Z" transform="translate(-458.453 -425.362)" opacity="0.1"/>
      <path id="Path_1345" data-name="Path 1345" d="M843.286,709.482a14.079,14.079,0,0,0-.763,2.575,29.472,29.472,0,0,0-.346,7.307c.186,3.513,0,27.056,0,27.056s-3.97,6.279-6.188,8.492,4.517,6.188,4.517,6.188c1,5.726-5.079,12.191-5.079,12.191-6.183-7.478-13.661,1.842-13.661,1.842s-4.065-7.026-5.079-9.536,3.97-4.241,5.722-5.265-.09-7.026-.09-7.026-1.475-5.265-3.232-10.068,1.937-28.708,1.937-28.708a37.1,37.1,0,0,1,.647-5.732,9.7,9.7,0,0,0,.135-3.252c-.03-.366-.065-.668-.09-.878s-.045-.3-.045-.3l.07-.12,2.509-4.678S844.49,706.536,843.286,709.482Z" transform="translate(-414.501 -357.783)" fill="#017bff"/>
      <path id="Path_1346" data-name="Path 1346" d="M919.9,772.552s-4.517-.1-6.926,2.008-14.053.462-13.551,0,.457-3.875.457-3.875c-6.831-9.33-1-13.114-1-13.114s-3.047-14.68-3.6-20.125c-.386-3.8-.863-14.053-1.119-19.859-.11-2.509-.176-4.241-.176-4.241l5.531-1.1.718-.141,13.461-2.705s.371,2.509.622,4.562a20.064,20.064,0,0,1,.206,2.645c-.085,1,0,4.151,0,4.151l.462,9.415a10.857,10.857,0,0,0-.462,3.046c.1,1.2,1.847,18.374,1.847,18.374s3.047,10.248,2.008,10.986S919.9,772.552,919.9,772.552Z" transform="translate(-453.069 -362.679)" fill="#017bff"/>
      <path id="Path_1347" data-name="Path 1347" d="M881.758,342.4a11.3,11.3,0,0,0-.311,4.181,17.189,17.189,0,0,1-18.279-.341,62.036,62.036,0,0,0-.888-7.353S882.963,339.357,881.758,342.4Z" transform="translate(-437.279 -178.121)" opacity="0.1"/>
      <path id="Path_1348" data-name="Path 1348" d="M882.919,306.764a17.171,17.171,0,1,1-34.339.412c0-.141,0-.271,0-.412a17.174,17.174,0,1,1,34.349,0Z" transform="translate(-430.455 -153.564)" fill="#cf6f80"/>
      <path id="Path_1349" data-name="Path 1349" d="M874.969,380.758c-6.625-2.575-15.147-11.081-13.019-15.056a9,9,0,0,0,.828-3.192l9.069,7.458,5.611,4.6,4.266-10.856c.356,2.274.723,4.015.723,4.015s-1.27,1.772-2.008,1.867S884.474,384.447,874.969,380.758Z" transform="translate(-436.949 -189.886)" opacity="0.1"/>
      <path id="Path_1350" data-name="Path 1350" d="M876.291,394.385l-7.573,127.227-9.877.647L833.26,448.488l4.2-87.583.888-18.5,11.373,9.34,5.611,4.6,4.391-11.177,8.166,7.117Z" transform="translate(-414.819 -170.554)" fill="#29b6f6"/>
      <path id="Path_1351" data-name="Path 1351" d="M848.356,709.522a14.069,14.069,0,0,0-.763,2.575,72.775,72.775,0,0,1-20.728-6.469l-.135-.07.045-.808v-.422l2.509-4.677S849.561,706.576,848.356,709.522Z" transform="translate(-419.571 -357.822)" opacity="0.1"/>
      <path id="Path_1352" data-name="Path 1352" d="M899.646,719.8a50.826,50.826,0,0,1-5.551.637c-.11-2.509-.176-4.241-.176-4.241l5.561-1.124Z" transform="translate(-453.04 -365.503)" opacity="0.1"/>
      <path id="Path_1353" data-name="Path 1353" d="M920.553,713.962c-3.568.928-9.084,1.972-14.013,1.32l-.07-3.177,13.46-2.705S920.287,711.889,920.553,713.962Z" transform="translate(-459.291 -362.679)" opacity="0.1"/>
      <path id="Path_1354" data-name="Path 1354" d="M841.829,542.263c-20.577,3.513-39.423-6.56-39.423-6.56l.181-3.413s.467-38.69-.828-41.656-2.3-17.987-1.571-20.281-2.675-36.923-2.675-36.923l-.552-14.053-20.221-8.216,9.034-18.836a68.085,68.085,0,0,0,3.142-8.13c1.571-4.893,8.863-9.7,8.863-9.7s7.478-4.8,10.434-4.617,6.831-4.246,6.831-4.246c2.861-7.292,5.45-4.015,5.45-4.015a6.448,6.448,0,0,1-.141,1.079c-1,8.005,16.231,33.3,16.477,33.751h0l1.661,39.98,1.661,50.595Z" transform="translate(-394.67 -189.078)" opacity="0.1"/>
      <path id="Path_1355" data-name="Path 1355" d="M840.714,542.263c-20.577,3.513-39.428-6.56-39.428-6.56l.186-3.413s.462-38.69-.833-41.656-2.3-18-1.566-20.316-2.69-36.908-2.69-36.908l-.557-14.053-20.216-8.216,9.034-18.836a69.1,69.1,0,0,0,3.142-8.125c1.571-4.878,8.888-9.686,8.888-9.686s7.478-4.8,10.429-4.617,6.846-4.241,6.846-4.241c2.866-7.292,6.023-4.015,6.023-4.015,0,.351-.3.5-.141,1.079,2.208,7.764,15.679,33.3,15.925,33.752h0l1.661,39.98,1.626,50.62Z" transform="translate(-394.107 -189.078)" fill="#fff"/>
      <path id="Path_1356" data-name="Path 1356" d="M875.466,398.718c-2.213-.923-13.937-14.309-13.937-14.309v-3.046c-.427-1-2.966-.391-5.019.311l.883-18.5,1,.833C860.59,371.762,875.225,398.272,875.466,398.718Z" transform="translate(-434.405 -190.215)" opacity="0.1"/>
      <path id="Path_1357" data-name="Path 1357" d="M876.571,396.533c-2.218-.928-13.942-14.309-13.942-14.309v-3.051c-.427-1-2.961-.391-5.019.311L858.478,361l1,.828C861.7,369.577,876.325,396.081,876.571,396.533Z" transform="translate(-434.953 -189.134)" fill="#fff"/>
      <path id="Path_1358" data-name="Path 1358" d="M826.759,563.336c.276,0,14.309-1.476,14.309-1.476s8.5,16.713,7.94,20.773-1.566,7.664-4.984,7.026-18.394.5-18.394.5Z" transform="translate(-419.023 -289.187)" opacity="0.1"/>
      <path id="Path_1359" data-name="Path 1359" d="M825.649,561.126c.281,0,14.314-1.476,14.314-1.476s8.492,16.738,7.94,20.753-1.571,7.664-4.984,7.026-18.4.5-18.4.5Z" transform="translate(-418.47 -288.086)" fill="#fff"/>
      <path id="Path_1360" data-name="Path 1360" d="M840.224,547s12.878,6.926,13.154,9.034-6.555-.923-8.03-1.295a19.151,19.151,0,0,0-2.956-.462l-9.842.266Z" transform="translate(-422.47 -281.784)" fill="#cf6f80"/>
      <circle id="Ellipse_345" data-name="Ellipse 345" cx="1.355" cy="1.355" r="1.355" transform="translate(436.108 206.656)" opacity="0.1"/>
      <circle id="Ellipse_346" data-name="Ellipse 346" cx="1.355" cy="1.355" r="1.355" transform="translate(436.108 206.104)" fill="#3f3d56"/>
      <circle id="Ellipse_347" data-name="Ellipse 347" cx="1.355" cy="1.355" r="1.355" transform="translate(438.602 265.316)" opacity="0.1"/>
      <circle id="Ellipse_348" data-name="Ellipse 348" cx="1.355" cy="1.355" r="1.355" transform="translate(438.602 264.759)" fill="#3f3d56"/>
      <circle id="Ellipse_349" data-name="Ellipse 349" cx="1.355" cy="1.355" r="1.355" transform="translate(437.463 235.986)" opacity="0.1"/>
      <circle id="Ellipse_350" data-name="Ellipse 350" cx="1.355" cy="1.355" r="1.355" transform="translate(437.463 235.434)" fill="#3f3d56"/>
      <path id="Path_1361" data-name="Path 1361" d="M926.945,463.234s.923,1.385,0,2.008.09,2.218.09,2.218-2.3,1.345-1.29,2.565.371,6.7.371,6.7l-2.77,4.612s.166,2.956.176,6.951c0,6.233-.366,15-2.394,18.991l.271,32.778s-9.7,3.548-17.822,2.464l-1.2-52.6s1.757-29.827,2.4-35.548a59.554,59.554,0,0,0,.462-8.959s-.276-8.954-1.2-13.1c0,0-1-18.008-1.1-22.991-.045-2.384.08-9.34.221-15.955.156-7.232.331-14.053.331-14.053l-1.832-14.5s1.832-.181,2.384.552a5.281,5.281,0,0,0,.8.617h0c3.167,2.138,14.339,8.713,14.339,8.713s6.183,2.459,7.664,5.982a52.143,52.143,0,0,0,3.227,7.026c.718,1,1.109,5.721,1.109,5.721s2.128,8.683,3.789,10.153,2.856,10.806,2.856,10.806l-14.68,11.543s-1.29,19.2-1.566,19.945S926.945,463.234,926.945,463.234Z" transform="translate(-456.89 -191.023)" fill="#fff"/>
      <path id="Path_1362" data-name="Path 1362" d="M927.487,463.06s.918,1.385,0,2.008.085,2.218.085,2.218-2.3,1.345-1.29,2.565.371,6.7.371,6.7l-2.76,4.612s.166,2.956.181,6.951c0,6.233-.366,15-2.394,18.991l.276,32.778s-9.7,3.548-17.822,2.464l-1.2-52.6s1.752-29.827,2.4-35.548a58.994,58.994,0,0,0,.457-8.959s-.276-8.954-1.2-13.1c0,0-1-18.007-1.109-22.991-.045-2.384.08-9.34.221-15.955.156-7.232.331-14.053.331-14.053l-2.419-14.7s2.419,0,2.976.748a4.766,4.766,0,0,0,.8.617h0c3.162,2.138,14.334,8.713,14.334,8.713s6.168,2.459,7.674,5.982a55.624,55.624,0,0,0,3.227,7.026c.718,1,1.109,5.721,1.109,5.721s2.128,8.683,3.789,10.153,2.861,10.805,2.861,10.805l-14.68,11.543s-1.29,19.2-1.571,19.945S927.487,463.06,927.487,463.06Z" transform="translate(-456.875 -190.848)" fill="#fff"/>
      <path id="Path_1363" data-name="Path 1363" d="M910.449,384.492l1.33,3.865-6.981,7.026c.156-7.232.331-14.053.331-14.053l-2.419-14.69s2.419,0,2.976.748a4.76,4.76,0,0,0,.8.617h0l5.932,17.109Z" transform="translate(-457.418 -191.944)" opacity="0.1"/>
      <path id="Path_1364" data-name="Path 1364" d="M909.319,382.272l1.33,3.859-6.976,7.026c.151-7.232.331-14.053.331-14.053l-2.424-14.7s2.424,0,2.976.748a5.02,5.02,0,0,0,.8.617h0l5.967,17.124Z" transform="translate(-456.855 -190.833)" fill="#fff"/>
      <path id="Path_1365" data-name="Path 1365" d="M882.919,306.764a17.117,17.117,0,0,1-.843,5.325.713.713,0,0,1-.542-.13c-.135-4.517-2.354-8.763-5.089-12.371a13.1,13.1,0,0,0-2.76-2.861,5.4,5.4,0,0,0-3.744-1.059c-1.506.206-2.836,1.23-4.356,1.36-2.008.166-3.8-1.225-5.8-1.29a5.681,5.681,0,0,0-4.261,1.977,11.623,11.623,0,0,0-2.284,4.231,24.782,24.782,0,0,0-1.275,7.307c-.025,1.405-.161,3.167-1.466,3.679a7.478,7.478,0,0,0-1.892-5.721l-.03-.035v-.412a17.174,17.174,0,1,1,34.349,0Z" transform="translate(-430.455 -153.564)" opacity="0.1"/>
      <path id="Path_1366" data-name="Path 1366" d="M867.7,268.364a11.824,11.824,0,0,0-8.341-.652c-1.39.412-2.7,1.079-4.11,1.415-3.011.728-6.524-.06-9.109,1.7a10.873,10.873,0,0,0-3.1,4.135l-2.008,3.819a24.817,24.817,0,0,0-2.655,6.524,8.346,8.346,0,0,0,1.28,6.74c1.059,1.345,2.635,2.193,3.789,3.463a7.528,7.528,0,0,1,1.887,5.736c1.3-.5,1.435-2.273,1.465-3.679a24.815,24.815,0,0,1,1.275-7.307,11.625,11.625,0,0,1,2.284-4.231,5.686,5.686,0,0,1,4.261-1.982c2.008.07,3.809,1.46,5.8,1.29,1.506-.125,2.841-1.149,4.356-1.355a5.38,5.38,0,0,1,3.744,1.059,12.857,12.857,0,0,1,2.755,2.861c2.74,3.614,4.964,7.839,5.094,12.371.567.412,1.385-.13,1.666-.773a18.372,18.372,0,0,1,.647-2.008,7.422,7.422,0,0,1,1.817-1.621c1.566-1.35,1.957-3.624,1.9-5.686s-.462-4.156-.07-6.183c.236-1.24.768-2.409,1.059-3.639a4.758,4.758,0,0,0-.361-3.669c-1-1.551-3.117-1.862-4.959-2.008-2.093-.181-3.965.05-5.3-1.711a19.618,19.618,0,0,0-2.108-2.58C870.37,270.13,867.7,268.474,867.7,268.364Z" transform="translate(-425.269 -142.43)" fill="#512e4e"/>
      <path id="Path_1367" data-name="Path 1367" d="M781.431,470.741l-5.24-9.691-1.661,14.956s.923,6.645.738,7.664,3.784,10.153,3.784,10.153,13.114,23.363,18.469,24.562l18.068-12.928-4.8-6.093s-1.661-.647-2.078,0c0,0-8.913-15.327-9.832-16.432s-.743-3.327-.743-3.327-1.385-1.476-.924-2.861-2.65-6.183-2.65-6.183l2.861-2.675Z" transform="translate(-393.569 -238.971)" opacity="0.1"/>
      <path id="Path_1368" data-name="Path 1368" d="M775.366,458.84l-1.385,1.109-1.661,14.956s.924,6.645.738,7.664,3.789,10.153,3.789,10.153,13.109,23.363,18.464,24.562l18.1-12.928-4.8-6.093s-1.661-.647-2.078,0c0,0-8.908-15.327-9.832-16.432s-.738-3.327-.738-3.327-1.385-1.476-.923-2.861-2.68-6.183-2.68-6.183l2.861-2.675Z" transform="translate(-392.468 -237.87)" fill="#fff"/>
      <path id="Path_1369" data-name="Path 1369" d="M939.263,566.753c1,1.22.371,6.7.371,6.7l-2.77,4.582s.166,2.961.176,6.956l-4.657,1.456a2.77,2.77,0,0,1-3.593-2.73l.808-25.9,10.866,4.151c-.923.642.09,2.218.09,2.218S938.249,565.534,939.263,566.753Z" transform="translate(-470.408 -287.174)" opacity="0.1"/>
      <path id="Path_1370" data-name="Path 1370" d="M940.373,565.648c1,1.215.371,6.7.371,6.7l-2.76,4.587s.166,2.956.181,6.951l-4.743,1.481a2.705,2.705,0,0,1-3.513-2.665l.808-25.987,10.861,4.161c-.928.642.085,2.218.085,2.218S939.359,564.429,940.373,565.648Z" transform="translate(-470.966 -286.621)" fill="#fff"/>
      <path id="Path_1371" data-name="Path 1371" d="M949.311,545.889s-.738,4.713-2.585,4.989-2.675,7.624-4.517,7.368-.622-6.836-.557-8.11-2.008-6.555-.462-7.754,6.464,0,6.464,0Z" transform="translate(-476.3 -279.218)" fill="#cf6f80"/>
      <path id="Path_1372" data-name="Path 1372" d="M951.3,470.626l3.478-7.026a45.466,45.466,0,0,1,1.39,8.216c0,2.861,1.937,3.142,1.937,3.142s2.123,2.509,1,4.341-1.566,6.369-1.566,6.369.366,8.678-1.295,9.877-2.033,4.065-2.033,4.065-3.046,5.445-2.951,6.74-4.246,10.063-4.246,10.063,2.123-10.9-10.248-15.6c0,0-.1-3.694.828-4.708s2.364-1.506,1.46-6.6-.261-11.247-.261-12.477,2.77-8.893,2.77-8.893Z" transform="translate(-474.381 -240.241)" opacity="0.1"/>
      <path id="Path_1373" data-name="Path 1373" d="M953.964,461.6l3.041,1a45.468,45.468,0,0,1,1.39,8.216c0,2.861,1.937,3.142,1.937,3.142s2.123,2.509,1,4.341-1.571,6.369-1.571,6.369.371,8.677-1.29,9.877-2.008,4.065-2.008,4.065-3.046,5.445-2.951,6.74-4.251,10.063-4.251,10.063,2.123-10.9-10.248-15.6c0,0-.09-3.694.833-4.708s2.364-1.506,1.46-6.6-.261-11.247-.261-12.477,2.77-8.893,2.77-8.893Z" transform="translate(-475.502 -239.245)" fill="#fff"/>
      <path id="Path_1374" data-name="Path 1374" d="M834.92,822.843s4.848-3.046,8.03-.833S834.92,822.843,834.92,822.843Z" transform="translate(-423.65 -418.371)" opacity="0.1"/>
      <path id="Path_1375" data-name="Path 1375" d="M910,805.673A9.814,9.814,0,0,1,917.895,809C921.5,812.88,910,805.673,910,805.673Z" transform="translate(-461.049 -410.621)" opacity="0.1"/>
      <g id="Group_402" data-name="Group 402" transform="translate(412.893 135.861)" opacity="0.1">
        <path id="Path_1376" data-name="Path 1376" d="M887.6,310.266c-.617.537-1.41.913-1.822,1.621a18.741,18.741,0,0,0-.642,2.008c-.281.647-1.1,1.184-1.671.773-.13-4.517-2.354-8.758-5.089-12.371a12.834,12.834,0,0,0-2.755-2.856,5.4,5.4,0,0,0-3.749-1.064c-1.506.206-2.831,1.23-4.351,1.36-2.008.166-3.809-1.225-5.8-1.29a5.661,5.661,0,0,0-4.256,1.977,11.624,11.624,0,0,0-2.284,4.231,24.815,24.815,0,0,0-1.275,7.307c-.03,1.4-.161,3.147-1.456,3.669a6.935,6.935,0,0,1,0,1.119c1.31-.5,1.44-2.274,1.471-3.679a24.812,24.812,0,0,1,1.275-7.307,11.622,11.622,0,0,1,2.283-4.231,5.682,5.682,0,0,1,4.256-1.982c2.008.07,3.814,1.46,5.8,1.29,1.506-.125,2.841-1.149,4.351-1.355a5.4,5.4,0,0,1,3.749,1.059,12.859,12.859,0,0,1,2.755,2.861c2.735,3.614,4.959,7.839,5.089,12.371.572.412,1.39-.13,1.671-.773a19.465,19.465,0,0,1,.642-2.008,7.446,7.446,0,0,1,1.822-1.621c1.566-1.35,1.957-3.624,1.9-5.686V305.5A6.6,6.6,0,0,1,887.6,310.266Z" transform="translate(-845.276 -293.79)"/>
        <path id="Path_1377" data-name="Path 1377" d="M843.427,313.873c-1.149-1.27-2.725-2.123-3.784-3.468a7.282,7.282,0,0,1-1.46-4.105,7.734,7.734,0,0,0,1.46,5.215c1.059,1.345,2.635,2.193,3.784,3.463a7.529,7.529,0,0,1,1.9,4.477A7.528,7.528,0,0,0,843.427,313.873Z" transform="translate(-838.155 -297.748)"/>
        <path id="Path_1378" data-name="Path 1378" d="M927.016,290.229c-.3,1.23-.823,2.4-1.064,3.639a11.612,11.612,0,0,0-.156,2.54,9.736,9.736,0,0,1,.156-1.43c.241-1.24.768-2.409,1.064-3.639a6.3,6.3,0,0,0,.166-2.078,6.968,6.968,0,0,1-.166.969Z" transform="translate(-881.804 -289.26)"/>
      </g>
      <ellipse id="Ellipse_351" data-name="Ellipse 351" cx="48.903" cy="7.854" rx="48.903" ry="7.854" transform="translate(17.955 405.311)" fill="#6c63ff" opacity="0.1"/>
      <rect id="Rectangle_468" data-name="Rectangle 468" width="3.147" height="70.851" transform="translate(65.288 262.696)" fill="#535461"/>
      <path id="Path_1379" data-name="Path 1379" d="M148.838,677.958l-.2,3.192-.276,4.517-.115,1.877-.281,4.517-.12,1.877-.276,4.517-3.177,51.227a8.673,8.673,0,0,1-8.657,8.141h-16.5a8.667,8.667,0,0,1-8.657-8.176L107.4,698.42l-.276-4.517-.115-1.877-.286-4.517-.115-1.877-.276-4.517-.2-3.192a4.517,4.517,0,0,1,4.487-4.773h33.736a4.517,4.517,0,0,1,4.482,4.808Z" transform="translate(-60.624 -344.622)" fill="#3f3d56"/>
      <path id="Path_1380" data-name="Path 1380" d="M132.889,670.52l-.281,4.507H90.861l-.281-4.507Z" transform="translate(-44.876 -333.997)" fill="#9d9cb5"/>
      <path id="Path_1381" data-name="Path 1381" d="M132.886,683.24l-.276,4.507H91.651l-.281-4.507Z" transform="translate(-45.269 -340.333)" fill="#9d9cb5"/>
      <path id="Path_1382" data-name="Path 1382" d="M132.883,695.97l-.276,4.5H92.441l-.281-4.5Z" transform="translate(-45.663 -346.674)" fill="#9d9cb5"/>
      <path id="Path_1383" data-name="Path 1383" d="M56.872,581c18.329,13.26,25.962,34,25.962,34s-22.083-.758-40.416-14.018S16.44,567,16.44,567,38.523,567.743,56.872,581Z" transform="translate(-15.95 -291.747)" fill="#29b6f6"/>
      <path id="Path_1384" data-name="Path 1384" d="M16.44,567s22.921,12.723,30.273,23.257,36.1,24.753,36.1,24.753" transform="translate(-15.95 -291.747)" fill="none" stroke="#535461" stroke-miterlimit="10" stroke-width="2"/>
      <path id="Path_1385" data-name="Path 1385" d="M98.7,534.109c9.977,7.212,14.133,18.5,14.133,18.5s-12.045-.412-22-7.624S76.7,526.48,76.7,526.48,88.725,526.892,98.7,534.109Z" transform="translate(-45.967 -271.563)" fill="#29b6f6"/>
      <path id="Path_1386" data-name="Path 1386" d="M76.7,526.48s12.477,6.926,16.482,12.657,19.649,13.471,19.649,13.471" transform="translate(-45.967 -271.563)" fill="none" stroke="#535461" stroke-miterlimit="10" stroke-width="2"/>
      <path id="Path_1387" data-name="Path 1387" d="M163.792,560.962c-11.458,12.592-13.882,29.049-13.882,29.049s16.156-3.965,27.6-16.562S191.4,544.4,191.4,544.4,175.25,548.37,163.792,560.962Z" transform="translate(-82.434 -280.489)" fill="#29b6f6"/>
      <path id="Path_1388" data-name="Path 1388" d="M191.406,544.41s-14.926,12.908-18.72,21.8-22.775,23.8-22.775,23.8" transform="translate(-82.434 -280.494)" fill="none" stroke="#535461" stroke-miterlimit="10" stroke-width="2"/>
    </g>
  </g>
</svg>
