<svg xmlns="http://www.w3.org/2000/svg" width="42.01" height="42.01" viewBox="0 0 42.01 42.01">
  <g id="icon-mobile" transform="translate(-139 -60)">
    <circle id="Ellipse_19" data-name="Ellipse 19" cx="21.005" cy="21.005" r="21.005" transform="translate(139 60)" fill="#fff"/>
    <g id="Group_119" data-name="Group 119" transform="translate(149.406 66.937)">
      <path id="Path_21" data-name="Path 21" d="M17.72,21.873A5.738,5.738,0,0,1,6.262,21.4V14.091c0-1.234,2.358-2.609,5.741-2.609a.522.522,0,0,0,.522-.522V2.609a1.562,1.562,0,0,0-1.117-1.492,1.563,1.563,0,1,0-.084,1.12.518.518,0,0,1,.158.372v7.839c-2.59.1-4.727.955-5.7,2.166a6.105,6.105,0,0,0-4.74-2.162V2.609A.517.517,0,0,1,1.2,2.238a1.568,1.568,0,1,0-.084-1.121A1.564,1.564,0,0,0,0,2.609v8.35a.522.522,0,0,0,.522.522c2.546,0,4.7,1.2,4.7,2.609V21.4a6.781,6.781,0,0,0,13.544.484C20.542,21.637,15.964,21.608,17.72,21.873Z" fill="#29b6f6"/>
      <g id="mouse" transform="translate(16.309 15.521)">
        <g id="Group_118" data-name="Group 118" transform="translate(0 0)">
          <path id="Path_22" data-name="Path 22" d="M2.348,0A2.348,2.348,0,0,0,0,2.348V5.166a2.348,2.348,0,1,0,4.7,0V2.348A2.348,2.348,0,0,0,2.348,0Zm.47,2.818a.47.47,0,1,1-.939,0V1.409a.47.47,0,1,1,.939,0Z" fill="#29b6f6" fill-rule="evenodd"/>
        </g>
      </g>
    </g>
  </g>
</svg>
