<svg xmlns="http://www.w3.org/2000/svg" xmlns:xlink="http://www.w3.org/1999/xlink" width="264" height="378" viewBox="0 0 264 378">
  <defs>
    <linearGradient id="linear-gradient" x1="0.5" x2="-0.333" y2="1.315" gradientUnits="objectBoundingBox">
      <stop offset="0" stop-color="#d537cd"/>
      <stop offset="1" stop-color="#9c27b0"/>
    </linearGradient>
  </defs>
  <g id="mvp3" transform="translate(-369 -1856)">
    <rect id="Rectangle_21" data-name="Rectangle 21" width="264" height="340" transform="translate(369 1894)" fill="url(#linear-gradient)"/>
    <g id="Group_52" data-name="Group 52" transform="translate(8)">
      <g id="Ellipse_15" data-name="Ellipse 15" transform="translate(466 1856)" fill="#fff" stroke="#fdfefe" stroke-width="8">
        <circle cx="27.5" cy="27.5" r="27.5" stroke="none"/>
        <circle cx="27.5" cy="27.5" r="23.5" fill="none"/>
      </g>
      <g id="Group_7" data-name="Group 7" transform="translate(-1119 1792)">
        <g id="application-rkCtvyRQN" transform="translate(1581.91 59.91)">
          <g id="Group_6" data-name="Group 6" transform="translate(19.09 19.09)">
            <path id="Path_1" data-name="Path 1" d="M14.136,13a6.5,6.5,0,1,0-6.5-6.5,6.508,6.508,0,0,0,6.5,6.5Z" transform="translate(-1.636 0)" fill="#29b6f6"/>
            <path id="Path_2" data-name="Path 2" d="M20.292,16.172a.5.5,0,0,0-.686.059,9.469,9.469,0,0,1-14.213,0,.5.5,0,0,0-.686-.059A12.444,12.444,0,0,0,0,25.942v2a.5.5,0,0,0,.5.5h24a.5.5,0,0,0,.5-.5v-2a12.444,12.444,0,0,0-4.708-9.77Z" transform="translate(0 -3.442)" fill="#29b6f6"/>
          </g>
        </g>
        <g id="Ellipse_2" data-name="Ellipse 2" transform="translate(1593 72)" fill="none" stroke="#29b6f6" stroke-width="2">
          <circle cx="20" cy="20" r="20" stroke="none"/>
          <circle cx="20" cy="20" r="19" fill="none"/>
        </g>
      </g>
    </g>
    <text id="Lorem_Ipsum_is_simply_dummy_text_of_the_printing_and_typesetting_industry._Lorem_Ipsum_has_been_the_industry_s_standard_dummy_text_" data-name="Lorem Ipsum is simply dummy text of the printing and typesetting industry. Lorem Ipsum has been 
the industry&apos;s standard dummy text " transform="translate(397 2001)" fill="#f6f9fc" font-size="11" font-family="Montserrat-Regular, Montserrat"><tspan x="0" y="11">Lorem Ipsum is simply dummy text of </tspan><tspan x="0" y="25">the printing and typesetting industry. </tspan><tspan x="0" y="39">Lorem Ipsum has been </tspan><tspan x="0" y="53">the industry&apos;s standard dummy text </tspan></text>
    <text id="Lorem_Ipsum_is_simply_dummy_text_of_the_printing_and_typesetting_industry._Lorem_Ipsum_has_been_the_industry_s_standard_dummy_text_2" data-name="Lorem Ipsum is simply dummy text of the printing and typesetting industry. Lorem Ipsum has been 
the industry&apos;s standard dummy text " transform="translate(397 2079)" fill="#f6f9fc" font-size="11" font-family="Montserrat-Regular, Montserrat"><tspan x="0" y="11">Lorem Ipsum is simply dummy text of </tspan><tspan x="0" y="25">the printing and typesetting industry. </tspan><tspan x="0" y="39">Lorem Ipsum has been </tspan><tspan x="0" y="53">the industry&apos;s standard dummy text </tspan></text>
    <text id="Increasing_the_efficiency_of_your_work_lets_focus_more_on_the_job_at_hand" data-name="Increasing the efficiency of your work lets focus more on the job at hand" transform="translate(413 1951)" fill="#f6f9fc" font-size="9" font-family="Montserrat-Light, Montserrat" font-weight="300"><tspan x="4.943" y="9">Increasing the efficiency of your work </tspan><tspan x="11.747" y="20">lets focus more on the job at hand</tspan></text>
    <text id="Productivity" transform="translate(501 1936)" fill="#f6f9fc" font-size="25" font-family="Montserrat-Medium, Montserrat" font-weight="500"><tspan x="-77.088" y="0">Productivity</tspan></text>
  </g>
</svg>
