<svg xmlns="http://www.w3.org/2000/svg" xmlns:xlink="http://www.w3.org/1999/xlink" width="909.326" height="1073.593" viewBox="0 0 909.326 1073.593">
  <defs>
    <linearGradient id="linear-gradient" x1="0.5" x2="0.5" y2="1" gradientUnits="objectBoundingBox">
      <stop offset="0" stop-color="#c65587"/>
      <stop offset="1" stop-color="#9c27b0"/>
    </linearGradient>
  </defs>
  <g id="sign-up-bg" transform="translate(-1001 -6)">
    <path id="Rectangle_228" data-name="Rectangle 228" d="M0,0H698a15,15,0,0,1,15,15V1053.75a15,15,0,0,1-15,15H0a0,0,0,0,1,0,0V0A0,0,0,0,1,0,0Z" transform="translate(1197 6)" fill="#29b6f6"/>
    <g id="clouds" transform="translate(1001 86.64)">
      <path id="Path_437" data-name="Path 437" d="M116.612,147.961h26.9a79.009,79.009,0,0,1,47.825-38.217,27.71,27.71,0,0,0-33.894-15.889c.014-.42.032-.84.032-1.264a37.232,37.232,0,0,0-73.542-8.238,22.348,22.348,0,0,0-25.452,8.485,28.01,28.01,0,1,0-7.044,55.12H96.208" transform="translate(-6.956 0)" fill="#9fdef7"/>
      <path id="Path_438" data-name="Path 438" d="M262.62,152.394a78.843,78.843,0,0,0-134.5,36.392,47.3,47.3,0,0,0-53.9,17.968A59.316,59.316,0,1,0,59.309,323.481H124.7A36.732,36.732,0,0,1,172.4,288.7c-.016-.555-.041-1.112-.041-1.675A49.373,49.373,0,0,1,269.879,276.1a29.617,29.617,0,0,1,33.748,11.253,37.181,37.181,0,0,1,41.185,16.838,58.642,58.642,0,0,0-61.019-95.28c.029-.888.068-1.778.068-2.674a78.493,78.493,0,0,0-9.031-36.674" transform="translate(0 -21.385)" fill="#beeafc"/>
      <path id="Path_439" data-name="Path 439" d="M62.884,237.693q-1.774-.108-3.574-.11a59.31,59.31,0,0,0,0,118.62H124.7a36.546,36.546,0,0,1,4.545-17.452A184.062,184.062,0,0,1,62.884,237.693Z" transform="translate(0 -54.108)" fill="#aee4ff"/>
      <path id="Path_440" data-name="Path 440" d="M64.336,150.708A183.843,183.843,0,0,1,72.772,95.5a22.35,22.35,0,0,0-14.3,9.26,28.01,28.01,0,1,0-7.044,55.12H64.565Q64.341,155.32,64.336,150.708Z" transform="translate(-6.956 -11.918)" fill="#83d4ed"/>
      <path id="Path_441" data-name="Path 441" d="M365.632,330.5a37.178,37.178,0,0,0-9.34,1.187,29.618,29.618,0,0,0-33.748-11.253,49.373,49.373,0,0,0-97.523,10.925c0,.562.025,1.119.041,1.675a36.713,36.713,0,1,0-10.991,71.744H365.634a37.139,37.139,0,1,0,0-74.277Z" transform="translate(-52.666 -67.292)" fill="#e4f2f9"/>
      <path id="Path_442" data-name="Path 442" d="M253.22,321.8a91.494,91.494,0,0,1,7.864-37.221A49.387,49.387,0,0,0,225.02,332.13c0,.562.025,1.119.041,1.675a36.713,36.713,0,1,0-10.991,71.744h93.281A91.825,91.825,0,0,1,253.22,321.8Z" transform="translate(-52.665 -68.065)" fill="#d7edf9"/>
    </g>
    <path id="clouds_1_" data-name="clouds (1)" d="M373.384,371.689A71.84,71.84,0,0,0,389.64,229.871a131.6,131.6,0,0,0-246.814-62.363A56.078,56.078,0,0,0,65,211.645,80.8,80.8,0,0,0,80.8,371.689Z" transform="translate(1465.098 707.904)" fill="#fdfefe"/>
    <g id="Group_239" data-name="Group 239">
      <path id="Path_474" data-name="Path 474" d="M1406.006,596.334s-12.191-106.67,6.1-143.242,44.7-3.048,55.875-22.35,0-240.768,0-240.768H1546.2" transform="translate(344 61)" fill="none" stroke="#f6f9fc" stroke-width="5"/>
      <circle id="Ellipse_91" data-name="Ellipse 91" cx="25.5" cy="25.5" r="25.5" transform="translate(1728 650)" fill="#f6f9fc"/>
      <circle id="Ellipse_92" data-name="Ellipse 92" cx="25.5" cy="25.5" r="25.5" transform="translate(1859 221)" fill="#f6f9fc"/>
    </g>
    <g id="undraw_profile_6l1l" transform="translate(1307 454)">
      <line id="Line_32" data-name="Line 32" x2="65.842" transform="translate(0 294.01)" fill="none" stroke="#3f3d56" stroke-miterlimit="10" stroke-width="1"/>
      <rect id="Rectangle_244" data-name="Rectangle 244" width="292.324" height="197.923" rx="19.398" transform="translate(96.383 50.672)" fill="#f2f2f2"/>
      <rect id="Rectangle_245" data-name="Rectangle 245" width="292.324" height="197.923" rx="19.398" transform="translate(87.459 38.178)" fill="none" stroke="#3f3d56" stroke-miterlimit="10" stroke-width="1"/>
      <line id="Line_33" data-name="Line 33" x2="292.324" transform="translate(87.459 57.153)" fill="none" stroke="#3f3d56" stroke-miterlimit="10" stroke-width="1"/>
      <rect id="Rectangle_246" data-name="Rectangle 246" width="79.725" height="12.296" rx="6.148" transform="translate(262.179 101.64)" fill="#017bff" opacity="0.3"/>
      <rect id="Rectangle_247" data-name="Rectangle 247" width="110.266" height="9.916" rx="4.958" transform="translate(246.908 135.751)" fill="#017bff" opacity="0.3"/>
      <rect id="Rectangle_248" data-name="Rectangle 248" width="110.266" height="9.916" rx="4.958" transform="translate(246.908 162.723)" fill="#017bff" opacity="0.3"/>
      <rect id="Rectangle_249" data-name="Rectangle 249" width="110.266" height="9.916" rx="4.958" transform="translate(246.908 189.694)" fill="#017bff" opacity="0.3"/>
      <rect id="Rectangle_250" data-name="Rectangle 250" width="79.725" height="12.296" rx="6.148" transform="translate(266.145 97.674)" fill="none" stroke="#3f3d56" stroke-miterlimit="10" stroke-width="1"/>
      <rect id="Rectangle_251" data-name="Rectangle 251" width="110.266" height="9.916" rx="4.958" transform="translate(250.875 131.785)" fill="none" stroke="#3f3d56" stroke-miterlimit="10" stroke-width="1"/>
      <rect id="Rectangle_252" data-name="Rectangle 252" width="110.266" height="9.916" rx="4.958" transform="translate(250.875 158.756)" fill="none" stroke="#3f3d56" stroke-miterlimit="10" stroke-width="1"/>
      <rect id="Rectangle_253" data-name="Rectangle 253" width="110.266" height="9.916" rx="4.958" transform="translate(250.875 185.728)" fill="none" stroke="#3f3d56" stroke-miterlimit="10" stroke-width="1"/>
      <circle id="Ellipse_93" data-name="Ellipse 93" cx="5.95" cy="5.95" r="5.95" transform="translate(103.721 44.127)" fill="#6c63ff" opacity="0.3"/>
      <circle id="Ellipse_94" data-name="Ellipse 94" cx="5.95" cy="5.95" r="5.95" transform="translate(120.38 44.127)" fill="#6c63ff" opacity="0.3"/>
      <circle id="Ellipse_95" data-name="Ellipse 95" cx="5.95" cy="5.95" r="5.95" transform="translate(137.039 44.127)" fill="#6c63ff" opacity="0.3"/>
      <circle id="Ellipse_96" data-name="Ellipse 96" cx="5.95" cy="5.95" r="5.95" transform="translate(106.101 41.748)" fill="none" stroke="#3f3d56" stroke-miterlimit="10" stroke-width="1"/>
      <circle id="Ellipse_97" data-name="Ellipse 97" cx="5.95" cy="5.95" r="5.95" transform="translate(122.76 41.748)" fill="none" stroke="#3f3d56" stroke-miterlimit="10" stroke-width="1"/>
      <circle id="Ellipse_98" data-name="Ellipse 98" cx="5.95" cy="5.95" r="5.95" transform="translate(139.419 41.748)" fill="none" stroke="#3f3d56" stroke-miterlimit="10" stroke-width="1"/>
      <path id="Path_478" data-name="Path 478" d="M514.72,593.434a59.141,59.141,0,0,1-.925-15.215s-5.037-22.127-9-24.192h0c-.061.078-1.984,2.6-2.228,10.4a32.079,32.079,0,0,1-3.054,13.127s.908,9.879.389,15.877Z" transform="translate(-334.902 -365.663)" fill="#017bff"/>
      <path id="Path_479" data-name="Path 479" d="M476.837,298.379H385.429A9.429,9.429,0,0,0,376,307.808V429.757a9.429,9.429,0,0,0,9.429,9.429H417.5c-1.071-4.442-2.4-11.38-1.054-16.2v0c.063-.225.13-.447.2-.663a25.186,25.186,0,0,0,.909-9.66,20.074,20.074,0,0,0,0-8.421c-.991-4.623-1.684-9.164-1.684-9.164a59.222,59.222,0,0,1-.069-9.854c.011-.082.023-.16.034-.24l-.263-.06s1.4-6.357,1.9-10.4c.117-.955.271-2.166.438-3.457a8.3,8.3,0,0,1-1.346-.341c-4.458-1.569-5.862-15.769-5.862-15.769v-4.5s-1.486-6.894,3.715-9.949a60.5,60.5,0,0,1,7.15-3.8c.038-.027.075-.052.114-.082a4.387,4.387,0,0,0,1.3-1.679q.01-.17,0-.338c-.085-1.613-1.207-3.08-2.273-4.36L418,326.963a3.2,3.2,0,0,1-.7-1.136,2.62,2.62,0,0,1-.074-.716q0-.134,0-.267.022-1.221.066-2.441c.026-.711.2-1.608.9-1.754.362-.076.841.056,1.033-.26a.621.621,0,0,0,.046-.421c0,.011,0,.022-.006.032l-.007-.04a8.9,8.9,0,0,1-.258-1.74,2.318,2.318,0,0,1,.112-.781c.4-1.18,1.792-1.664,3.019-1.887s2.6-.414,3.375-1.4a10.7,10.7,0,0,1,.67-.942,2.63,2.63,0,0,1,1.256-.633,6.94,6.94,0,0,1,4.564.405,4.022,4.022,0,0,0,1.841.594c.676-.043,1.254-.519,1.922-.635a2.734,2.734,0,0,1,2.641,1.578,3.907,3.907,0,0,1,.489,1.992,2.742,2.742,0,0,1-.7,1.881c-.464.492-1.157.831-1.349,1.479-.079.264-.06.548-.13.815-.009.033-.023.064-.034.1l.039.049a8.421,8.421,0,0,1-4.1,13.1c0,.084-.006.167-.006.251a3.638,3.638,0,0,0,1.126,2.8L441.089,340s4.429-.537,6.027,6.072a11.434,11.434,0,0,1,.274,3.355,10.007,10.007,0,0,0,1.213,5.021c1.816,3.633,1.4,11.972-2.312,12.8-3.519.782-4.888.453-5.023.417l-.008.146c.058,1.565.615,15.06,2.637,16.693.559.452.452.757-.007.962h0s0,.087.012.243c.061.987.373,4.746,1.726,6.884,1.569,2.477,1.4,16.761,1.4,16.761l1.072,8.421s-.66,5.2,0,6.109c.375.515.829,8.489,1.152,15.3h27.578a9.429,9.429,0,0,0,9.429-9.429V307.808a9.429,9.429,0,0,0-9.429-9.429Z" transform="translate(-260.379 -211.415)" fill="#017bff"/>
      <rect id="Rectangle_254" data-name="Rectangle 254" width="110.266" height="140.807" rx="23.772" transform="translate(106.101 76.255)" fill="none" stroke="#3f3d56" stroke-miterlimit="10" stroke-width="1"/>
      <path id="Path_480" data-name="Path 480" d="M178.194,400.059s-3.7-1.094-4.492.1,1.082,9.816,1.082,9.816l8.149.5-2.844-7.182Z" transform="translate(-138.203 -272.488)" fill="#2f2e41"/>
      <path id="Path_481" data-name="Path 481" d="M103.98,579.347s7.415,16.279,1.7,15.768-7.926-15.768-7.926-15.768Z" transform="translate(-92.499 -380.94)" fill="#a0616a"/>
      <path id="Path_482" data-name="Path 482" d="M234.238,572.779s-3.253,17.59,2.164,15.711,3.873-17.218,3.873-17.218Z" transform="translate(-174.261 -376.068)" fill="#a0616a"/>
      <path id="Path_483" data-name="Path 483" d="M156.972,385.928s-.085,8.182,3.068,8.608-1.79,4.773-1.79,4.773l-5.625,1.108-8.1-.6-3.58-4.6s6.307-2.983,3.58-12.273Z" transform="translate(-118.559 -262.439)" fill="#a0616a"/>
      <path id="Path_484" data-name="Path 484" d="M156.972,385.928s-.085,8.182,3.068,8.608-1.79,4.773-1.79,4.773l-5.625,1.108-8.1-.6-3.58-4.6s6.307-2.983,3.58-12.273Z" transform="translate(-118.559 -262.439)" opacity="0.1"/>
      <path id="Path_485" data-name="Path 485" d="M162.212,564.927s4.006,8.608.852,35.626c0,0,.938,9.546.17,11.336s-7.074,26.081-7.074,26.081-8.1,1.79-9.2-3.58c0,0,1.108-7.671,1.023-8.864s1.79-14.234,1.79-14.234l-3.835-25.228-2.9,22.757s0,6.563-.938,8.012,0,30.6,0,30.6,2.642,4.432-1.364,4.517-7.585-.085-7.926-2.9-.511-5.625-1.364-7.33-1.96-21.222-1.7-28.041-5.625-41.848-3.75-45.513S162.212,564.927,162.212,564.927Z" transform="translate(-109.31 -372.23)" fill="#017bff"/>
      <circle id="Ellipse_99" data-name="Ellipse 99" cx="10.228" cy="10.228" r="10.228" transform="translate(23.839 106.103)" fill="#a0616a"/>
      <path id="Path_486" data-name="Path 486" d="M136.564,409.909s6.222,4.6,15.256.938c0,0,2.983-1.449,2.727-3.665s6.222,17.813,6.222,17.813l6.563,34.859-.341,14.233s-2.9-1.449-11.932,1.79-23.779-3.665-23.779-3.665l.511-36.564.511-21.308,1.364-4.688S134.348,408.375,136.564,409.909Z" transform="translate(-112.725 -276.958)" fill="url(#linear-gradient)"/>
      <path id="Path_487" data-name="Path 487" d="M182.063,399.882s1.506-.245,2.955,2.057,4.858,3.75,4.858,3.75,8.267.511,9.461,4.943,4.176,10.483,5.625,21.649,4.347,28.978,4.773,30.427-.6,5.881.6,7.245-8.438,1.364-8.438,1.364-.852-6.989-1.449-6.989-.426,4.688.17,8.1-4.347,0-4.347,0-3.835-15.6-7.5-29.66-5.8-21.819-5.114-24.973,2.557-12.188,1.193-13.04S182.063,399.882,182.063,399.882Z" transform="translate(-143.366 -272.653)" fill="#f6f9fc"/>
      <path id="Path_488" data-name="Path 488" d="M113.958,399.874a92.844,92.844,0,0,0-7.852,5.218c-5.625,4.006-9.461,7.074-9.461,7.074s-2.216,1.7-3.58,11.847-4.432,36.394-3.239,39.717,1.619,5.284,1.193,7.245,8.949,1.875,9.12,1.449-.256-8.182.17-8.353,2.727,4.6,3.154,8.608,5.37,7.159,6.478,7.159,6.818-23.1,6.9-38.865-1.875-29.064-3.324-30.939S113.958,399.874,113.958,399.874Z" transform="translate(-87.551 -272.653)" fill="#f6f9fc"/>
      <path id="Path_489" data-name="Path 489" d="M177.333,736.458a2.4,2.4,0,0,1,3.068-1.279,4.142,4.142,0,0,0,4.006-1.534s1.278-.17.426,1.449-1.534,2.727-1.534,2.727,5.114,11.677,1.79,14.489a7.127,7.127,0,0,1-7.159,1.108s-3.75-2.642-3.58-9.631a15.571,15.571,0,0,0-2.216-5.8c-2.046-3.58-3.58-9.034-1.108-10.057a13.388,13.388,0,0,1,3.108-1.061s-1.157,5.29,1.831,7.139Z" transform="translate(-135.937 -469.952)" fill="#566573"/>
      <path id="Path_490" data-name="Path 490" d="M145.121,777.39s-2.046-3.835,1.364-4.262,7.074-.682,6.9,1.108-.6,4.517-.6,4.517l.6,1.96s.17,4.858.767,5.455,3.835,5.71-3.068,5.71-8.949-.767-8.353-2.386.767-9.631.767-9.631Z" transform="translate(-119.577 -497.673)" fill="#566573"/>
      <path id="Path_491" data-name="Path 491" d="M140.915,340.047s4.773,1.278,7.245,1.79,2.216-.938,2.216-.938,3.239.426,3.068.085,1.364-2.131-.426-4.176-1.278-3.58-1.278-3.58h-1.534l-.426-.6h-2.386s-1.79-.682-6.478,0-11.08.852-11.591,3.665-3.154,6.307-2.216,7.926,6.307,8.267,6.818,11.08,2.9,3.438,2.813,1.676-2.472-7.9-.427-8.154S141.853,343.371,140.915,340.047Z" transform="translate(-110.087 -231.899)" fill="#2f2e41"/>
      <path id="Path_492" data-name="Path 492" d="M1006.389,86.584a9.116,9.116,0,0,0-7.857,5.494c-1.965,4.749.565,10.328,4.363,13.791s8.676,5.443,13.108,8.045c5.953,3.495,11.3,8.346,14.282,14.574s3.3,13.942-.206,19.891c-3.25,5.522-9.159,8.827-14.8,11.875" transform="translate(-635.578 -83.626)" fill="none" stroke="#3f3d56" stroke-miterlimit="10" stroke-width="1"/>
      <ellipse id="Ellipse_100" data-name="Ellipse 100" cx="7" cy="3.5" rx="7" ry="3.5" transform="translate(369)" fill="#6c63ff"/>
      <ellipse id="Ellipse_101" data-name="Ellipse 101" cx="7" cy="3.5" rx="7" ry="3.5" transform="translate(374 22)" fill="#6c63ff"/>
      <ellipse id="Ellipse_102" data-name="Ellipse 102" cx="7" cy="3.5" rx="7" ry="3.5" transform="translate(362 26)" fill="#6c63ff"/>
      <ellipse id="Ellipse_103" data-name="Ellipse 103" cx="6.5" cy="3.5" rx="6.5" ry="3.5" transform="translate(382 44)" fill="#6c63ff"/>
      <ellipse id="Ellipse_104" data-name="Ellipse 104" cx="7" cy="3.5" rx="7" ry="3.5" transform="translate(395 44)" fill="#6c63ff"/>
    </g>
  </g>
</svg>
